<svg width="278" height="83" viewBox="0 0 278 83" fill="none" xmlns="http://www.w3.org/2000/svg">
<rect x="2" y="23" width="276" height="60" rx="20" fill="white" fill-opacity="0.2"/>
<path d="M18 58.7281V51.8106L11.25 48.5339H3C2.20435 48.5339 1.44129 48.6874 0.87868 48.9605C0.31607 49.2336 0 49.604 0 49.9902V58.7281C0 59.1143 0.31607 59.4848 0.87868 59.7579C1.44129 60.031 2.20435 60.1844 3 60.1844H15C15.7956 60.1844 16.5587 60.031 17.1213 59.7579C17.6839 59.4848 18 59.1143 18 58.7281ZM11.25 50.7184C11.25 51.0081 11.4871 51.2859 11.909 51.4907C12.331 51.6956 12.9033 51.8106 13.5 51.8106H16.5V58.7281C16.5 58.9212 16.342 59.1064 16.0607 59.243C15.7794 59.3795 15.3978 59.4563 15 59.4563H3C2.60218 59.4563 2.22064 59.3795 1.93934 59.243C1.65804 59.1064 1.5 58.9212 1.5 58.7281V49.9902C1.5 49.7971 1.65804 49.6119 1.93934 49.4754C2.22064 49.3388 2.60218 49.2621 3 49.2621H11.25V50.7184Z" fill="#FFFAFA"/>
<path d="M45.9666 35.5171C45.8479 41.3313 42.7513 46.6879 36.9788 50.5157C35.3636 51.6195 33.6538 52.5777 31.8695 53.3792C29.7403 54.2725 27.5527 55.0197 25.3219 55.6154C23.0911 56.2321 20.7992 56.627 18.5317 57.1057C18.2586 57.1474 17.9814 57.1568 17.7061 57.1336C17.034 57.1109 16.6902 56.7266 16.6745 56.0854C16.6588 55.4442 16.9642 55.0092 17.5944 54.8956C18.5527 54.7209 19.5302 54.6441 20.4833 54.4449C22.0386 54.1164 23.5781 53.7233 25.1247 53.3582C25.1491 53.3582 25.1701 53.3355 25.1945 53.3285C26.7236 52.7939 26.7341 52.7921 26.4461 51.2006C25.7845 47.5527 25.479 43.8821 25.8927 40.1852C26.3553 36.0499 27.736 32.3024 30.7122 29.2712C32.4787 27.4718 34.5839 26.1615 36.8915 25.1918C38.5183 24.5087 40.1853 23.9252 41.8366 23.3032C42.6536 22.9957 43.0917 23.1809 43.5089 24.037C45.0973 27.2831 45.9422 30.7108 45.9666 35.5171ZM31.3581 50.9892C31.7805 50.8826 32.0196 50.8686 32.2134 50.7673C35.6242 48.9905 38.7226 46.8433 40.9324 43.5885C42.1196 41.8766 42.9457 39.9404 43.3605 37.8983C43.844 35.4524 43.9104 32.9558 43.3465 30.5082C43.0166 29.0791 42.5017 27.6936 42.0566 26.2942C41.9431 25.9448 41.786 25.6513 41.2973 25.8662C39.5517 26.6367 37.7416 27.2848 36.0466 28.1566C31.5169 30.4872 29.047 34.3133 28.2719 39.2977C27.7762 42.4809 27.9577 45.6623 28.3191 48.8403C28.3976 49.5391 28.5634 50.2257 28.7258 51.1272C29.2494 50.5105 29.6684 50.0789 30.021 49.6072C30.693 48.7005 31.6443 48.0139 31.0578 46.5184C30.2304 44.4079 30.3317 42.1105 30.6197 39.8882C30.8169 38.3595 31.2638 36.8588 31.6531 35.3598C31.8154 34.7326 32.4089 34.4042 32.8226 34.5928C33.3463 34.827 33.5034 35.3808 33.2642 35.9905C32.6127 37.6261 32.2581 39.3649 32.2169 41.1252C32.1855 42.6643 32.0982 44.2157 32.6358 45.8056C32.8104 45.6309 32.9727 45.547 33.0443 45.4125C33.835 43.938 34.6484 42.4757 35.3711 40.9697C35.626 40.4456 35.9192 39.6926 35.7359 39.2226C34.9173 37.1593 35.1459 35.0873 35.406 32.9943C35.4706 32.4701 35.708 32.0526 36.3277 32.1504C36.895 32.2395 37.1114 32.6483 37.0643 33.1987C36.991 34.0495 36.8897 34.8986 36.8286 35.7512C36.8283 35.9939 36.847 36.2363 36.8845 36.4762L37.1219 36.5094C37.2092 36.298 37.2965 36.0901 37.3802 35.8752C37.8707 34.509 38.3717 33.1445 38.8413 31.7713C39.0647 31.1214 39.5884 31.0865 40.0544 31.2472C40.5624 31.4219 40.5676 31.9355 40.4035 32.3985C39.6215 34.5911 38.8465 36.7872 38.0366 38.9693C37.6421 40.0332 37.1743 41.0658 36.7414 42.114L36.8862 42.2538C37.2501 41.9945 37.5965 41.7114 37.9231 41.4064C38.3665 40.9417 38.7103 40.3687 39.1904 39.9494C39.3981 39.7747 39.9567 39.71 40.1469 39.8603C40.3878 40.0525 40.6252 40.6447 40.4961 40.8352C39.351 42.6399 37.8638 44.062 35.7673 44.7416C35.4794 44.8551 35.2323 45.053 35.0586 45.3094C33.9101 46.9429 32.7894 48.5922 31.6601 50.2449C31.5378 50.4836 31.4367 50.7327 31.3581 50.9892Z" fill="url(#paint0_linear_0_1)"/>
<path d="M55.7453 35.6953C55.8536 38.5321 55.4848 41.3669 54.6543 44.0813C53.2578 48.7337 50.6098 52.5581 46.9983 55.7448C45.159 57.3573 43.1302 58.7395 40.9569 59.8609C39.272 60.762 37.5363 61.5647 35.7586 62.2649C33.8385 62.9969 31.8661 63.5752 29.8866 64.1185C27.9071 64.6618 25.8997 65.0759 23.9063 65.5511C22.7752 65.8219 22.3964 65.2576 22.2707 64.5326C22.1573 63.8739 22.8642 63.3498 23.6846 63.203C25.2207 62.9305 26.7551 62.6178 28.258 62.2037C30.4958 61.5835 32.7266 60.9214 34.919 60.1596C36.2484 59.6843 37.5364 59.1 38.7697 58.4126C40.4332 57.5023 42.0706 56.531 43.6398 55.4687C46.0644 53.8282 48.0177 51.6898 49.6986 49.305C51.0264 47.3987 52.0292 45.2852 52.6661 43.0505C53.4743 40.2884 53.6576 37.4249 53.5022 34.5527C53.3395 31.2187 52.6636 27.9299 51.4983 24.8023C51.3728 24.4469 51.2827 24.08 51.2295 23.7069C51.1282 23.1024 51.5123 22.7442 51.994 22.5608C52.4758 22.3773 52.9785 22.5084 53.1898 23.0342C53.6258 24.0664 54.0091 25.1201 54.3383 26.1912C55.246 29.4076 55.8831 32.6799 55.7453 35.6953Z" fill="url(#paint1_linear_0_1)"/>
<path d="M50.9118 35.1328C50.7687 40.1801 49.6742 43.9712 47.384 47.3973C45.649 49.9934 43.4513 52.1144 40.9045 53.9069C37.9703 55.9771 34.7776 57.5023 31.4105 58.6886C29.6213 59.3176 27.8286 59.9465 25.9992 60.4479C24.2188 60.9388 22.3964 61.2865 20.588 61.6604C19.7275 61.8351 19.1026 61.4315 19.017 60.7257C18.921 59.9587 19.4342 59.4765 20.3157 59.3018C22.0438 58.9612 23.7684 58.5925 25.4703 58.147C27.284 57.6718 29.0959 57.1634 30.8624 56.538C32.3199 56.0138 33.7233 55.3412 35.125 54.6808C37.4973 53.5828 39.7051 52.1592 41.6848 50.4511C44.3468 48.1223 46.4502 45.334 47.604 41.9184C48.7124 38.6357 48.8259 35.2987 48.3231 31.8937C47.9287 29.1945 47.0349 26.6525 46.0539 24.1384C45.8218 23.5409 45.4482 23.0011 45.1811 22.4175C44.9542 21.9354 44.7709 21.4304 45.2073 20.9483C45.9213 20.1586 46.6893 20.2145 47.1606 21.1963C48.5361 24.0703 49.7615 27.0124 50.2921 30.1746C50.6116 32.1261 50.7844 34.1002 50.9118 35.1328Z" fill="url(#paint2_linear_0_1)"/>
<path d="M65.1433 34.4497C65.0682 35.0437 65.2341 35.7198 64.5114 36.0221C63.6142 36.3995 62.909 35.8683 62.8042 34.7991C62.6297 32.9752 62.4988 31.1442 62.2509 29.3308C61.7604 25.7493 60.9522 22.2376 59.4109 18.9479C57.7666 15.438 55.5794 12.3579 52.4287 9.97667C48.9969 7.38925 45.1899 6.41088 40.9639 6.6677C38.4739 6.8083 36.0186 7.31757 33.6779 8.17892C31.6583 8.92842 29.6631 9.73207 27.6645 10.5427C26.9191 10.8467 26.1633 10.7332 25.8823 10.1846C25.4948 9.42634 25.7199 8.96161 26.6521 8.49689C29.0234 7.32578 31.4974 6.37545 34.0427 5.65789C37.0503 4.80532 40.1068 4.20782 43.268 4.34409C45.1749 4.44481 47.0568 4.82446 48.8538 5.47095C52.214 6.63101 54.9056 8.72925 57.2324 11.3132C59.5593 13.8971 61.3502 16.8392 62.3556 20.1778C63.1499 22.8089 63.8341 25.4855 64.3735 28.1795C64.7837 30.234 64.8972 32.355 65.1433 34.4497Z" fill="url(#paint3_linear_0_1)"/>
<path d="M41.6446 9.25854C46.6422 9.32493 50.4998 11.3323 53.6261 14.8597C57.0195 18.691 58.6027 23.3295 59.4894 28.2598C59.7635 29.7867 59.9485 31.3329 60.1405 32.8755C60.2522 33.763 59.8176 34.413 59.1386 34.4811C58.4596 34.5492 57.9324 33.9028 57.8678 32.9996C57.6665 30.025 57.1049 27.0858 56.1956 24.2467C55.0208 20.625 53.2421 17.3248 50.3427 14.7461C49.051 13.5955 47.5381 12.721 45.8968 12.1762C43.6485 11.4214 41.3444 11.3515 39.042 11.7708C37.066 12.1325 35.0709 12.5081 33.1665 13.1336C30.8972 13.8796 28.7659 15.0064 26.7393 16.308C24.652 17.6539 22.7201 19.2272 20.979 20.9989C20.8801 21.1088 20.7603 21.1979 20.6267 21.2611C20.4931 21.3242 20.3482 21.3602 20.2006 21.3668C20.053 21.3735 19.9055 21.3507 19.7667 21.2999C19.628 21.249 19.5007 21.1711 19.3923 21.0705C18.8913 20.5691 18.7971 19.9594 19.3312 19.4754C20.9371 18.0201 22.5256 16.5229 24.2729 15.2493C25.7967 14.1381 27.4986 13.2576 29.1726 12.3701C30.899 11.4529 32.7615 10.8816 34.6362 10.3103C37.0119 9.58874 39.44 9.49265 41.6446 9.25854Z" fill="url(#paint4_linear_0_1)"/>
<path d="M60.2505 38.4381C59.9922 42.7534 59.2433 47.1194 57.1085 51.1918C54.6997 55.7988 51.1352 59.2493 46.8097 61.9975C43.8718 63.8958 40.7096 65.4216 37.396 66.5399C35.4043 67.1985 33.4213 67.8834 31.4262 68.5263C30.693 68.7544 29.9477 68.9411 29.1936 69.0854C28.539 69.2164 28.3208 68.6696 28.1463 68.2223C28.1017 68.0849 28.0849 67.94 28.0969 67.7961C28.1088 67.6521 28.1493 67.512 28.2159 67.3839C28.2825 67.2557 28.374 67.1422 28.4849 67.0497C28.5958 66.9573 28.724 66.8879 28.8619 66.8456C30.6407 66.3215 32.4473 65.8917 34.1999 65.2925C36.1392 64.6268 38.0401 63.8354 39.9357 63.0579C40.962 62.6628 41.9604 62.1988 42.9241 61.669C47.0855 59.2755 50.9537 56.5256 53.7117 52.4724C55.7175 49.5597 57.0142 46.2175 57.4978 42.7132C57.7474 40.8998 57.8748 39.0671 57.9778 37.2379C58.0406 36.118 58.8733 35.6463 59.6483 36.0429C59.7879 36.1286 59.9091 36.2411 60.005 36.3739C60.1008 36.5068 60.1695 36.6573 60.2069 36.8169C60.3221 37.2798 60.2505 37.7708 60.2505 38.4381Z" fill="url(#paint5_linear_0_1)"/>
<path d="M51.7985 19.9594C51.5472 20.2372 51.3063 20.6722 50.9397 20.8626C50.5051 21.0897 50.025 20.9517 49.7021 20.4818C49.2081 19.7637 48.7595 18.995 48.1625 18.3713C47.0489 17.2077 45.6105 16.6242 44.0256 16.3988C43.3134 16.2993 42.5768 16.0582 41.8925 16.1577C40.1934 16.3755 38.5126 16.7177 36.8636 17.1815C35.2376 17.6905 33.6522 18.3212 32.1209 19.0684C29.5194 20.2934 27.2011 22.0468 25.3132 24.217C23.4385 26.3589 22.2306 28.9044 20.8114 31.3276C19.7205 33.1848 18.3677 34.8357 16.383 35.7984C15.7528 36.1024 15.0127 36.2055 14.3092 36.3225C13.6058 36.4396 13.1991 36.0465 13.1327 35.3738C13.0896 35.0807 13.1639 34.7824 13.3395 34.5439C13.515 34.3054 13.7776 34.1459 14.0701 34.1002C16.5401 33.6949 17.8457 31.9391 18.9577 29.9736C20.677 26.9093 22.3423 23.8204 24.91 21.3396C26.8835 19.3976 29.1939 17.8317 31.7281 16.7186C33.1089 16.1193 34.4739 15.4537 35.9053 15.0082C38.9093 14.0752 41.9693 13.5616 45.1218 14.2779C48.0159 14.9365 50.2066 16.4932 51.5227 19.1977C51.61 19.3829 51.6606 19.5768 51.7985 19.9594Z" fill="url(#paint6_linear_0_1)"/>
<path d="M65.0874 39.7503C64.9468 44.8815 63.6052 49.908 61.1704 54.4258C59.5867 57.3996 57.5277 60.0943 55.0749 62.4029C52.6486 64.6916 49.9517 66.6571 46.8848 68.0338C45.1078 68.8322 43.3117 69.6061 41.4928 70.2945C40.5711 70.6439 39.5831 70.8308 38.6144 71.0422C37.8944 71.1977 37.1658 71.3097 36.4324 71.3777C35.7866 71.4371 35.5596 70.9514 35.5265 70.4342C35.4985 69.8909 35.715 69.4192 36.3207 69.2567C37.6822 68.8898 39.035 68.4845 40.407 68.163C42.6606 67.6389 44.736 66.6553 46.7539 65.5809C49.6082 64.0481 52.205 62.0774 54.45 59.7404C56.6006 57.5233 58.4212 55.0844 59.6867 52.2839C60.5996 50.2625 61.4759 48.1765 61.9699 46.0258C62.4936 43.7302 62.5791 41.3279 62.8008 38.9659C62.9003 37.9176 63.1673 37.5298 64.0384 37.542C64.7366 37.5525 65.0717 37.8914 65.0857 38.6147C65.0927 38.9956 65.0874 39.373 65.0874 39.7503Z" fill="url(#paint7_linear_0_1)"/>
<path d="M42.2154 18.761C43.0568 18.7732 43.4897 19.0807 43.5647 19.7551C43.6398 20.4294 43.2855 20.7893 42.5611 20.9518C39.4383 21.6507 36.3521 22.5242 33.5365 24.0476C30.7765 25.4996 28.4612 27.6731 26.8371 30.3371C25.5646 32.4458 24.3392 34.5825 23.0196 36.6615C21.8665 38.5309 20.1304 39.9682 18.0796 40.7514C16.9328 41.1882 15.7022 41.4276 14.489 41.6547C13.6669 41.8102 13.0926 41.3158 13.0594 40.6064C13.0297 39.8762 13.5272 39.4446 14.3407 39.3415C15.7238 39.1717 17.0601 38.7312 18.2734 38.0452C20.5269 36.7856 21.6999 34.7013 22.8328 32.5978C24.793 28.9587 27.0326 25.5676 30.5324 23.2352C32.3967 21.9931 34.3727 20.9186 36.5651 20.3176C38.0401 19.9141 39.4959 19.4441 40.9639 19.0213C41.3776 18.9112 41.8 18.8483 42.2154 18.761Z" fill="url(#paint8_linear_0_1)"/>
<path d="M42.376 0.121338C44.9805 0.122432 47.5708 0.503817 50.0652 1.25344C52.6838 2.01015 55.1196 3.29628 57.222 5.03237C58.1297 5.78536 58.8907 6.72529 59.678 7.6163C60.1301 8.12819 60.1179 8.99125 59.7373 9.33193C59.2695 9.74773 58.409 9.66387 57.9412 9.06987C56.6541 7.43178 55.0589 6.0619 53.2456 5.03761C51.6292 4.12214 49.8889 3.53513 48.0788 3.05817C45.6053 2.40477 43.1231 2.49387 40.6252 2.53405C40.0038 2.53405 39.3859 2.68081 38.7627 2.70876C37.9982 2.73496 37.6229 2.3873 37.5688 1.69021C37.5501 1.54004 37.5626 1.38763 37.6055 1.24252C37.6484 1.09741 37.7208 0.962739 37.8182 0.846942C37.9155 0.731144 38.0357 0.636717 38.1712 0.569578C38.3067 0.50244 38.4546 0.464037 38.6056 0.456776C40.0737 0.296045 41.5452 0.192968 42.376 0.121338Z" fill="url(#paint9_linear_0_1)"/>
<path d="M22.6181 43.4575C23.0283 43.91 23.531 44.2891 23.2343 45.0159C22.9742 45.6466 22.3859 45.7794 21.8588 45.9174C19.5896 46.5062 17.3203 47.039 14.9359 46.9097C14.2831 46.8731 13.6896 46.4555 13.7053 45.8231C13.7175 45.2465 14.0823 44.8307 14.7212 44.7573C15.3915 44.6805 16.0635 44.6263 16.7268 44.511C18.2629 44.2472 19.7938 43.9502 21.3264 43.6707C21.7453 43.5955 22.1555 43.5326 22.6181 43.4575Z" fill="url(#paint10_linear_0_1)"/>
<path d="M14.1172 29.4828C14.3058 27.8265 14.9272 26.0969 15.8628 24.4774C16.163 23.9533 16.5087 23.4693 16.8106 22.9539C17.2296 22.2411 17.9068 21.9179 18.4462 22.1992C18.9402 22.4578 19.113 23.3628 18.7552 24.0336C18.2978 24.8914 17.7218 25.6951 17.3483 26.5844C16.9065 27.6894 16.5334 28.8208 16.2311 29.9719C15.9902 30.8245 15.7598 31.0202 14.7858 30.9031C14.2674 30.8402 14.1068 30.5537 14.1172 29.4828Z" fill="url(#paint11_linear_0_1)"/>
<path d="M16.4772 52.1284C16.1578 51.9852 15.5922 51.8716 15.2554 51.5309C15.0389 51.3108 15.0267 50.7011 15.1663 50.3726C15.2903 50.0861 15.7371 49.8188 16.074 49.7646C17.8894 49.4781 19.7152 49.2667 21.5359 49.0099C21.974 48.9487 22.3982 48.7915 22.8345 48.7234C23.552 48.6116 23.9308 49.0466 24.0442 49.6668C24.1507 50.2468 23.8697 50.6976 23.2657 50.8391C21.9461 51.1501 20.6247 51.4628 19.2946 51.7266C18.4427 51.8943 17.5734 51.9747 16.4772 52.1284Z" fill="url(#paint12_linear_0_1)"/>
<defs>
<linearGradient id="paint0_linear_0_1" x1="16.678" y1="40.152" x2="45.9666" y2="40.152" gradientUnits="userSpaceOnUse">
<stop stop-color="#DEB373"/>
<stop offset="0.22" stop-color="#D39C45"/>
<stop offset="0.5" stop-color="#C5810E"/>
<stop offset="0.59" stop-color="#BF7C10"/>
<stop offset="1" stop-color="#A86518"/>
</linearGradient>
<linearGradient id="paint1_linear_0_1" x1="22.2585" y1="44.0446" x2="55.7645" y2="44.0446" gradientUnits="userSpaceOnUse">
<stop stop-color="#56AE31"/>
<stop offset="0.38" stop-color="#009540"/>
<stop offset="1" stop-color="#005321"/>
</linearGradient>
<linearGradient id="paint2_linear_0_1" x1="19.0031" y1="41.0519" x2="50.9118" y2="41.0519" gradientUnits="userSpaceOnUse">
<stop stop-color="#56AE31"/>
<stop offset="0.38" stop-color="#009540"/>
<stop offset="1" stop-color="#005321"/>
</linearGradient>
<linearGradient id="paint3_linear_0_1" x1="25.6937" y1="20.2303" x2="65.1433" y2="20.2303" gradientUnits="userSpaceOnUse">
<stop stop-color="#56AE31"/>
<stop offset="0.38" stop-color="#009540"/>
<stop offset="1" stop-color="#005321"/>
</linearGradient>
<linearGradient id="paint4_linear_0_1" x1="18.9734" y1="21.8724" x2="60.158" y2="21.8724" gradientUnits="userSpaceOnUse">
<stop stop-color="#56AE31"/>
<stop offset="0.38" stop-color="#009540"/>
<stop offset="1" stop-color="#005321"/>
</linearGradient>
<linearGradient id="paint5_linear_0_1" x1="28.1026" y1="52.5091" x2="60.2732" y2="52.5091" gradientUnits="userSpaceOnUse">
<stop stop-color="#56AE31"/>
<stop offset="0.38" stop-color="#009540"/>
<stop offset="1" stop-color="#005321"/>
</linearGradient>
<linearGradient id="paint6_linear_0_1" x1="13.1205" y1="25.1482" x2="51.7985" y2="25.1482" gradientUnits="userSpaceOnUse">
<stop stop-color="#56AE31"/>
<stop offset="0.38" stop-color="#009540"/>
<stop offset="1" stop-color="#005321"/>
</linearGradient>
<linearGradient id="paint7_linear_0_1" x1="35.5247" y1="54.466" x2="65.0892" y2="54.466" gradientUnits="userSpaceOnUse">
<stop stop-color="#56AE31"/>
<stop offset="0.38" stop-color="#009540"/>
<stop offset="1" stop-color="#005321"/>
</linearGradient>
<linearGradient id="paint8_linear_0_1" x1="13.0647" y1="30.2218" x2="43.5735" y2="30.2218" gradientUnits="userSpaceOnUse">
<stop stop-color="#56AE31"/>
<stop offset="0.38" stop-color="#009540"/>
<stop offset="1" stop-color="#005321"/>
</linearGradient>
<linearGradient id="paint9_linear_0_1" x1="37.5635" y1="4.85592" x2="60.0201" y2="4.85592" gradientUnits="userSpaceOnUse">
<stop stop-color="#56AE31"/>
<stop offset="0.38" stop-color="#009540"/>
<stop offset="1" stop-color="#005321"/>
</linearGradient>
<linearGradient id="paint10_linear_0_1" x1="13.7035" y1="45.1924" x2="23.3233" y2="45.1924" gradientUnits="userSpaceOnUse">
<stop stop-color="#56AE31"/>
<stop offset="0.38" stop-color="#009540"/>
<stop offset="1" stop-color="#005321"/>
</linearGradient>
<linearGradient id="paint11_linear_0_1" x1="14.1172" y1="26.5162" x2="18.9507" y2="26.5162" gradientUnits="userSpaceOnUse">
<stop stop-color="#56AE31"/>
<stop offset="0.38" stop-color="#009540"/>
<stop offset="1" stop-color="#005321"/>
</linearGradient>
<linearGradient id="paint12_linear_0_1" x1="15.0738" y1="50.4163" x2="24.0669" y2="50.4163" gradientUnits="userSpaceOnUse">
<stop stop-color="#56AE31"/>
<stop offset="0.38" stop-color="#009540"/>
<stop offset="1" stop-color="#005321"/>
</linearGradient>
</defs>
</svg>
