<?xml version="1.0" standalone="no"?>
<!DOCTYPE svg PUBLIC "-//W3C//DTD SVG 20010904//EN"
 "http://www.w3.org/TR/2001/REC-SVG-20010904/DTD/svg10.dtd">
<svg version="1.0" xmlns="http://www.w3.org/2000/svg"
 width="734.000000pt" height="310.000000pt" viewBox="0 0 734.000000 310.000000"
 preserveAspectRatio="xMidYMid meet">

<g transform="translate(0.000000,310.000000) scale(0.100000,-0.100000)"
fill="#000000" stroke="none">
<path d="M1105 2580 c-1 -3 -3 -17 -3 -32 0 -27 2 -28 57 -28 127 0 270 -59
366 -151 65 -62 97 -73 103 -34 4 31 -96 126 -176 168 -37 19 -93 43 -126 52
-60 18 -215 35 -221 25z"/>
<path d="M1005 2453 c-97 -20 -156 -37 -162 -46 -4 -6 -1 -7 7 -2 10 6 11 4 4
-6 -26 -41 -13 -46 61 -24 70 22 208 29 280 16 143 -26 289 -135 373 -277 78
-131 113 -247 137 -449 8 -70 17 -130 20 -136 10 -15 45 -10 52 8 22 58 -55
418 -117 548 -91 190 -263 331 -445 364 -57 11 -169 13 -210 4z"/>
<path d="M948 2300 c-66 -12 -163 -45 -228 -79 -43 -22 -54 -33 -54 -52 0 -13
-5 -28 -10 -32 -15 -12 4 -5 100 38 184 81 382 97 498 40 152 -76 260 -255
300 -500 25 -149 24 -147 49 -143 30 4 33 45 12 167 -45 263 -157 441 -334
529 -70 35 -81 37 -180 39 -58 1 -127 -2 -153 -7z"/>
<path d="M1005 2165 c-163 -31 -333 -120 -430 -226 -64 -69 -102 -131 -103
-166 0 -18 -1 -34 -2 -35 -1 -2 -3 -11 -5 -20 -7 -36 15 -17 51 44 20 35 54
84 76 111 113 135 364 246 529 234 84 -5 135 -30 177 -87 38 -50 53 -58 71
-36 18 21 5 52 -41 102 -68 74 -191 104 -323 79z"/>
<path d="M963 1996 c-198 -64 -313 -159 -419 -348 -33 -57 -73 -119 -90 -138
-20 -22 -33 -49 -36 -72 l-4 -37 31 18 c36 23 73 70 140 181 141 232 214 285
498 365 51 14 58 19 55 38 -5 33 -56 31 -175 -7z"/>
<path d="M1191 1966 c-8 -10 -4 -29 20 -82 68 -151 95 -334 69 -475 -25 -135
-134 -286 -274 -382 -93 -63 -336 -167 -390 -167 -8 0 -12 -12 -12 -34 1 -18
5 -32 11 -31 170 51 277 93 375 150 269 157 394 392 359 676 -13 107 -37 195
-81 292 -31 68 -52 83 -77 53z"/>
<path d="M343 1903 c-37 -56 -53 -104 -53 -163 0 -79 20 -80 44 -2 10 31 30
80 45 107 15 28 26 58 24 68 -7 26 -39 20 -60 -10z"/>
<path d="M1375 1907 c-3 -7 6 -54 20 -103 94 -323 40 -588 -159 -787 -95 -96
-260 -191 -419 -243 -98 -31 -102 -34 -105 -63 l-3 -30 70 19 c233 65 435 183
551 323 63 77 133 219 154 314 42 191 -11 571 -82 581 -12 2 -24 -3 -27 -11z"/>
<path d="M1005 1862 c-86 -36 -90 -39 -93 -71 -3 -25 0 -32 10 -28 7 3 46 20
87 37 40 18 77 28 81 23 19 -21 52 -146 57 -218 10 -161 -36 -278 -161 -400
-71 -70 -81 -84 -76 -108 l5 -27 56 44 c112 88 172 165 210 272 42 114 25 343
-34 464 -12 25 -29 46 -37 47 -8 2 -55 -14 -105 -35z"/>
<path d="M4910 1480 l0 -280 50 0 50 0 0 280 0 280 -50 0 -50 0 0 -280z"/>
<path d="M5132 1694 c-42 -29 -14 -94 40 -94 22 0 58 34 58 55 0 21 -36 55
-58 55 -10 0 -28 -7 -40 -16z"/>
<path d="M2580 1449 l0 -252 133 5 c184 7 234 32 244 121 6 55 -16 101 -61
128 l-33 20 33 33 c66 66 35 158 -62 185 -21 6 -87 11 -146 11 l-108 0 0 -251z
m224 139 c21 -30 20 -44 -4 -68 -14 -14 -33 -20 -65 -20 l-45 0 0 55 0 55 49
0 c40 0 53 -4 65 -22z m20 -184 c9 -8 16 -31 16 -49 0 -46 -29 -65 -97 -65
l-53 0 0 65 0 65 59 0 c41 0 65 -5 75 -16z"/>
<path d="M5790 1450 l0 -250 155 0 155 0 0 50 0 50 -100 0 -100 0 0 200 0 200
-55 0 -55 0 0 -250z"/>
<path d="M6170 1450 l0 -250 60 0 60 0 0 250 0 250 -60 0 -60 0 0 -250z"/>
<path d="M6370 1693 c0 -12 243 -503 250 -503 3 0 63 115 133 255 l127 255
-68 0 -67 0 -60 -150 c-33 -82 -62 -150 -65 -150 -3 0 -32 66 -65 148 l-60
147 -63 3 c-34 2 -62 -1 -62 -5z"/>
<path d="M6950 1450 l0 -250 165 0 165 0 0 50 0 50 -110 0 -110 0 0 60 0 60
100 0 100 0 0 45 0 45 -100 0 -100 0 0 50 0 50 110 0 110 0 0 45 0 45 -165 0
-165 0 0 -250z"/>
<path d="M1007 1653 c-2 -5 -14 -38 -26 -75 -13 -37 -27 -70 -32 -73 -5 -4 -9
22 -9 59 0 39 -4 66 -10 66 -14 0 -32 -49 -23 -63 10 -16 11 -109 3 -175 -4
-29 -3 -55 2 -58 4 -3 6 -10 2 -15 -3 -6 -7 -21 -9 -34 -2 -24 -2 -24 29 -8
44 22 106 84 106 105 0 28 -22 21 -59 -17 -18 -19 -37 -35 -42 -35 -5 0 1 24
12 53 46 115 89 240 89 258 0 18 -24 27 -33 12z"/>
<path d="M3840 1585 c0 -54 0 -55 -30 -55 -28 0 -30 -2 -30 -40 0 -38 2 -40
30 -40 l30 0 0 -125 0 -125 50 0 50 0 0 125 0 125 30 0 c28 0 30 2 30 40 0 38
-2 40 -30 40 -30 0 -30 1 -30 55 l0 55 -50 0 -50 0 0 -55z"/>
<path d="M5394 1521 c-57 -26 -87 -78 -88 -150 -1 -78 27 -129 87 -160 55 -28
101 -23 147 15 l30 26 0 -101 0 -101 50 0 50 0 0 240 0 240 -50 0 c-48 0 -50
-1 -50 -27 l0 -27 -29 28 c-38 36 -93 43 -147 17z m150 -92 c21 -16 26 -29 26
-64 0 -35 -5 -48 -26 -64 -57 -45 -134 -8 -134 64 0 72 77 109 134 64z"/>
<path d="M3115 1506 c-94 -57 -109 -179 -33 -253 42 -40 76 -53 141 -53 174 1
243 201 104 304 -21 15 -46 21 -100 24 -62 2 -77 0 -112 -22z m164 -82 c65
-83 -40 -194 -116 -122 -30 28 -32 95 -3 126 31 33 92 30 119 -4z"/>
<path d="M3509 1501 c-55 -56 -31 -115 65 -156 67 -28 85 -48 65 -71 -17 -20
-49 -17 -96 10 l-43 25 -20 -29 -21 -29 26 -17 c87 -57 197 -57 245 1 19 23
16 92 -5 115 -10 11 -44 30 -76 41 -69 25 -87 42 -69 64 17 20 38 19 85 -5 21
-11 39 -19 40 -17 8 10 25 48 25 55 0 18 -79 42 -136 42 -48 0 -59 -4 -85 -29z"/>
<path d="M4135 1515 c-65 -35 -95 -83 -95 -152 1 -127 157 -205 281 -140 109
58 118 207 17 279 -43 30 -157 37 -203 13z m134 -75 c31 -16 45 -63 31 -104
-16 -50 -63 -70 -115 -50 -26 10 -48 62 -40 100 10 54 73 82 124 54z"/>
<path d="M4490 1365 l0 -165 49 0 49 0 4 121 c3 106 5 122 22 135 27 19 52 18
76 -6 18 -18 20 -33 20 -135 l0 -115 51 0 51 0 -4 141 c-3 140 -3 141 -31 165
-40 35 -114 34 -156 -2 l-31 -26 0 26 c0 25 -3 26 -50 26 l-50 0 0 -165z"/>
<path d="M5120 1365 l0 -165 50 0 50 0 0 165 0 165 -50 0 -50 0 0 -165z"/>
<path d="M1582 1508 c-7 -7 -12 -30 -12 -52 0 -71 -28 -231 -50 -287 -79 -199
-263 -366 -526 -476 -92 -38 -113 -50 -117 -70 -2 -13 -1 -26 3 -28 11 -7 140
39 223 79 252 121 417 295 487 514 36 109 59 294 40 317 -15 18 -32 19 -48 3z"/>
<path d="M1721 1448 c-4 -13 -11 -60 -14 -105 -24 -320 -229 -599 -550 -748
-60 -28 -71 -37 -73 -59 -1 -31 -2 -31 64 -6 324 123 545 382 614 719 10 51
18 121 16 155 -3 55 -5 61 -25 64 -17 2 -25 -3 -32 -20z"/>
<path d="M413 1276 c-103 -20 -103 -20 -103 -49 l0 -30 53 6 c137 15 194 42
164 79 -10 13 -25 12 -114 -6z"/>
<path d="M435 1123 c-83 -15 -96 -23 -88 -54 7 -24 30 -24 129 -2 77 17 96 32
74 58 -14 17 -10 17 -115 -2z"/>
</g>
</svg>
