<svg width="114" height="206" viewBox="0 0 114 206" fill="none" xmlns="http://www.w3.org/2000/svg">
<path d="M80.9686 194.648C80.5906 198.702 81.496 201.683 83.8277 205.703L84.5203 205.677C82.6142 201.035 82.7826 198.188 83.5387 192.967L80.9686 194.648Z" fill="#42665F"/>
<path d="M59.3157 201.371C59.3157 203.723 60.5578 205.636 62.1335 205.645C63.7092 205.655 64.9926 203.761 65.0148 201.41C65.0371 199.058 63.7695 197.145 62.2002 197.133C60.6309 197.12 59.3347 199.02 59.3157 201.371Z" fill="#847063"/>
<path d="M59.5476 203.125C59.897 201.333 61.0057 200.024 62.3146 200.031C63.4709 200.031 64.4525 201.073 64.8878 202.55C64.9632 202.175 65.0026 201.793 65.0053 201.41C65.0244 199.058 63.76 197.145 62.1907 197.133C60.6213 197.12 59.3315 199.02 59.3061 201.371C59.3019 201.965 59.3833 202.555 59.5476 203.125Z" fill="#604C40"/>
<path d="M62.3557 200.062C61.1295 199.856 60.3734 197.031 59.8746 194.819H58.9216C59.3663 196.091 60.1478 202.172 61.9713 202.477C64.176 202.84 68.1343 194.683 68.1343 194.683H67.2353C65.8661 197.082 63.7567 200.294 62.3557 200.062Z" fill="#34564F"/>
<path d="M54.4138 161.919H47.3614V163.934H54.4138V161.919Z" fill="#34564F"/>
<path d="M58.6357 192.494C38.5488 194.4 53.5337 114.939 43.4506 119.112L43.2377 117.437C55.659 113.036 37.5386 193.911 60.4591 191.518L58.6357 192.494Z" fill="#34564F"/>
<path d="M57.3428 195.182C60.5005 197.905 81.55 195.601 83.2337 194.546C84.9174 193.491 89.3395 138.806 87.8654 137.351C86.3914 135.895 55.2397 135.253 53.7657 137.986C52.2917 140.719 54.185 192.455 57.3428 195.182Z" fill="#5A9187"/>
<path d="M64.065 157.394C66.2347 171.948 74.6882 183.374 84.6951 186.844C86.617 171.49 89.006 138.479 87.8719 137.344C86.9855 136.464 75.4188 135.886 65.9837 136.153C63.7123 142.317 62.9181 149.695 64.065 157.394Z" fill="#6AADA0"/>
<path d="M88.1608 141.326L55.6718 145.167L56.5549 138.364L88.2244 138.05L88.1608 141.326Z" fill="#1C9E3C"/>
<path d="M61.4537 191.013C55.6941 187.371 55.7863 151.967 57.4414 136.76C55.4051 137.055 54.0327 137.452 53.7531 137.973C52.2791 140.696 54.1725 192.455 57.3302 195.169C60.4879 197.883 81.5374 195.588 83.2211 194.533C83.4943 194.362 83.8564 192.764 84.2249 190.209C78.2144 192.525 65.6661 193.669 61.4537 191.013Z" fill="#1C9E3C"/>
<path d="M87.3096 135.619C87.1613 134.944 86.7777 134.345 86.2277 133.927C85.6776 133.51 84.9969 133.302 84.3075 133.341L56.7425 134.872C54.5187 134.993 53.7849 136.918 53.5943 138.618H87.9735L87.3096 135.619Z" fill="#87C6BA"/>
<path d="M92.6942 137.014C92.8721 137.843 90.7119 138.901 85.5178 138.523L85.6099 136.445C85.6099 136.445 92.4115 135.692 92.6942 137.014Z" fill="#87C6BA"/>
<path d="M43.8668 119.442C32.8179 123.125 32.4303 122.372 32.0618 121.425C31.6933 120.478 32.3445 119.159 43.7746 116.798L43.8668 119.442Z" fill="#577F76"/>
<path d="M68.4108 174.775C67.9961 174.083 67.7765 173.292 67.7755 172.484C67.7755 170.101 69.6149 168.198 71.9053 168.233C72.6321 168.246 73.3415 168.457 73.9575 168.843L76.0224 166.619C74.714 165.383 72.9928 164.679 71.1937 164.642C67.1274 164.576 63.8299 167.979 63.8299 172.243C63.8262 174.194 64.5344 176.08 65.8218 177.546L68.4108 174.775Z" fill="#CAEF97"/>
<path d="M75.7842 171.191C75.9388 171.651 76.0182 172.133 76.0193 172.618C76.0193 175.001 74.1735 176.904 71.8894 176.869C71.4754 176.861 71.0651 176.789 70.6727 176.657L68.1503 179.357C69.0922 179.825 70.1264 180.077 71.1778 180.095C75.2441 180.161 78.5416 176.755 78.5416 172.491C78.5429 171.304 78.2826 170.131 77.7792 169.056L75.7842 171.191Z" fill="#CAEF97"/>
<path d="M75.0629 172.536L75.5521 168.837H79.4278L75.0629 172.536Z" fill="#CAEF97"/>
<path d="M69.0809 173.06L68.6996 177.537L64.0234 177.756L69.0809 173.06Z" fill="#CAEF97"/>
<path d="M60.7419 152.695C60.7419 151.742 60.6815 151.65 60.6815 150.906C60.6815 150.163 60.7069 149.425 60.7196 149.079C60.7196 148.844 60.8181 148.806 60.9547 148.806C61.0151 148.806 61.0786 148.806 61.139 148.806C61.3264 148.806 61.5488 148.841 62.092 148.841C62.6352 148.841 63.4707 148.729 63.9568 148.729C64.4428 148.729 65.1004 148.78 65.3355 148.78C65.5706 148.78 65.596 148.892 65.596 149.127C65.596 149.362 65.6468 149.686 65.6468 150.08C65.6494 150.233 65.6367 150.387 65.6087 150.537C65.6087 150.687 65.5229 150.725 65.434 150.725C65.3414 150.711 65.2501 150.69 65.1608 150.661C64.8019 150.626 64.4411 150.614 64.0807 150.626C63.763 150.626 63.4453 150.601 63.1276 150.601C63.0155 150.595 62.903 150.595 62.7909 150.601C62.6066 150.601 62.3684 150.626 62.1333 150.626C61.8347 150.626 61.5488 150.626 61.4757 150.626C61.3391 150.626 61.3518 150.687 61.3518 150.874C61.3518 151.062 61.3137 151.631 61.3137 152.066V152.8C61.3137 152.937 61.3137 153.06 61.3137 153.197C61.4248 153.204 61.5361 153.204 61.6472 153.197C61.8601 153.197 62.1714 153.197 62.5177 153.197C62.9783 153.197 63.5374 153.146 63.836 153.146C64.1347 153.146 64.3062 153.184 64.446 153.184C64.5858 153.184 64.6048 153.245 64.6048 153.334C64.6048 153.423 64.5794 153.483 64.5794 153.718C64.5794 153.953 64.5794 154.068 64.5794 154.376C64.5794 154.538 64.5413 154.576 64.4682 154.576C64.3952 154.576 64.3316 154.538 64.2458 154.538C64.0457 154.538 63.7852 154.513 63.0037 154.513C62.5131 154.521 62.0232 154.555 61.5361 154.614C61.4824 154.624 61.4276 154.624 61.374 154.614C61.3391 154.614 61.3137 154.614 61.301 154.614V155.857C61.3463 155.862 61.3922 155.862 61.4376 155.857C61.5233 155.857 61.6472 155.857 61.7838 155.857C62.0697 155.857 62.6924 155.857 63.2515 155.857C63.6613 155.857 64.3189 155.882 64.8145 155.882C65.0401 155.882 65.2275 155.882 65.3387 155.882C65.5483 155.882 65.5865 155.993 65.5865 156.143C65.5865 156.219 65.5865 156.317 65.5865 156.391C65.5865 156.642 65.5865 156.902 65.5865 157.261C65.5865 157.62 65.3863 157.534 64.9892 157.534C64.5921 157.534 63.4008 157.509 62.8036 157.509C62.2064 157.509 61.0023 157.56 60.8403 157.56C60.8181 157.56 60.7927 157.56 60.7673 157.56C60.6561 157.56 60.6688 157.461 60.6688 157.347C60.6688 157.233 60.6688 157.029 60.6688 156.889C60.6688 156.75 60.6434 156.616 60.6434 156.356V154.652C60.6561 153.874 60.7419 153.651 60.7419 152.695Z" fill="#CAEF97"/>
<path d="M72.5468 156.085C72.5446 156.133 72.5316 156.18 72.5087 156.222C72.2617 156.659 71.9022 157.022 71.4677 157.274C71.0331 157.525 70.5392 157.656 70.0372 157.652C68.4107 157.652 66.8604 155.688 66.8604 153.105C66.8604 150.522 68.3757 148.755 69.7671 148.755C70.1927 148.743 70.6148 148.834 70.9976 149.021C71.3803 149.207 71.7124 149.483 71.9655 149.826C72.0381 149.895 72.086 149.987 72.1021 150.086C72.1021 150.134 72.0672 150.198 71.9655 150.283C71.6658 150.516 71.3911 150.779 71.1459 151.068C71.0093 151.24 70.8854 151.386 70.7615 151.386C70.7211 151.381 70.6822 151.368 70.6476 151.346C70.613 151.325 70.5835 151.296 70.5613 151.262C70.3263 151.001 70.1293 150.741 69.818 150.741C69.2716 150.741 68.4774 151.376 68.4774 153.413C68.4774 155.45 69.5956 155.834 69.9419 155.834C70.2779 155.775 70.5844 155.605 70.8123 155.351C70.8981 155.263 70.9362 155.202 70.9966 155.202C71.0499 155.203 71.1018 155.22 71.1459 155.25L72.2038 155.834C72.3848 155.927 72.5468 155.962 72.5468 156.085Z" fill="#CAEF97"/>
<path d="M80.4032 153.079C80.4032 153.925 80.1649 157.639 76.8229 157.639C75.1488 157.639 74.3291 156.448 73.8939 155.24C73.6276 154.464 73.4808 153.652 73.4587 152.831C73.4587 150.607 75.0471 148.57 76.6736 148.57C77.3566 148.57 77.9443 148.545 78.3891 148.831C80.041 149.937 80.4032 152.422 80.4032 153.079ZM79.3707 153.079C79.3707 151.052 78.4177 149.301 76.9341 149.301C76.4767 149.301 76.1272 149.263 75.7809 149.651C75.3019 150.061 74.9172 150.569 74.6534 151.142C74.3896 151.715 74.253 152.338 74.2529 152.968C74.2529 154.919 74.9105 156.943 76.7626 156.943C78.6146 156.943 79.3707 155.116 79.3707 153.079Z" fill="#CAEF97"/>
<path d="M87.5032 136.258L61.0595 136.35L86.6518 134.179C87.3952 134.99 87.5032 135.527 87.5032 136.258Z" fill="#B5EAE0"/>
<path d="M57.94 139.044C57.94 137.923 57.222 137.014 56.3325 137.014C55.443 137.014 54.7441 137.923 54.7441 139.044C54.7441 140.166 55.4621 141.075 56.3325 141.075C57.2029 141.075 57.94 140.166 57.94 139.044Z" fill="#34564F"/>
<path d="M57.2349 139.044C57.2349 138.409 56.8315 137.904 56.3327 137.904C55.8339 137.904 55.4337 138.412 55.4337 139.044C55.4337 139.677 55.8371 140.182 56.3327 140.182C56.8283 140.182 57.2349 139.673 57.2349 139.044Z" fill="#87C6BA"/>
<path style="mix-blend-mode:overlay" d="M92.6943 137.014C92.5069 136.14 89.4953 136.172 87.459 136.296V136.258H87.5034C87.5034 135.527 87.3986 134.987 86.6521 134.179H86.5186C86.2313 133.89 85.886 133.665 85.5055 133.519C85.125 133.373 84.7178 133.309 84.3108 133.331L56.7457 134.863C54.6014 134.98 53.8453 136.769 53.6261 138.437C53.121 140.909 53.1623 150.941 53.607 161.91H47.9714C47.4822 140.779 50.1952 116.274 43.7907 117.285V116.789C32.3543 119.15 31.6998 120.472 32.0779 121.415C32.4559 122.359 32.834 123.115 43.8829 119.433V118.984C49.0293 117.945 46.9199 141.262 47.4028 161.91V163.924H47.4663C47.9269 178.087 49.7885 190.53 56.32 192.293C56.6377 193.831 57.0094 194.835 57.3842 195.172C57.9335 195.565 58.5645 195.828 59.23 195.941C59.4079 196.755 59.6334 197.829 59.9193 198.877C59.5475 199.653 59.3553 200.502 59.357 201.362C59.356 201.666 59.3762 201.97 59.4174 202.271C59.6842 204.177 60.812 205.617 62.1748 205.626C63.4837 205.626 64.5924 204.323 64.9386 202.531C64.9704 202.363 64.9958 202.195 65.0149 202.02C65.0165 201.993 65.0165 201.967 65.0149 201.94C65.0352 201.758 65.0458 201.574 65.0467 201.391C65.0514 200.964 65.012 200.538 64.9291 200.12C65.7773 198.931 66.5497 197.691 67.2418 196.405C71.8421 196.295 76.4295 195.87 80.9719 195.134C80.7178 198.947 81.6295 201.835 83.866 205.683L84.5585 205.658C82.8431 201.457 82.8113 198.718 83.38 194.384V194.359C83.4022 194.311 83.4308 194.251 83.4562 194.184L83.4848 194.105C83.5165 194.009 83.5515 193.901 83.5864 193.787C83.5869 193.78 83.5869 193.774 83.5864 193.768C83.6246 193.628 83.6659 193.466 83.704 193.288C83.704 193.288 83.704 193.253 83.704 193.234C83.7389 193.072 83.7771 192.894 83.8152 192.703C83.822 192.676 83.8273 192.648 83.8311 192.621C84.0979 191.273 84.3902 189.278 84.6951 186.834C84.6967 186.806 84.6967 186.777 84.6951 186.749C84.8063 185.846 84.9207 184.883 85.0351 183.873C85.0351 183.809 85.0509 183.746 85.0573 183.682C85.0827 183.45 85.1113 183.215 85.1367 182.977C85.1367 182.932 85.1367 182.885 85.1367 182.837C85.2225 182.065 85.3051 181.267 85.3909 180.447C85.3909 180.397 85.3909 180.349 85.3909 180.301C85.4163 180.058 85.4417 179.81 85.4671 179.558L85.4957 179.291C85.5751 178.487 85.6577 177.664 85.7403 176.828L85.7594 176.622C85.7816 176.374 85.807 176.123 85.8324 175.872C85.8324 175.77 85.8515 175.672 85.8579 175.573C85.8833 175.319 85.9087 175.062 85.9309 174.807C85.9309 174.722 85.9309 174.636 85.9563 174.55C86.0326 173.713 86.1088 172.866 86.1851 172.008C86.1851 171.89 86.2073 171.776 86.2168 171.662L86.2835 170.918C86.2835 170.791 86.3058 170.664 86.3153 170.537C86.3376 170.295 86.3566 170.054 86.3789 169.812L86.4074 169.46C86.4487 169.005 86.4869 168.548 86.525 168.09C86.525 167.944 86.5472 167.801 86.5599 167.655C86.5758 167.445 86.5949 167.235 86.6139 167.019C86.633 166.803 86.6425 166.644 86.6584 166.454C86.6743 166.263 86.6933 166.041 86.7092 165.834L86.7569 165.23L86.8141 164.528C86.8363 164.21 86.8617 163.921 86.884 163.616C86.884 163.429 86.9125 163.244 86.9284 163.057C86.9443 162.869 86.957 162.666 86.9729 162.472C86.9888 162.278 87.0015 162.075 87.0174 161.875L87.065 161.239C87.065 161.065 87.0904 160.89 87.1031 160.718L87.1794 159.654C87.1794 159.504 87.2016 159.355 87.2112 159.206C87.2302 158.961 87.2461 158.72 87.262 158.478C87.262 158.326 87.2842 158.16 87.2938 158.02C87.2938 157.789 87.3287 157.56 87.3414 157.328C87.3414 157.169 87.3636 157.01 87.3764 156.851C87.3954 156.555 87.4145 156.262 87.4336 155.974L87.4526 155.656C87.4748 155.339 87.4971 154.999 87.5161 154.675C87.5161 154.541 87.532 154.411 87.5415 154.281L87.5892 153.54C87.5892 153.419 87.5892 153.295 87.6115 153.175L87.6591 152.364C87.6591 152.275 87.6591 152.183 87.6591 152.094C87.6813 151.748 87.7004 151.405 87.7195 151.065C87.7195 150.976 87.7195 150.89 87.7195 150.801C87.7353 150.544 87.748 150.29 87.7639 150.035C87.7639 149.921 87.7639 149.807 87.7798 149.692C87.7798 149.46 87.8052 149.228 87.8179 148.999C87.8179 148.898 87.8179 148.796 87.8179 148.682C87.8349 148.353 87.8508 148.036 87.8656 147.728V147.69C87.8815 147.392 87.8942 147.099 87.9069 146.807C87.9069 146.708 87.9069 146.613 87.9069 146.518C87.9069 146.308 87.9069 146.105 87.9323 145.901C87.9323 145.8 87.9323 145.698 87.9323 145.584C87.9323 145.339 87.9323 145.101 87.9577 144.865C87.9577 144.824 87.9577 144.783 87.9577 144.742C87.9704 144.458 87.98 144.181 87.9863 143.912C87.9863 143.852 87.9863 143.791 87.9863 143.731C87.9863 143.528 87.9863 143.331 88.0022 143.134C88.0022 143.054 88.0022 142.978 88.0022 142.899C88.0022 142.711 88.0022 142.53 88.0022 142.352C88.0022 142.285 88.0022 142.219 88.0022 142.155C88.0022 141.92 88.0022 141.691 88.0022 141.469V141.259L88.0562 138.526C91.4617 138.495 92.8373 137.681 92.6943 137.014ZM48.0286 163.934H53.6928C54.1503 174.159 54.9476 184.832 55.9674 190.714C50.1951 187.638 48.4543 176.577 48.0286 163.934ZM64.4335 198.795C63.9189 197.794 63.112 197.142 62.2098 197.133C61.6421 197.143 61.0999 197.371 60.6945 197.768C60.5102 197.253 60.3482 196.694 60.2021 196.135C62.1816 196.395 64.1784 196.501 66.1744 196.453C65.6546 197.277 65.0726 198.059 64.4335 198.795Z" fill="url(#paint0_linear_0_1)"/>
<path d="M35.9343 75.3729C34.832 74.1972 29.8444 74.2735 29.8412 76.0084C29.838 77.7433 32.4462 78.6235 33.1355 78.3916C33.8249 78.1596 37.2908 76.8123 35.9343 75.3729Z" fill="#DBE557"/>
<path d="M47.015 75.7954C48.0411 74.5244 53.2669 74.0637 53.4638 75.7954C53.6608 77.5272 51.0272 78.6552 50.287 78.509C49.5469 78.3629 45.7569 77.3683 47.015 75.7954Z" fill="#DBE557"/>
<path d="M45.6777 65.2461L31.6585 62.4976L36.7891 75.6525L45.7635 74.426L45.6777 65.2461Z" fill="#F8BA95"/>
<path opacity="0.4" d="M45.6777 65.2461L31.6585 62.4976L36.7891 75.6525L45.7635 74.426L45.6777 65.2461Z" fill="url(#paint1_linear_0_1)"/>
<path d="M41.7828 204.514C41.7447 202.153 40.296 202.649 40.169 201.759C40.0896 201.19 41.0362 201.098 40.9568 200.539C40.8583 199.84 39.8449 199.614 39.8164 198.928C38.9523 177.054 33.809 161.188 30.9213 122.257C39.4447 116.481 49.7089 115.016 58.8771 123.08C61.0183 138.441 54.6107 171.843 53.1589 199.163C53.1271 199.776 53.7752 200.031 53.7498 200.638C53.7244 201.244 53.0159 201.591 52.9937 202.172C52.9651 202.944 52.9429 203.713 52.9238 204.473L48.794 205.064C48.794 205.064 48.8162 204.222 48.794 202.055C48.794 201.737 48.1586 201.464 48.1586 201.101C48.1586 200.819 48.6955 200.285 48.6923 199.98C48.5176 184.01 47.9617 137.341 46.5289 138.377C43.8827 140.284 45.1279 181.719 45.722 198.032C45.7379 198.464 46.4368 199.052 46.4495 199.449C46.4622 199.846 45.7951 200.031 45.8141 200.383C45.9126 203.005 45.9825 204.552 45.9825 204.552L41.7828 204.514Z" fill="#1C9E3C"/>
<path style="mix-blend-mode:multiply" opacity="0.4" d="M41.7829 204.514C41.6527 203.596 41.6527 203.354 41.5288 202.468C41.4462 201.896 40.4868 201.832 40.4074 201.286C40.3057 200.587 40.976 199.49 40.8775 198.807C36.8557 170.604 33.8155 161.188 30.9246 122.257C39.448 116.481 49.7122 115.016 58.8804 123.08C61.0216 138.441 54.614 171.843 53.1622 199.163C53.1304 199.776 53.7785 200.031 53.7531 200.638C53.7277 201.244 53.0192 201.591 52.997 202.172C52.9684 202.944 52.9462 203.713 52.9271 204.473L48.7973 205.064C48.7973 205.064 48.8195 204.222 48.7973 202.055C48.7973 201.737 48.1619 201.464 48.1619 201.101C48.1619 200.819 48.6988 200.285 48.6956 199.98C48.5209 184.01 47.965 137.341 46.5322 138.377C43.886 140.284 45.1313 181.719 45.7253 198.032C45.7412 198.464 46.4401 199.052 46.4528 199.449C46.4655 199.846 45.7984 200.031 45.8175 200.383C45.9159 203.005 45.9858 204.552 45.9858 204.552L41.7829 204.514Z" fill="url(#paint2_linear_0_1)"/>
<g style="mix-blend-mode:multiply" opacity="0.2">
<path d="M44.8931 164.137C41.6093 163.952 38.3536 163.426 35.1785 162.568C36.8844 174.169 38.746 183.857 40.8776 198.791C40.9761 199.475 40.3058 200.571 40.4075 201.27C40.4869 201.829 41.4463 201.88 41.5289 202.452C41.6528 203.339 41.6528 203.58 41.783 204.498L45.9541 204.546C45.9541 204.546 45.8842 202.999 45.7858 200.377C45.7858 200.024 46.4402 199.831 46.4211 199.443C46.4021 199.055 45.7095 198.458 45.6936 198.026C45.4077 190.168 44.9725 176.444 44.8931 164.137Z" fill="#2E404C"/>
</g>
<g style="mix-blend-mode:multiply" opacity="0.2">
<path d="M56.5931 163.422C53.7882 163.937 50.9436 164.205 48.092 164.223C48.4096 177.419 48.5812 192.281 48.667 199.989C48.667 200.307 48.1333 200.828 48.1333 201.111C48.1333 201.464 48.7686 201.747 48.7686 202.064C48.7909 204.231 48.7686 205.073 48.7686 205.073L52.8985 204.482C52.9175 203.723 52.9397 202.954 52.9683 202.182C52.9906 201.594 53.6958 201.229 53.7244 200.647C53.753 200.066 53.0891 199.786 53.1335 199.173C53.7594 187.724 55.2366 175.221 56.5931 163.422Z" fill="#2E404C"/>
</g>
<g style="mix-blend-mode:multiply" opacity="0.3">
<path d="M59.1917 126.385C59.1186 125.213 59.017 124.104 58.874 123.08C56.9359 121.338 54.7182 119.935 52.3139 118.931C49.6845 118.542 47.0298 118.351 44.372 118.359C42.1774 118.356 39.9847 118.484 37.8055 118.743C35.3665 119.609 33.0511 120.791 30.9182 122.257C31.0421 123.919 31.166 125.508 31.2899 127.068C34.5017 128.142 39.1652 128.822 44.372 128.822C50.6175 128.822 56.0784 127.85 59.1917 126.385Z" fill="#2E404C"/>
</g>
<path d="M59.0583 123.859C60.9961 123.277 61.9174 122.041 59.5221 120.386C56.7424 118.463 63.455 82.0679 53.9722 78.2167C47.7425 75.6747 30.6037 73.908 25.6575 81.2417C20.9876 88.1592 34.8162 107.034 30.6037 120.424C29.8191 122.928 29.6507 123.859 31.8427 123.859C41.4652 125.076 48.918 125.05 59.0583 123.859Z" fill="#1C9E3C"/>
<g style="mix-blend-mode:multiply" opacity="0.3">
<path d="M48.2539 78.0165C48.2539 76.6502 45.1502 75.5413 41.3189 75.5413C37.4877 75.5413 34.3872 76.6502 34.3872 78.0165C34.3872 79.3829 37.4941 80.495 41.3189 80.495C45.1438 80.495 48.2539 79.3861 48.2539 78.0165Z" fill="#2E404C"/>
</g>
<path d="M34.2729 76.18C33.5549 74.569 33.1038 72.85 33.8662 72.6848C35.2132 72.3829 40.0038 73.9399 41.6017 73.619C43.6635 73.2091 48.2984 71.7792 48.7654 72.4909C49.3499 73.3934 48.7336 75.0774 47.9871 76.5105C46.0842 80.152 36.0932 80.2663 34.2729 76.18Z" fill="#1C9E3C"/>
<g style="mix-blend-mode:multiply" opacity="0.3">
<path d="M58.9122 118.584C58.1434 111.984 61.2408 89.6686 56.8759 81.1941L51.2879 77.3493L50.7415 77.2126C48.0158 86.3131 38.6284 118.136 58.9122 118.584Z" fill="#2E404C"/>
</g>
<g style="mix-blend-mode:multiply" opacity="0.3">
<path d="M32.5448 76.949L32.3764 76.9935L25.4224 81.674C21.5531 88.8361 34.5049 106.993 30.6959 120.103C47.3169 115.334 37.0177 85.1216 32.5448 76.949Z" fill="#2E404C"/>
</g>
<path d="M14.3702 116.42C18.5667 115.108 24.8282 108.279 27.3728 99.6143L24.6948 80.9653C24.6948 80.9653 8.03249 99.3505 14.3702 116.42Z" fill="#1C9E3C"/>
<g style="mix-blend-mode:multiply" opacity="0.3">
<path d="M24.6947 80.9653C24.6947 80.9653 23.5669 82.2173 22.0135 84.3526C26.0131 98.7309 17.5151 110.539 15.158 111.949C15.3327 113.939 13.6331 114.434 14.3701 116.42C18.5667 115.108 24.8281 108.279 27.3727 99.6143L24.6947 80.9653Z" fill="#2E404C"/>
</g>
<path d="M70.231 101.092C67.4704 103.936 61.1613 103.18 55.5288 97.7332L51.2211 77.5432C51.2211 77.5432 69.0302 84.4162 70.231 101.092Z" fill="#1C9E3C"/>
<g style="mix-blend-mode:multiply" opacity="0.3">
<path d="M59.2837 82.4429C57.4697 82.1411 55.0744 90.6156 53.7783 89.5225L55.5287 97.7332C61.1611 103.18 67.4703 103.936 70.2309 101.092C70.1032 99.3119 69.7707 97.5526 69.2397 95.8489C61.644 96.1349 60.7005 82.6813 59.2837 82.4429Z" fill="#2E404C"/>
</g>
<path d="M27.6716 115.692C27.6959 115.861 27.7549 116.023 27.8448 116.168C27.9348 116.313 28.0538 116.438 28.1944 116.535C28.3349 116.632 28.494 116.698 28.6615 116.73C28.8291 116.763 29.0015 116.76 29.1679 116.722C31.9317 116.086 37.6848 114.151 37.7452 107.215C37.8214 97.7457 35.944 87.5935 33.2977 77.5303C33.2415 77.3163 33.1377 77.1178 32.994 76.9496C32.8504 76.7813 32.6705 76.6478 32.468 76.5588C32.2654 76.4699 32.0454 76.4279 31.8244 76.436C31.6033 76.4441 31.387 76.5021 31.1915 76.6056L23.4941 80.6919C23.2702 80.8137 23.088 81 22.9713 81.2267C22.8546 81.4533 22.8087 81.7099 22.8397 81.9629L27.6716 115.692Z" fill="#AEBF34"/>
<path d="M49.0197 105.823C49.9315 112.671 55.9769 113.341 59.3348 113.624C59.4832 113.636 59.6326 113.618 59.7735 113.569C59.9144 113.521 60.0437 113.444 60.1533 113.343C60.2629 113.242 60.3503 113.119 60.4101 112.983C60.4699 112.847 60.5007 112.699 60.5007 112.55L60.3672 81.7122C60.3659 81.4087 60.2809 81.1114 60.1218 80.853C59.9626 80.5946 59.7354 80.3851 59.465 80.2473L52.9685 76.9459C52.6874 76.8032 52.3766 76.7291 52.0614 76.7295C51.7462 76.7299 51.4355 76.805 51.1549 76.9484C50.8742 77.0919 50.6314 77.2997 50.4464 77.555C50.2614 77.8102 50.1393 78.1056 50.0903 78.4171C48.5337 88.3151 47.9174 97.5172 49.0197 105.823Z" fill="#AEBF34"/>
<path d="M47.8527 125.417L43.3163 125.431L43.3232 127.63L47.8596 127.616L47.8527 125.417Z" fill="#597689"/>
<path d="M67.4418 90.3169C65.9678 90.5107 64.1411 103.377 66.0663 103.79C67.9914 104.203 71.2889 104.063 71.8385 102.836C72.3881 101.61 69.5035 90.0404 67.4418 90.3169Z" fill="#638DAA"/>
<path d="M70.6663 96.1284C69.9166 97.2723 68.7602 98.0349 67.4641 98.0349C66.7391 98.0248 66.0348 97.7919 65.4468 97.3677C65.0942 100.529 65.1514 103.602 66.0822 103.802C68.0073 104.215 71.3048 104.075 71.8544 102.849C72.1117 102.217 71.5463 99.0994 70.6663 96.1284Z" fill="#41697F"/>
<path d="M70.2563 102.233C72.4801 103.618 83.9356 92.1026 85.4478 81.515L83.9356 80.9653C77.7504 89.7671 72.6644 86.1892 68.1279 92.6523C68.1247 92.6523 66.5713 99.9447 70.2563 102.233Z" fill="#F8BA95"/>
<path d="M84.5679 81.1973C81.7088 89.9768 71.5113 98.3083 68.0994 98.8548C68.4171 100.224 69.0524 101.492 70.2564 102.233C72.4802 103.618 83.9357 92.1026 85.4479 81.515L84.5679 81.1973Z" fill="#ED8C6B"/>
<path d="M22.1917 116.16C22.8715 113.113 14.1194 106.777 12.531 107.984C10.9426 109.192 8.88088 111.743 9.44635 112.887C10.0118 114.031 21.7437 118.12 22.1917 116.16Z" fill="#638DAA"/>
<path d="M10.307 110.297C9.59544 111.282 9.15386 112.283 9.45248 112.887C10.0243 114.031 21.7626 118.12 22.1978 116.16C22.3979 115.264 21.7784 114.085 20.7714 112.896C17.045 112.007 12.9724 110.767 10.307 110.297Z" fill="#41697F"/>
<path d="M12.426 112.267C9.79557 112.48 9.1602 128.184 15.2501 136.267L16.7337 135.597C15.2946 125.502 21.4608 124.393 20.3997 116.986C20.3997 116.986 16.6193 111.934 12.426 112.267Z" fill="#F8BA95"/>
<path d="M20.3996 116.986C19.532 115.883 18.5275 114.895 17.4103 114.047C18.2108 120.402 13.3408 127.678 15.8219 136.01L16.7368 135.597C15.2945 125.502 21.4607 124.393 20.3996 116.986Z" fill="#ED8C6B"/>
<path d="M15.3899 137.745C13.7411 136.096 8.65825 131.971 1.78367 135.406C1.78367 135.406 -0.122413 140.083 4.53159 141.729C7.67026 137.249 10.1513 136.566 15.3899 137.745Z" fill="#333E44"/>
<path d="M10.0244 135.787C11.2727 135.786 12.5145 135.969 13.7095 136.331C11.2887 134.596 7.06678 132.762 1.77742 135.406C1.77742 135.406 0.980044 137.366 1.68212 139.197C3.49924 137.141 6.55531 135.787 10.0244 135.787Z" fill="#212B30"/>
<path d="M83.6499 81.3816C83.8564 79.9358 87.462 78.9317 87.6908 79.5228C87.9195 80.1138 87.8687 82.3825 86.9823 82.5033C86.096 82.624 83.5164 82.3253 83.6499 81.3816Z" fill="#F8BA95"/>
<path d="M83.799 81.4008C83.9706 80.1806 87.0076 79.3354 87.2046 79.8343C87.4015 80.3331 87.4269 82.2142 86.6963 82.4049C85.2794 82.7798 83.691 82.1952 83.799 81.4008Z" fill="#ED8C6B"/>
<path d="M83.5036 81.7343C83.6783 80.7334 84.0024 80.2028 83.8848 79.4942C83.7768 78.8364 83.0335 77.5368 83.4147 77.2508C84.0056 76.8092 85.6384 79.2686 85.6766 80.1805C85.8926 81.1656 84.6441 82.8973 83.5036 81.7343Z" fill="#F8BA95"/>
<path d="M85.7149 79.7674C85.6927 79.475 87.0428 78.7664 87.621 79.1319C88.1992 79.4973 87.9387 79.9294 87.5638 80.047C87.1889 80.1646 85.7435 80.1709 85.7149 79.7674Z" fill="#F8BA95"/>
<path d="M85.8323 80.94C85.8101 80.6445 87.1602 79.9359 87.7384 80.2886C88.3166 80.6413 88.0561 81.0862 87.678 81.2037C87.3 81.3213 85.8609 81.3563 85.8323 80.94Z" fill="#F8BA95"/>
<path d="M85.575 81.8932C85.575 81.6613 86.9378 81.2005 87.481 81.5151C88.0243 81.8297 87.7447 82.1506 87.3603 82.2173C86.9759 82.2841 85.5781 82.2141 85.575 81.8932Z" fill="#F8BA95"/>
<path d="M15.4313 134.961C14.7229 136.299 13.5475 140.118 16.2192 139.998C17.9601 139.918 17.3088 139.063 16.9562 138.768C19.0497 139.003 16.4543 134.697 16.4543 134.882C16.4543 135.12 15.4313 134.961 15.4313 134.961Z" fill="#F8BA95"/>
<path d="M16.5527 134.783C16.3872 134.727 16.2111 134.708 16.0374 134.728C15.8637 134.749 15.6968 134.807 15.5488 134.901C16.0489 135.965 16.305 137.128 16.2985 138.304C16.2991 138.871 16.2502 139.436 16.1524 139.994H16.2191C17.96 139.915 17.3088 139.06 16.9561 138.765C19.0496 139.003 16.7115 134.885 16.5527 134.783Z" fill="#ED8C6B"/>
<path d="M16.7307 138.294C16.7315 138.147 16.6742 138.006 16.5712 137.901C16.4682 137.797 16.328 137.737 16.1811 137.735C15.8634 137.735 15.5457 138.221 15.5457 138.533C15.5457 138.844 15.8825 138.85 16.1811 138.85C16.3274 138.849 16.4672 138.789 16.5701 138.685C16.673 138.581 16.7307 138.441 16.7307 138.294Z" fill="#ED8C6B"/>
<path d="M27.8939 152.317C27.4555 147.674 19.2022 144.452 16.4574 138.266C16.3526 138.206 16.2289 138.187 16.1111 138.214C15.9933 138.241 15.8901 138.312 15.8221 138.412C13.4363 144.17 5.59281 146.963 5.09406 152.317L0.0111854 189.837C-0.713124 197.533 33.9838 199.09 32.999 188.525L27.8939 152.317Z" fill="#333E44"/>
<path d="M16.4543 138.266C16.3495 138.206 16.2258 138.187 16.108 138.214C15.9902 138.241 15.8869 138.312 15.8189 138.412C13.4332 144.17 5.58965 146.963 5.09089 152.317L4.27129 158.268C4.27129 158.268 3.5851 159.021 3.47709 159.628C3.36908 160.235 3.82018 161.573 3.82018 161.573L2.31756 172.694C2.87614 172.987 3.45345 173.243 4.04574 173.46C13.2807 176.822 24.2343 170.07 28.739 158.348L27.8939 152.311C27.4619 147.674 19.2022 144.452 16.4543 138.266Z" fill="#4A5F68"/>
<path d="M11.3809 194.089C7.28587 194.057 3.30622 192.728 0.0143433 190.291C0.68147 197.6 33.9457 198.871 32.9799 188.525L31.6234 178.868C27.7287 187.934 20.1266 194.089 11.3809 194.089Z" fill="#212B30"/>
<path d="M38.8253 185.315H45.2869C45.2583 184.337 45.2329 183.339 45.2043 182.325H38.3425C38.5045 183.304 38.6633 184.308 38.8253 185.315Z" fill="#97B9CC"/>
<path d="M37.7897 178.944H45.1217C45.0921 177.673 45.0645 176.388 45.0391 175.087H37.1511C37.3608 176.362 37.5736 177.648 37.7897 178.944Z" fill="#97B9CC"/>
<path d="M54.5567 181.766H48.4287C48.4287 182.777 48.4573 183.774 48.4732 184.756H54.2613C54.3545 183.767 54.4529 182.77 54.5567 181.766Z" fill="#97B9CC"/>
<path d="M55.3287 174.537H48.308C48.3334 175.832 48.3567 177.116 48.3779 178.392H54.9094C55.0364 177.106 55.1762 175.821 55.3287 174.537Z" fill="#97B9CC"/>
<path d="M16.1017 142.279C17.3015 142.28 18.4961 142.435 19.6566 142.74C18.3349 141.448 17.2509 139.934 16.4544 138.266C16.3495 138.206 16.2259 138.187 16.1081 138.214C15.9903 138.241 15.887 138.312 15.819 138.412C15.1487 140.029 14.0432 141.405 12.7979 142.676C13.8798 142.415 14.9887 142.281 16.1017 142.279Z" fill="#333E44"/>
<path d="M16.5144 141.094C17.28 142.511 20.7014 146.229 20.9365 145.933C21.1716 145.638 17.4579 141.037 17.4579 141.037L16.5144 141.094Z" fill="#333E44"/>
<path d="M14.8532 141.094C14.0749 141.694 12.6644 144.532 13.0043 144.757C13.3442 144.983 15.9841 141.094 15.9841 141.094H14.8532Z" fill="#333E44"/>
<path d="M15.3328 141.51C15.0151 142.444 15.9872 143.575 16.3971 143.575C16.8069 143.575 16.9848 141.275 16.9848 141.275L15.3328 141.51Z" fill="#333E44"/>
<path d="M26.0323 162.145C23.7482 164.271 20.581 168.087 14.5451 168.36C13.6206 168.401 12.8137 168.83 12.639 169.383C12.4865 169.86 12.8137 170.479 13.9097 170.406C17.3883 170.171 21.9502 168.478 26.2579 162.539C26.6645 161.992 26.0323 162.145 26.0323 162.145Z" fill="#333E44"/>
<path d="M54.6839 126.779L56.2564 125.756L59.1663 128.825L59.2457 130.948L54.6839 126.779Z" fill="#1C9E3C"/>
<path d="M35.8835 127.014L34.473 125.991L31.8649 129.06L31.7918 131.183L35.8835 127.014Z" fill="#1C9E3C"/>
<path d="M37.3892 99.4236L25.8098 102.738L26.4452 107.215L37.6783 103.945C37.6275 102.452 37.5258 100.942 37.3892 99.4236Z" fill="#DBE557"/>
<path d="M60.4465 100.472L48.4858 98.0605C48.5113 99.5921 48.5653 101.105 48.6796 102.585L60.4655 104.959L60.4465 100.472Z" fill="#DBE557"/>
<path d="M12.7979 115.213C16.0064 115.213 18.8084 117.332 20.3459 120.484C20.5606 119.331 20.5789 118.149 20.3999 116.989C20.3999 116.989 16.6195 111.937 12.4262 112.27C11.6987 112.328 11.1269 113.573 10.806 115.505C11.4529 115.315 12.1235 115.216 12.7979 115.213Z" fill="#ED8C6B"/>
<path d="M68.2201 92.5283L68.1279 92.6522C68.1279 92.6522 66.5713 99.9447 70.2564 102.233C71.0919 102.75 73.2076 101.467 75.6125 99.109C72.0989 97.9841 69.3478 95.5597 68.2201 92.5283Z" fill="#ED8C6B"/>
<path d="M6.93651 150.54C7.83237 148.707 10.5581 148.91 10.0815 150.934C9.45253 153.61 5.364 153.766 6.93651 150.54Z" fill="#749BA8"/>
<path d="M10.5074 152.997C11.3397 152.142 12.1116 152.701 11.3492 153.728C10.339 155.075 9.03651 154.5 10.5074 152.997Z" fill="#749BA8"/>
<path d="M32.6623 190.241C33.2056 189.329 35.0735 189.993 35.0735 189.993L33.8028 192.335C33.8028 192.335 32.2684 190.902 32.6623 190.241Z" fill="#212B30"/>
<path d="M32.4527 76.558C32.2509 76.4702 32.0319 76.4288 31.8119 76.4371C31.5919 76.4453 31.3767 76.5029 31.182 76.6057L23.4846 80.692C23.2607 80.8138 23.0785 81.0001 22.9618 81.2267C22.8451 81.4534 22.7992 81.7099 22.8302 81.963L23.1097 83.9204C27.1057 84.7755 31.1564 85.351 35.2324 85.6426C34.6521 82.9353 34.004 80.226 33.2882 77.5145C33.229 77.3028 33.1232 77.1071 32.9787 76.9416C32.8341 76.7762 32.6544 76.6451 32.4527 76.558Z" fill="#C2CC3B"/>
<path d="M59.4648 80.2344L52.9682 76.9329C52.6872 76.7903 52.3763 76.7161 52.0611 76.7166C51.7459 76.717 51.4353 76.792 51.1546 76.9355C50.874 77.079 50.6312 77.2868 50.4462 77.5421C50.2612 77.7973 50.1391 78.0927 50.0901 78.4041C49.693 80.9462 49.3562 83.431 49.0957 85.8713C52.8747 85.7134 56.6419 85.3443 60.3797 84.7656V81.6992C60.3764 81.3946 60.2893 81.0967 60.1279 80.8383C59.9665 80.5799 59.7371 80.371 59.4648 80.2344Z" fill="#C2CC3B"/>
<g style="mix-blend-mode:multiply" opacity="0.4">
<path d="M56.6375 78.8143L53.124 77.0285C53.3834 76.6786 53.5044 76.2452 53.4639 75.8115C53.3241 74.5659 50.5857 74.4515 48.6765 74.9599C49.0164 74.0067 49.1466 73.0852 48.7654 72.4973C48.5303 72.1383 47.2342 72.3226 45.7475 72.6499L45.6776 65.2653L41.3444 64.4137C41.1888 64.4137 41.0267 64.4137 40.8774 64.4137C38.1412 64.4068 35.4127 64.7031 32.7417 65.297L35.6675 72.777C35.0765 72.6465 34.4684 72.6111 33.8662 72.6721C33.3548 72.7897 33.3961 73.6063 33.6915 74.6136C31.922 74.461 29.8412 74.8868 29.8412 76.0117C29.8439 76.4097 29.9792 76.7955 30.2256 77.1079L25.991 79.3545C29.4854 81.4516 34.8574 82.7957 40.8774 82.7957C47.4216 82.7989 53.1939 81.2133 56.6375 78.8143Z" fill="#7A1E00"/>
</g>
<path d="M39.9531 71.0674C42.8853 71.7029 49.9854 70.0156 53.1019 67.2543C53.1019 67.2543 50.7002 64.1689 50.7892 61.1598C49.9346 59.0054 47.2947 58.3 49.4613 55.4403C49.2961 53.4416 49.6773 51.3921 50.0776 49.4792C50.0776 49.4792 35.2324 43.9789 31.6521 49.8446C25.702 59.6346 33.9236 70.5526 39.9531 71.0674Z" fill="#F8BA95"/>
<path d="M50.7413 61.2393C50.7413 61.2393 39.3334 64.8363 35.966 62.7741C32.5986 60.7118 30.2477 56.991 30.2477 56.991L28.7324 59.6664C29.4694 60.8326 34.0821 72.294 41.6524 71.757C46.2334 71.4392 53.7941 70.0157 53.9339 68.6398C54.0737 67.2639 51.7038 62.1989 50.7413 61.2393Z" fill="#60311F"/>
<path d="M30.7719 63.1679C29.0024 63.2442 26.2481 61.3567 25.5397 58.4016C25.5397 58.4016 27.576 54.8523 32.5032 53.3652L30.7719 63.1679Z" fill="#60311F"/>
<path d="M30.6386 58.3381C28.0718 58.9736 25.5398 59.3168 27.6556 62.5102C28.6086 63.9655 31.401 64.4168 32.5955 62.8947L30.6386 58.3381Z" fill="#F8BA95"/>
<path d="M26.1307 57.6614C24.4121 55.3228 22.7474 51.443 23.5734 49.5174C24.3994 47.5918 30.521 43.5437 32.8623 42.87C35.2036 42.1964 42.7644 42.7429 44.0701 44.0489C45.3757 45.3549 44.5561 51.4875 44.5561 51.4875C44.5561 51.4875 33.0148 50.8933 26.1307 57.6614Z" fill="#895946"/>
<g style="mix-blend-mode:multiply" opacity="0.4">
<path d="M44.7532 58.7957C46.4062 59.1828 48.0846 59.4525 49.7757 59.6028C48.8227 58.443 47.9014 57.4961 49.458 55.4498C49.2928 53.4511 49.674 51.4016 50.0743 49.4887C50.0743 49.4887 35.2292 43.9884 31.6489 49.8541C31.4901 50.1179 31.3535 50.3816 31.2137 50.6454C32.1604 53.7117 37.6276 57.1307 44.7532 58.7957Z" fill="#7A1E00"/>
</g>
<path d="M44.5562 51.4874C44.5562 51.4874 45.3695 45.3643 44.0638 44.0583C42.7582 42.7523 35.1942 42.1899 32.8561 42.8795C32.1167 43.1284 31.4029 43.4476 30.7245 43.8327C29.8921 47.2865 29.9544 50.8956 30.9055 54.3186C37.3322 51.1156 44.5562 51.4874 44.5562 51.4874Z" fill="#CE9A89"/>
<path d="M34.4284 52.3899C30.9339 53.9024 27.5538 55.113 25.4985 57.188L25.8924 57.8235C27.9764 56.0155 30.6576 54.6459 33.9964 53.1017L34.4284 52.3899Z" fill="#C6866F"/>
<path d="M33.447 53.2541C39.5814 51.4048 47.1453 50.5055 49.6867 53.8038C49.6867 53.8038 57.7526 50.585 58.0258 47.3534C58.299 44.1219 51.1163 42.5871 46.4242 43.4578C38.3138 44.9703 33.447 53.2541 33.447 53.2541Z" fill="#4C3327"/>
<path d="M30.3814 59.6759L31.6521 61.7921L30.4323 58.9482C28.7327 59.3645 27.0585 59.6282 27.6526 61.252C27.6398 60.2256 29.0027 60.0032 30.3814 59.6759Z" fill="#ED8C6B"/>
<path d="M30.9372 60.8167L31.7346 62.0274L30.9721 60.3274C29.8285 60.607 28.7007 60.785 29.101 61.878C29.0915 61.1885 30.0032 61.0392 30.9372 60.8167Z" fill="#ED8C6B"/>
<path d="M38.0757 58.694C37.7834 57.9981 38.0344 56.8161 38.6062 56.6572C39.3432 56.4507 39.9309 57.5183 40.0516 58.1316C40.1723 58.7449 39.8165 59.0181 39.3432 59.2247C39.2255 59.2757 39.0986 59.3024 38.9703 59.3032C38.842 59.304 38.7148 59.2788 38.5965 59.2293C38.4781 59.1797 38.371 59.1068 38.2815 59.0148C38.192 58.9228 38.122 58.8137 38.0757 58.694Z" fill="#5B3C34"/>
<path d="M45.6236 57.5437C45.3726 56.9241 45.6046 55.8755 46.1097 55.7389C46.745 55.5641 47.2597 56.5174 47.3613 57.0639C47.463 57.6104 47.3391 58.1029 46.726 58.1029C46.2653 58.1029 45.8237 58.0426 45.6236 57.5437Z" fill="#5B3C34"/>
<path d="M46.4685 61.6079C45.3788 60.3178 42.9327 55.3005 42.9359 54.7031L42.9041 56.4158C43.7174 58.1476 44.9087 60.5466 45.5885 61.3569C46.3859 62.3101 44.3559 62.4627 42.7993 62.4468V62.8027C44.2574 62.9679 47.4279 62.7391 46.4685 61.6079Z" fill="#D86A4C"/>
<path d="M35.0862 56.7175C37.5927 55.8596 38.9491 55.0938 41.3063 55.0334C41.4334 54.0486 41.3245 53.0477 40.9887 52.1133C40.9887 52.1133 36.9065 53.8736 34.5779 55.3766C34.3587 55.9041 34.7685 56.3616 35.0862 56.7175Z" fill="#60311F"/>
<path d="M44.5402 54.9573C44.4639 54.1756 44.4322 53.0222 44.0478 52.1992C45.8268 52.5456 47.9203 52.9618 49.0449 54.2042C49.5404 54.6237 49.5722 55.005 49.4007 55.5515C47.6661 54.808 46.7639 54.7444 44.5402 54.9573Z" fill="#60311F"/>
<path d="M39.1779 64.941C39.3431 64.6741 41.6876 64.6232 43.7652 64.3881C45.7412 64.1657 47.9141 63.724 48.2127 63.9464C48.8195 64.404 47.1485 67.9946 44.5531 68.2774C41.9576 68.5602 38.5394 65.9737 39.1779 64.941Z" fill="#421D11"/>
<path d="M39.6576 64.779L40.1722 66.3138L47.0531 65.6846L47.6027 63.9529L39.6576 64.779Z" fill="#FFE5DE"/>
<path d="M45.3218 95.544C45.7571 94.9943 46.5417 93.933 47.1707 94.7179C47.7997 95.5027 48.667 94.8767 48.667 94.8767L48.6257 96.332C48.6257 96.332 47.841 96.9993 47.0373 95.9762C46.6815 95.5122 45.8969 96.7642 45.8969 96.7642L45.3218 95.544Z" fill="#AEBF34"/>
<path d="M39.2795 94.9592C38.6664 94.6097 37.5291 93.9202 37.2209 94.8861C36.9128 95.8521 35.8581 95.5947 35.8581 95.5947L36.4299 96.9325C36.4299 96.9325 37.4242 97.2502 37.7959 96.0142C37.9643 95.4486 39.1683 96.316 39.1683 96.316L39.2795 94.9592Z" fill="#AEBF34"/>
<path d="M38.498 61.1503C39.9752 61.5475 39.4256 63.3746 37.7419 62.8471C35.8263 62.2339 36.325 60.572 38.498 61.1503Z" fill="#F4A57D"/>
<path d="M48.5748 59.5518C50.0583 59.1642 50.4999 61.0453 48.7654 61.4075C46.7958 61.8206 46.4018 60.1238 48.5748 59.5518Z" fill="#F4A57D"/>
<path d="M87.0968 19.6167H85.4988V118.266H87.0968V19.6167Z" fill="#4C4335"/>
<path d="M85.3113 62.4341C77.6012 60.9915 57.1172 41.7388 56.0466 35.0628C54.976 28.3868 78.8878 -0.65265 84.9618 0.0114539C91.0358 0.675558 112.797 25.7113 113.153 32.0537C113.508 38.396 94.2285 64.1023 85.3113 62.4341Z" fill="#9EAF3A"/>
<path d="M59.9954 41.9548C65.3293 36.0256 72.3341 30.4426 80.6033 25.8797C88.4659 21.5456 96.4873 18.6762 104.016 17.2432C97.1893 8.90851 88.4563 0.402259 84.9619 0.0114223C78.8942 -0.659037 54.9824 28.3836 56.053 35.0564C56.3135 36.7341 57.7971 39.1936 59.9954 41.9548Z" fill="#BCC943"/>
<path d="M98.171 43.7184C87.6018 48.2972 76.9849 50.4293 67.7532 50.2959C74.075 56.2919 81.3657 61.6969 85.3113 62.4341C92.8911 63.8512 107.946 45.5073 112.076 36.0605C107.695 39.0494 103.039 41.6137 98.171 43.7184Z" fill="#7B8426"/>
<path d="M85.5526 58.5954C79.0116 57.3753 61.6409 41.0491 60.7323 35.3995C59.8237 29.7498 80.1108 5.11122 85.2476 5.67682C90.3845 6.24242 108.854 27.4747 109.156 32.8542C109.458 38.2338 93.1134 60.0126 85.5526 58.5954Z" fill="#F9E4C7"/>
<path d="M85.2477 5.66437C80.1045 5.09877 59.8334 29.7246 60.7324 35.387C60.9834 36.9758 62.5114 39.3621 64.7256 42.0312C78.6082 49.6128 98.2249 45.7934 109.105 33.5218C109.142 33.297 109.155 33.0693 109.147 32.8418C108.854 27.4622 90.391 6.23315 85.2477 5.66437Z" fill="#FFF2E1"/>
<path d="M87.9831 79.5546C87.9831 79.2654 87.5923 79.0303 87.1095 79.0303C86.6266 79.0303 86.2358 79.2654 86.2358 79.5546C86.2358 79.8437 86.6266 80.0789 87.1095 80.0789C87.5923 80.0789 87.9831 79.8437 87.9831 79.5546Z" fill="#F8BA95"/>
<path d="M87.9831 80.746C87.9831 80.4568 87.5923 80.2217 87.1095 80.2217C86.6266 80.2217 86.2358 80.4568 86.2358 80.746C86.2358 81.0351 86.6266 81.2703 87.1095 81.2703C87.5923 81.2703 87.9831 81.0383 87.9831 80.746Z" fill="#F8BA95"/>
<path d="M87.6653 81.9376C87.6653 81.6485 87.2746 81.4133 86.7917 81.4133C86.3088 81.4133 85.9181 81.6485 85.9181 81.9376C85.9181 82.2268 86.3088 82.4619 86.7917 82.4619C87.2746 82.4619 87.6653 82.2268 87.6653 81.9376Z" fill="#F8BA95"/>
<rect x="67" y="27" width="35" height="12" rx="3" fill="#1C9E3C"/>
<path d="M76.5503 31.7531H75.4653L74.4363 34.3291L74.9823 34.3361L73.9393 31.7531H72.7773L74.1703 34.7141L73.3863 36.5131H74.4503L76.5503 31.7531ZM78.6677 32.5511C78.8031 32.5511 78.9267 32.5838 79.0387 32.6491C79.1554 32.7145 79.2464 32.8078 79.3117 32.9291C79.3817 33.0505 79.4167 33.1951 79.4167 33.3631C79.4167 33.5311 79.3817 33.6758 79.3117 33.7971C79.2417 33.9138 79.1507 34.0048 79.0387 34.0701C78.9267 34.1355 78.8007 34.1681 78.6607 34.1681C78.5254 34.1681 78.3994 34.1355 78.2827 34.0701C78.1707 34.0048 78.0797 33.9138 78.0097 33.7971C77.9397 33.6758 77.9047 33.5311 77.9047 33.3631L76.7357 32.9431C76.7357 33.4051 76.8174 33.7925 76.9807 34.1051C77.1487 34.4178 77.3774 34.6535 77.6667 34.8121C77.9607 34.9661 78.2921 35.0431 78.6607 35.0431C79.0387 35.0431 79.3631 34.9708 79.6337 34.8261C79.9091 34.6815 80.1214 34.4831 80.2707 34.2311C80.4247 33.9745 80.5017 33.6851 80.5017 33.3631C80.5017 33.0365 80.4271 32.7471 80.2777 32.4951C80.1331 32.2431 79.9277 32.0448 79.6617 31.9001C79.4004 31.7555 79.0971 31.6831 78.7517 31.6831L78.6677 32.5511ZM77.4357 33.3631H77.9047C77.9047 33.2325 77.9257 33.1181 77.9677 33.0201C78.0097 32.9175 78.0657 32.8311 78.1357 32.7611C78.2104 32.6911 78.2944 32.6398 78.3877 32.6071C78.4811 32.5698 78.5744 32.5511 78.6677 32.5511L78.7517 31.6831C78.5511 31.6831 78.3691 31.7228 78.2057 31.8021C78.0471 31.8768 77.9094 31.9865 77.7927 32.1311C77.6761 32.2758 77.5874 32.4531 77.5267 32.6631C77.4661 32.8685 77.4357 33.1018 77.4357 33.3631ZM76.7357 32.9431L77.8347 33.3561L77.6597 32.5931C77.6597 32.3598 77.6901 32.1405 77.7507 31.9351C77.8161 31.7251 77.9281 31.5385 78.0867 31.3751C78.2501 31.2118 78.4741 31.0765 78.7587 30.9691C79.0154 30.8711 79.2441 30.7498 79.4447 30.6051C79.6501 30.4558 79.8157 30.2878 79.9417 30.1011C80.0677 29.9145 80.1424 29.7185 80.1657 29.5131H79.1507C79.1181 29.6811 79.0154 29.8281 78.8427 29.9541C78.6747 30.0801 78.4321 30.2085 78.1147 30.3391C77.7507 30.4885 77.4684 30.6845 77.2677 30.9271C77.0671 31.1651 76.9271 31.4521 76.8477 31.7881C76.7731 32.1195 76.7357 32.5045 76.7357 32.9431ZM82.2125 36.5131V31.7531H81.1555V36.5131H82.2125ZM84.8445 33.3631C84.8445 32.9851 84.7698 32.6701 84.6205 32.4181C84.4758 32.1615 84.2868 31.9678 84.0535 31.8371C83.8248 31.7065 83.5775 31.6411 83.3115 31.6411C83.0315 31.6411 82.7888 31.7135 82.5835 31.8581C82.3828 31.9981 82.2288 32.1965 82.1215 32.4531C82.0142 32.7098 81.9605 33.0131 81.9605 33.3631C81.9605 33.7085 82.0142 34.0118 82.1215 34.2731C82.2288 34.5298 82.3828 34.7305 82.5835 34.8751C82.7888 35.0151 83.0315 35.0851 83.3115 35.0851C83.5775 35.0851 83.8248 35.0198 84.0535 34.8891C84.2868 34.7585 84.4758 34.5648 84.6205 34.3081C84.7698 34.0515 84.8445 33.7365 84.8445 33.3631ZM83.7315 33.3631C83.7315 33.5311 83.6965 33.6735 83.6265 33.7901C83.5565 33.9068 83.4632 33.9955 83.3465 34.0561C83.2298 34.1168 83.1015 34.1471 82.9615 34.1471C82.8402 34.1471 82.7212 34.1191 82.6045 34.0631C82.4925 34.0025 82.3992 33.9138 82.3245 33.7971C82.2498 33.6805 82.2125 33.5358 82.2125 33.3631C82.2125 33.1905 82.2498 33.0458 82.3245 32.9291C82.3992 32.8125 82.4925 32.7261 82.6045 32.6701C82.7212 32.6095 82.8402 32.5791 82.9615 32.5791C83.1015 32.5791 83.2298 32.6095 83.3465 32.6701C83.4632 32.7308 83.5565 32.8195 83.6265 32.9361C83.6965 33.0528 83.7315 33.1951 83.7315 33.3631ZM86.3018 34.0141C86.3018 33.9255 86.3228 33.8508 86.3648 33.7901C86.4115 33.7295 86.4768 33.6828 86.5608 33.6501C86.6495 33.6128 86.7545 33.5941 86.8758 33.5941C87.0578 33.5941 87.2118 33.6175 87.3378 33.6641C87.4685 33.7061 87.5945 33.7715 87.7158 33.8601V33.3631C87.6692 33.3118 87.5898 33.2605 87.4778 33.2091C87.3705 33.1531 87.2422 33.1088 87.0928 33.0761C86.9482 33.0388 86.7942 33.0201 86.6308 33.0201C86.3508 33.0201 86.1058 33.0621 85.8958 33.1461C85.6858 33.2301 85.5225 33.3491 85.4058 33.5031C85.2938 33.6571 85.2378 33.8415 85.2378 34.0561C85.2378 34.2661 85.2868 34.4458 85.3848 34.5951C85.4875 34.7398 85.6275 34.8518 85.8048 34.9311C85.9822 35.0058 86.1828 35.0431 86.4068 35.0431C86.6308 35.0431 86.8315 35.0058 87.0088 34.9311C87.1908 34.8518 87.3332 34.7398 87.4358 34.5951C87.5432 34.4458 87.5968 34.2685 87.5968 34.0631L87.4848 33.6711C87.4848 33.8438 87.4522 33.9791 87.3868 34.0771C87.3215 34.1751 87.2328 34.2451 87.1208 34.2871C87.0135 34.3291 86.8945 34.3501 86.7638 34.3501C86.6845 34.3501 86.6075 34.3385 86.5328 34.3151C86.4628 34.2871 86.4068 34.2498 86.3648 34.2031C86.3228 34.1518 86.3018 34.0888 86.3018 34.0141ZM85.8888 32.7471C85.9402 32.7145 86.0172 32.6771 86.1198 32.6351C86.2225 32.5885 86.3415 32.5488 86.4768 32.5161C86.6168 32.4835 86.7638 32.4671 86.9178 32.4671C87.0952 32.4671 87.2328 32.5091 87.3308 32.5931C87.4335 32.6725 87.4848 32.7798 87.4848 32.9151V34.9731H88.4998V32.7051C88.4998 32.4811 88.4345 32.2921 88.3038 32.1381C88.1778 31.9841 88.0005 31.8675 87.7718 31.7881C87.5478 31.7041 87.2912 31.6621 87.0018 31.6621C86.7125 31.6621 86.4395 31.7018 86.1828 31.7811C85.9308 31.8605 85.7138 31.9445 85.5318 32.0331L85.8888 32.7471ZM89.6194 33.6711H92.2234V32.8801H89.6194V33.6711ZM91.7474 31.7531V34.9731H92.7624V31.7531H91.7474ZM89.2904 31.7531V34.9731H90.3124V31.7531H89.2904ZM93.4081 33.3631C93.4081 33.6991 93.4874 33.9931 93.6461 34.2451C93.8047 34.4971 94.0241 34.6931 94.3041 34.8331C94.5841 34.9731 94.8991 35.0431 95.2491 35.0431C95.5991 35.0431 95.9117 34.9731 96.1871 34.8331C96.4671 34.6931 96.6864 34.4971 96.8451 34.2451C97.0084 33.9931 97.0901 33.6991 97.0901 33.3631C97.0901 33.0225 97.0084 32.7261 96.8451 32.4741C96.6864 32.2221 96.4671 32.0261 96.1871 31.8861C95.9117 31.7461 95.5991 31.6761 95.2491 31.6761C94.8991 31.6761 94.5841 31.7461 94.3041 31.8861C94.0241 32.0261 93.8047 32.2221 93.6461 32.4741C93.4874 32.7261 93.4081 33.0225 93.4081 33.3631ZM94.4931 33.3631C94.4931 33.1951 94.5281 33.0505 94.5981 32.9291C94.6681 32.8078 94.7591 32.7145 94.8711 32.6491C94.9831 32.5838 95.1091 32.5511 95.2491 32.5511C95.3844 32.5511 95.5081 32.5838 95.6201 32.6491C95.7367 32.7145 95.8277 32.8078 95.8931 32.9291C95.9631 33.0505 95.9981 33.1951 95.9981 33.3631C95.9981 33.5311 95.9631 33.6758 95.8931 33.7971C95.8277 33.9138 95.7367 34.0048 95.6201 34.0701C95.5081 34.1355 95.3844 34.1681 95.2491 34.1681C95.1091 34.1681 94.9831 34.1355 94.8711 34.0701C94.7591 34.0048 94.6681 33.9138 94.5981 33.7971C94.5281 33.6758 94.4931 33.5311 94.4931 33.3631Z" fill="white"/>
<defs>
<linearGradient id="paint0_linear_0_1" x1="62.3464" y1="131.062" x2="62.3464" y2="207.762" gradientUnits="userSpaceOnUse">
<stop stop-color="#FFD79D"/>
<stop offset="1" stop-color="#540037"/>
</linearGradient>
<linearGradient id="paint1_linear_0_1" x1="37.0686" y1="77.9976" x2="39.1218" y2="66.0788" gradientUnits="userSpaceOnUse">
<stop stop-color="#B84C00"/>
<stop offset="1" stop-color="#B83100"/>
</linearGradient>
<linearGradient id="paint2_linear_0_1" x1="38.1487" y1="185.77" x2="53.1022" y2="98.91" gradientUnits="userSpaceOnUse">
<stop stop-color="#004167"/>
<stop offset="1" stop-color="#003643"/>
</linearGradient>
</defs>
</svg>
