<svg width="201" height="181" viewBox="0 0 201 181" fill="none" xmlns="http://www.w3.org/2000/svg">
<path d="M139.87 123.819C139.87 123.99 139.826 124.338 139.753 124.824C139.541 126.136 139.174 127.418 138.66 128.643C137.778 130.773 136.413 132.667 134.673 134.179C134.131 134.648 129.232 136.745 124.957 138.534L123.104 139.301L122.769 139.439L121.791 139.844L119.69 140.705L118.397 141.231L118.866 137.938L118.943 137.847L128.575 126.275C130.653 123.778 133.005 107.401 133.698 106.567C133.692 106.564 137.907 111.877 139.87 123.819Z" fill="url(#paint0_linear_0_1)"/>
<g style="mix-blend-mode:multiply" opacity="0.4">
<path d="M123.097 139.298L122.762 139.435C122.803 139.512 122.836 139.583 122.87 139.653L121.844 140.072L121.784 139.841L121.094 137.214L120.963 136.711L121.08 136.765L121.362 136.896L124.957 138.531L123.097 139.298Z" fill="#7A1F98"/>
</g>
<path d="M139.87 123.819C139.87 123.99 139.826 124.338 139.753 124.824C139.541 126.136 139.174 127.418 138.66 128.644C137.778 130.773 136.413 132.668 134.673 134.179C133.692 135.03 138.339 131.046 138.275 123.075C138.208 119.226 137.603 115.405 136.476 111.724C136.654 112.223 139.297 119.865 139.87 123.819Z" fill="url(#paint1_linear_0_1)"/>
<g style="mix-blend-mode:multiply" opacity="0.3">
<path fill-rule="evenodd" clip-rule="evenodd" d="M137.887 126.023C137.887 126.023 136.841 130.473 134.181 133.137C131.521 135.8 127.249 136.671 127.249 136.671C127.249 136.671 134.881 135.495 137.887 126.023Z" fill="#29912E"/>
</g>
<path fill-rule="evenodd" clip-rule="evenodd" d="M123.238 140.431C123.238 140.431 118.212 142.153 118.139 142.833C118.041 143.888 116.162 146.053 114.577 147.554C114.356 147.765 114.138 147.962 113.934 148.143C113.187 148.814 112.594 149.212 112.429 149.149C112.265 149.085 110.982 149.082 109.645 149.018C108.074 148.944 106.368 148.777 106.063 148.281C105.494 147.366 105.973 141.999 106.888 141.432C107.802 140.866 114.52 140.253 115.914 139.64C117.308 139.027 119.934 135.887 119.934 135.887C120.099 135.931 120.254 136.004 120.394 136.102C120.655 136.293 120.891 136.519 121.094 136.772C121.736 137.581 122.289 138.455 122.746 139.382L122.776 139.442C122.816 139.519 122.849 139.59 122.883 139.66C123.101 140.116 123.238 140.431 123.238 140.431Z" fill="#FCD253"/>
<g style="mix-blend-mode:multiply" opacity="0.6">
<path d="M107.018 148.2L108.63 144.666C108.63 144.666 111.421 143.443 112.031 144.84C112.64 146.237 109.94 148.415 109.94 148.415L107.018 148.2Z" fill="#7A1F98"/>
</g>
<path d="M116.829 144.384C116.862 144.766 115.823 146.096 114.577 147.55C114.125 148.076 113.642 148.619 113.17 149.142C111.83 150.643 110.553 151.963 110.329 152.198L110.295 152.234C110.295 152.234 109.625 152.569 109.203 150.894C109.052 150.315 109.26 149.681 109.645 149.031C110.197 148.196 110.822 147.411 111.511 146.686C113.032 144.977 114.309 143.476 111.846 142.9C111.846 142.9 116.517 143.399 116.805 144.321C116.815 144.341 116.823 144.362 116.829 144.384Z" fill="#FCD253"/>
<g style="mix-blend-mode:multiply" opacity="0.25">
<path d="M113.167 149.142C111.672 150.797 110.292 152.235 110.292 152.235C110.292 152.235 109.622 152.57 109.199 150.894C108.864 149.621 110.268 148.09 111.508 146.696L111.337 147.812C111.337 147.812 111.923 149.477 113.167 149.142Z" fill="#7A1F98"/>
</g>
<g style="mix-blend-mode:multiply" opacity="0.25">
<path d="M123.238 140.431C123.238 140.431 118.212 142.153 118.139 142.833C118.041 143.888 116.162 146.053 114.577 147.554C114.125 148.08 113.642 148.623 113.17 149.145C111.83 150.646 110.553 151.967 110.329 152.201C110.59 151.923 112.258 150.144 113.934 148.144C114.973 146.931 115.936 145.655 116.819 144.324C117.338 143.493 117.656 142.806 117.616 142.394L117.442 140.474L118.052 141.871C118.052 141.871 121.891 141.536 122.675 139.526C122.695 139.476 122.715 139.429 122.736 139.389L122.766 139.449C122.806 139.526 122.839 139.596 122.873 139.667C123.101 140.116 123.238 140.431 123.238 140.431Z" fill="#7A1F98"/>
</g>
<path fill-rule="evenodd" clip-rule="evenodd" d="M86.3389 110.078C86.1673 108.39 85.9044 106.712 85.5515 105.052C85.4963 104.825 85.428 104.602 85.3471 104.382C84.801 102.978 82.4623 99.0215 82.4623 99.0215C82.4623 99.0215 85.002 97.2256 86.952 98.0867C88.7445 98.8741 88.8082 101.357 88.0543 101.437C87.9772 101.444 87.8997 101.43 87.8298 101.397C87.2301 101.132 87.4948 101.91 87.8734 103.26C88.1738 104.282 88.3978 105.324 88.5435 106.379C88.9389 109.475 86.3389 110.078 86.3389 110.078Z" fill="#FCD253"/>
<path style="mix-blend-mode:multiply" opacity="0.5" fill-rule="evenodd" clip-rule="evenodd" d="M86.3389 110.078C86.1673 108.39 85.9044 106.713 85.5515 105.053C86.7543 105.341 87.5149 104.202 87.5149 104.202V102.067L87.8734 103.26C88.1738 104.282 88.3978 105.325 88.5435 106.379C88.9389 109.475 86.3389 110.078 86.3389 110.078Z" fill="url(#paint2_linear_0_1)"/>
<path fill-rule="evenodd" clip-rule="evenodd" d="M152.063 179.075C150.461 179.075 91.7835 180.144 88.0476 178.543C86.7711 177.996 85.183 176.391 83.6451 174.364C80.6866 170.461 77.9123 165 77.9123 162.54C77.9123 160.785 79.3296 159.143 80.8306 157.903C81.9114 157.021 83.0789 156.251 84.3152 155.605C84.3152 155.605 84.2281 154.841 84.161 153.889C84.0572 152.455 83.9935 150.593 84.3152 150.271C84.8479 149.738 88.5804 142.27 86.4461 140.136C84.3118 138.001 80.9311 121.279 87.5149 104.915C87.6958 104.463 88.2118 105.558 88.6474 105.749C89.4924 106.075 90.3968 106.218 91.301 106.168C94.092 106.118 97.1175 105.126 97.1175 106.503C97.1175 108.634 105.119 137.974 110.453 142.776C112.128 144.267 114.919 144.759 118.253 144.99C125.627 145.533 135.618 144.786 141.374 150.817C149.771 159.562 153.661 179.075 152.063 179.075Z" fill="url(#paint3_linear_0_1)"/>
<g style="mix-blend-mode:multiply" opacity="0.4">
<path fill-rule="evenodd" clip-rule="evenodd" d="M109.387 152.754C107.434 153.729 100.907 150.335 95.0267 144.629C94.4002 144.019 93.7804 143.386 93.1739 142.726C90.1584 139.442 87.478 135.569 85.9133 131.414C81.112 118.612 86.9822 109.546 89.1164 109.009C89.1164 109.009 94.9832 105.81 95.5159 105.277C95.8108 104.982 98.8664 115.228 101.808 124.75C104.204 132.497 106.536 139.767 107.253 140.498C108.074 141.318 109.454 144.106 110.174 146.84C110.858 149.423 110.945 151.973 109.387 152.754Z" fill="#7A1F98"/>
</g>
<path d="M0.827047 177.286C1.02473 177.35 11.0428 177.826 14.3028 177.718C21.0038 177.497 23.4296 176.495 23.7312 176.197C23.8618 176.063 23.8216 175.353 23.701 174.418C23.6407 173.983 23.567 173.503 23.4866 173.008C23.485 172.982 23.485 172.956 23.4866 172.931C23.3559 172.16 23.2051 171.362 23.0711 170.672C23.0175 170.401 22.9471 169.771 22.8734 168.997C22.6489 166.611 22.3843 162.748 22.3843 162.748L11.1835 164.212C10.769 164.973 10.2987 165.702 9.77626 166.394C9.49817 166.792 9.16312 167.255 8.77111 167.791L8.37239 168.33L8.35229 168.357C5.90306 171.644 1.48374 172.78 1.17214 173.648C0.930548 174.372 0.755596 175.116 0.64946 175.872C0.538893 176.569 0.552305 177.182 0.827047 177.286Z" fill="url(#paint4_linear_0_1)"/>
<path d="M23.9055 177.417L23.7547 174.237C23.7547 174.237 22.8635 173.443 21.0374 174.971C19.6671 176.114 21.2385 178.177 9.88691 177.079C6.77763 176.777 1.22248 176.673 1.22248 176.673L0.820414 174.85C0.820414 174.85 -0.26181 177.631 0.0598392 177.953C0.381489 178.275 10.8083 178.446 11.1768 178.429L12.306 178.375C13.212 178.573 14.1296 178.713 15.0534 178.794C16.0653 178.838 24.0328 180.017 23.9055 177.417Z" fill="url(#paint5_linear_0_1)"/>
<path d="M8.75772 167.771C10.4467 167.48 12.1567 167.328 13.8706 167.315C18.6451 167.245 21.3758 168.156 22.86 168.991C22.6356 166.605 22.3709 162.742 22.3709 162.742L11.1701 164.206C10.7556 164.967 10.2853 165.696 9.76287 166.387C9.48478 166.773 9.14973 167.235 8.75772 167.771Z" fill="#389738"/>
<path d="M66.2558 178.104L66.0716 176.613L65.7365 173.983L60.2618 169.376C60.2618 169.376 61.2133 169.768 62.5301 170.381C63.6223 170.887 74.8566 173.584 75.1381 176.077V176.626L75.1749 178.074H66.2558V178.104Z" fill="url(#paint6_linear_0_1)"/>
<path d="M69.5964 177.263C68.3856 177.409 67.1673 177.486 65.9477 177.491L64.9593 177.521C58.342 177.685 47.1044 177.648 46.5314 177.356C46.4947 177.336 46.4654 177.304 46.4477 177.266C46.3036 177.011 46.3204 176.321 46.4175 175.44C46.4946 174.77 46.6186 173.999 46.7526 173.229C46.776 173.085 46.8028 172.941 46.8296 172.8C46.9737 172.033 47.1278 171.289 47.2618 170.676C47.4528 169.784 47.5969 169.171 47.5969 169.171L56.3819 164.635L58.7273 163.425C58.7273 163.425 58.9317 163.76 59.2667 164.36C59.5348 164.822 59.8799 165.432 60.2719 166.136C60.6304 166.779 61.0258 167.499 61.4312 168.256C61.6925 168.749 61.9606 169.262 62.2219 169.764C62.7111 170.709 68.1423 172.043 68.551 172.934C69.0373 173.932 69.4374 174.97 69.7472 176.036C69.9281 176.737 69.9046 177.192 69.5964 177.263Z" fill="url(#paint7_linear_0_1)"/>
<path d="M60.2921 166.136C59.3908 167.945 57.3504 169.912 54.1339 171.641C51.4702 173.071 48.6893 173.145 46.8767 172.582C47.071 171.691 47.6171 169.171 47.6171 169.171L56.4022 164.635L58.7475 163.425C58.7475 163.425 58.9519 163.76 59.287 164.36C59.5449 164.822 59.8901 165.432 60.2921 166.136Z" fill="#76A860"/>
<path d="M9.55182 160.601L8.68069 167.489C8.80132 167.027 9.62218 164.474 13.3379 164.588C17.4222 164.729 23.4196 168.592 23.4196 168.592C23.4196 168.592 24.4248 166.062 24.4951 164.43C24.4951 164.062 22.5418 165.771 24.8771 145.205C25.4601 139.995 24.8436 129.186 24.8436 129.186C24.8436 129.186 28.948 111.331 31.9132 105.223C33.0389 102.905 34.1781 101.347 35.19 101.444C36.2588 101.548 37.5856 103.588 38.9124 106.43C40.0147 108.775 41.1237 111.636 42.1021 114.427C44.0186 119.872 45.4761 124.961 45.4761 124.961C45.4761 124.961 45.476 125.052 45.4559 125.213C45.2951 127.156 42.8928 140.591 43.1642 143.024C43.459 145.654 44.1694 166.374 44.1694 166.374V167.858L47.4194 171.312C48.2855 170.292 49.2684 169.377 50.3477 168.585C50.5995 168.416 50.8626 168.265 51.1351 168.133C51.355 168.029 51.5868 167.952 51.8253 167.905C53.1286 167.67 57.5647 166.709 60.0407 166.169L61.7462 165.787L58.8111 159.596C58.8111 159.596 55.0652 137.352 56.5562 125.682C56.9616 122.475 52.1469 98.3348 50.0629 88.0085C49.4196 84.8154 48.9907 82.7649 48.9907 82.7649C46.4583 81.1928 43.8471 79.7513 41.1673 78.4461C37.1835 76.5129 32.4023 74.6064 28.6498 74.4087C27.9606 74.3687 27.2692 74.3979 26.5859 74.4958C25.2456 74.7203 24.1199 75.2799 23.3627 76.3051C23.1951 76.533 23.0276 76.791 22.8534 77.0657C22.121 78.363 21.5032 79.7218 21.0072 81.1265C16.9866 91.8482 15.2812 113.781 15.1773 117.714C15.05 122.405 13.7902 128.801 14.2995 130.181C14.8088 131.562 8.67399 158.614 8.67399 158.614L9.55182 160.601Z" fill="url(#paint8_linear_0_1)"/>
<path style="mix-blend-mode:multiply" opacity="0.6" d="M20.9938 161.921C20.7492 161.854 10.5636 157.167 9.67572 158.034C8.78784 158.902 10.7479 161.599 10.7479 161.599L20.9938 161.921Z" fill="url(#paint9_linear_0_1)"/>
<path style="mix-blend-mode:multiply" opacity="0.6" d="M21.0072 81.1263C24.6927 84.1954 33.2499 90.8729 38.8118 91.7709C44.119 92.6387 48.2167 89.6735 50.0394 88.0116C49.3961 84.8186 48.9672 82.768 48.9672 82.768C46.4425 81.1955 43.8391 79.7529 41.1672 78.4459L28.6497 74.4253L27.3329 73.9998L26.5858 74.5124L22.8533 77.0822C22.1218 78.3741 21.504 79.7273 21.0072 81.1263Z" fill="url(#paint10_linear_0_1)"/>
<path style="mix-blend-mode:screen" opacity="0.4" d="M18.4105 92.5952C18.4105 92.5952 28.8674 94.0125 28.5927 102.382C28.318 110.752 25.1417 127.846 18.4875 128.563C11.8334 129.28 18.4105 92.5952 18.4105 92.5952Z" fill="url(#paint11_linear_0_1)"/>
<path style="mix-blend-mode:screen" opacity="0.4" d="M51.7045 95.7781C51.7045 95.7781 56.5125 121.292 55.8022 124.713C55.0919 128.134 50.2973 121.698 45.7507 111.103C41.204 100.509 51.7045 95.7781 51.7045 95.7781Z" fill="url(#paint12_linear_0_1)"/>
<path style="mix-blend-mode:multiply" opacity="0.6" d="M45.4559 125.213C45.2951 127.156 42.8928 140.591 43.1641 143.024C43.459 145.654 44.1693 166.374 44.1693 166.374V167.858L47.4193 171.312C48.2855 170.292 49.2683 169.377 50.3477 168.585C50.5995 168.416 50.8625 168.265 51.135 168.133C51.3549 168.029 51.5867 167.952 51.8252 167.905C53.1286 167.67 57.5647 166.709 60.0407 166.169L60.0641 166.153C60.0641 166.153 47.8281 167.158 47.2618 166.153C46.6956 165.147 55.4639 160.55 55.4639 160.55L46.8933 161.921C46.8933 161.921 43.9281 149.118 43.9281 142.344C43.9281 135.569 46.3706 126.077 46.3706 126.077L51.1953 125.836C51.1953 125.836 46.8732 123.189 42.1255 114.427C44.042 119.872 45.4994 124.961 45.4994 124.961C45.4994 124.961 45.4693 125.052 45.4559 125.213Z" fill="url(#paint13_linear_0_1)"/>
<path style="mix-blend-mode:multiply" opacity="0.6" d="M27.477 93.7981C29.4873 95.9592 33.1929 100.717 31.913 105.217C33.0388 102.898 34.178 101.34 35.1899 101.437C36.2587 101.541 37.5855 103.582 38.9123 106.423C36.8383 101.477 44.5445 98.0834 45.0169 97.879C44.5344 97.9896 36.7679 99.8324 35.5216 100.261C34.5499 100.593 29.7553 96.0329 27.477 93.7981Z" fill="url(#paint14_linear_0_1)"/>
<path style="mix-blend-mode:multiply" opacity="0.6" d="M27.457 93.7849C26.9209 93.2154 26.5121 92.83 26.348 92.6826C26.5222 92.8535 26.9242 93.2522 27.457 93.7849Z" fill="url(#paint15_linear_0_1)"/>
<path d="M74.3642 59.9746L70.6786 46.8238C70.6786 46.8238 70.7758 44.8939 70.5413 44.5287C70.3067 44.1635 61.133 34.9999 60.1949 34.5844C59.2567 34.1689 61.0828 41.8349 61.0828 41.8349L74.3642 59.9746Z" fill="#26922D"/>
<path d="M59.5414 62.8865C59.5741 63.012 59.6453 63.1242 59.7451 63.2072C59.8449 63.2901 59.9682 63.3397 60.0976 63.3488C62.5703 63.513 67.8976 73.4674 67.8976 73.4674C67.8976 73.4674 67.8742 73.6751 69.3819 77.4176C70.8896 81.1602 85.7994 91.8684 85.9133 91.9421L88.0476 89.2617C88.0476 89.2617 89.3878 88.223 87.1564 85.2411C85.5582 83.0968 82.5159 76.2182 80.2376 72.0233C79.3631 70.4117 78.5992 69.1955 78.0765 68.7867C76.4012 67.5202 71.2682 50.3421 69.9917 46.0568C69.9046 45.7519 69.8309 45.5073 69.784 45.3465C69.784 45.3465 69.784 45.3465 69.784 45.3298L69.7136 45.0952L69.6667 45.1287L68.4069 46.1104H68.3834L67.5056 46.7973L67.0399 47.1491C67.0264 47.1576 67.0149 47.1691 67.0064 47.1826L62.7345 50.4828C62.7345 50.4828 61.9103 52.5334 61.0793 54.9993C60.4245 56.8559 59.9137 58.7602 59.5515 60.6952C59.3873 61.6736 59.3706 62.4341 59.5414 62.8865Z" fill="url(#paint16_linear_0_1)"/>
<path d="M70.0085 46.0735C70.0067 46.1001 69.9974 46.1256 69.9817 46.1472C69.9817 46.1472 67.1204 48.0268 65.4552 50.6335C65.0186 51.297 64.6864 52.0236 64.4701 52.7879C63.7095 55.6526 61.6423 59.4889 59.5582 62.883C56.8778 67.2655 54.1505 70.9443 54.1505 70.9443C52.5599 76.4883 51.6044 82.1951 51.3026 87.9549C50.6892 88.3958 50.0297 88.7687 49.3358 89.0673C39.7366 93.2789 25.3294 83.3278 21.6639 80.8284C21.2719 80.5603 20.9938 80.3794 20.8732 80.309L20.833 80.2856H20.7995L20.9905 79.8634C21.808 78.0541 25.058 70.8639 26.0966 68.1366C26.1345 68.052 26.1658 67.9646 26.1905 67.8753C26.1905 67.8183 26.224 67.7547 26.2374 67.6943C26.2508 67.634 26.2608 67.6072 26.2742 67.557C26.4211 66.9076 26.5263 66.2496 26.5892 65.5869C26.6294 65.2518 26.6662 64.8732 26.6997 64.4845C27.0348 60.4639 27.0348 54.6407 26.9912 51.7191C26.9912 50.5967 26.9644 49.9031 26.9644 49.9031C25.3422 51.4366 23.8275 53.08 22.4312 54.8217C21.7489 55.6681 21.1853 56.6038 20.7559 57.6026C20.1428 59.2075 18.5815 65.8482 17.2882 71.5508C16.9531 73.0351 16.618 74.4523 16.3567 75.7054C16.0216 77.2467 15.7302 78.5333 15.5492 79.3709C15.4018 80.041 15.3214 80.4129 15.3214 80.4129L15.1639 80.376L14.266 80.165L9.91031 79.5451C9.9077 79.5273 9.9077 79.5093 9.91031 79.4915C9.86675 79.0492 9.55515 75.8562 9.33736 71.6982C9.33736 71.5005 9.31392 71.3028 9.30387 71.0985C8.91186 63.2047 8.88169 52.2719 11.4917 49.8294C15.6832 45.9126 24.9642 30.9995 27.0582 30.2222C29.1523 29.4449 42.6783 27.1833 42.6783 27.1833L43.459 25.1227C43.459 25.1227 46.766 23.2297 49.4497 24.4727C52.1335 25.7157 60.426 31.0833 60.426 31.0833L59.1327 33.5559C59.1327 33.5559 67.9513 42.2271 69.6735 45.1454L69.7907 45.3464C69.7904 45.352 69.7904 45.3576 69.7907 45.3632C69.9377 45.5704 70.0141 45.8195 70.0085 46.0735Z" fill="url(#paint17_linear_0_1)"/>
<path d="M51.8287 36.6988L55.3065 33.9916L57.5413 32.2527L57.3135 31.0632L56.2547 25.555L55.4238 21.2462L51.3027 18.5658L50.4483 18.0096L49.3091 17.2625L46.4746 24.4158L45.7844 26.1614V26.1882C45.2851 28.7949 51.8287 36.6988 51.8287 36.6988Z" fill="url(#paint18_linear_0_1)"/>
<path d="M54.0634 34.9597C53.5171 34.9431 52.9753 34.8552 52.4518 34.6983C49.6574 33.8875 48.9907 24.3955 48.9907 24.3955L56.1641 33.3246L54.0634 34.9597Z" fill="#D15950"/>
<path style="mix-blend-mode:multiply" opacity="0.6" d="M43.7404 25.3505C43.7404 25.3505 50.877 37.0773 51.4901 37.3688C51.8621 37.543 59.7123 32.4335 59.5816 32.3966C59.451 32.3598 59.2868 32.3028 59.1293 32.2425C58.8278 32.132 55.5945 34.1188 55.3064 33.9915L58.2481 31.874L51.8285 36.6887C51.8285 36.6887 45.285 28.7848 45.7708 26.1613V26.1345L46.461 24.3889C45.5172 24.5933 44.603 24.9164 43.7404 25.3505Z" fill="url(#paint19_linear_0_1)"/>
<path style="mix-blend-mode:multiply" opacity="0.4" d="M59.3941 35.2312L54.499 40.7964L61.3876 37.1879L59.3941 35.2312Z" fill="url(#paint20_linear_0_1)"/>
<path style="mix-blend-mode:multiply" opacity="0.4" d="M49.1716 41.8484C49.1716 41.8484 42.092 30.5538 40.2191 29.9674C38.3461 29.3811 32.2381 29.6961 32.2381 29.6961C32.2381 29.6961 39.6093 29.562 42.8224 33.318C45.0941 36.0425 47.2138 38.8903 49.1716 41.8484Z" fill="url(#paint21_linear_0_1)"/>
<path d="M61.5555 31.0929L61.6456 31.0295L61.5555 31.0929Z" fill="#FDB06A"/>
<path style="mix-blend-mode:multiply" opacity="0.4" d="M56.3786 30.279C56.2847 30.4901 56.5595 30.8118 56.9917 31.0027C57.4239 31.1937 57.8494 31.1736 57.9399 30.9625C58.0304 30.7514 57.759 30.4264 57.3267 30.2388C56.8945 30.0512 56.4724 30.0679 56.3786 30.279Z" fill="url(#paint22_linear_0_1)"/>
<path style="mix-blend-mode:multiply" opacity="0.4" d="M67.6128 46.7098C68.0082 46.3948 68.2829 46.2039 68.3768 46.1436H68.4002C68.0999 46.2731 67.8313 46.4663 67.6128 46.7098Z" fill="url(#paint23_linear_0_1)"/>
<path style="mix-blend-mode:multiply" opacity="0.4" d="M20.9737 79.8599L20.7828 80.282H20.8163L20.8565 80.3055C20.9838 80.3758 21.2585 80.5568 21.6472 80.8248C25.3126 83.3243 39.7199 93.2753 49.3191 89.0637C50.013 88.7652 50.6724 88.3922 51.2858 87.9514C51.5877 82.1916 52.5431 76.4848 54.1338 70.9408C54.1338 70.9408 56.8577 67.2552 59.5415 62.8761C59.5742 63.0017 59.6454 63.1139 59.7452 63.1968C59.845 63.2798 59.9683 63.3293 60.0977 63.3385C62.5704 63.5026 67.8977 73.457 67.8977 73.457C67.8977 73.457 67.8742 73.6648 69.382 77.4073C70.8897 81.1498 85.7995 91.8581 85.9134 91.9318L87.515 89.2514C87.515 89.2514 89.3778 88.2127 87.1565 85.2307C85.5583 83.0864 82.516 76.2078 80.2376 72.013C83.6887 82.8016 75.7044 82.5235 70.4441 74.2276C65.4719 66.3908 67.6296 55.582 67.8809 54.406L65.234 64.1225C65.234 64.1225 63.9106 54.8215 65.4284 50.6735C65.4284 50.6735 65.4284 50.6534 65.4284 50.6467C66.1789 48.5828 66.916 47.4637 67.4755 46.8472C67.5109 46.8047 67.5489 46.7644 67.5894 46.7266C67.4152 46.8606 67.2108 47.0215 66.9964 47.2091C66.9829 47.2176 66.9714 47.2291 66.9629 47.2426C65.9859 48.0638 65.1188 49.0075 64.383 50.0503C63.1065 51.9032 61.133 57.4483 59.508 60.772C59.1647 61.5204 58.7412 62.2292 58.2449 62.8862C56.4356 65.0171 50.5387 65.3923 44.5748 65.1578L43.8242 65.131C39.1282 64.8695 34.4483 64.3719 29.8023 63.64L42.3969 67.282C42.3969 67.282 34.0206 67.5534 29.4371 66.756C25.5472 64.3034 28.6967 45.7349 28.6967 45.7349L28.6397 45.7885L27.0817 47.189L22.4312 54.8215C23.8228 53.0756 25.3329 51.4277 26.951 49.8895C26.951 49.8895 26.951 50.5831 26.9779 51.7055C27.0147 54.6271 27.0181 60.4637 26.6864 64.4709C26.6529 64.8596 26.616 65.2282 26.5758 65.5733C26.5129 66.236 26.4077 66.894 26.2608 67.5434C26.2608 67.5936 26.2374 67.6372 26.224 67.6807C26.2106 67.7243 26.1905 67.8047 26.1804 67.8617C26.1526 67.9515 26.1202 68.0399 26.0833 68.1264C25.0413 70.8604 21.7913 78.0506 20.9737 79.8599Z" fill="url(#paint24_linear_0_1)"/>
<path style="mix-blend-mode:multiply" opacity="0.4" d="M9.86344 79.5014C9.86083 79.5192 9.86083 79.5372 9.86344 79.555L14.2191 80.1749L15.117 80.3859L15.5024 79.3808C16.4003 75.2496 19.7374 60.1522 20.7091 57.6024C21.1384 56.6036 21.702 55.668 22.3843 54.8215C23.7759 53.0757 25.2861 51.4278 26.9042 49.8895C26.9042 49.8895 26.9042 50.5831 26.931 51.7055C27.6409 49.7793 28.201 47.801 28.6062 45.7885C28.8039 44.8205 28.9015 43.8347 28.8977 42.8468C28.7637 35.8107 27.6848 33.5993 27.5977 33.4285C27.6982 33.7635 29.9431 41.6808 26.5088 47.4671C22.9941 53.3841 17.6165 59.7468 17.6165 59.7468C17.6165 59.7468 19.8714 60.973 16.5142 72.5893C15.6598 75.6215 12.7147 77.9267 9.86344 79.5014Z" fill="url(#paint25_linear_0_1)"/>
<path d="M52.616 36.3135L49.7647 45.5944L46.6957 56.7851L46.1797 56.3831L48.7897 45.1421L50.3276 34.7856L52.616 36.3135Z" fill="url(#paint26_linear_0_1)"/>
<path d="M48.9003 24.0303C48.964 29.4715 51.7181 32.6042 55.789 34.1187C58.1544 34.9898 58.6202 33.9076 60.0743 32.9426C60.3155 32.7885 60.6137 32.5875 60.9488 32.363C61.2135 32.1854 61.5117 31.9777 61.8266 31.7498C61.8545 31.7246 61.8848 31.7021 61.9171 31.6828C62.1014 31.5522 62.2957 31.4081 62.49 31.2607C64.1653 29.9908 66.1019 28.3223 66.7184 27.1395C67.0534 26.5163 66.963 25.5949 67.0903 24.4591V24.4424C67.1171 24.2145 67.1506 23.9733 67.1975 23.7254C67.2562 23.4034 67.3356 23.0855 67.4354 22.7738C67.768 21.7856 68.2828 20.8685 68.9532 20.0699L69.2447 19.7349C69.2748 19.698 69.3083 19.6645 69.3351 19.6243L69.372 19.5841C69.4088 19.5406 69.449 19.4903 69.4859 19.4401C69.5148 19.406 69.5417 19.3701 69.5663 19.3328C69.5987 19.2939 69.6278 19.2525 69.6534 19.2089C69.9497 18.8032 70.1961 18.3634 70.3872 17.8988C71.6369 14.7996 70.1191 11.5328 70.1191 11.5328C70.1191 11.5328 68.7555 8.60783 63.8771 6.32613C58.9988 4.04443 53.8524 7.83721 53.8524 7.83721C53.8524 7.83721 49.7078 12.3839 48.9271 17.3795C48.9129 17.4554 48.8939 17.5304 48.8702 17.604C48.6792 18.713 48.9003 23.8828 48.9003 24.0303Z" fill="url(#paint27_linear_0_1)"/>
<path style="mix-blend-mode:multiply" opacity="0.4" d="M67.1738 23.9099C65.9945 22.9986 63.3744 23.9401 63.9473 26.0341C63.8669 26.0006 63.5385 22.9651 64.0143 21.2462C64.4901 19.5274 65.2573 19.4169 65.2573 19.4169C66.2256 18.6295 68.7017 19.1287 69.6666 19.1756C69.6499 19.1957 69.6365 19.2158 69.6197 19.2326L69.5795 19.2828C69.5158 19.3599 69.4522 19.4437 69.3852 19.5341L69.3483 19.5743C69.3215 19.6145 69.2847 19.6447 69.2579 19.6849L68.9664 20.0199C68.2962 20.8199 67.7814 21.7381 67.4486 22.7272C67.3488 23.0389 67.2694 23.3567 67.2107 23.6787L67.1738 23.9099Z" fill="url(#paint28_linear_0_1)"/>
<path d="M58.4693 25.709C58.5062 25.7458 58.6603 25.9402 58.8881 26.1915C58.8948 26.2023 58.9027 26.2124 58.9116 26.2216L58.9451 26.2652C59.002 26.3255 59.0657 26.3958 59.126 26.4695C59.3103 26.6773 59.5147 26.9152 59.7291 27.1397C59.8229 27.2435 59.9201 27.3407 60.0206 27.4412C61.4144 28.8015 62.3358 28.4464 63.4582 27.6958L63.7933 27.468C63.7933 27.468 63.7363 27.0726 62.5804 26.6438C61.4245 26.2149 58.6167 25.786 58.4693 25.709Z" fill="url(#paint29_linear_0_1)"/>
<path d="M66.4704 26.915C66.1822 27.5482 64.3127 29.8232 62.5067 31.2506C64.182 29.9841 66.1186 28.3155 66.7351 27.1328C67.1271 26.3789 66.9294 25.1962 67.2108 23.7018C67.2708 23.382 67.3514 23.0664 67.4521 22.757L67.4286 22.7168C67.0132 23.9766 66.7853 26.2147 66.4704 26.915Z" fill="#FCE2BB"/>
<path style="mix-blend-mode:multiply" opacity="0.4" d="M60.6639 21.2126C60.6639 21.2126 62.9188 15.9959 61.84 15.2487C60.7611 14.5015 57.548 14.2435 57.1928 14.4613C56.8376 14.6791 54.5124 17.4332 54.5124 17.4332C54.5124 17.4332 57.4474 18.8572 57.1928 19.142C56.9382 19.4268 57.5714 21.8995 58.8413 21.8894C60.1111 21.8794 60.6639 21.2126 60.6639 21.2126Z" fill="url(#paint30_linear_0_1)"/>
<path d="M59.126 26.4694C59.3873 26.7676 59.7023 27.1194 60.0206 27.4511C60.0273 27.3372 60.0608 26.2617 59.126 26.4694Z" fill="#984E77"/>
<path d="M65.2742 19.2728C65.2742 19.2728 67.8675 19.122 68.7419 19.9798C68.8061 20.0396 68.8568 20.1124 68.8909 20.1932C68.9249 20.274 68.9415 20.3611 68.9396 20.4488C69.3653 19.9499 69.7173 19.3925 69.985 18.7937C68.1724 18.2777 65.2742 19.2728 65.2742 19.2728Z" fill="url(#paint31_linear_0_1)"/>
<path style="mix-blend-mode:multiply" opacity="0.4" d="M69.583 17.9324C69.3484 17.7649 65.0229 21.4337 58.6603 7.65641C55.2193 1.62548 72.7794 7.84068 72.7794 7.84068L69.583 17.9324Z" fill="url(#paint32_linear_0_1)"/>
<path d="M61.4881 16.5018C60.2685 16.0495 58.5295 15.3627 57.645 15.3359C57.133 15.319 56.6208 15.3662 56.1205 15.4766C56.4377 15.0845 56.837 14.7667 57.2903 14.5456C57.7435 14.3245 58.2397 14.2054 58.744 14.1967C60.4829 14.1632 63.2806 15.4665 63.2806 15.4665C63.2806 15.4665 62.711 16.9575 61.4881 16.5018Z" fill="url(#paint33_linear_0_1)"/>
<path d="M59.7291 27.1497C59.8229 27.2535 59.9201 27.3507 60.0206 27.4512C61.4144 28.8115 62.3358 28.4564 63.4583 27.7058C62.8937 27.9691 62.2786 28.1063 61.6557 28.1079C60.932 28.1113 60.2418 27.6254 59.7291 27.1497Z" fill="#CF6365"/>
<path d="M48.9204 17.3294L49.7077 17.0647L51.9894 16.4415C52.3412 14.8575 52.9357 13.3375 53.7518 11.9351C54.9882 9.95492 55.4003 9.8611 55.4003 9.8611L54.4923 9.89796L49.9054 9.42554L49.7915 10.4106L49.6575 11.533L48.9204 17.3294Z" fill="url(#paint34_linear_0_1)"/>
<path d="M74.525 15.741L73.8315 13.3956C73.9018 13.8044 74.2938 16.6724 72.7727 18.2907C72.2704 18.8189 71.6113 19.1714 70.8931 19.2959C70.5978 19.3586 70.297 19.3923 69.9951 19.3964C69.9114 19.2557 66.0717 12.3603 65.9276 11.9683L66.0181 15.8516C65.6048 15.5523 65.1827 15.234 64.7516 14.8967C63.6614 14.0454 62.6356 13.1148 61.6825 12.1124L61.6389 12.0688C60.6338 11.0134 60.2217 10.0116 59.4343 8.71833C56.4725 3.83998 55.0485 8.82889 54.5057 9.91446L54.4085 10.1121L49.815 10.4472C49.6977 10.2462 49.7614 8.37322 49.8786 6.71807C49.8892 6.2065 49.9328 5.69616 50.0093 5.19023C50.0663 5.02798 50.1583 4.88024 50.2787 4.75749C50.3991 4.63474 50.5451 4.53998 50.7062 4.47993C50.7194 4.47652 50.7332 4.47652 50.7464 4.47993C50.9298 4.3955 51.1236 4.33578 51.3227 4.30235H51.3797H51.4266H51.4835H51.5371C52.3065 4.22574 53.0819 4.23585 53.849 4.3325C53.8564 4.31284 53.8654 4.29379 53.8758 4.27554L53.9093 4.21188L53.9797 4.08121L54.0266 4.0075C54.05 3.96394 54.0802 3.92039 54.1103 3.87013L54.174 3.77297L54.2477 3.6691L54.3281 3.55518L54.4186 3.43791C54.4655 3.37425 54.5158 3.31395 54.5727 3.25029C54.7 3.09616 54.8475 2.93534 55.0116 2.76781C55.9007 1.89254 56.9555 1.20341 58.1142 0.740748C59.307 0.248223 59.8866 0.174512 61.3676 0.0505431C63.7129 -0.143787 65.8472 0.208017 67.623 1.35389L64.1719 1.15621C66.0604 1.76476 67.8143 2.73046 69.3384 4.0008C70.288 4.78018 71.1609 5.64856 71.9451 6.5941C72.4401 7.18307 72.8808 7.81553 73.2619 8.48379C74.1609 10.0154 74.6319 11.7604 74.6255 13.5364C74.6188 14.3237 74.582 15.0676 74.525 15.741Z" fill="url(#paint35_linear_0_1)"/>
<path style="mix-blend-mode:multiply" opacity="0.5" d="M72.5582 9.77734C72.6587 10.0219 74.5685 14.8366 73.2451 17.3462C73.0641 17.6835 72.9067 18.0017 72.7727 18.3011C74.3507 16.6258 73.8716 13.6103 73.8247 13.3691L74.525 15.7379C74.5853 15.0678 74.6221 14.324 74.6255 13.5333L72.5582 9.77734Z" fill="url(#paint36_linear_0_1)"/>
<path style="mix-blend-mode:multiply" opacity="0.5" d="M70.8964 19.3028C70.6012 19.366 70.3003 19.3985 69.9984 19.3999C69.9147 19.2592 66.075 12.3639 65.9309 11.9719L66.0214 15.8551C64.0546 10.6551 68.2327 5.52881 68.2327 5.52881C68.2327 5.52881 68.0585 6.47366 67.9379 7.84402C67.8675 8.65484 67.8139 9.61644 67.8239 10.6182C67.8222 11.8266 67.9559 13.0314 68.2227 14.21C68.6683 16.1265 69.8611 18.5925 70.8964 19.3028Z" fill="url(#paint37_linear_0_1)"/>
<g style="mix-blend-mode:soft-light">
<path d="M70.3435 7.01976L71.0136 8.23264C71.7667 8.06191 72.5553 8.15045 73.2518 8.48393C72.8706 7.81567 72.4299 7.18321 71.935 6.59424C71.3834 6.64031 70.8445 6.7844 70.3435 7.01976Z" fill="#FDE8CF"/>
</g>
<g style="mix-blend-mode:soft-light">
<path d="M70.3435 8.34987C69.8051 8.4326 69.2716 8.54445 68.7453 8.68492C68.5744 8.81894 68.0752 10.0787 67.7971 10.588C67.7971 9.58286 67.8407 8.62461 67.911 7.81379C68.1623 8.02487 68.5208 8.29626 68.618 8.2594C69.0197 7.86553 69.461 7.5141 69.9347 7.21069L70.3435 8.34987Z" fill="#FDE8CF"/>
</g>
<path style="mix-blend-mode:multiply" opacity="0.5" d="M61.679 12.1059L61.6321 12.0623C60.6269 11.0069 60.2148 10.0051 59.4275 8.71183C56.4656 3.83348 55.0416 8.8224 54.4989 9.90797L55.4069 9.87111C55.4069 9.87111 54.9947 9.96492 53.7584 11.9451C52.9423 13.3475 52.3478 14.8676 51.996 16.4515L49.7143 17.0747L48.927 17.3394L49.8014 10.4306C49.6842 10.2263 49.7478 8.35333 49.8651 6.69817C51.4733 5.46853 52.6728 5.47524 53.43 5.72987C52.4014 5.16699 50.8736 4.38967 50.7496 4.44998C50.9334 4.36589 51.127 4.30511 51.3259 4.26905H51.3829H51.4298H51.4867H51.5404C52.3106 4.1903 53.0873 4.1993 53.8556 4.29585C53.863 4.27619 53.8719 4.25715 53.8824 4.2389L53.9159 4.17524L53.9862 4.04457L54.0331 3.97085C54.0566 3.9273 54.0867 3.88374 54.1169 3.83348L54.1806 3.73632L54.2543 3.63245L54.3347 3.51853L54.4251 3.40127L54.5793 3.21364C54.7066 3.06287 54.854 2.89869 55.0182 2.73116C55.9088 1.85615 56.9646 1.16709 58.1241 0.704102C55.705 2.54353 58.5161 7.73013 61.679 12.1059ZM54.3079 6.2358L54.3648 6.29276C54.3648 6.29276 54.338 6.26596 54.3012 6.23915L54.3079 6.2358Z" fill="url(#paint38_linear_0_1)"/>
<path d="M46.5549 19.3865C45.7206 18.3479 45.3755 16.6659 45.4894 15.1649C45.5966 13.7309 46.1294 12.4644 47.0575 12.1025C48.8098 11.4157 50.8804 14.334 50.7229 15.8182C50.5252 17.6644 49.2353 19.611 49.2353 19.611C48.5652 20.8172 47.8683 21.035 46.5549 19.3865Z" fill="#FCE2BB"/>
<path d="M46.5045 19.6947C45.7205 18.6192 45.4491 16.9205 45.6301 15.4295C45.8043 13.9988 46.394 12.7491 47.3388 12.4375C49.118 11.831 51.0546 14.8432 50.8301 16.3174C50.5486 18.1535 49.1548 20.0398 49.1548 20.0398C48.4479 21.1957 47.7509 21.3968 46.5045 19.6947Z" fill="url(#paint39_linear_0_1)"/>
<path d="M47.225 13.781C48.2536 13.5397 49.8719 14.7861 49.3458 16.7964C49.1817 17.433 48.2938 16.9908 48.2569 17.6776C48.2228 18.0673 48.3431 18.4547 48.592 18.7565C48.2661 18.6142 47.9717 18.4085 47.7261 18.1514C47.4805 17.8943 47.2885 17.5909 47.1613 17.2588C46.7793 16.1464 49.5971 13.781 47.225 13.781Z" fill="url(#paint40_linear_0_1)"/>
<g style="mix-blend-mode:multiply" opacity="0.4">
<path d="M89.1064 109.009C89.6089 109.009 88.5401 133.549 88.5401 133.549C88.5401 133.549 90.1417 112.212 91.7432 111.68C93.3448 111.147 102.411 142.086 102.411 142.086C102.411 142.086 97.61 104.225 94.943 104.225C92.276 104.225 89.1064 109.009 89.1064 109.009Z" fill="#7A1F98"/>
</g>
<path fill-rule="evenodd" clip-rule="evenodd" d="M21.7242 99.1723L19.4525 98.415C20.2734 98.8204 21.1278 99.4705 21.369 100.476L21.3121 102.64C20.3623 102.3 19.4505 101.862 18.5915 101.333C18.0986 101.034 17.6253 100.704 17.1742 100.345C15.8403 99.3388 14.7993 97.9948 14.1587 96.4516C14.0684 96.2135 13.9945 95.9695 13.9376 95.7212C13.9075 95.604 13.884 95.4867 13.8639 95.3661C13.1301 91.1444 16.7755 86.2158 16.7755 86.2158L17.4858 87.0601C17.4858 87.0601 17.3853 87.613 17.258 88.4205C17.2144 88.7052 17.1675 89.0202 17.1206 89.3519C16.8459 91.3153 16.5745 93.9086 16.9732 94.4782C17.6433 95.4163 20.8263 95.9759 21.483 96.914C21.7443 97.2692 21.7611 98.1805 21.7242 99.1723Z" fill="#FCD253"/>
<path style="mix-blend-mode:multiply" opacity="0.5" fill-rule="evenodd" clip-rule="evenodd" d="M14.9662 94.0728C14.9662 94.0728 14.9662 96.207 15.499 96.7532C16.0317 97.2993 21.9018 99.4336 21.9018 99.4336C21.9018 99.4336 17.1005 97.832 16.0317 96.2305C14.9629 94.6289 14.9662 94.0728 14.9662 94.0728Z" fill="url(#paint41_linear_0_1)"/>
<path style="mix-blend-mode:multiply" opacity="0.5" fill-rule="evenodd" clip-rule="evenodd" d="M21.493 96.914C21.7443 97.2691 21.7778 98.1805 21.7242 99.1722L19.4525 98.415C20.2734 98.8204 21.1278 99.4704 21.369 100.476L21.312 102.64C20.3622 102.3 19.4504 101.862 18.5914 101.333C18.5445 102.372 17.8409 103.679 17.8409 103.679L17.6901 103.525C17.9783 102.61 17.6901 101.474 17.1742 100.348C16.1992 98.2475 14.3899 96.1903 13.9476 95.7246L13.9007 95.6776C13.8471 95.624 13.8404 95.5202 13.8739 95.3694C13.9376 95.0846 13.6226 94.6155 13.9007 94.0761C14.6579 92.5985 13.4182 82.7715 13.9007 81.2738C14.0079 80.9387 17.134 88.3099 17.144 88.0653C17.1809 88.1792 17.2244 88.2965 17.268 88.4238C17.6533 89.4624 18.3636 90.8764 19.2347 90.8764C20.0412 90.8589 20.8448 90.7737 21.6371 90.6217L22.7092 94.6625C22.7092 94.6625 20.8363 95.9792 19.5195 94.1029C18.7054 92.9436 17.7438 90.8127 17.1306 89.3552C16.8559 91.3186 16.5845 93.9119 16.9832 94.4815C17.6432 95.4163 20.8363 95.9758 21.493 96.914Z" fill="url(#paint42_linear_0_1)"/>
<path fill-rule="evenodd" clip-rule="evenodd" d="M22.4312 95.1418C22.4312 95.1418 20.0121 95.9492 18.6987 94.0729C17.8812 92.9137 17.5093 88.4876 16.5042 87.8142C15.499 87.1407 14.4938 91.5165 14.4101 94.0964C14.3983 94.3505 14.4106 94.6052 14.4469 94.8569C14.8255 97.3899 17.7371 99.5477 18.3972 100.482C18.554 100.737 18.6212 101.036 18.5882 101.333C18.5413 102.372 17.8376 103.679 17.8376 103.679L17.6869 103.525C16.8526 102.67 12.8119 98.499 11.6325 96.8237C10.3158 94.9474 8.02735 71.0046 8.02735 71.0046C8.02735 71.0046 14.5106 71.2961 17.0134 74.2178C17.0134 74.2178 16.1456 76.1343 16.2964 77.8799C16.3288 78.4349 16.508 78.9715 16.8157 79.4345C17.3485 80.1918 17.9315 81.0093 18.4341 81.7162C19.1779 82.7582 19.7542 83.5557 19.7542 83.5557L20.8297 91.3992L22.4312 95.1418Z" fill="#FCD253"/>
<path fill-rule="evenodd" clip-rule="evenodd" d="M90.7178 108.47C90.7223 108.453 90.728 108.436 90.7347 108.42L90.7178 108.47Z" fill="#FCD253"/>
<path fill-rule="evenodd" clip-rule="evenodd" d="M98.6588 99.4839C98.6018 100.824 97.9887 103.304 97.4827 105.18C97.3789 105.562 97.275 105.92 97.1812 106.239C96.9567 107.009 96.7825 107.552 96.7322 107.666C96.4678 107.84 96.1886 107.99 95.898 108.115C95.7807 108.175 95.65 108.235 95.516 108.299C95.1642 108.463 94.7688 108.634 94.3768 108.815L94.0418 108.956C93.834 109.043 93.6297 109.127 93.4387 109.2C93.1383 109.327 92.8293 109.432 92.5139 109.515C92.4464 109.535 92.3766 109.546 92.3062 109.549C92.0784 109.549 91.9711 109.445 91.9711 109.298C91.8807 108.765 92.7518 107.559 91.8606 107.441C91.6674 107.434 91.4765 107.485 91.3119 107.586C91.1473 107.688 91.0165 107.835 90.9358 108.011C90.8655 108.13 90.8039 108.255 90.7516 108.383L90.909 107.947L91.4217 106.49L90.9191 105.736L88.8083 102.573L88.423 101.994L88.0611 101.451L87.8768 101.176L87.6959 100.905L87.5652 100.707L82.4691 99.0316C82.4691 99.0316 82.516 98.8038 82.5897 98.4352V98.4118C82.8778 96.9677 83.5211 93.4229 83.0923 92.3105C82.9351 91.9532 82.736 91.6158 82.4992 91.3054C81.7587 90.3516 80.9382 89.4627 80.0467 88.6484C80.0467 88.6484 80.117 88.2832 80.2745 87.7136C80.767 85.9445 82.124 82.1986 84.9217 81.3476C85.1622 81.2754 85.409 81.226 85.6588 81.2002C85.6588 81.2002 88.6005 87.7471 90.3964 90.2868C92.1923 92.8265 97.4626 98.0633 98.4376 98.4956C98.5516 98.5458 98.6186 98.6999 98.6454 98.9345C98.6663 99.1169 98.6708 99.3008 98.6588 99.4839Z" fill="#FCD253"/>
<path style="mix-blend-mode:multiply" opacity="0.5" fill-rule="evenodd" clip-rule="evenodd" d="M97.1812 106.235C97.2771 104.519 97.258 102.799 97.1242 101.085C97.1611 101.498 97.3454 103.521 97.4827 105.176C97.3789 105.558 97.275 105.92 97.1812 106.235Z" fill="url(#paint43_linear_0_1)"/>
<path style="mix-blend-mode:multiply" opacity="0.5" fill-rule="evenodd" clip-rule="evenodd" d="M85.9133 87.6733C85.4091 88.7435 84.9617 89.8395 84.5731 90.9568C83.7712 93.1866 83.1526 95.4782 82.7236 97.8086C82.6834 98.0298 82.6432 98.2342 82.5997 98.4218C82.8878 96.9777 83.5311 93.4329 83.1022 92.3205C82.945 91.9632 82.746 91.6257 82.5092 91.3153C82.7839 90.9166 83.0855 90.5112 83.4138 90.1092C84.147 89.2005 84.9861 88.3828 85.9133 87.6733Z" fill="url(#paint44_linear_0_1)"/>
<path style="mix-blend-mode:multiply" opacity="0.5" fill-rule="evenodd" clip-rule="evenodd" d="M98.6588 99.4839C98.6018 100.824 97.9886 103.303 97.4827 105.18C97.3789 105.562 97.275 105.92 97.1812 106.239C96.9567 107.009 96.7825 107.552 96.7322 107.666C96.4678 107.84 96.1886 107.99 95.8979 108.115C95.7807 108.175 95.65 108.235 95.516 108.299C95.1642 108.463 94.7688 108.634 94.3768 108.815L94.0417 108.956C93.8876 109.626 93.6732 110.082 93.3716 110.082C92.3062 110.082 86.9722 111.683 86.9722 111.683C86.9722 111.683 87.5049 107.415 90.1719 107.415C90.2971 107.417 90.4219 107.398 90.5405 107.358C91.0464 107.177 90.9961 106.557 90.6711 105.769L90.9057 105.736C91.9719 105.541 92.9972 105.166 93.9379 104.627C94.0987 104.536 94.2729 104.439 94.4304 104.332C94.7999 104.099 95.1556 103.845 95.4959 103.572L95.526 103.548C95.8887 103.256 96.2355 102.946 96.5647 102.617C97.4701 101.727 98.1829 100.661 98.6588 99.4839Z" fill="url(#paint45_linear_0_1)"/>
<path fill-rule="evenodd" clip-rule="evenodd" d="M94.4506 104.211V104.325C94.4506 104.754 94.4204 106.292 94.2629 107.676C94.2157 108.107 94.1452 108.535 94.0518 108.959C93.8977 109.629 93.6833 110.085 93.3817 110.085C92.3163 110.085 86.9823 111.686 86.9823 111.686C86.9823 111.686 87.515 107.418 90.182 107.418C90.3072 107.421 90.432 107.401 90.5506 107.361C91.0565 107.18 91.0062 106.56 90.6812 105.773C89.9073 103.893 87.5585 101.082 87.515 101.015L87.8701 101.179L94.4506 104.211Z" fill="#FCD253"/>
<path style="mix-blend-mode:multiply" opacity="0.5" fill-rule="evenodd" clip-rule="evenodd" d="M94.2628 107.669L94.3767 108.812L94.0417 108.952C93.8875 109.622 93.6731 110.078 93.3716 110.078C92.3061 110.078 86.9721 111.68 86.9721 111.68C86.9721 111.68 87.5048 107.411 90.1718 107.411C90.2971 107.414 90.4218 107.395 90.5404 107.354L90.7045 107.411C90.7545 107.593 90.8184 107.771 90.8955 107.944C90.8955 107.964 90.9123 107.984 90.9223 108.008C91.134 108.529 91.494 108.976 91.9576 109.294C92.1273 109.402 92.3161 109.476 92.5138 109.512C92.6241 109.534 92.7364 109.545 92.8489 109.545C92.9688 109.544 93.0863 109.512 93.191 109.454C93.2957 109.395 93.3842 109.312 93.4486 109.21C94.1187 108.269 94.0182 105.655 93.9478 104.637C93.9478 104.466 93.9277 104.335 93.921 104.272L93.9579 104.634L94.2628 107.669Z" fill="url(#paint46_linear_0_1)"/>
<path style="mix-blend-mode:multiply" opacity="0.5" fill-rule="evenodd" clip-rule="evenodd" d="M96.0488 108.111C95.9315 108.172 95.8008 108.232 95.6668 108.296V103.143L95.697 103.541L96.0488 108.111Z" fill="url(#paint47_linear_0_1)"/>
<g style="mix-blend-mode:soft-light" opacity="0.43">
<path d="M109.88 155.421C105.628 157.016 91.8438 141.684 91.7433 141.553C91.7634 141.553 92.2961 142.019 93.1639 142.726C99.4528 149.561 107.213 153.836 109.377 152.754C110.935 151.973 110.848 149.424 110.164 146.827C109.969 145.761 109.696 144.71 109.347 143.684C109.347 143.684 114.158 153.833 109.88 155.421Z" fill="white"/>
</g>
<g style="mix-blend-mode:multiply" opacity="0.4">
<path d="M102.723 160.959C97.754 159.559 87.4947 157.036 80.8306 157.903C81.9113 157.021 83.0788 156.251 84.3151 155.605C84.3151 155.605 84.228 154.841 84.161 153.889L84.2849 153.819C85.0857 155.447 97.0806 159.247 102.723 160.959Z" fill="#7A1F98"/>
</g>
<g style="mix-blend-mode:multiply" opacity="0.4">
<path d="M105.611 161.82C105.5 161.787 104.388 161.462 102.723 160.959C104.422 161.438 105.504 161.783 105.611 161.82Z" fill="#7A1F98"/>
</g>
<g style="mix-blend-mode:multiply" opacity="0.4">
<path d="M152.063 179.075C150.461 179.075 91.7835 180.144 88.0476 178.543C86.7711 177.996 85.183 176.392 83.6451 174.365C91.8203 177.983 105.142 179.451 110.422 177.826C117.358 175.691 114.158 166.621 114.158 166.621L120.558 165.559C120.558 165.559 112.942 172.016 115.224 176.227C117.505 180.439 133.893 178.908 134.962 177.296C136.03 175.685 143.495 148.472 126.967 146.887C123.282 146.528 120.44 145.852 118.256 145.017C125.627 145.533 135.618 144.786 141.374 150.817C149.771 159.562 153.661 179.075 152.063 179.075Z" fill="#7A1F98"/>
</g>
<g style="mix-blend-mode:soft-light" opacity="0.43">
<path d="M83.1157 161.267C79.1352 162.607 83.1157 169.429 94.618 165.72C102.173 163.284 85.3437 160.533 83.1157 161.267Z" fill="white"/>
</g>
<path d="M61.1564 19.3094C61.1564 19.4032 61.1564 19.4971 61.1329 19.5909C61.1095 19.7685 61.076 19.946 61.0358 20.1169C60.9462 20.5476 60.7818 20.9593 60.5499 21.3331C60.5233 21.3604 60.4941 21.3851 60.4628 21.4069C60.1043 21.6514 59.3772 21.5342 58.6971 21.1589L58.62 21.1154C58.2782 20.9322 57.9769 20.6821 57.7339 20.3799C57.491 20.0776 57.3115 19.7295 57.2061 19.3563C57.3703 19.1821 59.2499 17.2623 60.6739 18.1133C61.0626 18.3277 61.1765 18.8069 61.1564 19.3094Z" fill="#FDEBCF"/>
<path d="M66.7384 21.6614C66.7368 21.6848 66.7368 21.7083 66.7384 21.7318C66.715 21.8892 66.6848 22.0668 66.6446 22.2176C66.6044 22.3684 66.5776 22.4957 66.5407 22.6331C66.5173 22.7068 66.4972 22.7805 66.4737 22.8542C66.4674 22.8781 66.4596 22.9016 66.4503 22.9246C66.4191 23.0292 66.3822 23.1321 66.3397 23.2328C66.0047 23.6717 65.7031 23.799 65.09 23.6684C64.9993 23.6325 64.9109 23.5911 64.8253 23.5444C64.6798 23.4669 64.5447 23.3712 64.4232 23.2596C64.3437 23.1979 64.2814 23.1168 64.2421 23.0241C64.2028 22.9315 64.1879 22.8303 64.1987 22.7302C64.2781 22.3846 64.4287 22.0594 64.641 21.7753C65.3111 20.8539 66.4905 20.3882 66.7753 20.6797C66.8959 20.8171 66.8188 21.1119 66.7384 21.6614Z" fill="#FDEBCF"/>
<path d="M61.133 19.5943C61.133 19.5943 61.6322 18.4418 61.1095 17.9693C60.5869 17.4969 58.2851 17.7381 57.2062 19.3598C57.2062 19.3598 58.5095 18.0531 60.1781 18.2943C60.332 18.303 60.4821 18.3455 60.6176 18.419C60.7532 18.4925 60.8708 18.595 60.962 18.7192C61.0533 18.8434 61.1159 18.9863 61.1455 19.1376C61.1751 19.2889 61.1708 19.4449 61.133 19.5943Z" fill="#6D2642"/>
<path d="M64.5638 21.8224C64.5638 21.8224 65.4986 20.5794 66.5742 20.4319C67.385 20.3214 66.7182 21.7353 66.7182 21.7353C66.7182 21.7353 66.7919 21.0652 66.5205 20.9747C66.0247 20.8173 65.3914 21.0987 64.5638 21.8224Z" fill="#6D2642"/>
<path d="M61.0358 20.1203C60.9463 20.551 60.7819 20.9626 60.55 21.3365C60.5234 21.3638 60.4942 21.3885 60.4629 21.4102C60.1044 21.6548 59.3773 21.5375 58.6972 21.1623L58.6201 21.1187C58.5788 20.8662 58.5995 20.6075 58.6804 20.3648C58.7382 20.1857 58.8266 20.0179 58.9418 19.869C59.0272 19.7606 59.1263 19.6637 59.2366 19.5808C59.3812 19.4664 59.5512 19.3886 59.7323 19.3539C59.9134 19.3193 60.1002 19.3288 60.2768 19.3818C60.4534 19.4347 60.6146 19.5295 60.7467 19.6581C60.8789 19.7866 60.978 19.9452 61.0358 20.1203Z" fill="#6D2642"/>
<path d="M66.5004 22.7138L66.4602 22.8546C66.4539 22.8785 66.4461 22.902 66.4368 22.9249C66.4056 23.0296 66.3687 23.1325 66.3262 23.2332C65.9912 23.6721 65.6896 23.7994 65.0765 23.6687C64.9858 23.6329 64.8974 23.5915 64.8118 23.5448C64.6662 23.4672 64.5312 23.3715 64.4097 23.26C64.4365 23.1997 64.47 23.136 64.5002 23.0757C64.6525 22.7851 64.8556 22.5241 65.0999 22.3051C65.183 22.233 65.2727 22.169 65.368 22.1141C65.4793 22.0332 65.6097 21.9824 65.7464 21.9665C65.8832 21.9507 66.0217 21.9703 66.1486 22.0236C66.2523 22.0894 66.3387 22.1792 66.4005 22.2853C66.4623 22.3914 66.4977 22.5108 66.5038 22.6334C66.4975 22.6598 66.4964 22.6871 66.5004 22.7138Z" fill="#6D2642"/>
<path d="M59.7157 20.003C59.6755 20.1237 58.8446 19.8355 58.7106 19.7986C58.5765 19.7618 58.0606 19.3899 58.1008 19.2726C58.141 19.1554 58.7307 19.3296 58.8513 19.3698C58.9719 19.41 59.7526 19.8858 59.7157 20.003Z" fill="white"/>
<path d="M65.8873 22.5158C65.8605 22.5929 65.3077 22.4019 65.2172 22.3784C65.1267 22.355 64.7816 22.1037 64.8084 22.0266C64.8352 21.9496 65.2306 22.0668 65.311 22.0903C65.3914 22.1137 65.9141 22.4354 65.8873 22.5158Z" fill="white"/>
<path d="M109.906 152.369C109.757 152.526 109.581 152.657 109.387 152.754C108.261 153.317 105.621 152.419 102.462 150.486C99.7814 148.804 97.289 146.841 95.0267 144.629L95.3618 129.793L100.294 124.194L101.808 124.75C104.204 132.497 106.536 139.767 107.253 140.498C107.674 140.976 108.031 141.508 108.315 142.079C109.095 143.564 109.711 145.131 110.151 146.75C110.16 146.779 110.168 146.81 110.174 146.84C110.771 149.092 110.912 151.32 109.906 152.369Z" fill="#A3702D"/>
<path d="M92.9528 125.551L95.2178 143.419C95.1412 143.381 95.0673 143.337 94.9966 143.288C94.541 142.98 93.968 142.548 93.3214 142.022C92.6084 139.181 91.3448 136.509 89.6023 134.155L92.8825 133.672L91.0564 126.285L92.9528 125.551Z" fill="#B5AF64"/>
<path d="M101.889 144.217C102.421 143.684 109.89 134.618 109.89 134.618V137.298L102.421 144.766L101.889 144.217Z" fill="#A6815B"/>
<path d="M110.422 140.484L110.151 146.736L109.906 152.369C109.757 152.526 109.581 152.657 109.387 152.754C108.261 153.317 105.621 152.419 102.462 150.486L104.02 145.286L108.315 142.066L110.422 140.484Z" fill="#A6815B"/>
<path d="M95.4857 123.946L98.1527 137.285L100.287 135.15L98.6854 118.612L95.4857 123.946Z" fill="#B5AF64"/>
<path d="M101.889 149.018L104.02 136.749H104.556L102.421 149.554L101.889 149.018Z" fill="#B5AF64"/>
<path d="M60.4662 29.7531L60.4394 29.7833C60.4126 29.8135 60.3623 29.8738 60.292 29.9441C60.2363 30.0004 60.1837 30.0597 60.1345 30.1217L60.044 30.2356C59.9603 30.3395 59.8698 30.4534 59.7693 30.5707C59.2902 31.1101 58.6134 31.606 57.5345 30.8588C56.4556 30.1116 56.727 28.5972 56.3685 27.5854C56.0335 26.6707 55.0082 26.1982 55.0082 26.1982L55.7487 26.2619L55.7688 26.2887C55.7678 26.2954 55.7678 26.3021 55.7688 26.3088C55.9899 26.6037 57.2195 28.1951 58.4492 29.0361C59.8061 29.9408 60.4427 29.7598 60.4662 29.7531Z" fill="url(#paint48_linear_0_1)"/>
<path style="mix-blend-mode:multiply" opacity="0.4" d="M60.4662 29.7532L60.4394 29.7834C60.4126 29.8136 60.3623 29.8739 60.292 29.9442C60.2363 30.0005 60.1837 30.0598 60.1345 30.1218C57.9064 31.2476 55.4605 26.654 55.4605 26.654L55.0082 26.1917L55.7487 26.2553L55.7688 26.2821C55.7678 26.2888 55.7678 26.2955 55.7688 26.3022C55.9899 26.5971 57.2195 28.1886 58.4492 29.0295C59.8061 29.9409 60.4427 29.76 60.4662 29.7532Z" fill="url(#paint49_linear_0_1)"/>
<path style="mix-blend-mode:multiply" opacity="0.4" d="M53.926 26.2182C53.926 26.2182 53.9763 24.6267 54.5056 24.6434C55.035 24.6602 55.5342 25.7357 55.5342 25.7357C55.5342 25.7357 55.0317 24.6568 53.926 26.2182Z" fill="url(#paint50_linear_0_1)"/>
<path d="M133.876 107.153C133.876 107.153 133.246 105.549 134.546 105.026C135.846 104.503 140.912 112.551 140.912 112.551C140.912 112.551 137.28 127.722 138.262 121.598C139.243 115.473 133.876 107.153 133.876 107.153Z" fill="url(#paint51_linear_0_1)"/>
<path d="M180.753 168.052C180.753 168.052 183.769 169.691 185.404 166.682C187.039 163.673 189.029 172.14 189.029 172.14L189.072 171.413L179.852 171.855L180.753 168.052Z" fill="url(#paint52_linear_0_1)"/>
<path d="M136.871 165.894C136.871 165.894 140.46 172.93 137.367 173.58C134.275 174.23 145.06 173.071 145.06 173.071C145.06 173.071 142.845 170.692 142.185 167.6C141.525 164.507 141.582 162.976 141.582 162.976L136.871 165.894Z" fill="url(#paint53_linear_0_1)"/>
<path d="M184.204 171.979C184.204 171.979 157.919 177.953 156.395 177.9C155.132 177.856 151.835 176.7 150.736 175.44C150.515 175.223 150.386 174.929 150.374 174.62C150.411 173.578 153.661 161.988 155.259 154.433C156.01 150.891 156.395 148.238 155.929 147.976C154.622 147.266 140.651 146.683 138.383 148.09C138.188 148.211 138.078 148.345 138.074 148.499C138.072 148.568 138.088 148.636 138.121 148.697C138.125 148.707 138.131 148.718 138.138 148.727C138.171 148.785 138.212 148.839 138.259 148.888C138.312 148.945 138.362 149.006 138.409 149.069C139.341 150.345 140.178 153.984 140.828 157.689C141.673 162.504 142.202 167.426 142.202 167.426L137.578 168.033C137.578 168.033 127.302 148.05 125.118 141.771C124.783 140.81 124.639 140.17 124.749 139.972C125.567 138.468 127.919 137.017 134.895 134.946C137.1 134.328 139.337 133.83 141.596 133.455C147.777 132.366 154.177 131.78 154.177 131.78L155.343 130.986L165.964 123.759C165.964 123.759 167.391 125.039 169.395 128.114C169.841 128.785 170.313 129.572 170.805 130.44C172.281 133.072 173.564 135.809 174.642 138.628C176.143 142.505 175.181 147.269 173.322 151.793C169.971 159.975 163.659 167.383 163.659 167.383L162.865 168.123C162.865 168.123 163.632 168.15 165.19 167.453C166.748 166.756 183.571 168.103 183.571 168.103L183.591 168.24L183.692 168.863L184.204 171.979Z" fill="url(#paint54_linear_0_1)"/>
<path d="M167.076 158.54C163.876 163.686 160.667 167.945 156.783 171.607C157.393 170.672 158.419 169.262 158.576 169.124C158.911 168.762 162.476 163.693 166.121 157.823C170.551 150.686 173.027 145.761 173.09 143.982C173.245 139.593 167.294 130.825 167.25 130.741L170.082 130.553C170.259 130.908 174.437 139.332 174.283 144.026C174.209 146.079 171.784 150.965 167.076 158.54Z" fill="#D9E0FD"/>
<g style="mix-blend-mode:multiply" opacity="0.4">
<path d="M168.487 139.214C168.487 139.214 166.363 139.409 163.046 141.325C159.189 143.55 156.643 149.889 155.252 154.432C155.457 153.474 155.631 152.583 155.772 151.782C156.147 149.628 156.257 148.167 155.909 147.976C155.631 147.825 154.787 147.681 153.607 147.56C148.729 147.058 138.108 146.957 138.054 148.499C138.037 148.529 138.054 148.582 138.081 148.659C135.337 143.416 132.298 143.299 132.298 143.299L134.596 143.379L129.303 141.275C130.287 141.599 131.316 141.765 132.352 141.767C135.417 141.875 150.977 135.522 149.5 133.934C148.762 133.143 145.144 133.207 141.596 133.462C147.777 132.373 154.177 131.786 154.177 131.786L155.343 130.992L156.502 131.099L153.195 137.888C153.195 137.888 155.303 143.329 159.226 141.164C163.15 139 168.487 139.214 168.487 139.214Z" fill="#880377"/>
</g>
<g style="mix-blend-mode:multiply" opacity="0.4">
<path d="M151.664 137.857L155.909 147.976C155.909 147.976 149.995 141.63 150.049 140.099C150.103 138.567 151.664 137.857 151.664 137.857Z" fill="#880377"/>
</g>
<g style="mix-blend-mode:multiply" opacity="0.4">
<path d="M170.805 130.476C169.8 131.679 166.339 135.428 162.466 135.938C157.846 136.541 154.887 133.368 154.887 133.368L169.395 128.151C169.854 128.835 170.316 129.609 170.805 130.476Z" fill="#880377"/>
</g>
<g style="mix-blend-mode:multiply" opacity="0.4">
<path d="M138.238 148.887C138.292 148.945 138.342 149.005 138.389 149.068C138.335 149.011 138.285 148.951 138.238 148.887Z" fill="#880377"/>
</g>
<g style="mix-blend-mode:multiply" opacity="0.4">
<path d="M138.087 148.67L138.118 148.727C138.111 148.718 138.105 148.707 138.101 148.697L138.087 148.67Z" fill="#880377"/>
</g>
<path d="M171.928 128.6C171.928 128.6 170.316 130.845 166.433 132.242C162.55 133.639 156.422 133.421 156.422 133.421L152.699 130.225L153.487 129.655L151.959 129.431C151.959 129.431 146.678 126.945 145.928 126.918C145.177 126.891 140.376 125.729 139.853 125.169C139.813 125.128 139.775 125.084 139.739 125.038C139.212 124.35 138.762 123.605 138.399 122.817C138.399 122.817 138.399 122.857 138.376 122.934C137.937 110.842 134.425 105.039 134.425 105.039C135.01 104.664 135.642 104.37 136.305 104.165C137.726 103.632 139.615 103.032 140.865 102.647C141.656 102.402 142.205 102.245 142.205 102.245C144.763 101.93 147.358 102.111 149.848 102.778C152.046 103.351 154.101 104.378 155.879 105.793C161.813 110.611 171.928 128.6 171.928 128.6Z" fill="url(#paint55_linear_0_1)"/>
<path d="M148.31 102.463C147.942 106.225 144.102 113.05 144.102 113.05C144.102 113.05 139.776 105.227 139.83 103.696C139.83 103.398 140.232 103.026 140.855 102.647C141.646 102.402 142.195 102.245 142.195 102.245C142.195 102.245 144.186 101.354 148.31 102.463Z" fill="#479C42"/>
<path d="M134.717 95.5807C136.556 99.8827 133.635 103.957 133.635 103.957C133.635 103.957 137.357 106.034 140.098 105.562C142.839 105.089 149.205 102.004 149.205 102.004L146.608 89.3286L134.717 95.5807Z" fill="url(#paint56_linear_0_1)"/>
<path d="M145.114 107.78C144.85 108.028 144.566 108.252 144.263 108.45C144.263 108.45 142.752 107.002 142.108 105.639C141.93 105.296 141.834 104.916 141.827 104.53C141.88 102.999 138.185 99.0316 138.185 99.0316L141.411 94.5453C141.411 94.5453 146.337 93.185 147.65 99.3667C148.602 103.843 146.4 106.59 145.114 107.78Z" fill="url(#paint57_linear_0_1)"/>
<path d="M153.771 99.4737C153.473 100.345 152.994 101.144 152.367 101.819C151.938 102.305 151.448 102.734 150.91 103.096C149.885 103.783 148.73 104.254 147.516 104.479L147.335 104.516C146.468 104.679 145.584 104.726 144.705 104.657L145.991 95.9825C145.201 101.253 143.066 104.359 143.066 104.359C142.879 104.309 142.705 104.245 142.53 104.181C141.363 103.769 140.323 103.058 139.515 102.121L141.709 99.6245L137.86 101.524C137.86 101.524 143.753 97.8387 143.606 93.7209L141.26 87.6095C141.26 87.6095 129.594 77.8428 137.019 75.4606C137.393 75.3393 137.776 75.2453 138.165 75.1791C141.026 74.6631 143.562 76.5696 145.71 79.5348V79.5549C145.723 79.5838 145.74 79.6109 145.76 79.6353C145.861 79.776 145.965 79.9201 146.062 80.0709C146.689 80.9966 147.266 81.9563 147.787 82.9456C151.637 90.0688 153.771 99.4737 153.771 99.4737Z" fill="url(#paint58_linear_0_1)"/>
<path d="M127.604 92.4712C123.51 89.64 120.028 82.8384 122.508 82.2454C124.682 81.7294 126.813 82.681 128.07 83.4415C126.11 83.4214 123.221 83.5052 122.374 84.1485C121.526 84.7918 124.267 89.4524 127.604 92.4712Z" fill="url(#paint59_linear_0_1)"/>
<path d="M126.24 81.4883C126.24 81.4883 134.281 74.0334 139.977 75.5445C147.623 77.5548 146.571 91.1445 143.11 94.2437C139.649 97.3429 126.24 81.4883 126.24 81.4883Z" fill="url(#paint60_linear_0_1)"/>
<path d="M129.145 82.4465C129.145 82.4465 125.851 79.6455 122.444 80.4597C118.641 81.361 126.967 91.3254 126.967 91.3254L129.145 82.4465Z" fill="url(#paint61_linear_0_1)"/>
<path style="mix-blend-mode:multiply" opacity="0.8" d="M129.189 81.4615C129.189 81.4615 124.565 80.9019 123.238 81.897C121.911 82.8921 127.574 90.7792 127.574 90.7792L129.189 81.4615Z" fill="url(#paint62_linear_0_1)"/>
<path d="M143.623 94.5755C143.512 96.626 140.688 99.0116 137.846 100.751C135.421 102.238 132.985 103.257 132.204 103.203C130.512 103.093 126.458 97.7283 126.173 96.75C125.969 96.0799 126.491 94.4783 126.813 93.6072C126.951 93.242 127.048 93.0008 127.048 93.0008C127.048 93.0008 126.193 90.1327 125.912 89.208C125.875 89.0907 125.838 88.9232 125.798 88.7255C125.58 87.5026 125.379 85.0031 125.339 84.4804V84.3832C125.339 84.3832 127.095 79.2134 133.481 79.9237C139.867 80.634 143.82 90.7794 143.623 94.5755Z" fill="url(#paint63_linear_0_1)"/>
<path style="mix-blend-mode:multiply" opacity="0.4" d="M133.387 93.1885C133.005 92.0824 132.681 90.9573 132.415 89.8179C131.98 87.9382 132.221 87.6467 132.221 87.6467C132.221 87.6467 136.453 88.0086 137.535 89.322C138.617 90.6354 138.992 92.1532 138.875 92.2001C138.758 92.247 137.686 92.4413 137.686 92.4413C137.562 92.5184 133.491 95.1988 133.387 93.1885Z" fill="url(#paint64_linear_0_1)"/>
<path d="M133.182 92.8533L132.985 90.6721C132.985 90.6721 134.958 90.6252 135.886 90.9703C136.814 91.3154 137.816 92.4378 137.816 92.4378C137.816 92.4378 133.846 94.7228 133.182 92.8533Z" fill="#FDD5CE"/>
<path fill-rule="evenodd" clip-rule="evenodd" d="M132.998 90.6689C132.998 90.6689 132.965 92.897 134.037 93.5504C135.109 94.2037 135.344 90.7862 135.344 90.7862L132.998 90.6689Z" fill="#6D2642"/>
<path fill-rule="evenodd" clip-rule="evenodd" d="M135.779 91.6574C135.779 91.7311 135.504 91.7881 135.166 91.7847C134.828 91.7814 134.553 91.7177 134.553 91.644C134.553 91.5703 134.828 91.51 135.166 91.5133C135.504 91.5167 135.779 91.5803 135.779 91.6574Z" fill="white"/>
<path d="M132.02 90.2734L132.998 90.843C133.863 90.8045 134.73 90.846 135.588 90.9669C136.593 91.1613 137.813 92.4244 137.813 92.4244C137.813 92.4244 136.808 91.0339 135.558 90.6118C134.308 90.1896 132.02 90.2734 132.02 90.2734Z" fill="#6D2642"/>
<path style="mix-blend-mode:multiply" opacity="0.4" d="M129.034 93.8081C129.034 93.8081 127.694 94.0996 126.81 93.607C126.947 93.2418 127.044 93.0006 127.044 93.0006C127.044 93.0006 126.19 90.1326 125.908 89.2078C125.872 89.0905 125.835 88.923 125.795 88.7253C126.569 89.0466 127.298 89.4691 127.962 89.9818C128.89 90.8127 129.034 93.8081 129.034 93.8081Z" fill="url(#paint65_linear_0_1)"/>
<path fill-rule="evenodd" clip-rule="evenodd" d="M129.035 93.8082H127.611H127.389C127.262 93.438 127.164 93.0582 127.098 92.6724C127.096 92.6568 127.096 92.6411 127.098 92.6255C127.044 92.2904 127.001 91.7175 126.967 91.3154C126.967 91.1077 126.94 90.9469 126.94 90.8665L127.125 90.9C127.36 90.9871 127.584 91.0995 127.795 91.235C127.969 91.3448 128.129 91.4741 128.274 91.6203C128.294 91.6365 128.314 91.6544 128.331 91.6739C128.599 91.9552 128.801 92.2927 128.923 92.6618C129.045 93.0309 129.083 93.4225 129.035 93.8082Z" fill="#FDD5CE"/>
<path fill-rule="evenodd" clip-rule="evenodd" d="M127.775 91.128C127.775 91.1648 127.775 91.2084 127.775 91.2486C127.775 91.2888 127.775 91.3391 127.775 91.3927C127.818 92.2303 127.862 93.7581 127.594 93.8151C127.591 93.8163 127.588 93.8169 127.585 93.8169C127.582 93.8169 127.58 93.8163 127.577 93.8151C127.399 93.8151 127.222 93.2891 127.091 92.6826C127.089 92.667 127.089 92.6513 127.091 92.6357C126.994 92.1945 126.933 91.7464 126.907 91.2955C126.89 91.1519 126.89 91.0069 126.907 90.8633L127.091 90.8968C127.33 90.9371 127.561 91.0151 127.775 91.128Z" fill="#6D2642"/>
<path fill-rule="evenodd" clip-rule="evenodd" d="M128.887 92.5183C128.75 92.2086 128.558 91.926 128.321 91.684C128.304 91.6645 128.284 91.6465 128.264 91.6304C128.129 91.5125 127.966 91.4296 127.792 91.3891C127.723 91.3696 127.652 91.3617 127.58 91.3657C127.372 91.3728 127.163 91.3582 126.957 91.3221H126.904C126.568 91.2597 126.25 91.1248 125.972 90.9268C126.283 90.8661 126.602 90.8536 126.917 90.8899L127.101 90.9234C127.335 90.9608 127.561 91.0343 127.771 91.1412C128.294 91.455 128.689 91.9425 128.887 92.5183Z" fill="#6D2642"/>
<path fill-rule="evenodd" clip-rule="evenodd" d="M128.495 92.247C128.495 92.2972 128.247 92.3374 127.939 92.3341C127.631 92.3307 127.383 92.2872 127.383 92.2336C127.383 92.1799 127.634 92.1431 127.942 92.1465C128.25 92.1498 128.495 92.1833 128.495 92.247Z" fill="white"/>
<path fill-rule="evenodd" clip-rule="evenodd" d="M131.768 87.4924C131.948 87.8218 132.218 88.0936 132.546 88.2765C133.025 88.5043 134.124 88.1391 135.498 88.4172C136.871 88.6953 137.324 89.1409 137.324 89.1409C136.65 88.584 135.886 88.1465 135.065 87.8476C133.96 87.4924 131.768 87.4924 131.768 87.4924Z" fill="url(#paint66_linear_0_1)"/>
<path fill-rule="evenodd" clip-rule="evenodd" d="M125.691 88.0251L125.905 89.2112C126.131 89.1624 126.364 89.1592 126.59 89.2018C126.817 89.2443 127.033 89.3319 127.225 89.4592C127.56 89.6822 127.874 89.9345 128.163 90.213C128.163 90.213 127.266 88.2965 125.691 88.0251Z" fill="url(#paint67_linear_0_1)"/>
<path fill-rule="evenodd" clip-rule="evenodd" d="M128.368 95.5671C128.82 94.9779 129.065 94.2559 129.065 93.5132C128.998 92.7642 128.848 92.0248 128.619 91.3086C128.916 92.0203 129.14 92.76 129.289 93.5166C129.353 94.2269 128.368 95.5671 128.368 95.5671Z" fill="#CF6365"/>
<path fill-rule="evenodd" clip-rule="evenodd" d="M135.789 97.2961C135.232 97.8115 134.705 98.3585 134.211 98.9345C134.09 99.1657 132.536 100.921 130.998 100.744C130.56 100.733 130.144 100.552 129.839 100.238L129.798 100.194C129.675 100.027 129.621 99.8178 129.648 99.6113L129.685 99.1691V99.1423C129.685 99.1423 129.051 99.0451 129.212 98.8072C129.373 98.5693 132.951 98.3985 133.394 98.4119C134.627 98.4554 135.575 97.467 135.789 97.2961Z" fill="#DD3849"/>
<g style="mix-blend-mode:screen" opacity="0.81">
<path fill-rule="evenodd" clip-rule="evenodd" d="M134.064 98.5493C133.811 99.0879 133.427 99.5542 132.947 99.9055C132.467 100.257 131.906 100.482 131.316 100.56C131.06 100.608 130.797 100.603 130.543 100.545C130.289 100.488 130.049 100.378 129.839 100.225L129.798 100.181C129.675 100.013 129.621 99.8045 129.648 99.598L129.684 99.1558C130.163 99.1718 130.643 99.1528 131.119 99.0988C131.876 99.0183 132.627 98.8862 133.367 98.7034C133.792 98.613 134.064 98.5493 134.064 98.5493Z" fill="#FC5E64"/>
</g>
<path fill-rule="evenodd" clip-rule="evenodd" d="M128.244 96.3245C128.009 96.0363 128.823 97.3296 129.423 97.5206C130.023 97.7116 131.433 96.7333 131.618 96.673C131.802 96.6126 132.509 96.616 132.579 96.5188C132.65 96.4217 132.298 95.5137 132.298 95.5137C132.298 95.5137 132.559 96.1838 132.298 96.4183C132.037 96.6529 131.48 96.5088 131.48 96.5088C131.48 96.5088 129.282 97.6144 128.244 96.3245Z" fill="#CF6365"/>
<g style="mix-blend-mode:screen" opacity="0.81">
<path fill-rule="evenodd" clip-rule="evenodd" d="M129.762 96.0797C129.762 96.2003 129.52 96.2942 129.225 96.2942C128.931 96.2942 128.693 96.1869 128.696 96.0663C128.699 95.9457 128.937 95.8485 129.232 95.8519C129.527 95.8552 129.765 95.9558 129.762 96.0797Z" fill="#FC5E64"/>
</g>
<path d="M131.253 99.722C130.646 99.7454 130.02 99.1758 130.02 99.1758C130.387 99.1867 130.755 99.1654 131.119 99.1122C131.876 99.0316 132.627 98.8995 133.367 98.7168C133.367 98.7168 131.852 99.7018 131.253 99.722Z" fill="#FDD5CE"/>
<path d="M136.493 79.8901C136.493 79.8901 137.833 87.7638 142.524 89.6301C147.214 91.4963 136.493 79.8901 136.493 79.8901Z" fill="url(#paint68_linear_0_1)"/>
<path style="mix-blend-mode:multiply" opacity="0.4" d="M143.623 94.5755C143.512 96.626 140.688 99.0116 137.846 100.751C140.862 98.4688 142.946 94.8034 141.797 91.034C140.647 87.2647 133.286 81.7967 129.849 81.5286C127.168 81.3276 125.828 83.4719 125.336 84.4804V84.3832C125.336 84.3832 127.091 79.2134 133.477 79.9237C139.863 80.634 143.82 90.7794 143.623 94.5755Z" fill="url(#paint69_linear_0_1)"/>
<path d="M126.877 81.1033C126.877 81.1033 128.173 74.9551 133.333 75.1159C138.493 75.2767 141.096 92.1332 141.096 92.1332C141.096 92.1332 131.41 75.8363 126.877 81.1033Z" fill="url(#paint70_linear_0_1)"/>
<path d="M140.001 90.387C137.595 86.735 131.812 78.7708 128.056 80.2417C127.595 80.4267 127.188 80.7252 126.873 81.1095C126.873 81.1095 128.391 76.1775 133.574 76.3383C138.758 76.4991 141.116 92.1394 141.116 92.1394C141.116 92.1394 140.704 91.4458 140.001 90.387Z" fill="url(#paint71_linear_0_1)"/>
<path d="M127.637 81.3375C127.637 81.3375 127.848 79.0155 130.351 79.3774C132.854 79.7393 137.3 88.923 137.3 88.923C137.3 88.923 132.017 80.3926 129.852 80.0509C127.688 79.7091 127.637 81.3375 127.637 81.3375Z" fill="url(#paint72_linear_0_1)"/>
<path style="mix-blend-mode:multiply" opacity="0.8" d="M145.097 104.62C145.033 104.62 147.405 104.5 147.345 104.513C146.478 104.676 145.594 104.723 144.715 104.654L146.002 95.9792C146.022 95.8553 146.038 95.7346 146.055 95.6107C146.306 93.7576 146.363 91.8836 146.226 90.0187C145.6 81.3442 137.769 77.0756 137.515 76.9517C137.753 77.0153 145.348 79.1864 147.821 88.9968C149.439 95.3761 146.755 101.229 145.097 104.62Z" fill="url(#paint73_linear_0_1)"/>
<path style="mix-blend-mode:multiply" opacity="0.8" d="M140.001 90.384C137.595 86.7319 131.812 78.7677 128.056 80.2386C128.572 78.9955 129.624 77.2667 131.574 77.1126C132.422 77.0455 133.451 78.044 134.493 79.5249C134.764 79.9069 135.032 80.319 135.3 80.7546C137.605 84.4937 139.776 89.8378 140.001 90.384Z" fill="url(#paint74_linear_0_1)"/>
<path d="M145.264 93.0979C146.115 92.4814 146.729 91.2752 146.94 90.1159C147.151 88.9566 147.017 87.9314 146.387 87.4623C145.201 86.5778 143.036 88.3603 142.832 89.5195C142.594 90.9603 143.167 92.7092 143.167 92.7092C143.448 93.7512 143.921 94.0695 145.264 93.0979Z" fill="#FCE2BB"/>
<path d="M145.231 93.339C146.052 92.6689 146.611 91.4527 146.785 90.2833C146.96 89.114 146.762 88.0988 146.115 87.6565C144.889 86.8256 142.795 88.7086 142.658 89.8746C142.487 91.3253 143.14 93.0442 143.14 93.0442C143.445 94.0728 143.931 94.371 145.231 93.339Z" fill="url(#paint75_linear_0_1)"/>
<path d="M145.921 88.6853C145.187 88.2899 143.7 88.8997 143.68 90.5381C143.68 91.0541 144.437 90.9067 144.323 91.4327C144.264 91.7372 144.089 92.0066 143.834 92.1832C144.111 92.1424 144.378 92.0471 144.618 91.9028C144.858 91.7584 145.068 91.5679 145.234 91.3423C145.764 90.5884 144.122 88.1928 145.921 88.6853Z" fill="url(#paint76_linear_0_1)"/>
<g style="mix-blend-mode:soft-light">
<path d="M138.024 80.3894C137.776 80.3023 136.329 79.8667 135.31 80.7546C135.042 80.3191 134.774 79.907 134.503 79.525C135.005 79.1899 136.513 78.2283 137.039 78.6773C137.391 78.999 137.766 79.7863 138.024 80.3894Z" fill="#FDE8CF"/>
</g>
<g style="mix-blend-mode:soft-light">
<path d="M138.054 80.4027L138.295 81.1029C138.295 81.1029 138.188 80.788 138.017 80.3826L138.054 80.4027Z" fill="#FDE8CF"/>
</g>
<g style="mix-blend-mode:soft-light">
<path d="M147.817 82.9427C147.576 82.5453 147.304 82.1678 147.003 81.8135C146.898 81.6955 146.786 81.5836 146.668 81.4785C146.198 81.0464 145.619 80.75 144.993 80.6208C144.477 80.5227 143.947 80.5329 143.435 80.6509L143.345 80.6677C142.943 80.768 142.523 80.7737 142.118 80.6844C141.636 80.5437 141.518 80.2254 141.277 80.1852C140.902 80.1182 138.409 81.388 138.409 81.388L138.309 81.1066C138.439 81.0195 140.426 79.7295 141.435 80.2288C141.57 80.2975 141.71 80.3557 141.854 80.403C142.041 80.4812 142.243 80.517 142.446 80.5077C142.649 80.4985 142.847 80.4444 143.026 80.3494C143.597 80.2077 144.176 80.0959 144.758 80.0143C145.161 79.9347 145.575 79.9347 145.978 80.0143L146.028 80.0311C146.052 80.0412 146.074 80.0535 146.095 80.0679C146.722 80.9937 147.297 81.9534 147.817 82.9427Z" fill="#FDE8CF"/>
</g>
<path style="mix-blend-mode:multiply" opacity="0.8" d="M152.378 101.816C151.948 102.302 151.458 102.731 150.92 103.092C151.138 101.752 151.255 99.3633 150.826 95.3092C150.026 87.851 145.975 80.0275 145.727 79.5618C145.74 79.5907 145.757 79.6177 145.777 79.6422C146.501 80.8283 153.028 91.9185 152.378 101.816Z" fill="url(#paint77_linear_0_1)"/>
<path d="M146.819 180.05C145.78 180.014 138.486 180.794 138.523 179.756C138.55 178.972 130.723 180.891 123.355 180.834C121.116 180.863 118.882 180.591 116.715 180.027C116.584 180.009 116.465 179.943 116.38 179.843C115.88 178.972 124.213 176.546 128.817 174.147C129.152 173.976 129.453 173.812 129.738 173.638C130.023 173.463 130.338 173.269 130.589 173.088L130.67 173.028C130.914 172.85 131.138 172.646 131.34 172.421C131.366 172.395 131.39 172.364 131.413 172.338C131.443 172.302 131.471 172.265 131.497 172.227C131.685 171.966 131.854 171.691 132.003 171.406C132.135 171.156 132.254 170.899 132.358 170.636C133.44 167.912 132.965 165.01 133.829 165.044C134.864 165.077 136.754 170.337 139.86 170.445C140.604 170.479 141.35 170.434 142.085 170.311C143.505 170.056 144.045 169.553 144.045 169.553C144.045 169.553 145.687 174.12 146.507 177.223C146.966 178.848 147.174 180.061 146.819 180.05Z" fill="url(#paint78_linear_0_1)"/>
<path d="M200.256 178.962C200.029 179.803 199.921 179.632 199.677 179.863C199.077 180.426 195.321 180.868 192.711 180.831C191.468 180.808 190.483 180.677 190.215 180.389C189.625 179.759 191.535 179.555 192.765 178.794C193.267 178.493 193.642 178.292 193.642 178.292C193.6 177.916 193.463 177.558 193.244 177.25C193.246 177.238 193.246 177.227 193.244 177.216C193.03 176.863 192.791 176.527 192.527 176.211C192.383 176.037 192.218 175.849 192.034 175.651C191.858 175.472 191.66 175.315 191.445 175.186L191.354 175.129C191.104 174.983 190.846 174.852 190.58 174.737L190.476 174.69C190.081 174.519 189.639 174.355 189.173 174.204C188.935 174.127 188.694 174.053 188.446 173.983C187.645 173.748 186.807 173.544 186.03 173.37C184.204 172.971 182.68 172.746 182.68 172.746C182.71 171.892 186.998 172.043 187.059 170.327C187.102 169.114 184.636 165.948 184.636 165.948C184.636 165.948 187.24 163.522 189.099 162.072C189.9 161.449 190.563 161.006 190.821 161.016C191.679 161.046 195.693 168.913 196.517 169.801C197.341 170.689 199.888 171.637 200.715 172.525C201.312 173.182 200.88 176.636 200.256 178.962Z" fill="url(#paint79_linear_0_1)"/>
<g style="mix-blend-mode:multiply" opacity="0.3">
<path d="M171.928 128.6C171.928 128.6 170.316 130.845 166.433 132.242C163.391 133.334 158.968 133.441 157.199 133.435C156.71 133.435 156.422 133.435 156.422 133.435L152.699 130.238L153.487 129.669L151.959 129.444C151.959 129.444 146.678 126.958 145.928 126.931C145.177 126.904 140.376 125.742 139.853 125.182C139.813 125.141 139.775 125.097 139.739 125.052C141.89 126 143.278 125.943 145.214 125.387L142.989 123.788C143.234 123.943 146.625 125.537 149.811 125.551C151.205 125.38 151.721 125.253 152.136 124.881C153.721 123.403 153.882 118.809 153.882 118.809L151.828 111.834C151.828 111.834 155.416 118.87 155.386 119.627C155.356 120.384 158.975 126.663 158.975 126.663L162.804 126.797L160.472 127.43C160.828 127.725 161.21 127.986 161.615 128.208C162.209 128.548 162.837 128.826 163.488 129.039L163.541 129.059C165.528 129.709 168.406 130.017 171.928 128.6Z" fill="#29912E"/>
</g>
<g style="mix-blend-mode:multiply" opacity="0.4">
<path d="M184.204 171.979C184.204 171.979 157.919 177.953 156.395 177.899C155.132 177.856 151.835 176.7 150.736 175.44C152.116 175.611 156.81 176.03 158.827 174.15C160.269 172.75 161.153 170.873 161.313 168.87L158.194 170.294L160.539 168.843C160.539 168.843 169.184 159.331 173.322 151.822C169.971 160.004 163.659 167.412 163.659 167.412L162.865 168.153H162.959C162.017 169.084 161.37 170.186 161.99 171.192C163.391 173.457 179.842 172.696 183.879 169.992L184.204 171.979Z" fill="#880377"/>
</g>
<g style="mix-blend-mode:multiply" opacity="0.4">
<path d="M142.185 167.429L137.562 168.036C141.103 166.99 141.217 162.266 140.812 157.693C141.656 162.507 142.185 167.429 142.185 167.429Z" fill="#880377"/>
</g>
<path d="M171.928 128.6C171.928 128.6 170.316 130.845 166.433 132.242C163.391 133.334 158.968 133.441 157.199 133.435L162.432 129.189L161.608 128.208L155.912 128.184C156.087 126.968 159.598 126.398 159.434 125.169C158.827 120.545 160.888 115.945 160.888 115.945C160.888 115.945 164.53 121.44 164.392 125.269C164.362 126.171 163.799 128.06 163.501 129.045V129.072H163.565C165.528 129.709 168.406 130.017 171.928 128.6Z" fill="url(#paint80_linear_0_1)"/>
<path d="M160.114 131.9C160.114 131.9 163.206 132.839 165.532 132.152C167.857 131.465 168.467 130.507 168.467 130.507L160.114 131.9Z" fill="#298F2E"/>
<path d="M156.787 171.59L156.7 171.724L156.606 171.758L156.787 171.59Z" fill="#D9E0FD"/>
<path d="M183.695 168.87C181.644 168.672 173.178 167.972 165.904 169.034C160.097 169.878 158.023 171.815 157.313 172.257C157.12 172.409 156.887 172.502 156.643 172.525C156.54 172.52 156.44 172.49 156.351 172.438C156.304 172.411 156.458 172.13 156.71 171.738C158.234 171.165 162.975 168.86 165.83 168.444C172.91 167.412 181.078 168.015 183.608 168.247L183.695 168.87Z" fill="#D9E0FD"/>
<path d="M131.98 175.879L128.324 173.889L129.269 173.179L131.765 175.648L130.117 172.043L134.509 173.081L132.023 171.48L132.097 170.347L134.807 173.256L130.294 172.184L131.98 175.879Z" fill="#D9E0FD"/>
<path d="M200.256 178.962C200.029 179.803 199.921 179.632 199.677 179.863C199.077 180.426 195.321 180.868 192.711 180.831C195.083 180.339 198.625 179.531 199.204 178.988C199.539 178.653 199.653 179.022 199.71 178.003C199.804 176.405 199.466 174.385 198.457 173.313C196.802 171.537 193.401 170.559 193.431 169.701C193.458 168.944 192.312 163.452 189.076 162.078C189.876 161.455 192.091 159.338 192.356 159.348C193.214 159.378 196.041 164.28 196.041 169.212C196.869 170.099 199.854 171.644 200.682 172.532C201.312 173.182 200.88 176.636 200.256 178.962Z" fill="url(#paint81_linear_0_1)"/>
<path d="M193.334 173.896L193.207 177.417L192.326 176.717L192.5 176.214L192.902 175.035L193.23 174.07L192.44 174.559L191.418 175.189L190.614 175.685L190.449 174.693L190.225 173.303L189.917 171.436L189.444 173.132L189.146 174.207L188.959 174.881L188.064 174.639L188.419 173.983L188.915 173.075L189.967 171.145L190.326 173.333L190.553 174.74L190.684 175.531L191.327 175.132L192.366 174.492L193.334 173.896Z" fill="#D9E0FD"/>
<g style="mix-blend-mode:multiply" opacity="0.4">
<path d="M146.819 180.051C145.78 180.014 138.486 180.795 138.523 179.756C138.55 178.972 130.723 180.892 123.355 180.835C130.247 180.031 138.081 177.977 138.081 177.977C138.081 177.977 138.912 179.803 140.708 179.866C141.394 179.89 141.988 178.861 142.363 177.414C142.929 175.223 142.993 172.097 142.115 170.328C143.535 170.073 144.075 169.57 144.075 169.57C144.075 169.57 145.717 174.137 146.538 177.24C146.966 178.848 147.174 180.061 146.819 180.051Z" fill="#880377"/>
</g>
<path style="mix-blend-mode:multiply" opacity="0.4" d="M145.114 107.78C144.85 108.028 144.566 108.252 144.262 108.45C144.262 108.45 142.751 107.003 142.108 105.639C142.962 106.51 144.055 107.441 145.114 107.78Z" fill="url(#paint82_linear_0_1)"/>
<g style="mix-blend-mode:multiply" opacity="0.3">
<path d="M150.448 128.781L159.641 129.106L152.719 129.628L150.448 128.781Z" fill="#7A1F98"/>
</g>
<path d="M158.368 131.937C156.452 133.87 151.939 135.097 148.256 135.81C147.804 134.675 146.551 132.818 145.951 131.957C148.672 130.429 151.49 128.352 152.317 126C154.019 121.082 151.195 111.516 151.195 111.516C153.259 103.421 160.948 114.24 160.948 114.24C160.948 114.24 162.52 127.756 158.368 131.937Z" fill="url(#paint83_linear_0_1)"/>
<g style="mix-blend-mode:multiply" opacity="0.3">
<path d="M155.393 106.054C154.603 106.221 153.879 106.614 153.31 107.186C152.74 107.758 152.35 108.484 152.187 109.274C151.795 110.883 151.75 112.558 152.052 114.186C152.052 114.186 151.677 107.18 155.393 106.054Z" fill="#7A1F98"/>
</g>
<g style="mix-blend-mode:multiply" opacity="0.25">
<path d="M149.533 135.519C149.533 135.643 148.33 135.693 148.193 135.797C147.592 134.38 146.733 133.087 145.66 131.984L145.817 132.054C146.611 132.858 149.603 134.185 150.099 134.962C150.28 135.264 149.54 135.348 149.533 135.519Z" fill="#7A1F98"/>
</g>
<g style="mix-blend-mode:multiply" opacity="0.4">
<path fill-rule="evenodd" clip-rule="evenodd" d="M142.185 167.429L137.562 168.035C137.562 168.035 127.302 148.05 125.118 141.771C125.868 141.928 126.793 142.149 127.845 142.441C131.098 143.339 134.881 145.352 137.287 147.802C137.505 148.019 138.155 147.802 138.362 148.093C138.168 148.214 138.057 148.348 138.054 148.502C138.051 148.571 138.068 148.639 138.101 148.7C138.105 148.71 138.111 148.72 138.118 148.73C138.151 148.788 138.192 148.842 138.238 148.891C138.292 148.948 138.342 149.009 138.389 149.072C138.875 149.862 139.237 150.722 139.465 151.621C140.022 153.619 140.469 155.646 140.805 157.692C141.656 162.507 142.185 167.429 142.185 167.429Z" fill="#880377"/>
</g>
<path d="M126.449 130.761L123.873 132.074L123.435 131.214L126.011 129.901L126.449 130.761Z" fill="url(#paint84_linear_0_1)"/>
<path d="M131.41 134.239C131.447 134.319 131.487 134.403 131.524 134.487L131.433 135.247L131.946 135.411C131.956 135.431 131.965 135.451 131.973 135.472C133.618 139.08 135.471 143.463 135.471 143.463L128.723 146.9C128.723 146.9 126.294 142.88 124.344 139.435L124.565 138.745L123.677 138.246L123.657 138.212C122.628 136.363 121.878 134.892 121.948 134.674C122.159 134.024 123.65 131.659 123.65 131.659L126.106 130.379C126.106 130.379 128.91 130.573 129.557 130.784C129.778 130.868 130.519 132.329 131.41 134.239Z" fill="url(#paint85_linear_0_1)"/>
<g style="mix-blend-mode:multiply" opacity="0.25">
<path d="M131.41 134.239C131.447 134.319 131.487 134.403 131.524 134.487L131.434 135.248L131.946 135.412C131.956 135.431 131.965 135.451 131.973 135.472C131.336 135.569 127.936 136.209 124.428 139.158L124.565 138.729L123.677 138.229L123.657 138.196C125.466 137.596 129.601 135.278 131.41 134.239Z" fill="#880377"/>
</g>
<g style="mix-blend-mode:multiply" opacity="0.25">
<path d="M135.039 143.684L128.854 146.837C129.551 145.736 130.545 144.855 131.722 144.294C132.744 143.771 133.897 143.559 135.039 143.684Z" fill="#880377"/>
</g>
<path d="M126.314 129.748L123.311 131.279L122.436 129.562L125.439 128.031L126.314 129.748Z" fill="#E3DF5A"/>
<path d="M125.369 130.768L127.533 131.83L129.249 130.955L125.798 130.55L125.369 130.768Z" fill="url(#paint86_linear_0_1)"/>
<path d="M130.586 136.762L131.698 136.195L134.945 143.191L134.087 143.627L130.586 136.762Z" fill="url(#paint87_linear_0_1)"/>
<path d="M129.467 131.384L130.887 134.443L129.711 135.043L127.751 132.259L129.467 131.384Z" fill="url(#paint88_linear_0_1)"/>
<path d="M148.411 136.578C148.386 136.646 148.347 136.708 148.295 136.759C148.244 136.811 148.181 136.849 148.112 136.873C147.003 137.382 143.18 136.993 141.767 137.543L140.993 137.838L139.873 138.595C138.436 139.566 134.694 140.84 134.694 140.84C134.11 140.972 133.597 141.319 133.256 141.811C132.586 142.679 130.381 143.751 130.281 142.984C130.18 142.217 134.338 138.575 134.392 138.521C134.369 138.521 133.886 138.766 133.223 139.107C131.866 139.808 129.758 140.953 129.313 141.533C128.73 142.294 126.9 142.619 125.356 142.314C125.135 142.272 124.918 142.214 124.706 142.14C123.516 141.727 125.001 139.731 126.746 138.256C127.347 137.734 128.007 137.284 128.713 136.916C130.639 135.981 130.978 135.851 131.031 135.834L130.134 135.948L129.487 136.028C127.932 136.229 124.97 138.189 124.099 137.523C123.412 136.993 126.92 134.939 128.421 134.098C128.82 133.877 129.092 133.74 129.092 133.74L133.91 134.671L140.162 134.631C140.162 134.631 140.641 134.46 141.415 134.145L145.643 131.488L145.978 131.954C146.126 132.165 146.313 132.436 146.518 132.741C147.194 133.71 147.785 134.736 148.283 135.807C148.392 136.049 148.435 136.314 148.411 136.578Z" fill="#FCD253"/>
<g style="mix-blend-mode:multiply" opacity="0.4">
<path d="M131.46 137.161C130.409 137.593 129.44 138.202 128.596 138.963C127.728 139.784 126.217 141.389 125.356 142.314C125.135 142.272 124.918 142.214 124.706 142.14C125.644 141.299 127.721 139.124 128.703 138.494C129.584 137.975 130.506 137.529 131.46 137.161Z" fill="#7A1F98"/>
</g>
<g style="mix-blend-mode:multiply" opacity="0.25">
<path d="M133.223 139.107C131.866 139.807 129.758 140.953 129.313 141.533C128.73 142.293 126.9 142.618 125.356 142.314C125.135 142.272 124.918 142.213 124.706 142.139C123.516 141.727 125 139.73 126.746 138.256C127.035 138.45 127.343 138.615 127.664 138.749C129.902 139.754 129.433 139.65 130.479 139.395C131.384 139.225 132.302 139.128 133.223 139.107Z" fill="#7A1F98"/>
</g>
<g style="mix-blend-mode:multiply" opacity="0.25">
<path d="M130.287 135.891L130.127 135.951L129.48 136.031C127.925 136.232 124.964 138.193 124.092 137.526C123.406 136.996 126.914 134.943 128.415 134.102C128.245 134.338 128.12 134.604 128.046 134.886C127.832 135.824 130.287 135.891 130.287 135.891Z" fill="#7A1F98"/>
</g>
<defs>
<linearGradient id="paint0_linear_0_1" x1="112.979" y1="92.3419" x2="124.547" y2="123.446" gradientUnits="userSpaceOnUse">
<stop stop-color="#2B8F30"/>
<stop offset="0.401042" stop-color="#4E7674"/>
<stop offset="0.713542" stop-color="#8BB06E"/>
<stop offset="1" stop-color="#ACB180"/>
</linearGradient>
<linearGradient id="paint1_linear_0_1" x1="138.632" y1="125.546" x2="144.891" y2="124.983" gradientUnits="userSpaceOnUse">
<stop stop-color="#9EB178"/>
<stop offset="0.43" stop-color="#66309C"/>
<stop offset="0.86" stop-color="#5C2890"/>
<stop offset="1" stop-color="#57248A"/>
</linearGradient>
<linearGradient id="paint2_linear_0_1" x1="86.9855" y1="110.39" x2="87.1999" y2="99.5076" gradientUnits="userSpaceOnUse">
<stop stop-color="#BD4042"/>
<stop offset="1" stop-color="white"/>
</linearGradient>
<linearGradient id="paint3_linear_0_1" x1="115.549" y1="173.178" x2="108.526" y2="115.308" gradientUnits="userSpaceOnUse">
<stop stop-color="#471C47"/>
<stop offset="0.37" stop-color="#4A204A"/>
<stop offset="0.75" stop-color="#542C55"/>
<stop offset="1" stop-color="#5E395F"/>
</linearGradient>
<linearGradient id="paint4_linear_0_1" x1="12.259" y1="172.106" x2="34.2518" y2="236.724" gradientUnits="userSpaceOnUse">
<stop stop-color="#76A860"/>
<stop offset="0.932292" stop-color="#54869E"/>
<stop offset="1" stop-color="#5183A3"/>
</linearGradient>
<linearGradient id="paint5_linear_0_1" x1="23.9055" y1="176.566" x2="-0.000468703" y2="176.566" gradientUnits="userSpaceOnUse">
<stop stop-color="#481440"/>
<stop offset="1" stop-color="#32161F"/>
</linearGradient>
<linearGradient id="paint6_linear_0_1" x1="61.7729" y1="155.253" x2="83.7623" y2="219.871" gradientUnits="userSpaceOnUse">
<stop stop-color="#29912E"/>
<stop offset="1" stop-color="#A0B179"/>
</linearGradient>
<linearGradient id="paint7_linear_0_1" x1="51.966" y1="158.59" x2="73.9588" y2="223.208" gradientUnits="userSpaceOnUse">
<stop stop-color="#2A902E"/>
<stop offset="1" stop-color="#AAB17F"/>
</linearGradient>
<linearGradient id="paint8_linear_0_1" x1="50.4315" y1="93.5301" x2="30.7773" y2="158.111" gradientUnits="userSpaceOnUse">
<stop stop-color="#11571D"/>
<stop offset="1" stop-color="#32161F"/>
</linearGradient>
<linearGradient id="paint9_linear_0_1" x1="21.1043" y1="157.079" x2="7.90664" y2="163.693" gradientUnits="userSpaceOnUse">
<stop offset="0.01" stop-color="#115A1E"/>
<stop offset="0.99" stop-color="#25AA36"/>
</linearGradient>
<linearGradient id="paint10_linear_0_1" x1="41.0533" y1="74.9982" x2="26.4651" y2="98.8773" gradientUnits="userSpaceOnUse">
<stop offset="0.01" stop-color="#934798"/>
<stop offset="0.99" stop-color="#F98487"/>
</linearGradient>
<linearGradient id="paint11_linear_0_1" x1="23.0107" y1="101.31" x2="20.3069" y2="121.715" gradientUnits="userSpaceOnUse">
<stop stop-color="#481440"/>
<stop offset="1" stop-color="#32161F"/>
</linearGradient>
<linearGradient id="paint12_linear_0_1" x1="51.8754" y1="102.422" x2="49.6641" y2="119.094" gradientUnits="userSpaceOnUse">
<stop stop-color="#481440"/>
<stop offset="1" stop-color="#32161F"/>
</linearGradient>
<linearGradient id="paint13_linear_0_1" x1="64.3461" y1="118.565" x2="17.2245" y2="195.684" gradientUnits="userSpaceOnUse">
<stop offset="0.01" stop-color="#934798"/>
<stop offset="0.99" stop-color="#F98487"/>
</linearGradient>
<linearGradient id="paint14_linear_0_1" x1="38.9257" y1="91.4527" x2="25.4465" y2="113.513" gradientUnits="userSpaceOnUse">
<stop offset="0.01" stop-color="#934798"/>
<stop offset="0.99" stop-color="#F98487"/>
</linearGradient>
<linearGradient id="paint15_linear_0_1" x1="27.0382" y1="93.0244" x2="26.6662" y2="93.6342" gradientUnits="userSpaceOnUse">
<stop offset="0.01" stop-color="#934798"/>
<stop offset="0.99" stop-color="#F98487"/>
</linearGradient>
<linearGradient id="paint16_linear_0_1" x1="65.1591" y1="94.451" x2="81.5877" y2="55.1245" gradientUnits="userSpaceOnUse">
<stop stop-color="#349135"/>
<stop offset="1" stop-color="#96B074"/>
</linearGradient>
<linearGradient id="paint17_linear_0_1" x1="46.0758" y1="84.0147" x2="34.3892" y2="43.5003" gradientUnits="userSpaceOnUse">
<stop stop-color="#26AD37"/>
<stop offset="1" stop-color="#ABB07F"/>
</linearGradient>
<linearGradient id="paint18_linear_0_1" x1="49.6515" y1="21.4402" x2="53.9127" y2="34.1174" gradientUnits="userSpaceOnUse">
<stop stop-color="#FD917F"/>
<stop offset="1" stop-color="#E6848A"/>
</linearGradient>
<linearGradient id="paint19_linear_0_1" x1="52.2522" y1="26.1145" x2="47.7293" y2="46.4363" gradientUnits="userSpaceOnUse">
<stop offset="0.02" stop-color="#741E76"/>
<stop offset="0.99" stop-color="white"/>
</linearGradient>
<linearGradient id="paint20_linear_0_1" x1="62.1746" y1="27.3738" x2="55.7425" y2="44.9491" gradientUnits="userSpaceOnUse">
<stop stop-color="#9A5143"/>
<stop offset="1" stop-color="#CD9B9C"/>
</linearGradient>
<linearGradient id="paint21_linear_0_1" x1="45.8532" y1="21.6495" x2="38.3334" y2="42.1921" gradientUnits="userSpaceOnUse">
<stop stop-color="#9A5143"/>
<stop offset="1" stop-color="#CD9B9C"/>
</linearGradient>
<linearGradient id="paint22_linear_0_1" x1="60.0235" y1="28.2149" x2="51.711" y2="35.1921" gradientUnits="userSpaceOnUse">
<stop offset="0.02" stop-color="#F59DC5"/>
<stop offset="0.99" stop-color="#EE68BA"/>
</linearGradient>
<linearGradient id="paint23_linear_0_1" x1="68.3703" y1="45.94" x2="67.223" y2="47.4064" gradientUnits="userSpaceOnUse">
<stop stop-color="#9A5143"/>
<stop offset="1" stop-color="#CD9B9C"/>
</linearGradient>
<linearGradient id="paint24_linear_0_1" x1="71.77" y1="50.0052" x2="37.7258" y2="93.5696" gradientUnits="userSpaceOnUse">
<stop stop-color="#125D1F"/>
<stop offset="1" stop-color="#23A333"/>
</linearGradient>
<linearGradient id="paint25_linear_0_1" x1="40.2374" y1="32.7623" x2="-17.2274" y2="106.3" gradientUnits="userSpaceOnUse">
<stop stop-color="#9A5143"/>
<stop offset="1" stop-color="#CD9B9C"/>
</linearGradient>
<linearGradient id="paint26_linear_0_1" x1="49.8191" y1="50.6876" x2="47.6564" y2="30.023" gradientUnits="userSpaceOnUse">
<stop stop-color="#28912E"/>
<stop offset="1" stop-color="#2A922F"/>
</linearGradient>
<linearGradient id="paint27_linear_0_1" x1="58.2856" y1="23.4578" x2="59.9627" y2="16.3459" gradientUnits="userSpaceOnUse">
<stop stop-color="#FDA78C"/>
<stop offset="1" stop-color="#FDC3A2"/>
</linearGradient>
<linearGradient id="paint28_linear_0_1" x1="66.9494" y1="24.7576" x2="66.6579" y2="21.005" gradientUnits="userSpaceOnUse">
<stop offset="0.02" stop-color="#F59DC5"/>
<stop offset="0.99" stop-color="#EE68BA"/>
</linearGradient>
<linearGradient id="paint29_linear_0_1" x1="53.1438" y1="31.2687" x2="53.4144" y2="27.4579" gradientUnits="userSpaceOnUse">
<stop stop-color="#D48296"/>
<stop offset="1" stop-color="#FC807F"/>
</linearGradient>
<linearGradient id="paint30_linear_0_1" x1="57.6361" y1="20.4049" x2="59.1315" y2="12.7325" gradientUnits="userSpaceOnUse">
<stop offset="0.02" stop-color="#F59DC5"/>
<stop offset="0.99" stop-color="#EE68BA"/>
</linearGradient>
<linearGradient id="paint31_linear_0_1" x1="67.2348" y1="17.8193" x2="65.1789" y2="10.1139" gradientUnits="userSpaceOnUse">
<stop stop-color="#631F3B"/>
<stop offset="1" stop-color="#7C3B32"/>
</linearGradient>
<linearGradient id="paint32_linear_0_1" x1="63.7051" y1="17.6142" x2="65.6922" y2="5.70832" gradientUnits="userSpaceOnUse">
<stop offset="0.02" stop-color="#F59DC5"/>
<stop offset="0.99" stop-color="#EE68BA"/>
</linearGradient>
<linearGradient id="paint33_linear_0_1" x1="60.3892" y1="20.1033" x2="59.1191" y2="12.9364" gradientUnits="userSpaceOnUse">
<stop stop-color="#631F3B"/>
<stop offset="1" stop-color="#7C3B32"/>
</linearGradient>
<linearGradient id="paint34_linear_0_1" x1="51.1418" y1="14.0626" x2="54.6967" y2="3.70956" gradientUnits="userSpaceOnUse">
<stop stop-color="#8C404A"/>
<stop offset="1" stop-color="#631631"/>
</linearGradient>
<linearGradient id="paint35_linear_0_1" x1="59.9737" y1="17.0946" x2="63.5286" y2="6.74487" gradientUnits="userSpaceOnUse">
<stop stop-color="#8C404A"/>
<stop offset="1" stop-color="#631631"/>
</linearGradient>
<linearGradient id="paint36_linear_0_1" x1="70.2948" y1="17.7066" x2="73.4572" y2="12.8639" gradientUnits="userSpaceOnUse">
<stop stop-color="#FDCDC3"/>
<stop offset="1" stop-color="#9A5143"/>
</linearGradient>
<linearGradient id="paint37_linear_0_1" x1="72.0288" y1="20.5023" x2="67.0433" y2="10.5311" gradientUnits="userSpaceOnUse">
<stop stop-color="#FDCDC3"/>
<stop offset="1" stop-color="#9A5143"/>
</linearGradient>
<linearGradient id="paint38_linear_0_1" x1="55.4136" y1="17.001" x2="54.5994" y2="0.831421" gradientUnits="userSpaceOnUse">
<stop stop-color="#FDCDC3"/>
<stop offset="1" stop-color="#9A5143"/>
</linearGradient>
<linearGradient id="paint39_linear_0_1" x1="41.7514" y1="27.753" x2="44.6508" y2="20.2549" gradientUnits="userSpaceOnUse">
<stop stop-color="#FDA78C"/>
<stop offset="1" stop-color="#FDC3A2"/>
</linearGradient>
<linearGradient id="paint40_linear_0_1" x1="51.4648" y1="16.1451" x2="54.6979" y2="19.0724" gradientUnits="userSpaceOnUse">
<stop stop-color="#D48296"/>
<stop offset="1" stop-color="#FC807F"/>
</linearGradient>
<linearGradient id="paint41_linear_0_1" x1="18.6551" y1="96.4583" x2="16.4136" y2="99.3264" gradientUnits="userSpaceOnUse">
<stop stop-color="#BD4042"/>
<stop offset="1" stop-color="white"/>
</linearGradient>
<linearGradient id="paint42_linear_0_1" x1="18.32" y1="96.9173" x2="17.727" y2="77.8328" gradientUnits="userSpaceOnUse">
<stop stop-color="#BD4042"/>
<stop offset="1" stop-color="white"/>
</linearGradient>
<linearGradient id="paint43_linear_0_1" x1="97.2314" y1="104.898" x2="97.4492" y2="99.6045" gradientUnits="userSpaceOnUse">
<stop stop-color="#BD4042"/>
<stop offset="1" stop-color="white"/>
</linearGradient>
<linearGradient id="paint44_linear_0_1" x1="84.0203" y1="98.8507" x2="84.3118" y2="84.1888" gradientUnits="userSpaceOnUse">
<stop stop-color="#BD4042"/>
<stop offset="1" stop-color="white"/>
</linearGradient>
<linearGradient id="paint45_linear_0_1" x1="91.8639" y1="113.73" x2="93.7234" y2="98.0666" gradientUnits="userSpaceOnUse">
<stop stop-color="#BD4042"/>
<stop offset="1" stop-color="white"/>
</linearGradient>
<linearGradient id="paint46_linear_0_1" x1="86.9821" y1="107.967" x2="94.3767" y2="107.967" gradientUnits="userSpaceOnUse">
<stop stop-color="#BD4042"/>
<stop offset="1" stop-color="white"/>
</linearGradient>
<linearGradient id="paint47_linear_0_1" x1="95.6668" y1="105.719" x2="96.0521" y2="105.719" gradientUnits="userSpaceOnUse">
<stop stop-color="#BD4042"/>
<stop offset="1" stop-color="white"/>
</linearGradient>
<linearGradient id="paint48_linear_0_1" x1="59.0932" y1="26.2725" x2="55.892" y2="30.4122" gradientUnits="userSpaceOnUse">
<stop stop-color="#D48296"/>
<stop offset="1" stop-color="#FC807F"/>
</linearGradient>
<linearGradient id="paint49_linear_0_1" x1="55.1107" y1="28.1193" x2="60.6056" y2="28.1742" gradientUnits="userSpaceOnUse">
<stop offset="0.02" stop-color="#F59DC5"/>
<stop offset="0.99" stop-color="#EE68BA"/>
</linearGradient>
<linearGradient id="paint50_linear_0_1" x1="54.5276" y1="25.2415" x2="56.1191" y2="25.2893" gradientUnits="userSpaceOnUse">
<stop offset="0.02" stop-color="#F59DC5"/>
<stop offset="0.99" stop-color="#EE68BA"/>
</linearGradient>
<linearGradient id="paint51_linear_0_1" x1="137.62" y1="113.38" x2="144.88" y2="113.453" gradientUnits="userSpaceOnUse">
<stop stop-color="#66AB58"/>
<stop offset="0.43" stop-color="#66309C"/>
<stop offset="0.86" stop-color="#5C2890"/>
<stop offset="1" stop-color="#57248A"/>
</linearGradient>
<linearGradient id="paint52_linear_0_1" x1="179.407" y1="174.883" x2="188.604" y2="175.251" gradientUnits="userSpaceOnUse">
<stop stop-color="#FD917F"/>
<stop offset="1" stop-color="#E6848A"/>
</linearGradient>
<linearGradient id="paint53_linear_0_1" x1="136.204" y1="174.125" x2="144.637" y2="174.462" gradientUnits="userSpaceOnUse">
<stop stop-color="#FD917F"/>
<stop offset="1" stop-color="#E6848A"/>
</linearGradient>
<linearGradient id="paint54_linear_0_1" x1="156.781" y1="184.794" x2="150.525" y2="119.433" gradientUnits="userSpaceOnUse">
<stop stop-color="#10501B"/>
<stop offset="0.18" stop-color="#126020"/>
<stop offset="0.37" stop-color="#146F25"/>
<stop offset="0.56" stop-color="#25A936"/>
<stop offset="0.76" stop-color="#2BBC3E"/>
<stop offset="0.95" stop-color="#E8B881"/>
<stop offset="1" stop-color="#F4F5FA"/>
</linearGradient>
<linearGradient id="paint55_linear_0_1" x1="158.764" y1="108.444" x2="146.089" y2="129.857" gradientUnits="userSpaceOnUse">
<stop stop-color="#2F8F31"/>
<stop offset="0.33" stop-color="#6FAF5E"/>
<stop offset="0.66" stop-color="#9DB077"/>
<stop offset="1" stop-color="#ACB180"/>
</linearGradient>
<linearGradient id="paint56_linear_0_1" x1="167.26" y1="112.603" x2="162.794" y2="109.523" gradientUnits="userSpaceOnUse">
<stop stop-color="#8C404A"/>
<stop offset="1" stop-color="#631631"/>
</linearGradient>
<linearGradient id="paint57_linear_0_1" x1="148.312" y1="118.824" x2="140.25" y2="98.7928" gradientUnits="userSpaceOnUse">
<stop stop-color="#FD917F"/>
<stop offset="1" stop-color="#E6848A"/>
</linearGradient>
<linearGradient id="paint58_linear_0_1" x1="150.211" y1="101.326" x2="147.926" y2="78.942" gradientUnits="userSpaceOnUse">
<stop stop-color="#8C404A"/>
<stop offset="1" stop-color="#631631"/>
</linearGradient>
<linearGradient id="paint59_linear_0_1" x1="140.351" y1="84.4302" x2="135.229" y2="86.1071" gradientUnits="userSpaceOnUse">
<stop stop-color="#8C404A"/>
<stop offset="1" stop-color="#631631"/>
</linearGradient>
<linearGradient id="paint60_linear_0_1" x1="142.687" y1="102.095" x2="140.403" y2="79.7104" gradientUnits="userSpaceOnUse">
<stop stop-color="#8C404A"/>
<stop offset="1" stop-color="#631631"/>
</linearGradient>
<linearGradient id="paint61_linear_0_1" x1="132.141" y1="103.169" x2="129.856" y2="80.7879" gradientUnits="userSpaceOnUse">
<stop stop-color="#8C404A"/>
<stop offset="1" stop-color="#631631"/>
</linearGradient>
<linearGradient id="paint62_linear_0_1" x1="129.492" y1="88.9372" x2="126.985" y2="97.1409" gradientUnits="userSpaceOnUse">
<stop stop-color="#BD4090"/>
<stop offset="1" stop-color="white"/>
</linearGradient>
<linearGradient id="paint63_linear_0_1" x1="138.649" y1="81.0944" x2="140.2" y2="103.315" gradientUnits="userSpaceOnUse">
<stop stop-color="#FDA78C"/>
<stop offset="1" stop-color="#FDC3A2"/>
</linearGradient>
<linearGradient id="paint64_linear_0_1" x1="140.147" y1="88.2081" x2="140.572" y2="94.3139" gradientUnits="userSpaceOnUse">
<stop offset="0.02" stop-color="#F59DC5"/>
<stop offset="0.99" stop-color="#EE68BA"/>
</linearGradient>
<linearGradient id="paint65_linear_0_1" x1="132.012" y1="89.3555" x2="132.368" y2="94.4338" gradientUnits="userSpaceOnUse">
<stop offset="0.02" stop-color="#F59DC5"/>
<stop offset="0.99" stop-color="#EE68BA"/>
</linearGradient>
<linearGradient id="paint66_linear_0_1" x1="136.648" y1="89.0734" x2="142.036" y2="88.5886" gradientUnits="userSpaceOnUse">
<stop stop-color="#8C404A"/>
<stop offset="1" stop-color="#631631"/>
</linearGradient>
<linearGradient id="paint67_linear_0_1" x1="130.559" y1="89.7532" x2="132.827" y2="89.5491" gradientUnits="userSpaceOnUse">
<stop stop-color="#8C404A"/>
<stop offset="1" stop-color="#631631"/>
</linearGradient>
<linearGradient id="paint68_linear_0_1" x1="143.359" y1="74.7292" x2="145.039" y2="85.8965" gradientUnits="userSpaceOnUse">
<stop stop-color="#8C404A"/>
<stop offset="1" stop-color="#631631"/>
</linearGradient>
<linearGradient id="paint69_linear_0_1" x1="138.934" y1="96.0048" x2="139.688" y2="82.6121" gradientUnits="userSpaceOnUse">
<stop offset="0.02" stop-color="#F59DC5"/>
<stop offset="0.99" stop-color="#EE68BA"/>
</linearGradient>
<linearGradient id="paint70_linear_0_1" x1="140.338" y1="102.333" x2="138.053" y2="79.9492" gradientUnits="userSpaceOnUse">
<stop stop-color="#8C404A"/>
<stop offset="1" stop-color="#631631"/>
</linearGradient>
<linearGradient id="paint71_linear_0_1" x1="135.889" y1="76.6982" x2="140.559" y2="92.0718" gradientUnits="userSpaceOnUse">
<stop stop-color="#8C404A"/>
<stop offset="1" stop-color="#631631"/>
</linearGradient>
<linearGradient id="paint72_linear_0_1" x1="133.987" y1="93.6937" x2="134.944" y2="91.3073" gradientUnits="userSpaceOnUse">
<stop stop-color="#8C404A"/>
<stop offset="1" stop-color="#631631"/>
</linearGradient>
<linearGradient id="paint73_linear_0_1" x1="150.11" y1="102.149" x2="146.5" y2="75.7367" gradientUnits="userSpaceOnUse">
<stop stop-color="#BD4090"/>
<stop offset="1" stop-color="white"/>
</linearGradient>
<linearGradient id="paint74_linear_0_1" x1="140.657" y1="84.1562" x2="166.865" y2="74.0222" gradientUnits="userSpaceOnUse">
<stop stop-color="#BD4090"/>
<stop offset="1" stop-color="white"/>
</linearGradient>
<linearGradient id="paint75_linear_0_1" x1="148.339" y1="85.0657" x2="150.791" y2="96.1366" gradientUnits="userSpaceOnUse">
<stop stop-color="#FDA78C"/>
<stop offset="1" stop-color="#FDC3A2"/>
</linearGradient>
<linearGradient id="paint76_linear_0_1" x1="146.288" y1="89.5974" x2="143.217" y2="91.1494" gradientUnits="userSpaceOnUse">
<stop stop-color="#D48296"/>
<stop offset="1" stop-color="#FC807F"/>
</linearGradient>
<linearGradient id="paint77_linear_0_1" x1="155.217" y1="99.0788" x2="152.048" y2="75.8724" gradientUnits="userSpaceOnUse">
<stop stop-color="#BD4090"/>
<stop offset="1" stop-color="white"/>
</linearGradient>
<linearGradient id="paint78_linear_0_1" x1="116.373" y1="172.947" x2="147" y2="172.947" gradientUnits="userSpaceOnUse">
<stop stop-color="#29902E"/>
<stop offset="0.18" stop-color="#66A155"/>
<stop offset="0.37" stop-color="#89B06D"/>
<stop offset="0.56" stop-color="#2A922F"/>
<stop offset="0.76" stop-color="#66A155"/>
<stop offset="0.95" stop-color="#578241"/>
<stop offset="1" stop-color="#3A7D34"/>
</linearGradient>
<linearGradient id="paint79_linear_0_1" x1="198.755" y1="157.451" x2="190.57" y2="176.971" gradientUnits="userSpaceOnUse">
<stop stop-color="#29912E"/>
<stop offset="0.18" stop-color="#8FB070"/>
<stop offset="0.37" stop-color="#6CAE5C"/>
<stop offset="0.56" stop-color="#ADB281"/>
<stop offset="0.76" stop-color="#29922F"/>
<stop offset="0.95" stop-color="#7FB068"/>
<stop offset="1" stop-color="#26912D"/>
</linearGradient>
<linearGradient id="paint80_linear_0_1" x1="155.665" y1="130.478" x2="171.701" y2="131.119" gradientUnits="userSpaceOnUse">
<stop stop-color="#387C33"/>
<stop offset="0.43" stop-color="#397C33"/>
<stop offset="0.86" stop-color="#6FAF5F"/>
<stop offset="1" stop-color="#2E8E31"/>
</linearGradient>
<linearGradient id="paint81_linear_0_1" x1="189.089" y1="170.093" x2="200.997" y2="170.093" gradientUnits="userSpaceOnUse">
<stop stop-color="#481440"/>
<stop offset="1" stop-color="#32161F"/>
</linearGradient>
<linearGradient id="paint82_linear_0_1" x1="141.776" y1="112.824" x2="144.856" y2="112.948" gradientUnits="userSpaceOnUse">
<stop offset="0.02" stop-color="#F59DC5"/>
<stop offset="0.99" stop-color="#EE68BA"/>
</linearGradient>
<linearGradient id="paint83_linear_0_1" x1="112.743" y1="121.657" x2="104.074" y2="122.032" gradientUnits="userSpaceOnUse">
<stop stop-color="#29902E"/>
<stop offset="0.33" stop-color="#65AF59"/>
<stop offset="0.66" stop-color="#ACB180"/>
<stop offset="1" stop-color="#2A922F"/>
</linearGradient>
<linearGradient id="paint84_linear_0_1" x1="122.582" y1="128.339" x2="124.216" y2="130.105" gradientUnits="userSpaceOnUse">
<stop stop-color="#019861"/>
<stop offset="1" stop-color="#3590C0"/>
</linearGradient>
<linearGradient id="paint85_linear_0_1" x1="133.189" y1="144.624" x2="118.234" y2="144.948" gradientUnits="userSpaceOnUse">
<stop stop-color="#019861"/>
<stop offset="1" stop-color="#3590C0"/>
</linearGradient>
<linearGradient id="paint86_linear_0_1" x1="125.534" y1="137.748" x2="128.534" y2="136.232" gradientUnits="userSpaceOnUse">
<stop stop-color="#6BE39F"/>
<stop offset="1" stop-color="#2D9D9F"/>
</linearGradient>
<linearGradient id="paint87_linear_0_1" x1="134.294" y1="132.286" x2="131.518" y2="153.07" gradientUnits="userSpaceOnUse">
<stop stop-color="#6BE39F"/>
<stop offset="1" stop-color="#2D9D9F"/>
</linearGradient>
<linearGradient id="paint88_linear_0_1" x1="130.07" y1="131.722" x2="127.291" y2="152.508" gradientUnits="userSpaceOnUse">
<stop stop-color="#6BE39F"/>
<stop offset="1" stop-color="#2D9D9F"/>
</linearGradient>
</defs>
</svg>
