<svg width="214" height="148" viewBox="0 0 264 188" fill="none" xmlns="http://www.w3.org/2000/svg">
<g filter="url(#filter0_d_0_1)">
</g>
<!-- <path d="M92.2272 26.78H94.6472C95.5272 26.78 96.3005 26.6533 96.9672 26.4C97.6472 26.1467 98.1739 25.78 98.5472 25.3C98.9339 24.8067 99.1272 24.2133 99.1272 23.52C99.1272 22.72 98.9339 22.06 98.5472 21.54C98.1739 21.02 97.6472 20.6333 96.9672 20.38C96.3005 20.1267 95.5272 20 94.6472 20H90.4272V34H94.8872C95.8739 34 96.7405 33.86 97.4872 33.58C98.2472 33.2867 98.8405 32.84 99.2672 32.24C99.7072 31.64 99.9272 30.88 99.9272 29.96C99.9272 29.2933 99.7939 28.72 99.5272 28.24C99.2605 27.76 98.8872 27.3667 98.4072 27.06C97.9405 26.7533 97.4072 26.5267 96.8072 26.38C96.2072 26.2333 95.5672 26.16 94.8872 26.16H92.2272V27.46H94.7472C95.1472 27.46 95.5139 27.5067 95.8472 27.6C96.1805 27.68 96.4672 27.82 96.7072 28.02C96.9605 28.2067 97.1539 28.4467 97.2872 28.74C97.4339 29.02 97.5072 29.3467 97.5072 29.72C97.5072 30.24 97.3872 30.6733 97.1472 31.02C96.9072 31.3667 96.5805 31.6267 96.1672 31.8C95.7539 31.9733 95.2805 32.06 94.7472 32.06H92.7872V21.94H94.4872C95.1405 21.94 95.6739 22.1 96.0872 22.42C96.5005 22.74 96.7072 23.1933 96.7072 23.78C96.7072 24.1667 96.6139 24.5 96.4272 24.78C96.2405 25.0467 95.9805 25.2533 95.6472 25.4C95.3139 25.5467 94.9272 25.62 94.4872 25.62H92.2272V26.78ZM111.159 24.8V34H113.339V24.8H111.159ZM102.239 24.8V34H104.399V24.8H102.239ZM103.739 29.76H106.399C106.879 29.76 107.246 29.8667 107.499 30.08C107.753 30.2933 107.879 30.6 107.879 31C107.879 31.2533 107.819 31.4733 107.699 31.66C107.579 31.8467 107.413 31.9867 107.199 32.08C106.986 32.1733 106.719 32.22 106.399 32.22H103.739V34H106.599C107.239 34 107.813 33.8867 108.319 33.66C108.826 33.4333 109.226 33.1 109.519 32.66C109.813 32.2067 109.959 31.6533 109.959 31C109.959 30.0133 109.633 29.2933 108.979 28.84C108.339 28.3733 107.546 28.14 106.599 28.14H103.739V29.76ZM120.467 26.5C120.987 26.5 121.454 26.62 121.867 26.86C122.28 27.1 122.607 27.44 122.847 27.88C123.087 28.32 123.207 28.8267 123.207 29.4C123.207 29.9733 123.087 30.48 122.847 30.92C122.607 31.3467 122.28 31.6867 121.867 31.94C121.454 32.18 120.987 32.3 120.467 32.3C119.947 32.3 119.48 32.18 119.067 31.94C118.654 31.6867 118.32 31.3467 118.067 30.92C117.827 30.48 117.707 29.9733 117.707 29.4L115.407 28.2C115.407 29.52 115.627 30.6267 116.067 31.52C116.507 32.4133 117.107 33.0867 117.867 33.54C118.64 33.98 119.507 34.2 120.467 34.2C121.44 34.2 122.294 33.9933 123.027 33.58C123.774 33.1667 124.36 32.6 124.787 31.88C125.214 31.1467 125.427 30.32 125.427 29.4C125.427 28.4667 125.214 27.64 124.787 26.92C124.374 26.2 123.8 25.6333 123.067 25.22C122.334 24.8067 121.5 24.6 120.567 24.6L120.467 26.5ZM116.727 29.4H117.707C117.707 28.9333 117.787 28.52 117.947 28.16C118.12 27.8 118.34 27.5 118.607 27.26C118.874 27.0067 119.167 26.82 119.487 26.7C119.82 26.5667 120.147 26.5 120.467 26.5L120.567 24.6C119.994 24.6 119.474 24.7133 119.007 24.94C118.54 25.1533 118.134 25.4667 117.787 25.88C117.454 26.2933 117.194 26.8 117.007 27.4C116.82 27.9867 116.727 28.6533 116.727 29.4ZM115.407 28.2L117.507 29.3L117.307 27.2C117.307 26.5333 117.394 25.88 117.567 25.24C117.74 24.6 118.054 24.0267 118.507 23.52C118.974 23.0133 119.62 22.6133 120.447 22.32C121.18 22.0667 121.834 21.7533 122.407 21.38C122.994 20.9933 123.467 20.5467 123.827 20.04C124.187 19.5333 124.4 18.9867 124.467 18.4H122.367C122.274 18.88 121.994 19.3267 121.527 19.74C121.06 20.14 120.374 20.5067 119.467 20.84C118.414 21.2267 117.587 21.76 116.987 22.44C116.4 23.1067 115.987 23.92 115.747 24.88C115.52 25.84 115.407 26.9467 115.407 28.2ZM129.613 38.4V24.8H127.433V38.4H129.613ZM137.233 29.4C137.233 28.3733 137.026 27.5 136.613 26.78C136.199 26.06 135.653 25.5133 134.973 25.14C134.293 24.7533 133.553 24.56 132.753 24.56C131.966 24.56 131.279 24.76 130.693 25.16C130.119 25.5467 129.673 26.1 129.353 26.82C129.046 27.54 128.893 28.4 128.893 29.4C128.893 30.3867 129.046 31.2467 129.353 31.98C129.673 32.7 130.119 33.26 130.693 33.66C131.279 34.0467 131.966 34.24 132.753 34.24C133.553 34.24 134.293 34.0533 134.973 33.68C135.653 33.2933 136.199 32.74 136.613 32.02C137.026 31.2867 137.233 30.4133 137.233 29.4ZM134.993 29.4C134.993 30.0133 134.866 30.54 134.613 30.98C134.359 31.4067 134.019 31.7333 133.593 31.96C133.179 32.1733 132.719 32.28 132.213 32.28C131.799 32.28 131.393 32.1733 130.993 31.96C130.593 31.7333 130.259 31.4067 129.993 30.98C129.739 30.5533 129.613 30.0267 129.613 29.4C129.613 28.7733 129.739 28.2467 129.993 27.82C130.259 27.3933 130.593 27.0733 130.993 26.86C131.393 26.6333 131.799 26.52 132.213 26.52C132.719 26.52 133.179 26.6333 133.593 26.86C134.019 27.0733 134.359 27.4 134.613 27.84C134.866 28.2667 134.993 28.7867 134.993 29.4ZM138.59 29.4C138.59 30.3333 138.803 31.1667 139.23 31.9C139.67 32.62 140.263 33.1867 141.01 33.6C141.757 34 142.603 34.2 143.55 34.2C144.497 34.2 145.337 34 146.07 33.6C146.817 33.1867 147.41 32.62 147.85 31.9C148.29 31.1667 148.51 30.3333 148.51 29.4C148.51 28.4533 148.29 27.62 147.85 26.9C147.41 26.18 146.817 25.62 146.07 25.22C145.337 24.8067 144.497 24.6 143.55 24.6C142.603 24.6 141.757 24.8067 141.01 25.22C140.263 25.62 139.67 26.18 139.23 26.9C138.803 27.62 138.59 28.4533 138.59 29.4ZM140.81 29.4C140.81 28.8267 140.93 28.32 141.17 27.88C141.41 27.44 141.737 27.1 142.15 26.86C142.563 26.62 143.03 26.5 143.55 26.5C144.057 26.5 144.517 26.62 144.93 26.86C145.357 27.1 145.69 27.44 145.93 27.88C146.17 28.32 146.29 28.8267 146.29 29.4C146.29 29.9733 146.17 30.48 145.93 30.92C145.69 31.3467 145.357 31.6867 144.93 31.94C144.517 32.18 144.057 32.3 143.55 32.3C143.03 32.3 142.563 32.18 142.15 31.94C141.737 31.6867 141.41 31.3467 141.17 30.92C140.93 30.48 140.81 29.9733 140.81 29.4ZM152 29.4C152 28.8267 152.126 28.32 152.38 27.88C152.633 27.44 152.973 27.0933 153.4 26.84C153.84 26.5867 154.326 26.46 154.86 26.46C155.286 26.46 155.7 26.5267 156.1 26.66C156.5 26.7933 156.853 26.98 157.16 27.22C157.48 27.4467 157.713 27.7133 157.86 28.02V25.64C157.54 25.32 157.106 25.0667 156.56 24.88C156.013 24.6933 155.413 24.6 154.76 24.6C153.813 24.6 152.96 24.8067 152.2 25.22C151.453 25.62 150.86 26.18 150.42 26.9C149.993 27.62 149.78 28.4533 149.78 29.4C149.78 30.3333 149.993 31.1667 150.42 31.9C150.86 32.62 151.453 33.1867 152.2 33.6C152.96 34 153.813 34.2 154.76 34.2C155.413 34.2 156.013 34.1067 156.56 33.92C157.106 33.7333 157.54 33.48 157.86 33.16V30.78C157.713 31.0733 157.486 31.34 157.18 31.58C156.873 31.82 156.52 32.0067 156.12 32.14C155.72 32.2733 155.3 32.34 154.86 32.34C154.326 32.34 153.84 32.2133 153.4 31.96C152.973 31.7067 152.633 31.3667 152.38 30.94C152.126 30.5 152 29.9867 152 29.4ZM175.003 34H177.303L174.743 24.1L173.603 27.1L175.003 34ZM170.503 32.12L171.103 34.62L174.943 27.64L174.743 24.1L170.503 32.12ZM171.103 34.62L171.703 32.12L167.503 24.1L167.303 27.64L171.103 34.62ZM164.963 34H167.263L168.663 27.1L167.503 24.1L164.963 34ZM186.825 24.8H184.505L181.625 32.02L182.645 32.08L179.705 24.8H177.225L180.925 32.92L178.525 38.4H180.825L186.825 24.8ZM189.265 29.4C189.265 28.8267 189.392 28.32 189.645 27.88C189.899 27.44 190.239 27.0933 190.665 26.84C191.105 26.5867 191.592 26.46 192.125 26.46C192.552 26.46 192.965 26.5267 193.365 26.66C193.765 26.7933 194.119 26.98 194.425 27.22C194.745 27.4467 194.979 27.7133 195.125 28.02V25.64C194.805 25.32 194.372 25.0667 193.825 24.88C193.279 24.6933 192.679 24.6 192.025 24.6C191.079 24.6 190.225 24.8067 189.465 25.22C188.719 25.62 188.125 26.18 187.685 26.9C187.259 27.62 187.045 28.4533 187.045 29.4C187.045 30.3333 187.259 31.1667 187.685 31.9C188.125 32.62 188.719 33.1867 189.465 33.6C190.225 34 191.079 34.2 192.025 34.2C192.679 34.2 193.279 34.1067 193.825 33.92C194.372 33.7333 194.805 33.48 195.125 33.16V30.78C194.979 31.0733 194.752 31.34 194.445 31.58C194.139 31.82 193.785 32.0067 193.385 32.14C192.985 32.2733 192.565 32.34 192.125 32.34C191.592 32.34 191.105 32.2133 190.665 31.96C190.239 31.7067 189.899 31.3667 189.645 30.94C189.392 30.5 189.265 29.9867 189.265 29.4ZM196.813 29.4C196.813 30.3333 197.026 31.1667 197.453 31.9C197.893 32.62 198.486 33.1867 199.233 33.6C199.979 34 200.826 34.2 201.773 34.2C202.719 34.2 203.559 34 204.293 33.6C205.039 33.1867 205.633 32.62 206.073 31.9C206.513 31.1667 206.733 30.3333 206.733 29.4C206.733 28.4533 206.513 27.62 206.073 26.9C205.633 26.18 205.039 25.62 204.293 25.22C203.559 24.8067 202.719 24.6 201.773 24.6C200.826 24.6 199.979 24.8067 199.233 25.22C198.486 25.62 197.893 26.18 197.453 26.9C197.026 27.62 196.813 28.4533 196.813 29.4ZM199.033 29.4C199.033 28.8267 199.153 28.32 199.393 27.88C199.633 27.44 199.959 27.1 200.373 26.86C200.786 26.62 201.253 26.5 201.773 26.5C202.279 26.5 202.739 26.62 203.153 26.86C203.579 27.1 203.913 27.44 204.153 27.88C204.393 28.32 204.513 28.8267 204.513 29.4C204.513 29.9733 204.393 30.48 204.153 30.92C203.913 31.3467 203.579 31.6867 203.153 31.94C202.739 32.18 202.279 32.3 201.773 32.3C201.253 32.3 200.786 32.18 200.373 31.94C199.959 31.6867 199.633 31.3467 199.393 30.92C199.153 30.48 199.033 29.9733 199.033 29.4ZM210.882 38.4V24.8H208.702V38.4H210.882ZM218.502 29.4C218.502 28.3733 218.296 27.5 217.882 26.78C217.469 26.06 216.922 25.5133 216.242 25.14C215.562 24.7533 214.822 24.56 214.022 24.56C213.236 24.56 212.549 24.76 211.962 25.16C211.389 25.5467 210.942 26.1 210.622 26.82C210.316 27.54 210.162 28.4 210.162 29.4C210.162 30.3867 210.316 31.2467 210.622 31.98C210.942 32.7 211.389 33.26 211.962 33.66C212.549 34.0467 213.236 34.24 214.022 34.24C214.822 34.24 215.562 34.0533 216.242 33.68C216.922 33.2933 217.469 32.74 217.882 32.02C218.296 31.2867 218.502 30.4133 218.502 29.4ZM216.262 29.4C216.262 30.0133 216.136 30.54 215.882 30.98C215.629 31.4067 215.289 31.7333 214.862 31.96C214.449 32.1733 213.989 32.28 213.482 32.28C213.069 32.28 212.662 32.1733 212.262 31.96C211.862 31.7333 211.529 31.4067 211.262 30.98C211.009 30.5533 210.882 30.0267 210.882 29.4C210.882 28.7733 211.009 28.2467 211.262 27.82C211.529 27.3933 211.862 27.0733 212.262 26.86C212.662 26.6333 213.069 26.52 213.482 26.52C213.989 26.52 214.449 26.6333 214.862 26.86C215.289 27.0733 215.629 27.4 215.882 27.84C216.136 28.2667 216.262 28.7867 216.262 29.4ZM221.92 31.28C221.92 30.96 221.993 30.6867 222.14 30.46C222.3 30.22 222.533 30.04 222.84 29.92C223.16 29.7867 223.546 29.72 224 29.72C224.56 29.72 225.053 29.7933 225.48 29.94C225.906 30.0733 226.326 30.2933 226.74 30.6V29.46C226.633 29.3267 226.44 29.1733 226.16 29C225.88 28.8267 225.526 28.6733 225.1 28.54C224.686 28.4067 224.213 28.34 223.68 28.34C222.88 28.34 222.18 28.46 221.58 28.7C220.993 28.94 220.54 29.2867 220.22 29.74C219.9 30.1933 219.74 30.7333 219.74 31.36C219.74 31.9867 219.88 32.5133 220.16 32.94C220.453 33.3533 220.84 33.6667 221.32 33.88C221.813 34.0933 222.36 34.2 222.96 34.2C223.6 34.2 224.18 34.0933 224.7 33.88C225.22 33.6533 225.633 33.3333 225.94 32.92C226.246 32.4933 226.4 31.9867 226.4 31.4L226.08 30.36C226.08 30.8933 225.973 31.32 225.76 31.64C225.546 31.96 225.253 32.1933 224.88 32.34C224.506 32.4867 224.086 32.56 223.62 32.56C223.3 32.56 223.013 32.5133 222.76 32.42C222.506 32.3133 222.3 32.1667 222.14 31.98C221.993 31.7933 221.92 31.56 221.92 31.28ZM221.44 27.22C221.586 27.1267 221.793 27.0133 222.06 26.88C222.34 26.7333 222.666 26.6067 223.04 26.5C223.413 26.3933 223.82 26.34 224.26 26.34C224.766 26.34 225.193 26.46 225.54 26.7C225.9 26.9267 226.08 27.2533 226.08 27.68V34H228.2V27.44C228.2 26.8267 228.033 26.3133 227.7 25.9C227.38 25.4733 226.933 25.1467 226.36 24.92C225.786 24.6933 225.12 24.58 224.36 24.58C223.533 24.58 222.8 24.7 222.16 24.94C221.52 25.18 220.993 25.4267 220.58 25.68L221.44 27.22ZM238.112 29.2V30.14H240.772C241.038 30.14 241.265 30.1667 241.452 30.22C241.652 30.2733 241.805 30.3533 241.912 30.46C242.032 30.5667 242.125 30.6867 242.192 30.82C242.258 30.9533 242.292 31.1 242.292 31.26C242.292 31.5667 242.172 31.8333 241.932 32.06C241.692 32.2867 241.305 32.4 240.772 32.4H238.112V34H241.432C242.485 34 243.238 33.76 243.692 33.28C244.158 32.7867 244.392 32.1933 244.392 31.5C244.392 30.9 244.245 30.4333 243.952 30.1C243.658 29.7667 243.258 29.5333 242.752 29.4C242.245 29.2667 241.672 29.2 241.032 29.2H238.112ZM238.112 29.6H240.832C241.405 29.6 241.925 29.52 242.392 29.36C242.872 29.1867 243.258 28.9333 243.552 28.6C243.845 28.2533 243.992 27.82 243.992 27.3C243.992 26.7 243.845 26.22 243.552 25.86C243.258 25.4867 242.872 25.22 242.392 25.06C241.925 24.8867 241.405 24.8 240.832 24.8H238.112V26.4H240.572C240.985 26.4 241.305 26.5 241.532 26.7C241.772 26.9 241.892 27.1533 241.892 27.46C241.892 27.6067 241.858 27.7467 241.792 27.88C241.725 28.0133 241.638 28.1333 241.532 28.24C241.425 28.3467 241.285 28.4267 241.112 28.48C240.952 28.5333 240.772 28.56 240.572 28.56H238.112V29.6ZM236.852 24.8V34H238.972V24.8H236.852ZM107.183 52.04H114.223V50.26H107.183V52.04ZM113.063 46.8V56H115.183V46.8H113.063ZM106.243 46.8V56H108.363V46.8H106.243ZM118.523 51.9H126.603C126.629 51.78 126.643 51.6733 126.643 51.58C126.643 51.4733 126.643 51.38 126.643 51.3C126.643 50.3267 126.456 49.4933 126.083 48.8C125.709 48.0933 125.176 47.5533 124.483 47.18C123.803 46.7933 122.989 46.6 122.043 46.6C121.176 46.6 120.409 46.76 119.743 47.08C119.076 47.4 118.536 47.8467 118.123 48.42C117.723 48.9933 117.456 49.66 117.323 50.42C117.296 50.58 117.276 50.74 117.263 50.9C117.249 51.06 117.243 51.2267 117.243 51.4C117.243 52.32 117.436 53.1467 117.823 53.88C118.209 54.6 118.756 55.1667 119.463 55.58C120.169 55.9933 120.996 56.2 121.943 56.2C122.783 56.2 123.483 56.1 124.043 55.9C124.616 55.6867 125.096 55.3933 125.483 55.02C125.883 54.6467 126.236 54.2133 126.543 53.72L124.683 52.96C124.509 53.2533 124.296 53.5133 124.043 53.74C123.789 53.9533 123.496 54.12 123.163 54.24C122.843 54.36 122.469 54.42 122.043 54.42C121.523 54.42 121.063 54.3133 120.663 54.1C120.276 53.8733 119.969 53.54 119.743 53.1C119.529 52.6467 119.423 52.08 119.423 51.4L119.463 50.84C119.463 50.3067 119.576 49.8467 119.803 49.46C120.029 49.06 120.336 48.76 120.723 48.56C121.109 48.3467 121.543 48.24 122.023 48.24C122.489 48.24 122.883 48.3333 123.203 48.52C123.523 48.6933 123.769 48.9467 123.943 49.28C124.129 49.6 124.249 49.98 124.303 50.42H118.523V51.9ZM136.864 46.8H128.724V56H130.844V48.74H134.744V56H136.864V46.8ZM138.922 51.4C138.922 52.3333 139.136 53.1667 139.562 53.9C140.002 54.62 140.596 55.1867 141.342 55.6C142.089 56 142.936 56.2 143.882 56.2C144.829 56.2 145.669 56 146.402 55.6C147.149 55.1867 147.742 54.62 148.182 53.9C148.622 53.1667 148.842 52.3333 148.842 51.4C148.842 50.4533 148.622 49.62 148.182 48.9C147.742 48.18 147.149 47.62 146.402 47.22C145.669 46.8067 144.829 46.6 143.882 46.6C142.936 46.6 142.089 46.8067 141.342 47.22C140.596 47.62 140.002 48.18 139.562 48.9C139.136 49.62 138.922 50.4533 138.922 51.4ZM141.142 51.4C141.142 50.8267 141.262 50.32 141.502 49.88C141.742 49.44 142.069 49.1 142.482 48.86C142.896 48.62 143.362 48.5 143.882 48.5C144.389 48.5 144.849 48.62 145.262 48.86C145.689 49.1 146.022 49.44 146.262 49.88C146.502 50.32 146.622 50.8267 146.622 51.4C146.622 51.9733 146.502 52.48 146.262 52.92C146.022 53.3467 145.689 53.6867 145.262 53.94C144.849 54.18 144.389 54.3 143.882 54.3C143.362 54.3 142.896 54.18 142.482 53.94C142.069 53.6867 141.742 53.3467 141.502 52.92C141.262 52.48 141.142 51.9733 141.142 51.4ZM159.592 46.8H151.172V52.5C151.172 53.1 151.025 53.5067 150.732 53.72C150.452 53.9333 150.112 54.04 149.712 54.04V56C150.565 56 151.252 55.8867 151.772 55.66C152.305 55.42 152.692 55.0667 152.932 54.6C153.172 54.12 153.292 53.52 153.292 52.8V48.8H157.472V56H159.592V46.8ZM161.871 51.4C161.871 52.3333 162.085 53.1667 162.511 53.9C162.951 54.62 163.545 55.1867 164.291 55.6C165.038 56 165.885 56.2 166.831 56.2C167.778 56.2 168.618 56 169.351 55.6C170.098 55.1867 170.691 54.62 171.131 53.9C171.571 53.1667 171.791 52.3333 171.791 51.4C171.791 50.4533 171.571 49.62 171.131 48.9C170.691 48.18 170.098 47.62 169.351 47.22C168.618 46.8067 167.778 46.6 166.831 46.6C165.885 46.6 165.038 46.8067 164.291 47.22C163.545 47.62 162.951 48.18 162.511 48.9C162.085 49.62 161.871 50.4533 161.871 51.4ZM164.091 51.4C164.091 50.8267 164.211 50.32 164.451 49.88C164.691 49.44 165.018 49.1 165.431 48.86C165.845 48.62 166.311 48.5 166.831 48.5C167.338 48.5 167.798 48.62 168.211 48.86C168.638 49.1 168.971 49.44 169.211 49.88C169.451 50.32 169.571 50.8267 169.571 51.4C169.571 51.9733 169.451 52.48 169.211 52.92C168.971 53.3467 168.638 53.6867 168.211 53.94C167.798 54.18 167.338 54.3 166.831 54.3C166.311 54.3 165.845 54.18 165.431 53.94C165.018 53.6867 164.691 53.3467 164.451 52.92C164.211 52.48 164.091 51.9733 164.091 51.4ZM184.308 46.8L180.308 50.6L184.708 56H187.308L182.808 50.76L186.908 46.8H184.308ZM180.768 46.8H178.708V56H180.768V46.8ZM175.168 46.8H172.568L176.668 50.76L172.168 56H174.768L179.168 50.6L175.168 46.8ZM188.972 51.9H197.052C197.078 51.78 197.092 51.6733 197.092 51.58C197.092 51.4733 197.092 51.38 197.092 51.3C197.092 50.3267 196.905 49.4933 196.532 48.8C196.158 48.0933 195.625 47.5533 194.932 47.18C194.252 46.7933 193.438 46.6 192.492 46.6C191.625 46.6 190.858 46.76 190.192 47.08C189.525 47.4 188.985 47.8467 188.572 48.42C188.172 48.9933 187.905 49.66 187.772 50.42C187.745 50.58 187.725 50.74 187.712 50.9C187.698 51.06 187.692 51.2267 187.692 51.4C187.692 52.32 187.885 53.1467 188.272 53.88C188.658 54.6 189.205 55.1667 189.912 55.58C190.618 55.9933 191.445 56.2 192.392 56.2C193.232 56.2 193.932 56.1 194.492 55.9C195.065 55.6867 195.545 55.3933 195.932 55.02C196.332 54.6467 196.685 54.2133 196.992 53.72L195.132 52.96C194.958 53.2533 194.745 53.5133 194.492 53.74C194.238 53.9533 193.945 54.12 193.612 54.24C193.292 54.36 192.918 54.42 192.492 54.42C191.972 54.42 191.512 54.3133 191.112 54.1C190.725 53.8733 190.418 53.54 190.192 53.1C189.978 52.6467 189.872 52.08 189.872 51.4L189.912 50.84C189.912 50.3067 190.025 49.8467 190.252 49.46C190.478 49.06 190.785 48.76 191.172 48.56C191.558 48.3467 191.992 48.24 192.472 48.24C192.938 48.24 193.332 48.3333 193.652 48.52C193.972 48.6933 194.218 48.9467 194.392 49.28C194.578 49.6 194.698 49.98 194.752 50.42H188.972V51.9ZM200.113 52.04H207.153V50.26H200.113V52.04ZM205.993 46.8V56H208.113V46.8H205.993ZM199.173 46.8V56H201.293V46.8H199.173ZM211.812 52.04H218.852V50.26H211.812V52.04ZM217.692 46.8V56H219.812V46.8H217.692ZM210.872 46.8V56H212.992V46.8H210.872ZM221.871 51.4C221.871 52.3333 222.085 53.1667 222.511 53.9C222.951 54.62 223.545 55.1867 224.291 55.6C225.038 56 225.885 56.2 226.831 56.2C227.778 56.2 228.618 56 229.351 55.6C230.098 55.1867 230.691 54.62 231.131 53.9C231.571 53.1667 231.791 52.3333 231.791 51.4C231.791 50.4533 231.571 49.62 231.131 48.9C230.691 48.18 230.098 47.62 229.351 47.22C228.618 46.8067 227.778 46.6 226.831 46.6C225.885 46.6 225.038 46.8067 224.291 47.22C223.545 47.62 222.951 48.18 222.511 48.9C222.085 49.62 221.871 50.4533 221.871 51.4ZM224.091 51.4C224.091 50.8267 224.211 50.32 224.451 49.88C224.691 49.44 225.018 49.1 225.431 48.86C225.845 48.62 226.311 48.5 226.831 48.5C227.338 48.5 227.798 48.62 228.211 48.86C228.638 49.1 228.971 49.44 229.211 49.88C229.451 50.32 229.571 50.8267 229.571 51.4C229.571 51.9733 229.451 52.48 229.211 52.92C228.971 53.3467 228.638 53.6867 228.211 53.94C227.798 54.18 227.338 54.3 226.831 54.3C226.311 54.3 225.845 54.18 225.431 53.94C225.018 53.6867 224.691 53.3467 224.451 52.92C224.211 52.48 224.091 51.9733 224.091 51.4ZM242.601 56H244.901L242.341 46.1L241.201 49.1L242.601 56ZM238.101 54.12L238.701 56.62L242.541 49.64L242.341 46.1L238.101 54.12ZM238.701 56.62L239.301 54.12L235.101 46.1L234.901 49.64L238.701 56.62ZM232.561 56H234.861L236.261 49.1L235.101 46.1L232.561 56ZM205.628 78H207.928L205.368 68.1L204.228 71.1L205.628 78ZM201.128 76.12L201.728 78.62L205.568 71.64L205.368 68.1L201.128 76.12ZM201.728 78.62L202.328 76.12L198.128 68.1L197.928 71.64L201.728 78.62ZM195.588 78H197.888L199.288 71.1L198.128 68.1L195.588 78ZM209.987 73.9H218.067C218.094 73.78 218.107 73.6733 218.107 73.58C218.107 73.4733 218.107 73.38 218.107 73.3C218.107 72.3267 217.921 71.4933 217.547 70.8C217.174 70.0933 216.641 69.5533 215.947 69.18C215.267 68.7933 214.454 68.6 213.507 68.6C212.641 68.6 211.874 68.76 211.207 69.08C210.541 69.4 210.001 69.8467 209.587 70.42C209.187 70.9933 208.921 71.66 208.787 72.42C208.761 72.58 208.741 72.74 208.727 72.9C208.714 73.06 208.707 73.2267 208.707 73.4C208.707 74.32 208.901 75.1467 209.287 75.88C209.674 76.6 210.221 77.1667 210.927 77.58C211.634 77.9933 212.461 78.2 213.407 78.2C214.247 78.2 214.947 78.1 215.507 77.9C216.081 77.6867 216.561 77.3933 216.947 77.02C217.347 76.6467 217.701 76.2133 218.007 75.72L216.147 74.96C215.974 75.2533 215.761 75.5133 215.507 75.74C215.254 75.9533 214.961 76.12 214.627 76.24C214.307 76.36 213.934 76.42 213.507 76.42C212.987 76.42 212.527 76.3133 212.127 76.1C211.741 75.8733 211.434 75.54 211.207 75.1C210.994 74.6467 210.887 74.08 210.887 73.4L210.927 72.84C210.927 72.3067 211.041 71.8467 211.267 71.46C211.494 71.06 211.801 70.76 212.187 70.56C212.574 70.3467 213.007 70.24 213.487 70.24C213.954 70.24 214.347 70.3333 214.667 70.52C214.987 70.6933 215.234 70.9467 215.407 71.28C215.594 71.6 215.714 71.98 215.767 72.42H209.987V73.9ZM221.629 73.4C221.629 72.8267 221.755 72.32 222.009 71.88C222.262 71.44 222.602 71.0933 223.029 70.84C223.469 70.5867 223.955 70.46 224.489 70.46C224.915 70.46 225.329 70.5267 225.729 70.66C226.129 70.7933 226.482 70.98 226.789 71.22C227.109 71.4467 227.342 71.7133 227.489 72.02V69.64C227.169 69.32 226.735 69.0667 226.189 68.88C225.642 68.6933 225.042 68.6 224.389 68.6C223.442 68.6 222.589 68.8067 221.829 69.22C221.082 69.62 220.489 70.18 220.049 70.9C219.622 71.62 219.409 72.4533 219.409 73.4C219.409 74.3333 219.622 75.1667 220.049 75.9C220.489 76.62 221.082 77.1867 221.829 77.6C222.589 78 223.442 78.2 224.389 78.2C225.042 78.2 225.642 78.1067 226.189 77.92C226.735 77.7333 227.169 77.48 227.489 77.16V74.78C227.342 75.0733 227.115 75.34 226.809 75.58C226.502 75.82 226.149 76.0067 225.749 76.14C225.349 76.2733 224.929 76.34 224.489 76.34C223.955 76.34 223.469 76.2133 223.029 75.96C222.602 75.7067 222.262 75.3667 222.009 74.94C221.755 74.5 221.629 73.9867 221.629 73.4ZM228.596 68.8V70.7H234.416V68.8H228.596ZM230.456 69.2V78H232.576V69.2H230.456ZM236.179 73.9H244.259C244.285 73.78 244.299 73.6733 244.299 73.58C244.299 73.4733 244.299 73.38 244.299 73.3C244.299 72.3267 244.112 71.4933 243.739 70.8C243.365 70.0933 242.832 69.5533 242.139 69.18C241.459 68.7933 240.645 68.6 239.699 68.6C238.832 68.6 238.065 68.76 237.399 69.08C236.732 69.4 236.192 69.8467 235.779 70.42C235.379 70.9933 235.112 71.66 234.979 72.42C234.952 72.58 234.932 72.74 234.919 72.9C234.905 73.06 234.899 73.2267 234.899 73.4C234.899 74.32 235.092 75.1467 235.479 75.88C235.865 76.6 236.412 77.1667 237.119 77.58C237.825 77.9933 238.652 78.2 239.599 78.2C240.439 78.2 241.139 78.1 241.699 77.9C242.272 77.6867 242.752 77.3933 243.139 77.02C243.539 76.6467 243.892 76.2133 244.199 75.72L242.339 74.96C242.165 75.2533 241.952 75.5133 241.699 75.74C241.445 75.9533 241.152 76.12 240.819 76.24C240.499 76.36 240.125 76.42 239.699 76.42C239.179 76.42 238.719 76.3133 238.319 76.1C237.932 75.8733 237.625 75.54 237.399 75.1C237.185 74.6467 237.079 74.08 237.079 73.4L237.119 72.84C237.119 72.3067 237.232 71.8467 237.459 71.46C237.685 71.06 237.992 70.76 238.379 70.56C238.765 70.3467 239.199 70.24 239.679 70.24C240.145 70.24 240.539 70.3333 240.859 70.52C241.179 70.6933 241.425 70.9467 241.599 71.28C241.785 71.6 241.905 71.98 241.959 72.42H236.179V73.9Z" fill="#1E1920"/> -->
<path d="M82.5243 141.649C99.281 143.834 117.25 137.659 135.376 141.435C136.511 141.676 137.856 142.157 137.99 143.158C138.135 144.244 136.759 144.956 135.585 145.351C130.525 147.06 125.319 148.303 120.033 149.064C119.425 149.151 118.963 149.228 118.607 149.668C120.221 150.799 123.081 151.177 125.143 151.88C125.903 152.138 126.757 152.506 126.944 153.196C127.257 154.347 125.532 154.989 124.195 155.093C115.261 155.798 106.358 153.338 97.8377 154.01C96.7456 154.097 97.1161 154.843 97.7511 155.249C98.682 155.849 99.6755 155.94 100.691 156.236C102.093 156.648 103.469 157.343 104.828 157.882C104.607 159.086 103.329 159.786 102.141 160.092C100.513 160.51 98.8047 160.525 97.1233 160.465C95.0771 160.371 93.0389 160.149 91.0205 159.801C89.2092 159.504 87.5157 159.531 85.7284 159.078C81.4682 157.998 77.095 157.079 72.6737 157.285C71.5191 157.341 66.3905 157.572 67.295 159.413C68.1995 161.254 71.5648 161.394 73.0129 162.717C73.2871 162.937 73.4802 163.242 73.5614 163.584C73.7057 164.465 72.6833 165.052 71.8198 165.283C68.363 166.207 64.8101 165.622 61.4593 166.992C58.2022 168.323 54.9644 168.046 51.5101 167.779C49.9465 167.661 48.3685 167.538 46.8723 167.071C45.6334 166.686 42.7228 165.365 42.7829 163.723C42.8262 162.335 45.1451 162.624 45.7104 161.367C47.2307 157.998 40.541 157.367 38.631 157.473C37.3465 157.545 36.0571 157.817 34.7822 157.622C33.2764 157.382 31.9533 156.527 30.5173 156.02C27.5729 154.975 24.1739 155.432 21.4172 153.962C20.609 153.531 19.82 152.826 19.7694 151.909C19.7286 151.124 20.265 150.395 20.9409 149.984C21.6169 149.572 22.4155 149.444 23.1949 149.334C25.7928 148.97 28.422 148.838 31.0176 148.453C31.4236 148.43 31.8131 148.284 32.1337 148.034C32.7929 147.401 32.2877 146.227 31.5131 145.743C30.7385 145.259 29.7764 145.148 28.9994 144.669C28.799 144.563 28.6236 144.415 28.4851 144.235C28.3465 144.056 28.2479 143.848 28.1959 143.627C28.1141 143.105 28.4365 142.585 28.8815 142.287C29.3372 142.021 29.8393 141.845 30.3609 141.767C34.0849 140.975 37.8531 140.408 41.6451 140.068C45.0994 139.757 48.2434 139.933 51.6592 140.195C60.295 140.857 69.6067 143.04 78.6009 142.961C82.0239 142.932 85.4061 141.449 88.8483 142.169L82.5243 141.649Z" fill="url(#paint0_linear_0_1)"/>
<g style="mix-blend-mode:multiply" opacity="0.35">
<path d="M51.142 143.822C52.5775 143.823 54.0118 143.903 55.4383 144.063C61.2957 142.759 72.5486 141.878 85.4734 141.878C104.436 141.878 119.807 143.777 119.807 146.118C119.807 148.46 104.436 153.962 85.4734 153.962C71.7284 153.962 59.874 151.074 54.3919 148.588C53.3695 148.672 52.2799 148.718 51.142 148.718C45.5372 148.718 40.9956 147.625 40.9956 146.275C40.9956 144.925 45.5372 143.822 51.142 143.822Z" fill="#67635F"/>
</g>
<path d="M48.354 146.109L34.0894 64.0516L39.6124 63.0913L54.0455 146.109H48.354Z" fill="url(#paint1_linear_0_1)"/>
<g style="mix-blend-mode:multiply">
<path d="M42.9417 82.2367C41.1587 82.8436 39.292 83.1684 37.409 83.1994L34.0798 64.054L39.6124 63.0913L42.9417 82.2367Z" fill="#A39D99"/>
</g>
<path d="M21.8817 73.2782C14.0452 65.4378 14.0452 52.7258 21.8817 44.8853C29.7182 37.0448 42.4238 37.0448 50.2603 44.8853C58.0969 52.7258 58.0969 65.4378 50.2603 73.2782C42.4238 81.1187 29.7182 81.1187 21.8817 73.2782Z" fill="#E12D2C"/>
<path d="M21.8817 73.2782C14.0452 65.4378 14.0452 52.7258 21.8817 44.8853C29.7182 37.0448 42.4238 37.0448 50.2603 44.8853C58.0969 52.7258 58.0969 65.4378 50.2603 73.2782C42.4238 81.1187 29.7182 81.1187 21.8817 73.2782Z" fill="#F4504F"/>
<path d="M34.7132 78.3303C24.0889 77.5796 16.0845 68.3539 16.8349 57.7243C17.5853 47.0946 26.8063 39.0862 37.4306 39.8369C48.0549 40.5877 56.0593 49.8133 55.3089 60.443C54.5585 71.0726 45.3375 79.0811 34.7132 78.3303Z" fill="#E12D2C"/>
<path d="M20.3411 61.3942C19.0668 52.708 25.0718 44.6328 33.7537 43.3579C42.4356 42.083 50.5067 48.091 51.781 56.7773C53.0552 65.4635 47.0502 73.5387 38.3683 74.8136C29.6864 76.0885 21.6154 70.0805 20.3411 61.3942Z" fill="#F6F6F6"/>
<path d="M27.0461 48.7546C27.1388 49.2873 27.3874 49.7806 27.7603 50.172C28.1332 50.5634 28.6138 50.8354 29.1413 50.9535C29.6687 51.0717 30.2193 51.0307 30.7235 50.8357C31.2276 50.6407 31.6626 50.3005 31.9736 49.8582C32.2845 49.4159 32.4573 48.8912 32.4701 48.3506C32.483 47.81 32.3353 47.2777 32.0458 46.821C31.7563 46.3644 31.3379 46.0039 30.8436 45.7852C30.3493 45.5664 29.8012 45.4993 29.2688 45.5922C28.9152 45.6535 28.5771 45.7841 28.274 45.9763C27.9708 46.1685 27.7085 46.4186 27.5021 46.7123C27.2957 47.006 27.1491 47.3376 27.0709 47.688C26.9926 48.0385 26.9842 48.4009 27.0461 48.7546Z" fill="#1D1E20"/>
<path d="M27.2842 51.4885C27.2842 51.4885 29.7475 52.8411 32.9276 50.6726L44.6496 51.8134C44.6496 51.8134 44.7362 52.5619 43.175 52.8772C41.6138 53.1924 35.5399 54.4848 35.2561 55.344C34.9722 56.2032 33.7286 59.9746 33.7286 59.9746L25.9853 59.8976L27.2842 51.4885Z" fill="#1D1E20"/>
<path d="M26.1056 60.5427L33.6589 60.9013L37.4163 71.8735C37.4163 71.8735 36.851 72.3043 34.9723 70.4945C33.2884 68.8652 30.1805 63.2623 30.1757 63.5006C30.1709 63.7388 29.7547 71.1419 28.309 72.0228C27.6355 72.4199 26.1056 60.5427 26.1056 60.5427Z" fill="#1D1E20"/>
<path d="M45.3456 43.8001L47.986 45.876L25.4082 74.623L22.7678 72.5472L45.3456 43.8001Z" fill="#E12D2C"/>
<path d="M46.5018 58.326C46.5674 58.2601 46.6126 58.1765 46.6317 58.0854C46.6582 57.888 46.4729 57.7268 46.4416 57.5318C46.3959 57.2526 46.6822 57.0144 46.9757 57.012C47.258 57.0388 47.5252 57.1523 47.7406 57.3369C48.1228 57.581 48.4431 57.9105 48.6764 58.2996C48.7548 58.4565 48.8146 58.6221 48.8544 58.7929C48.9358 59.088 48.9456 59.3982 48.8832 59.6979C48.8518 59.8507 48.7869 59.9946 48.6933 60.1194C48.5998 60.2443 48.4798 60.3468 48.342 60.4199C47.9499 60.6028 47.4496 60.4704 47.0887 60.7087C46.9035 60.8314 46.7856 61.036 46.6076 61.1732C46.4424 61.2913 46.2464 61.3587 46.0435 61.3672C45.8406 61.3758 45.6396 61.3251 45.465 61.2213C45.1166 61.0024 44.8659 60.6576 44.765 60.2586C44.6471 59.8423 44.7025 59.308 45.0825 59.101C45.2035 59.044 45.3312 59.0027 45.4626 58.9782C45.8662 58.8693 46.2281 58.6422 46.5018 58.326V58.326Z" fill="#1D1E20"/>
<path d="M41.4262 58.7834C41.5609 59.1757 41.3781 59.6378 41.5513 60.0156C41.7245 60.3935 42.2152 60.574 42.3691 60.9783C42.5231 61.3827 42.2272 61.8808 41.8303 62.0974C41.4334 62.3141 40.9691 62.3526 40.5289 62.4609C40.1961 62.5752 39.8485 62.6408 39.4969 62.6558C39.2548 62.6492 39.0224 62.5587 38.8395 62.3999C38.6566 62.241 38.5344 62.0235 38.4939 61.7846C38.4602 61.3923 38.6983 61.0265 38.7344 60.6342C38.7705 60.2419 38.5829 59.864 38.5997 59.4741C38.6137 59.2837 38.6679 59.0983 38.7587 58.9303C38.8495 58.7623 38.9749 58.6155 39.1265 58.4994C39.434 58.2706 39.8043 58.1421 40.1873 58.1312C40.6805 58.0975 41.253 58.3069 41.4262 58.7834Z" fill="#1D1E20"/>
<path d="M43.875 67.5462C43.5527 67.4643 43.2087 67.5606 42.8839 67.4908C42.3234 67.3729 41.9674 66.7688 41.953 66.2008C41.9775 65.6262 42.1552 65.0686 42.4678 64.5859C42.5906 64.3259 42.7747 64.0996 43.0042 63.9265C43.2192 63.7991 43.4745 63.7583 43.7184 63.8124C43.9623 63.8665 44.1766 64.0114 44.3176 64.2177C44.3925 64.3728 44.4811 64.521 44.5822 64.6605C44.8083 64.9012 45.186 64.8891 45.5083 64.9565C45.7995 65.0172 46.0698 65.153 46.2922 65.3507C46.5146 65.5483 46.6814 65.8007 46.776 66.0829C46.8642 66.3672 46.8719 66.6703 46.7985 66.9587C46.725 67.2471 46.5732 67.5096 46.3599 67.717C46.1404 67.9178 45.8672 68.0502 45.5737 68.0981C45.2802 68.146 44.9791 68.1072 44.7073 67.9866C44.4235 67.8518 44.1805 67.6256 43.875 67.5462Z" fill="#1D1E20"/>
<g style="mix-blend-mode:multiply">
<path d="M37.7434 63.7218C42.5977 60.6437 45.7657 56.7616 48.6716 51.3345C49.7259 52.9799 50.4459 54.8169 50.7906 56.7407C51.1353 58.6645 51.0979 60.6374 50.6806 62.5467C50.2632 64.4561 49.474 66.2644 48.3581 67.8686C47.2422 69.4728 45.8214 70.8414 44.1769 71.8963C42.5323 72.9511 40.6962 73.6715 38.7734 74.0164C36.8506 74.3613 34.8787 74.3238 32.9703 73.9063C31.0619 73.4887 29.2544 72.6991 27.651 71.5827C26.0476 70.4662 24.6797 69.0447 23.6254 67.3993C27.9962 67.6713 33.933 66.1382 37.7434 63.7218Z" fill="#C9C9C9"/>
</g>
<path d="M58.4644 136.917C58.4644 136.917 86.8349 131.182 112.485 136.917C112.485 136.917 111.523 144.45 85.4734 144.45C59.4242 144.45 58.4644 136.917 58.4644 136.917Z" fill="#79706A"/>
<path d="M85.3122 87.6159V87.3968C96.0744 87.2837 106.882 86.7157 111.176 85.0503V141.488C111.176 141.488 101.735 145.476 85.637 145.327V145.553C69.3348 145.76 59.7706 141.702 59.7706 141.702V85.2789C64.0235 86.9299 74.6582 87.5027 85.3122 87.6159Z" fill="#A1A299"/>
<g style="mix-blend-mode:multiply" opacity="0.55">
<path d="M91.3862 119.327C98.2659 116.005 103.748 111.89 108.99 106.347L109.788 105.502V140.595C109.788 140.595 100.857 144.368 85.6274 144.226V144.441C70.2057 144.636 61.1514 140.804 61.1514 140.804V121.55C70.2923 126.246 81.5693 124.065 91.3862 119.327Z" fill="#75706C"/>
</g>
<g style="mix-blend-mode:multiply" opacity="0.65">
<path d="M85.3122 86.1717C85.3122 86.1717 106.882 85.2667 111.186 83.5989V89.5723C108.819 90.4917 98.4367 94.4676 85.483 94.4676C71.1727 94.4676 62.4383 90.8262 59.7802 89.7962V83.8227C64.0235 85.4713 74.6583 86.0441 85.3122 86.1717Z" fill="#A39D99"/>
</g>
<path d="M85.4734 76.2585C103.173 76.2585 114.544 79.0215 114.544 79.0215C113.991 87.2187 85.4734 86.2055 85.4734 86.2055C85.4734 86.2055 56.9586 87.2187 56.4053 79.0215C56.4053 79.0215 67.7761 76.2585 85.4734 76.2585Z" fill="#79706A"/>
<path d="M100.255 83.2068C105.384 82.3668 110.787 81.0576 114.544 79.0215V86.7374C114.544 86.7374 106.947 92.0563 85.4734 92.0563C63.9995 92.0563 56.4053 86.7374 56.4053 86.7374V79.0215C60.1627 81.0576 65.5631 82.3668 70.694 83.2068C80.483 84.8048 90.4662 84.8048 100.255 83.2068V83.2068Z" fill="#A1A299"/>
<path d="M91.4222 84.1909C94.2487 84.0056 97.0704 83.7096 99.8752 83.2595V91.1102C97.4168 91.464 94.6095 91.748 91.4222 91.9093V84.1909Z" fill="#6B6C65"/>
<path d="M68.541 82.824C69.2627 82.9612 69.9844 83.0887 70.694 83.2066C72.5438 83.5099 74.4033 83.7361 76.2651 83.9287V91.7072C73.316 91.4665 70.7637 91.1103 68.541 90.7084V82.824Z" fill="#C9C7C0"/>
<path d="M70.694 83.2067C65.563 82.3668 60.1627 81.0575 56.4053 79.0215C56.4053 79.0215 67.7761 76.2585 85.4734 76.2585C103.171 76.2585 114.554 79.0215 114.554 79.0215C110.796 81.0575 105.393 82.3668 100.265 83.2067C90.4727 84.8058 80.4861 84.8058 70.694 83.2067V83.2067Z" fill="#C8C4C2"/>
<path d="M73.1115 82.0971C68.8201 81.4882 64.3026 80.54 61.161 79.0646C61.161 79.0646 70.6699 77.0623 85.4734 77.0623C100.277 77.0623 109.788 79.0646 109.788 79.0646C106.647 80.54 102.129 81.4882 97.8377 82.0971C89.6364 83.2572 81.3128 83.2572 73.1115 82.0971V82.0971Z" fill="#79706A"/>
<path d="M93.6497 143.48L87.9078 145.035V101.057C89.8755 101.002 91.7975 100.882 93.6497 100.696V143.48Z" fill="#67635F"/>
<path d="M71.3964 143.529L65.6545 141.971V98.4893C67.5427 99.0484 69.4594 99.5063 71.3964 99.8611V143.529Z" fill="#67635F"/>
<path d="M83.0414 145.035L77.2995 143.48V100.696C79.1517 100.879 81.0713 101.002 83.0414 101.057V145.035Z" fill="#67635F"/>
<path d="M85.4734 142.848C85.4734 142.848 101.109 143.139 112.485 136.917V145.56C112.485 145.56 104.15 151.394 85.4734 151.394C65.3826 151.394 58.4644 145.553 58.4644 145.553V136.917C69.8304 143.139 85.4734 142.848 85.4734 142.848Z" fill="#A1A299"/>
<path d="M91.4222 142.575C94.2632 142.329 97.0873 141.916 99.8799 141.338V150.072C97.0886 150.623 94.2653 150.996 91.427 151.191L91.4222 142.575Z" fill="#6B6C65"/>
<path d="M76.4095 142.231V150.949C73.578 150.67 70.7695 150.193 68.0047 149.521V140.616C70.7682 141.337 73.5758 141.876 76.4095 142.231Z" fill="#C9C7C0"/>
<path d="M75.5844 83.7435C73.2847 83.4547 71.0861 82.8795 68.849 82.4438C68.8706 82.4438 69.7414 78.22 69.8112 77.9818C70.0205 77.2164 70.6122 76.5522 70.7397 75.7941C70.9321 74.6677 70.0806 73.486 69.9435 72.3838C69.7679 70.9879 70.451 69.6305 70.5425 68.2274C70.6483 66.6197 69.9772 65.0048 70.2634 63.4139C70.2926 63.1125 70.4302 62.832 70.6507 62.6245C71.3315 62.0854 72.539 62.9518 73.1404 62.3237C72.9913 61.361 72.8413 60.3927 72.6906 59.4188C72.5943 58.7978 72.527 58.0782 72.96 57.6258C73.1976 57.4028 73.5019 57.2642 73.826 57.2311C74.3208 57.1646 74.8244 57.238 75.2797 57.443C75.735 57.6481 76.1238 57.9765 76.4023 58.3911C76.6861 58.8267 76.8978 59.3995 77.3981 59.5439C78.3603 59.8183 79.1758 58.2082 80.1092 58.5812C80.3497 59.4597 80.6456 60.3959 81.3624 60.9615C82.6758 61.9964 84.6411 61.2575 86.2336 61.7629C86.3959 61.7981 86.5412 61.8882 86.6449 62.018C86.8181 62.2756 86.6617 62.6197 86.5006 62.882C85.7236 64.1504 84.7325 65.1708 83.8233 66.3285C83.1978 67.1251 83.2171 67.8062 83.1184 68.8411C82.9019 71.0681 82.6871 73.2951 82.4738 75.5221C82.2108 78.2273 81.9494 80.9324 81.6896 83.6376C79.6497 83.8084 77.6219 84.0058 75.5844 83.7435Z" fill="#345C76"/>
<path d="M83.816 66.3284C83.1905 67.125 83.2098 67.8061 83.1112 68.841C82.9957 70.0171 82.8818 71.1956 82.7696 72.3765C80.6544 71.3039 78.4786 70.3557 76.2531 69.5365C72.3057 68.0925 74.3527 68.2417 76.3661 66.468C77.1335 65.7941 77.2538 64.4897 76.7318 63.6401C76.5273 63.308 75.9043 62.8964 75.2067 62.4993C76.0294 61.9746 76.4094 60.7881 76.1809 59.8904C75.8465 58.6317 74.7809 57.9145 73.7995 57.243H73.8187C74.3135 57.1766 74.8171 57.25 75.2724 57.455C75.7277 57.66 76.1166 57.9884 76.395 58.4031C76.6789 58.8387 76.8905 59.4115 77.3909 59.5559C78.3531 59.8303 79.1686 58.2202 80.1019 58.5932C80.3424 59.4717 80.6383 60.4079 81.3552 60.9734C82.6686 62.0083 84.6339 61.2695 86.2263 61.7749C86.3887 61.81 86.534 61.9001 86.6376 62.03C86.8108 62.2875 86.6545 62.6317 86.4933 62.894C85.7163 64.1503 84.7253 65.1708 83.816 66.3284Z" fill="#003240"/>
<path d="M69.8112 77.9889C70.0205 77.2235 70.6122 76.5593 70.7397 75.8012C70.9321 74.6748 70.0806 73.4931 69.9435 72.3909C69.7679 70.995 70.451 69.6376 70.5425 68.2345C70.6483 66.6268 69.9772 65.0119 70.2634 63.421C70.2926 63.1196 70.4302 62.8391 70.6507 62.6316C70.9947 62.3597 71.471 62.4439 71.9377 62.5161C72.1919 62.8397 72.4257 63.1789 72.6377 63.5317C73.0827 64.2923 73.3593 65.2453 74.2469 65.8614C75.7383 66.8939 77.6459 66.0082 78.3363 64.4776C79.1157 62.7496 79.361 60.6509 79.4043 58.6293C79.5123 58.5732 79.6306 58.5402 79.752 58.5324C79.8733 58.5245 79.9949 58.5419 80.1092 58.5835C80.3497 59.462 80.6456 60.3982 81.3624 60.9638C82.6758 61.9987 84.6411 61.2598 86.2336 61.7652C86.3959 61.8003 86.5412 61.8904 86.6449 62.0203C86.8181 62.2778 86.6617 62.622 86.5006 62.8843C85.7236 64.1527 84.7325 65.1731 83.8233 66.3307C83.1978 67.1274 83.2171 67.8085 83.1184 68.8434C82.9019 71.0704 82.6871 73.2974 82.4738 75.5244C82.2108 78.2296 81.9494 80.9347 81.6896 83.6399C79.6569 83.8107 77.6291 84.0033 75.5916 83.7458C73.292 83.4569 71.0933 82.8817 68.8562 82.4461C68.8682 82.4485 69.739 78.2296 69.8112 77.9889Z" fill="#003240"/>
<path d="M89.1875 79.0214L95.4058 61.4836L80.7346 56.6221L76.8473 77.2308L89.1875 79.0214Z" fill="#F3A92C"/>
<g style="mix-blend-mode:multiply" opacity="0.55">
<path d="M82.6493 62.1911C82.5488 60.4065 82.2255 58.6416 81.6871 56.9373L89.0287 59.368C88.6102 59.5558 88.1868 59.729 87.7562 59.8831C86.3225 60.3885 84.4246 61.4667 82.6493 62.1911Z" fill="#C47E2C"/>
</g>
<g style="mix-blend-mode:multiply" opacity="0.55">
<path d="M80.1982 67.5581C83.2555 67.2717 86.1205 65.4209 88.9903 64.3812C91.0494 63.6376 93.0796 62.3885 95.1267 61.3921L95.4058 61.4835L89.1875 79.0213L76.8473 77.2307L78.7717 67.0575C79.168 67.3968 79.6769 67.5753 80.1982 67.5581Z" fill="#C47E2C"/>
</g>
<g style="mix-blend-mode:multiply" opacity="0.55">
<path d="M82.7263 68.4919C84.5112 69.8661 85.4181 71.7073 87.6143 72.617C88.7252 73.0953 89.8692 73.4926 91.0374 73.8059L89.1875 79.0213L76.8473 77.2307L78.8414 66.6604C80.2414 67.1754 81.6679 67.6784 82.7263 68.4919Z" fill="#C47E2C"/>
</g>
<g style="mix-blend-mode:multiply" opacity="0.55">
<path d="M80.8259 77.2669C80.9005 77.2043 81.2686 76.9131 81.4201 76.7856C83.3445 77.6303 85.6249 77.9745 86.9528 75.8782C87.6552 74.7784 87.6167 73.847 87.4555 72.6484H87.4748L88.0232 72.3813C88.3799 72.15 88.7236 71.8994 89.0528 71.6304C91.2634 69.4066 90.881 66.9662 90.828 64.0757C90.7944 62.2177 93.0964 62.3332 95.1002 62.3356L89.1779 79.0383L80.2462 77.7434C80.4435 77.5702 80.6359 77.4185 80.8259 77.2669Z" fill="#C47E2C"/>
</g>
<path d="M86.7147 79.0215C87.1068 77.5293 89.9717 76.0348 90.3638 74.5426C90.97 72.2322 92.2642 70.3718 92.0765 67.8977C91.9538 66.2804 91.6507 64.574 92.3171 63.0987C93.7546 63.3803 95.2187 63.5029 96.6831 63.4645C96.8297 63.4697 96.9757 63.4434 97.1112 63.3875C97.266 63.2842 97.3932 63.1445 97.4817 62.9807C97.9269 62.3263 98.5095 61.7768 99.1888 61.3707C99.868 60.9646 100.628 60.7116 101.415 60.6294C101.67 60.5855 101.932 60.619 102.168 60.7256C102.352 60.8417 102.504 61.0033 102.608 61.195C103.315 62.3261 103.616 63.8423 104.797 64.4585C105.533 64.8435 106.413 64.7545 107.243 64.728C108.829 64.6805 110.411 64.9035 111.922 65.3875C111.026 65.9993 110.198 66.7035 109.449 67.4885C109.244 67.6614 109.111 67.9056 109.079 68.172C109.079 68.5282 109.411 68.7809 109.694 68.9975C110.758 69.8051 111.596 70.8725 112.129 72.0974C112.254 72.3862 112.369 72.7255 112.223 73.0071C112.127 73.1644 111.997 73.2978 111.843 73.397L109.639 75.0504C108.073 76.2225 109.261 77.0287 109.437 78.5305C109.476 78.9524 109.445 79.3779 109.343 79.7893C109.157 79.8627 108.982 79.9615 108.824 80.0829L108.027 80.1912C107.441 80.3232 106.875 80.5319 106.344 80.8121C105.786 81.0385 105.245 81.3031 104.725 81.6039C104.52 81.7387 103.522 82.1526 104.097 82.0853C103.562 82.1351 103.051 82.3335 102.622 82.6581C98.2635 83.2838 93.6377 84.0491 89.9789 82.8795C89.3511 82.6869 86.4645 79.9746 86.7147 79.0215Z" fill="#A290A6"/>
<g style="mix-blend-mode:multiply">
<path d="M98.5906 70.8676C97.8497 71.6425 97.2965 72.3718 97.3133 73.4981C97.3374 75.0167 95.8051 74.5691 94.7442 74.4824C93.782 74.403 92.5937 74.9493 92.0982 75.7869C91.7398 76.4006 91.8119 77.9529 91.0686 77.6665C90.2286 77.3048 89.3531 77.0321 88.4562 76.8531C89.2958 76.0829 90.1569 75.3128 90.359 74.5426C90.9652 72.2322 92.2593 70.3718 92.0717 67.8977C91.9947 66.8796 91.8456 65.8231 91.9154 64.8123C92.4183 64.9871 92.9372 65.112 93.4645 65.1853C93.2319 65.6057 93.1169 66.0812 93.1318 66.5615C93.1466 67.0418 93.2906 67.5092 93.5487 67.9145C94.4147 69.397 96.481 69.539 97.97 69.9169C98.4391 70.0348 98.9106 70.1576 99.3796 70.2899C99.0877 70.4395 98.8214 70.6345 98.5906 70.8676Z" fill="#A290A6"/>
</g>
<g style="mix-blend-mode:multiply">
<path d="M92.6827 78.5859C94.2992 79.5702 95.4611 79.9481 97.1377 78.9132C98.8624 77.8518 97.3614 76.8699 99.1631 77.397C99.5605 77.5081 99.9804 77.511 100.379 77.4052C100.778 77.2994 101.141 77.0888 101.432 76.7953C103.115 74.959 102.574 72.4295 104.992 74.0661C105.531 74.4319 106.267 74.4584 107.089 74.3068C106.031 73.8254 105.203 73.2815 104.84 72.5908C105.059 72.3638 105.251 72.1127 105.413 71.8423C107.659 68.006 103.084 66.6799 99.6394 65.6907C99.8082 65.4345 99.944 65.1579 100.044 64.8676C100.169 64.3453 100.16 63.7996 100.017 63.2818C99.8735 62.7641 99.6014 62.2911 99.2257 61.9074C99.0923 61.7948 98.9411 61.7053 98.7782 61.6426C99.5591 61.0609 100.482 60.7009 101.451 60.6005C101.685 60.5382 101.935 60.5605 102.154 60.6635C102.374 60.7664 102.551 60.9435 102.654 61.1637C103.358 62.2948 103.659 63.8111 104.843 64.4296C105.579 64.8123 106.457 64.7232 107.287 64.6991C108.872 64.6512 110.454 64.8742 111.965 65.3586C111.069 65.9691 110.241 66.6735 109.495 67.4596C109.289 67.6317 109.156 67.8749 109.122 68.1408C109.122 68.4969 109.454 68.7521 109.738 68.9663C110.793 69.7786 111.622 70.8473 112.148 72.0709C112.224 72.237 112.274 72.4141 112.295 72.5956C112.304 72.7264 112.285 72.8578 112.239 72.9807C112.146 73.1385 112.017 73.272 111.862 73.3705L109.656 75.0216C109.579 75.0793 109.538 75.1323 109.476 75.1876C108.234 76.273 109.288 77.0745 109.454 78.5017C109.493 78.9242 109.462 79.3503 109.362 79.7628C109.176 79.8367 109 79.9354 108.84 80.0564L108.059 80.1551C107.473 80.2891 106.907 80.4978 106.375 80.776C105.818 81.0029 105.277 81.2675 104.756 81.5678C104.551 81.7026 103.553 82.119 104.126 82.0492C103.591 82.1012 103.08 82.3003 102.651 82.6244C98.2947 83.2501 93.6666 84.013 90.0078 82.8458C89.3848 82.646 86.5607 79.9986 86.7363 79.0167C88.6847 78.7327 90.4985 77.267 92.6827 78.5859Z" fill="#A290A6"/>
</g>
<path d="M62.8063 80.9779C62.0173 80.7902 60.9853 80.6506 60.4513 80.0153C59.7994 79.2451 59.7176 77.7722 59.8788 76.8336C59.9967 76.1356 60.2733 75.4184 60.0712 74.7397C59.8836 74.1044 59.3255 73.6639 58.907 73.1537C58.2306 72.321 57.8976 71.2612 57.976 70.191C57.9709 70.1014 57.9857 70.0117 58.0194 69.9284C58.0531 69.8452 58.1048 69.7705 58.1709 69.7097C58.2504 69.6703 58.3373 69.648 58.426 69.6443C58.5147 69.6406 58.6031 69.6555 58.6857 69.688C59.8337 69.9764 60.9463 70.3913 62.0029 70.9251L62.5008 67.7218C62.5585 67.3343 62.6548 66.8962 62.9819 66.7037C63.2778 66.5352 63.6434 66.6195 63.9706 66.7037C65.4475 67.1008 67.6871 68.1959 69.2073 68.0515C70.2321 67.9528 70.5352 66.954 71.4974 67.6159C71.8462 67.8565 72.1517 68.4654 72.4091 68.7976L75.8297 73.2404L81.2806 80.3161L73.1909 82.949L68.5025 82.6554C66.7417 81.6735 64.9424 81.4882 62.8063 80.9779Z" fill="#CA90A6"/>
<g style="mix-blend-mode:multiply">
<path d="M60.0568 75.9697C60.4075 76.1432 60.7691 76.2935 61.1393 76.4198C61.654 76.5989 62.2031 76.6566 62.7438 76.5883C62.8183 76.6196 62.9121 76.6557 63.042 76.699C63.3764 76.8506 63.7132 76.9854 64.0596 77.1033C65.4307 77.3897 67.0761 77.2549 67.8579 75.8807C68.5049 74.7399 68.6012 73.0817 67.4658 72.1479C67.0349 71.7755 66.5637 71.4526 66.0609 71.1852C66.4314 70.2995 66.5132 69.2983 65.9551 68.4536C65.5215 67.839 64.9958 67.2951 64.3963 66.8411C65.8565 67.3032 67.8338 68.196 69.2073 68.0637C70.2321 67.965 70.5352 66.9662 71.4974 67.6281C71.8462 67.8687 72.1517 68.4776 72.4091 68.8098L75.8297 73.2526L81.2806 80.3283L73.1909 82.9613L68.5025 82.6676C66.7297 81.6688 64.9304 81.4835 62.7943 80.9829C62.0053 80.7952 60.9733 80.6556 60.4393 80.0202C59.7874 79.2501 59.7056 77.7772 59.8668 76.8386C59.9269 76.5449 59.9991 76.2585 60.0568 75.9697Z" fill="#CA90A6"/>
</g>
<path d="M65.1926 64.326L67.4153 62.0637C67.4153 62.0637 72.2263 67.7123 73.0129 67.6136C73.7995 67.5149 76.27 66.2731 80.3449 70.3284C81.3985 71.3777 90.6886 81.4787 92.1006 83.0286C91.7019 82.8725 91.2779 82.7909 90.8497 82.788C90.2219 82.7759 89.5027 83.0286 88.8628 83.0888C88.3178 83.1497 87.7771 83.2445 87.2439 83.3728C87.0715 83.4109 86.9055 83.4733 86.7507 83.5581C85.8872 83.6351 85.0116 83.7988 84.1312 83.6664C83.561 83.5818 82.9827 83.5665 82.4088 83.6207C81.5308 83.4642 80.6191 83.5028 79.7844 83.1658C78.9318 82.8579 78.05 82.6377 77.1528 82.5088C76.3524 82.3386 75.5333 82.2731 74.716 82.3138C72.4741 79.9191 70.4029 77.6256 70.0806 77.1033C68.0696 73.8446 69.2603 71.7844 69.2098 71.0023C69.1425 69.9553 65.1926 64.326 65.1926 64.326Z" fill="#417A16"/>
<g style="mix-blend-mode:multiply" opacity="0.55">
<path d="M65.1926 64.3259L65.8998 63.4089C67.3575 65.6905 68.5844 67.2428 70.6411 69.9071C70.6411 69.9071 76.3253 77.0911 82.428 83.6254C81.55 83.4689 80.6383 83.505 79.806 83.1681C78.9534 82.8602 78.0717 82.64 77.1744 82.511C76.3663 82.338 75.5388 82.2733 74.7136 82.3185C72.7339 80.2343 70.961 78.3282 70.6747 77.9431C67.8844 74.2007 69.2868 71.8517 69.2314 71.0045C69.1424 69.9552 65.1926 64.3259 65.1926 64.3259Z" fill="#417A16"/>
</g>
<path d="M69.1256 64.0035C68.1634 62.9446 67.4153 62.0637 67.4153 62.0637L65.1926 64.326C65.1926 64.326 65.7771 65.1588 66.4988 66.2514C66.5589 66.3405 67.5379 65.9746 68.2259 65.3681C68.8345 64.8266 69.1665 64.0493 69.1256 64.0035Z" fill="#184001"/>
<path d="M62.0317 63.4498L64.228 65.9889C64.228 65.9889 66.785 65.5196 69.3685 61.8036L67.2325 59.1562L62.0317 63.4498Z" fill="#417A16"/>
<path d="M66.0201 60.155L64.6418 61.2934C65.641 62.1448 66.5148 63.1333 67.2373 64.2296C67.6842 63.8298 68.1023 63.3987 68.4882 62.9396C67.7934 61.9054 66.9633 60.9688 66.0201 60.155V60.155Z" fill="#8CCF58"/>
<path d="M67.2325 59.1541C67.2325 59.1541 65.9287 59.2527 64.0235 60.574C62.1184 61.8953 61.8586 62.8411 62.0318 63.4621C62.0318 63.4621 63.2826 63.5656 65.1902 62.1143C67.0978 60.6631 67.2325 59.1541 67.2325 59.1541Z" fill="#62913E"/>
<path d="M79.7844 83.1634C78.9318 82.8554 78.05 82.6353 77.1528 82.5063C76.9539 82.4678 76.7543 82.4341 76.5538 82.4052C74.2517 79.8878 72.0291 77.4594 71.9184 77.2837C69.7679 73.8373 70.7686 71.6304 70.7686 71.6304C72.3682 74.1045 77.4871 79.6736 81.0545 83.4546C80.6201 83.4143 80.193 83.3163 79.7844 83.1634Z" fill="#184001"/>
<path d="M78.329 71.2236C79.4235 72.1092 86.7074 79.7241 89.9837 82.8865C89.6036 82.9611 89.2212 83.0526 88.8627 83.0863C88.3177 83.1471 87.777 83.242 87.2438 83.3703C87.0762 83.4088 86.9144 83.4695 86.7627 83.5508H86.7459C84.6868 81.2138 75.8297 71.2573 73.5806 69.2404C75.3318 69.2019 76.9675 70.1189 78.329 71.2236Z" fill="#8CCF58"/>
<g style="mix-blend-mode:multiply" opacity="0.55">
<path d="M81.3744 80.6869C84.2466 80.7639 87.0562 81.0118 89.7721 80.4967L92.1006 83.0286C91.7019 82.8725 91.2779 82.7909 90.8497 82.7879C90.5574 82.7916 90.2663 82.8262 89.9813 82.8914L89.3776 83.0118C89.2074 83.0461 89.0356 83.0718 88.8628 83.0888C88.3178 83.1496 87.7771 83.2445 87.2439 83.3728C87.0715 83.4108 86.9055 83.4732 86.7507 83.5581C85.8872 83.6351 85.0116 83.7988 84.1312 83.6664C83.561 83.5818 82.9827 83.5665 82.4088 83.6207C81.5308 83.4642 80.6191 83.5003 79.7868 83.1634C78.9342 82.8555 78.0524 82.6353 77.1552 82.5063C76.9483 82.4678 76.7414 82.4317 76.537 82.4029H76.4889C76.2964 82.3764 76.1064 82.3523 75.9164 82.3355C75.7143 82.3162 75.5122 82.3066 75.3126 82.3018H75.2789C75.0865 82.3018 74.894 82.3018 74.704 82.3186C73.6287 81.1875 72.6232 80.1165 71.8751 79.3054C74.984 80.1 78.1681 80.5631 81.3744 80.6869Z" fill="#637C58"/>
</g>
<path d="M59.2269 78.4487C59.3207 78.4848 59.4122 78.5233 59.5156 78.5546C59.7561 78.6316 60.028 78.6797 60.283 78.7447L60.4321 78.8554C60.6871 79.0165 60.962 79.1435 61.25 79.2333C61.405 79.2853 61.5675 79.3121 61.7311 79.3127C64.8342 80.6436 69.063 81.5245 73.1019 82.0973C81.3032 83.2573 89.6268 83.2573 97.8281 82.0973C102.119 81.4884 106.637 80.5401 109.779 79.0648L109.524 79.0143C109.97 78.8851 110.366 78.6212 110.657 78.2585C113.17 78.6918 114.534 79.0215 114.534 79.0215C110.777 81.0576 105.374 82.3668 100.246 83.2068C90.4566 84.8048 80.4734 84.8048 70.6844 83.2068C65.5534 82.3668 60.153 81.0576 56.3956 79.0215C56.4053 79.0215 57.3987 78.7832 59.2269 78.4487Z" fill="#C8C4C2"/>
<defs>
<filter id="filter0_d_0_1" x="0" y="0" width="264" height="188" filterUnits="userSpaceOnUse" color-interpolation-filters="sRGB">
<feFlood flood-opacity="0" result="BackgroundImageFix"/>
<feColorMatrix in="SourceAlpha" type="matrix" values="0 0 0 0 0 0 0 0 0 0 0 0 0 0 0 0 0 0 127 0" result="hardAlpha"/>
<feOffset dy="4"/>
<feGaussianBlur stdDeviation="2"/>
<feComposite in2="hardAlpha" operator="out"/>
<feColorMatrix type="matrix" values="0 0 0 0 0 0 0 0 0 0 0 0 0 0 0 0 0 0 0.25 0"/>
<feBlend mode="normal" in2="BackgroundImageFix" result="effect1_dropShadow_0_1"/>
<feBlend mode="normal" in="SourceGraphic" in2="effect1_dropShadow_0_1" result="shape"/>
</filter>
<linearGradient id="paint0_linear_0_1" x1="82.1225" y1="133.955" x2="73.9143" y2="168.355" gradientUnits="userSpaceOnUse">
<stop stop-color="#646B52"/>
<stop offset="0.4" stop-color="#77796D"/>
<stop offset="1" stop-color="#D5AB57"/>
</linearGradient>
<linearGradient id="paint1_linear_0_1" x1="46.834" y1="104.6" x2="41.3049" y2="105.561" gradientUnits="userSpaceOnUse">
<stop stop-color="#A3A29F"/>
<stop offset="0.06" stop-color="#969491"/>
<stop offset="0.17" stop-color="#817F7B"/>
<stop offset="0.28" stop-color="#74726E"/>
<stop offset="0.38" stop-color="#706E69"/>
<stop offset="0.51" stop-color="#76746F"/>
<stop offset="0.69" stop-color="#878581"/>
<stop offset="0.8" stop-color="#959490"/>
<stop offset="1" stop-color="#D9D8D7"/>
</linearGradient>
</defs>
</svg>
