<svg width="350" height="218" viewBox="0 10 356 80" fill="none" xmlns="http://www.w3.org/2000/svg">
<g filter="url(#filter0_d_0_1)">
</g>
<path d="M159.813 108.621L111.351 108.886C103.053 108.933 94.7562 108.977 86.4619 109.198C77.3913 109.426 68.1118 109.894 59.7178 113.336C56.0353 114.845 52.1875 117.493 51.7915 121.443C51.3487 125.858 55.5676 129.488 59.8581 130.614C64.1486 131.739 68.7042 131.222 73.079 131.958C76.1815 132.478 86.0784 136.513 80.5188 140.464C79.5116 141.181 78.3081 141.767 77.7593 142.874C77.0733 144.259 77.7187 146.008 78.8693 147.04C82.2993 150.111 88.5854 150.751 92.9321 150.95C98.5384 151.213 104.146 150.453 109.48 148.708C113.583 147.355 117.518 145.422 121.762 144.617C129.558 143.139 135.968 146.214 143.433 147.464C149.713 148.515 156.348 149.21 162.738 148.668C165.959 148.393 169.345 147.751 171.74 145.581C174.134 143.41 175.088 140.18 177.009 137.636C179.014 134.985 182.747 132.079 186.008 131.253C189.79 130.289 193.638 129.862 197.399 128.574C201.399 127.209 205.889 124.599 206.005 120.371C206.073 117.898 204.486 115.612 202.45 114.212C200.414 112.812 197.969 112.151 195.562 111.587C182.748 108.582 169.538 107.635 156.426 108.78L159.813 108.621Z" fill="url(#paint0_linear_0_1)"/>
<path opacity="0.75" d="M121.435 135.497C119.142 135.759 116.877 136.217 114.662 136.866C114.79 136.582 116.037 136.317 115.043 136.014C111.875 134.48 108.238 134.224 104.887 135.3C104.351 135.478 103.789 135.69 103.231 135.59C102.673 135.49 102.159 134.92 102.349 134.387C102.58 133.744 103.665 133.401 103.406 132.771C103.351 132.67 103.277 132.581 103.187 132.509C103.097 132.437 102.993 132.384 102.882 132.354C100.565 131.418 97.6311 132.394 95.6292 130.901C95.4561 130.789 95.3246 130.624 95.2551 130.43C95.1116 129.856 95.8943 129.538 96.4836 129.494C97.7558 129.394 99.0374 129.376 100.306 129.229C103.066 128.917 105.816 128.001 108.566 128.397C108.802 128.058 108.919 127.652 108.9 127.24C108.81 126.666 108.198 126.304 107.622 126.261C107.04 126.269 106.463 126.364 105.91 126.544C102.957 127.227 99.7514 126.173 96.8671 127.137C96.2092 127.355 95.5856 127.679 94.909 127.839C93.9112 128.072 92.8603 127.938 91.8563 128.15C90.634 128.4 89.3618 129.429 89.9605 130.819C90.2381 131.384 90.7211 131.822 91.3106 132.042C92.3772 132.488 93.5052 132.771 94.6564 132.881C95.3891 132.949 96.1468 132.949 96.8391 133.224C97.2475 133.386 98.5166 133.657 98.975 133.969C99.2868 134.178 98.6258 134.624 98.2765 134.761C97.5375 135.057 96.758 135.971 97.0293 136.557C97.3692 137.315 98.2266 137.682 99.028 137.891C99.9777 138.151 100.968 138.23 101.947 138.125C102.85 137.963 103.74 137.734 104.609 137.439C106.417 136.921 108.292 136.675 110.172 136.71C110.518 136.686 110.862 136.764 111.164 136.934C111.31 137.024 111.415 137.169 111.455 137.336C111.495 137.503 111.468 137.679 111.379 137.826C111.282 137.826 110.088 138.344 109.994 138.359C109.112 138.531 110.259 139.295 111.139 139.472C111.854 139.584 112.584 139.568 113.293 139.426C117.568 138.758 121.956 137.346 126.125 138.509C127.203 138.821 128.235 139.276 129.339 139.444C130.443 139.613 131.684 139.444 132.457 138.658L131.659 137.555C133.705 136.161 136.62 137.168 138.856 136.105C139.511 135.793 140.147 135.045 139.791 134.405C139.436 133.766 138.232 133.747 138.039 133.005C137.908 132.538 138.291 132.07 138.722 131.845C139.152 131.621 139.657 131.534 140.044 131.237C140.252 131.069 140.419 130.856 140.533 130.615C140.647 130.373 140.706 130.109 140.704 129.841C140.701 129.574 140.639 129.311 140.521 129.071C140.403 128.831 140.232 128.621 140.022 128.456C139.641 128.228 139.216 128.084 138.775 128.032C136.078 127.551 133.314 127.593 130.633 128.157C130.577 128.468 131.014 128.618 131.338 128.64C132.768 128.735 134.178 129.035 135.523 129.532C135.903 129.672 136.361 130.037 136.146 130.389L132.386 131.203C132.423 132.12 133.437 132.619 134.282 132.971C135.127 133.323 136.099 133.997 135.925 134.895L132.881 134.951C132.54 134.927 132.197 134.991 131.887 135.135C131.62 135.338 131.375 135.569 131.157 135.824C130.069 136.794 128.398 136.108 126.998 135.715C125.22 135.207 123.299 135.285 121.435 135.497Z" fill="url(#paint1_linear_0_1)"/>
<path opacity="0.75" d="M167.954 135.758C168.188 135.213 169.014 134.892 168.89 134.315C168.799 133.931 168.338 133.797 167.954 133.729L160.196 132.353C159.619 132.251 158.871 132.235 158.637 132.765C158.403 133.295 158.899 133.853 159.407 134.121C160.405 134.645 161.568 134.723 162.66 135.01C163.751 135.297 164.886 135.908 165.22 136.987C165.088 136.931 164.946 136.904 164.803 136.907C164.66 136.91 164.519 136.943 164.39 137.004C164.26 137.065 164.145 137.152 164.052 137.261C163.958 137.369 163.889 137.496 163.848 137.632C163.825 137.859 163.787 138.084 163.735 138.306C163.604 138.633 163.261 138.811 162.993 139.036C162.211 139.697 161.992 140.878 161.16 141.471C160.121 142.207 158.709 141.705 157.459 141.471C155.213 141.041 152.897 141.571 150.614 141.455C150.398 141.469 150.185 141.4 150.019 141.262C149.895 141.077 149.826 140.861 149.822 140.638C149.588 139.354 148.054 138.792 146.754 138.711C145.454 138.63 144.013 138.739 142.99 137.929L145.451 136.94C145.594 136.903 145.719 136.812 145.8 136.688C146.009 136.251 145.095 135.917 145.229 135.44C146.555 135.015 147.928 134.752 149.317 134.655C150.277 134.589 151.3 134.589 152.123 134.075C152.947 133.56 153.371 132.285 152.654 131.624C151.609 132.597 150.072 132.809 148.644 132.821C147.215 132.834 145.747 132.693 144.39 133.149C143.793 133.32 143.267 133.68 142.891 134.174C142.708 134.424 142.604 134.722 142.591 135.03C142.579 135.339 142.658 135.645 142.819 135.908C141.671 136.338 140.362 137.258 140.636 138.456C140.845 139.407 141.952 139.856 142.922 139.937C143.892 140.018 144.927 139.906 145.781 140.373C146.636 140.841 147.066 141.692 147.795 142.26C149.249 143.379 151.291 143.042 153.121 143.089C155.033 143.139 156.907 143.663 158.815 143.756C160.511 143.838 162.448 143.445 163.324 141.982C163.548 141.611 163.689 141.19 163.947 140.838C164.658 139.853 166.008 139.653 167.193 139.379C168.378 139.104 169.716 138.443 169.85 137.243C169.374 137.303 168.891 137.21 168.472 136.978C168.259 136.865 168.091 136.682 167.997 136.46C167.902 136.238 167.887 135.99 167.954 135.758Z" fill="url(#paint2_linear_0_1)"/>
<path opacity="0.75" d="M198.113 118.621C198.086 118.524 198.04 118.434 197.976 118.356C197.913 118.278 197.834 118.215 197.745 118.169C195.677 116.794 193.099 116.501 190.629 116.242L185.232 115.678L189.51 117.446C190.324 117.782 191.159 118.122 192.039 118.135C192.485 118.096 192.935 118.108 193.379 118.172C193.813 118.281 194.227 118.668 194.165 119.108C194.103 119.547 193.657 119.778 193.286 119.999C192.915 120.221 192.522 120.608 192.662 121.019C191.59 120.869 190.417 120.735 189.482 121.287C189.014 121.562 188.646 121.989 188.178 122.263C187.436 122.697 186.535 122.706 185.684 122.706H179.89C179.346 122.722 178.802 122.69 178.263 122.612C177.639 122.503 177.015 122.269 176.392 122.129C175.45 121.92 174.474 121.927 173.536 122.148C172.912 122.294 172.067 122.422 171.833 121.836C171.771 121.674 171.777 121.487 171.705 121.328C171.528 120.941 171.004 120.898 170.576 120.916C168.905 120.997 167.239 121.172 165.587 121.44C165.232 121.526 164.862 121.535 164.502 121.465C164.324 121.426 164.164 121.329 164.045 121.19C163.927 121.051 163.858 120.877 163.848 120.695C163.866 120.249 164.365 119.834 164.159 119.432C164.061 119.279 163.914 119.163 163.742 119.105C163.03 118.786 162.272 118.584 161.497 118.506C161.24 118.503 160.987 118.445 160.754 118.338C160.64 118.279 160.551 118.181 160.502 118.062C160.454 117.943 160.449 117.811 160.489 117.689C160.548 117.589 160.631 117.504 160.729 117.443C161.705 116.757 162.943 116.591 164.131 116.448L166.504 116.161C163.763 115.98 160.892 115.824 158.397 117.028C158.122 117.133 157.89 117.326 157.736 117.577C157.661 117.787 157.66 118.016 157.731 118.227C157.803 118.438 157.945 118.619 158.132 118.74C158.51 118.971 158.937 119.111 159.379 119.148L161.21 119.441C161.771 119.532 162.479 119.784 162.457 120.352C162.407 120.603 162.329 120.848 162.223 121.081C162.092 121.615 162.494 122.16 162.993 122.388C163.511 122.573 164.065 122.638 164.612 122.578L168.771 122.425C169.195 122.41 169.669 122.41 169.987 122.69C170.146 122.834 170.246 123.03 170.396 123.183C170.698 123.437 171.067 123.599 171.459 123.651C172.426 123.915 173.422 124.059 174.424 124.081C175.569 124.059 176.707 123.719 177.854 123.829C179.217 123.96 180.495 124.73 181.864 124.652C182.74 124.602 183.56 124.206 184.43 124.081C185.721 123.897 187.09 124.315 188.309 123.853C188.852 123.645 189.316 123.28 189.84 123.024C191.109 122.4 192.6 122.488 194.006 122.647C194.382 122.72 194.769 122.699 195.135 122.588C195.315 122.525 195.465 122.398 195.556 122.231C195.648 122.064 195.673 121.868 195.628 121.683C195.521 121.4 195.185 121.212 195.179 120.907C195.172 120.601 195.456 120.427 195.705 120.283L197.576 119.257C197.857 119.117 198.147 118.896 198.113 118.621Z" fill="url(#paint3_linear_0_1)"/>
<path opacity="0.75" d="M185.871 116.856L189.301 117C190.202 117.037 191.15 117.09 191.911 117.574C192.394 117.885 192.793 118.478 192.581 119.014C192.322 119.678 191.421 119.719 190.71 119.725C189.673 119.714 188.646 119.927 187.698 120.349C187.294 120.567 186.877 120.763 186.451 120.935C185.537 121.247 184.543 121.1 183.588 120.972C180.972 120.617 178.341 120.408 175.709 120.24C173.642 120.109 171.571 120 169.498 120.003C168.571 120.04 167.642 119.988 166.726 119.847C166.454 119.794 166.102 119.575 166.236 119.329C165.611 119.343 164.992 119.215 164.423 118.956C163.855 118.697 163.352 118.313 162.953 117.832C164.851 117.255 166.849 117.081 168.818 117.321L167.343 118.057C167.23 118.098 167.136 118.179 167.078 118.285C166.963 118.575 167.39 118.755 167.702 118.762L182.606 119.158C183.415 119.205 184.227 119.173 185.029 119.061C186.234 118.853 187.35 118.296 188.241 117.458C188.155 117.264 188.001 117.108 187.808 117.019C187.615 116.93 187.397 116.914 187.193 116.975L185.871 116.856Z" fill="url(#paint4_linear_0_1)"/>
<path d="M188.546 118.3C188.546 118.3 186.382 113.015 184.125 111.474C181.867 109.934 175.082 108.063 174.459 107.39C174.459 107.39 170.374 111.284 169.507 112.245C168.64 113.205 166.286 116.906 165.616 118.3C165.616 118.3 167.393 119.744 172.345 119.214C177.296 118.684 177.873 120.224 183.351 119.837C188.83 119.451 188.546 118.3 188.546 118.3Z" fill="#5D4D4E"/>
<g style="mix-blend-mode:multiply" opacity="0.32">
<path d="M188.546 118.3C188.546 118.3 186.382 113.015 184.125 111.474C181.867 109.934 175.082 108.063 174.459 107.39C174.459 107.39 170.969 110.714 169.76 111.976C169.76 111.976 169.76 111.992 169.76 112.001C170.112 113.598 170.813 113.76 172.126 113.208C173.523 112.622 174.901 111.861 176.46 111.923C177.845 111.983 178.671 113.124 178.955 114.356C179.22 115.478 178.497 116.872 179.267 117.888C179.876 118.668 180.604 119.346 181.424 119.9C181.989 119.9 182.612 119.9 183.32 119.84C188.833 119.454 188.546 118.3 188.546 118.3Z" fill="#5D4D4E"/>
</g>
<g style="mix-blend-mode:multiply" opacity="0.32">
<path d="M176.95 117.315C176.872 115.921 177.215 113.367 175.014 114.196C174.222 114.493 173.455 114.867 172.675 115.169C170.14 116.136 169.014 115.275 168.388 113.757C167.379 115.218 166.454 116.736 165.619 118.303C165.619 118.303 167.396 119.747 172.348 119.217C174.212 118.999 176.1 119.105 177.929 119.529C177.376 118.913 177.033 118.138 176.95 117.315Z" fill="#5D4D4E"/>
</g>
<path d="M188.546 118.3C188.546 118.3 186.382 113.015 184.125 111.474C182.095 110.096 176.445 108.447 174.851 107.636C175.391 109.13 175.746 110.265 177.065 111.471C178.083 112.38 179.054 113.339 179.975 114.346C181.318 115.859 182.959 117.761 183.626 119.815C188.811 119.413 188.546 118.3 188.546 118.3Z" fill="#B09187"/>
<g style="mix-blend-mode:multiply" opacity="0.32">
<path d="M176.289 109.114C177.199 109.688 178.235 110.841 179.435 110.586C180.015 110.439 180.623 110.439 181.203 110.586C181.689 110.732 183.598 111.752 185.085 112.335C184.8 112.008 184.478 111.715 184.125 111.462C182.095 110.084 176.445 108.434 174.851 107.624C174.995 108.026 175.129 108.4 175.269 108.759C175.633 108.794 175.982 108.916 176.289 109.114Z" fill="#5D4D4E"/>
</g>
<g style="mix-blend-mode:multiply" opacity="0.32">
<path d="M187.065 115.254C185.993 116.563 184.592 117.243 183.012 115.656C182.718 115.313 182.46 114.941 182.241 114.546C181.949 114.355 181.621 114.225 181.277 114.162C180.934 114.099 180.581 114.104 180.24 114.178L179.759 114.112L179.978 114.346C181.322 115.858 182.962 117.761 183.629 119.815C188.814 119.413 188.549 118.3 188.549 118.3C188.109 117.259 187.613 116.242 187.065 115.254Z" fill="#5D4D4E"/>
</g>
<path opacity="0.75" d="M79.7829 120.252C79.9773 120.29 80.1493 120.402 80.2631 120.564C80.3155 120.681 80.3233 120.813 80.285 120.935C80.1415 121.506 79.468 121.768 78.8787 121.783C78.2894 121.799 77.6907 121.662 77.1201 121.814C76.8111 121.923 76.5082 122.048 76.2127 122.188C74.5788 122.837 72.764 122.008 71.0085 121.995C70.0357 121.995 68.988 122.223 68.1461 121.736C67.588 121.425 67.1514 120.801 66.506 120.782C66.3002 120.782 66.0975 120.841 65.8823 120.832C65.7789 120.838 65.6768 120.808 65.5924 120.748C65.508 120.688 65.4465 120.601 65.4177 120.502C65.9565 120.394 66.5106 120.388 67.0516 120.483C68.5671 120.634 70.0942 120.622 71.6072 120.449C71.785 120.427 72.0063 120.367 72.0375 120.19C72.0687 120.012 71.8037 119.85 71.5885 119.816C70.229 119.591 68.8352 119.75 67.457 119.669C65.8013 119.572 64.0551 119.139 62.5459 119.825C62.3965 119.876 62.2696 119.977 62.1874 120.112C62.0502 120.389 62.2871 120.704 62.521 120.91C63.0014 121.338 63.5374 121.699 64.1144 121.983C64.9406 122.357 65.7996 122.653 66.6806 122.868C69.8174 123.735 73.0946 124.611 76.2906 123.985C76.8363 123.879 77.3757 123.729 77.9308 123.673C79.0502 123.564 80.3286 123.801 81.1861 123.071C81.4012 122.887 81.5696 122.653 81.7785 122.447C82.4022 121.852 83.3594 121.602 83.7897 120.851C83.8641 120.741 83.9094 120.613 83.9214 120.481C83.9334 120.348 83.9117 120.215 83.8583 120.093C83.7683 119.978 83.6548 119.882 83.5252 119.814C83.3957 119.746 83.253 119.706 83.1069 119.697C81.4609 119.373 79.7935 119.17 78.1179 119.089C77.7238 119.029 77.3211 119.103 76.9735 119.298L79.7829 120.252Z" fill="url(#paint5_linear_0_1)"/>
<path opacity="0.75" d="M88.8161 120.096C88.5729 119.898 88.2722 119.783 87.9587 119.769C86.5193 119.616 85.0684 119.609 83.6276 119.747L81.473 119.881C81.376 120.359 81.1944 120.817 80.9366 121.231C81.8315 121.322 82.7452 121.328 83.6432 121.359C84.0142 121.359 84.4757 121.459 84.563 121.817C84.5892 121.974 84.5606 122.135 84.482 122.273C84.1701 122.896 83.5278 123.283 82.8761 123.52C80.5656 124.402 77.9339 124.034 75.6047 124.861C74.8625 125.123 74.1641 125.503 73.422 125.718C72.6799 125.933 71.813 125.974 71.1364 125.572C70.4597 125.169 70.123 124.483 69.5773 123.953C68.5795 122.962 67.0828 122.662 65.6703 122.656C64.2578 122.65 62.8484 122.881 61.4484 122.743C61.3935 122.741 61.3395 122.728 61.2893 122.706C61.1677 122.644 61.1366 122.494 61.0929 122.363C60.9912 122.087 60.7983 121.853 60.546 121.701C60.2938 121.549 59.9972 121.488 59.7053 121.527C59.6305 121.325 59.9236 121.194 60.1419 121.175L70.2477 120.274C70.1604 119.794 69.5461 119.65 69.0566 119.65C66.51 119.537 63.9585 119.642 61.4297 119.962L62.2497 119.828L59.0318 120.205C58.2429 120.299 57.2888 120.517 57.0705 121.29C56.8523 122.064 57.5164 122.728 58.1743 123.13C59.3541 123.853 60.7135 124.229 62.0969 124.215C63.1259 124.215 64.1455 123.978 65.1745 123.925C66.2035 123.872 67.3011 124.025 68.1056 124.67C68.496 125.036 68.8665 125.422 69.2156 125.827C69.7357 126.328 70.3709 126.693 71.0652 126.89C71.7596 127.088 72.4918 127.111 73.1975 126.959C73.9676 126.785 74.6786 126.401 75.4394 126.18C77.5566 125.556 79.8297 126.258 82.0249 126.033C82.4905 125.994 82.9472 125.883 83.3781 125.703C83.7985 125.492 84.193 125.234 84.5537 124.932L87.9836 122.276C88.352 122.032 88.6644 121.713 88.9003 121.34C89.0182 121.15 89.0734 120.928 89.0583 120.705C89.0432 120.481 88.9585 120.269 88.8161 120.096Z" fill="url(#paint6_linear_0_1)"/>
<path d="M72.2059 121.942C75.1962 122.519 76.6399 121.144 79.0096 120.29L71.7132 112.182L65.7483 117.549L69.3528 121.559C70.3102 121.634 71.2626 121.762 72.2059 121.942Z" fill="#5A718A"/>
<g style="mix-blend-mode:screen" opacity="0.32">
<path d="M75.7481 121.683C76.8145 121.306 77.7904 120.729 79.0096 120.29L71.7132 112.182L69.4869 114.34C71.5199 116.822 75.7481 121.683 75.7481 121.683Z" fill="#8899A8"/>
</g>
<g style="mix-blend-mode:screen" opacity="0.32">
<path d="M78.7446 120.389L79.0096 120.29L71.7132 112.182L71.4388 112.432C71.9409 112.993 78.7446 120.389 78.7446 120.389Z" fill="#8899A8"/>
</g>
<g style="mix-blend-mode:screen" opacity="0.32">
<path d="M70.8807 112.834L70.2321 113.514C72.393 116.158 76.9454 121.184 76.9454 121.184L77.9464 120.723C76.8363 119.881 72.2714 114.452 70.8807 112.834Z" fill="#AAB7C1"/>
</g>
<g style="mix-blend-mode:multiply" opacity="0.32">
<path d="M68.1617 115.375L66.665 116.722C67.3728 117.517 70.229 120.904 70.9867 121.742C71.3858 121.802 71.7881 121.861 72.2059 121.942C72.8726 122.077 73.5559 122.111 74.2327 122.042L68.1617 115.375Z" fill="#364F69"/>
</g>
<g style="mix-blend-mode:multiply" opacity="0.32">
<path d="M69.8081 121.602C70.5845 121.68 71.3671 121.783 72.2059 121.942C75.1962 122.519 76.6399 121.144 79.0096 120.29L78.4609 119.666C77.3066 119.991 76.1064 120.121 74.9093 120.053C74.6271 120.032 74.3468 119.992 74.0705 119.931C71.7351 119.619 69.674 117.892 67.9247 116.121L66.2472 117.63L69.8081 121.602Z" fill="#324B66"/>
</g>
<path d="M71.7132 112.179C72.1248 112.634 71.1208 114.206 69.4744 115.69C67.8281 117.174 66.1599 118.004 65.7483 117.545C65.3367 117.087 66.3407 115.519 67.9871 114.038C69.6334 112.556 71.3048 111.724 71.7132 112.179Z" fill="#232325"/>
<path d="M71.3547 112.503C71.6665 112.837 70.731 114.162 69.2749 115.466C67.8187 116.769 66.4093 117.555 66.11 117.221C65.8106 116.888 66.7336 115.562 68.1898 114.259C69.6459 112.956 71.0522 112.17 71.3547 112.503Z" fill="#324B66"/>
<g style="mix-blend-mode:screen" opacity="0.32">
<path d="M70.1604 113.47C70.3007 113.626 69.7488 114.349 68.9319 115.085C68.1149 115.821 67.3354 116.292 67.1951 116.136C67.0548 115.98 67.6067 115.257 68.4236 114.521C69.2406 113.785 70.0201 113.314 70.1604 113.47Z" fill="#8899A8"/>
</g>
<path d="M123.552 133.672C123.599 133.672 123.636 133.691 123.683 133.697C125.317 132.051 127.662 129.45 127.974 127.792L121.27 128.562L126.689 118.818C126.689 118.818 121.513 114.518 112.985 117.798C106.437 120.311 103.63 127.626 102.695 130.916C109.733 130.663 116.539 133.096 123.552 133.672Z" fill="#CEC9B0"/>
<path d="M114.921 128.961C118.039 128.998 121.107 127.402 121.837 127.548L124.665 122.466C120.518 119.84 115.551 120.336 113.917 120.907C111.329 121.802 109.159 123.613 110.861 126.519C111.94 128.347 112.713 128.933 114.921 128.961Z" fill="#C0BA9A"/>
<g style="mix-blend-mode:multiply" opacity="0.55">
<path d="M122.972 130.904C120.789 130.476 119.199 130.505 117.091 131.215C116.09 131.549 114.987 131.958 113.917 131.948C112.006 131.933 110.256 131.325 109.1 129.706C106.876 126.616 106.508 123.395 108.251 120.957C105.002 124.197 103.365 128.59 102.682 130.935C109.733 130.676 116.539 133.118 123.555 133.685C123.602 133.685 123.639 133.704 123.686 133.71C124.609 132.791 125.479 131.821 126.293 130.804C125.21 131.104 124.071 131.139 122.972 130.904Z" fill="#BDC3B6"/>
</g>
<g style="mix-blend-mode:multiply" opacity="0.55">
<path d="M119.283 133.124C120.699 133.358 122.124 133.554 123.555 133.672C123.602 133.672 123.639 133.691 123.686 133.697C124.778 132.618 125.79 131.46 126.714 130.233C124.406 131.639 121.815 132.796 119.283 133.124Z" fill="#BDC3B6"/>
</g>
<path d="M112.776 118.618C120.437 115.672 125.379 118.833 126.308 119.507L126.689 118.824C126.689 118.824 121.513 114.524 112.985 117.804C106.437 120.318 103.63 127.633 102.695 130.922H102.739C103.88 127.368 106.736 120.941 112.776 118.618Z" fill="#EFEDE6"/>
<path d="M115.121 127.199C116.35 127.199 117.347 126.203 117.347 124.973C117.347 123.743 116.35 122.747 115.121 122.747C113.891 122.747 112.894 123.743 112.894 124.973C112.894 126.203 113.891 127.199 115.121 127.199Z" fill="#DFA63B"/>
<path d="M116.642 124.973C116.643 125.274 116.554 125.569 116.387 125.819C116.22 126.07 115.983 126.266 115.704 126.381C115.426 126.497 115.12 126.527 114.825 126.469C114.529 126.41 114.258 126.265 114.045 126.052C113.832 125.839 113.687 125.568 113.628 125.272C113.569 124.977 113.6 124.67 113.715 124.392C113.831 124.114 114.027 123.876 114.277 123.709C114.528 123.543 114.823 123.454 115.124 123.454C115.526 123.454 115.913 123.614 116.198 123.899C116.482 124.184 116.642 124.57 116.642 124.973Z" fill="#232325"/>
<path d="M115.757 124.508C115.757 124.632 115.72 124.752 115.652 124.855C115.583 124.957 115.486 125.037 115.372 125.085C115.258 125.132 115.132 125.144 115.011 125.12C114.89 125.096 114.779 125.037 114.692 124.949C114.605 124.862 114.546 124.751 114.521 124.63C114.497 124.509 114.51 124.384 114.557 124.27C114.604 124.156 114.684 124.058 114.787 123.99C114.889 123.921 115.01 123.885 115.133 123.885C115.299 123.885 115.457 123.95 115.574 124.067C115.691 124.184 115.757 124.343 115.757 124.508Z" fill="#8F8E81"/>
<path d="M120.3 129.457C121.12 128.733 122.024 128.111 122.994 127.605C125.248 126.395 128.463 125.247 129.436 126.601C131.039 128.836 124.266 128.783 123.362 129.095C122.336 129.457 120.3 129.457 120.3 129.457Z" fill="url(#paint7_radial_0_1)"/>
<path d="M120.216 129.251C120.216 129.251 120.418 125.322 124.559 120.187C128.494 115.301 129.679 119.675 128.513 121.861C127.521 123.719 119.938 130.745 120.216 129.251Z" fill="url(#paint8_radial_0_1)"/>
<path opacity="0.75" d="M131.036 131.521C131.597 131.714 134.119 132.896 131.871 133.249C130.696 133.698 130.103 133.205 129.149 133.461C127.783 133.861 126.388 134.156 124.977 134.343C122.967 134.527 120.939 134.358 118.987 133.844C118.44 133.676 117.875 133.571 117.303 133.532C116.412 133.517 115.56 133.866 114.684 134.016C112.236 134.44 109.757 133.323 107.275 133.495C106.14 133.576 104.681 133.779 104.157 132.821C104.068 132.554 103.935 132.303 103.764 132.079C103.577 131.935 103.354 131.843 103.119 131.814L98.2017 130.745C97.9897 130.346 98.5572 129.993 99.0062 129.868L100.634 129.419C101.398 129.207 102.215 128.998 102.969 129.232C103.409 129.413 103.833 129.631 104.235 129.884C105.049 130.296 105.988 130.642 106.904 130.529C108.376 130.346 109.761 130.813 111.173 130.754C113.406 130.664 115.716 129.656 117.78 130.464C118.318 130.702 118.839 130.977 119.339 131.287C120.742 132.068 122.289 132.556 123.886 132.722C124.26 132.762 124.406 132.818 124.731 132.637C124.731 132.637 125.255 132.057 125.498 131.783C126.121 131.094 127.369 130.848 128.304 130.876C129.241 130.959 130.161 131.176 131.036 131.521Z" fill="url(#paint9_linear_0_1)"/>
<path d="M167.755 120.143L165.142 118.101C165.142 118.101 160.913 124.611 160.093 124.614C159.273 124.617 156.532 123.679 152.859 128.425C152.279 129.186 148.965 133.863 146.19 137.792C147.53 139.16 149.33 139.75 151.344 139.061C152.212 138.778 153.155 138.843 153.976 139.242C155.447 140.024 156.199 139.722 157.839 139.454C158.759 139.301 159.635 139.541 160.502 139.825C162.429 137.131 164.169 134.608 164.421 134.041C166.065 130.392 164.552 128.428 164.496 127.598C164.424 126.507 167.755 120.143 167.755 120.143Z" fill="#577927"/>
<g style="mix-blend-mode:multiply" opacity="0.55">
<path d="M167.755 120.143L166.894 119.282C165.693 121.845 164.63 123.623 162.859 126.657C162.859 126.657 159.117 132.893 154.584 139.516C155.684 139.927 156.454 139.681 157.836 139.453C158.771 139.301 159.644 139.544 160.521 139.834C162.217 137.498 163.704 135.412 163.95 134.988C166.333 130.726 164.574 128.484 164.502 127.598C164.424 126.507 167.755 120.143 167.755 120.143Z" fill="#577927"/>
</g>
<path d="M163.636 120.336C164.481 119.111 165.142 118.094 165.142 118.094L167.755 120.137C167.755 120.137 167.262 121.072 166.66 122.301C166.61 122.404 165.544 122.157 164.749 121.621C164.047 121.15 163.598 120.392 163.636 120.336Z" fill="#2C4210"/>
<path d="M170.913 118.799L168.98 121.727C168.98 121.727 166.267 121.59 163.084 118.091L164.936 115.054L170.913 118.799Z" fill="#577927"/>
<path d="M166.33 115.927L167.914 116.919C166.994 117.937 166.222 119.081 165.622 120.314C165.104 119.961 164.612 119.571 164.15 119.148C164.73 117.982 165.463 116.899 166.33 115.927Z" fill="#A0CD61"/>
<path d="M164.936 115.054C164.936 115.054 166.302 114.979 168.456 116.089C170.611 117.199 171.013 118.144 170.913 118.799C170.913 118.799 169.629 119.076 167.455 117.832C165.282 116.588 164.936 115.054 164.936 115.054Z" fill="#718F46"/>
<path d="M157.851 139.454C158.264 139.386 158.686 139.386 159.099 139.454C160.885 136.9 162.463 134.642 162.529 134.465C164.29 130.601 162.956 128.45 162.956 128.45C161.855 130.76 158.528 135.621 155.609 139.716C156.364 139.703 157.115 139.615 157.851 139.454Z" fill="#2C4210"/>
<path d="M150.558 139.257C153.629 134.761 158.222 128.125 159.729 126.37C157.904 126.569 156.333 127.742 155.07 129.073C154.331 129.85 150.67 134.776 147.587 138.833C148.501 139.305 149.548 139.455 150.558 139.257Z" fill="#A0CD61"/>
<g style="mix-blend-mode:multiply" opacity="0.55">
<path d="M153.976 139.241C155.447 140.024 156.199 139.722 157.839 139.453C158.774 139.301 159.647 139.544 160.524 139.834C161.419 138.602 162.251 137.445 162.875 136.563C159.942 137.726 156.902 138.597 153.798 139.164C153.86 139.201 153.926 139.213 153.976 139.241Z" fill="#6B7B5A"/>
</g>
<path d="M91.9966 144.973C91.0612 144.973 90.2349 144.486 89.3992 144.096C88.0324 143.46 86.5664 143.062 85.0651 142.921C84.9783 142.813 84.9352 142.676 84.9445 142.537C84.9537 142.398 85.0145 142.268 85.1149 142.173C85.2989 141.964 85.5608 141.836 85.7386 141.636C86.007 141.286 86.1964 140.882 86.2936 140.451C87.229 137.698 90.6184 136.061 93.3624 137.021C94.3165 137.361 95.2333 138.063 95.4297 139.058C95.4921 139.369 95.4921 139.762 95.7415 139.971C95.991 140.18 96.3651 140.105 96.6925 140.062C97.5244 139.97 98.3634 140.153 99.0813 140.584C99.7992 141.014 100.357 141.667 100.668 142.444C100.918 143.108 100.899 144.003 100.288 144.361C99.9981 144.505 99.6743 144.565 99.3523 144.536C97.6498 144.511 95.9224 144.028 94.2666 144.414C93.5276 144.605 92.7886 144.973 91.9966 144.973Z" fill="#B98EA3"/>
<g style="mix-blend-mode:multiply" opacity="0.32">
<path d="M93.1348 144.202C92.5303 143.334 91.9875 142.424 91.5102 141.48C91.1392 140.825 90.4844 140.105 90.3253 139.357C90.1788 138.674 90.1071 137.932 90.4781 137.296C90.5963 137.127 90.7277 136.967 90.871 136.819C88.8567 137.13 86.9765 138.506 86.3092 140.451C86.212 140.882 86.0226 141.286 85.7542 141.636C85.5608 141.836 85.2989 141.964 85.1305 142.172C85.0301 142.268 84.9693 142.398 84.9601 142.537C84.9508 142.675 84.9939 142.812 85.0806 142.921C86.582 143.062 88.0479 143.46 89.4148 144.096C90.2505 144.486 91.0893 144.976 92.0122 144.973C92.5337 144.949 93.0482 144.844 93.537 144.661C93.3945 144.516 93.2602 144.363 93.1348 144.202Z" fill="#B98EA3"/>
</g>
<g style="mix-blend-mode:multiply">
<path d="M92.7013 139.017C93.6711 140.317 95.1709 142.01 95.8662 140.956C96.0798 140.618 96.3523 140.32 96.6707 140.077C96.3589 140.121 96.0097 140.18 95.7664 139.98C95.5232 139.781 95.5076 139.391 95.4546 139.067C95.3667 138.642 95.1552 138.253 94.8466 137.947L94.7967 137.904C94.5535 137.67 93.6181 138.343 92.7013 139.017Z" fill="#B98EA3"/>
</g>
<g style="mix-blend-mode:multiply">
<path d="M99.1621 143.186C99.0046 143.163 98.852 143.114 98.7099 143.043C98.6786 143.126 98.6309 143.202 98.5696 143.267C97.7496 144.234 96.387 143.835 95.4796 143.351C95.2177 143.143 94.9589 142.935 94.7032 142.728C94.4525 142.905 94.1525 142.998 93.8457 142.996C92.6483 142.961 91.7254 142.447 91.2202 141.399L91.0518 141.437C90.7301 141.628 90.3656 141.735 89.9917 141.749C89.5117 141.759 89.0364 141.652 88.6072 141.437C87.6188 140.857 87.2789 139.532 87.5658 138.481C87.0033 139.031 86.5763 139.705 86.3185 140.448C86.2213 140.879 86.032 141.283 85.7635 141.633C85.5702 141.833 85.3083 141.961 85.1399 142.169C85.0395 142.265 84.9786 142.395 84.9694 142.534C84.9602 142.672 85.0032 142.809 85.09 142.918C86.5913 143.059 88.0573 143.457 89.4242 144.093C90.2598 144.483 91.0986 144.973 92.0216 144.97C92.8136 144.97 93.5526 144.602 94.3228 144.421C95.9816 144.034 97.7059 144.517 99.4084 144.542C99.7304 144.572 100.054 144.511 100.344 144.368C100.821 144.084 100.933 143.482 100.846 142.915C100.331 143.192 99.7379 143.288 99.1621 143.186Z" fill="#B98EA3"/>
</g>
<path opacity="0.75" d="M82.9852 142.004C82.9965 141.866 83.0535 141.735 83.1472 141.633C83.241 141.531 83.3661 141.463 83.5029 141.44C83.775 141.395 84.0519 141.388 84.326 141.418C84.9874 141.432 85.6364 141.238 86.1813 140.863C84.9303 140.935 83.6872 141.109 82.4645 141.384C81.9025 141.474 81.3689 141.693 80.9055 142.023C80.7722 142.121 80.6606 142.246 80.5774 142.389C80.4943 142.532 80.4414 142.691 80.4221 142.856C80.4284 143.08 80.4991 143.298 80.6257 143.483C80.7523 143.668 80.9295 143.813 81.1362 143.9C81.5518 144.069 81.997 144.154 82.4458 144.15L85.3675 144.321C85.6093 144.323 85.8492 144.363 86.0784 144.44C86.3503 144.569 86.5981 144.744 86.8112 144.957C87.9853 145.975 89.391 146.69 90.9053 147.04C91.6777 147.244 92.4851 147.278 93.2719 147.14C93.9031 146.974 94.5186 146.754 95.1116 146.482C96.7632 145.837 98.5325 145.549 100.303 145.637C101.641 145.706 102.969 145.989 104.307 145.974C105.373 145.974 106.633 145.596 106.942 144.577C107.148 143.906 108.226 143.791 107.762 143.264C107.525 142.993 104.547 142.762 104.217 142.609C102.748 141.929 102.364 142.497 100.759 142.297L102.667 143.317C102.801 143.371 102.916 143.463 102.997 143.582C103.194 143.938 102.72 144.321 102.315 144.321C101.909 144.321 101.498 144.14 101.108 144.252C100.966 144.304 100.828 144.366 100.696 144.44C99.3242 145.104 97.6654 144.277 96.1749 144.602C95.3985 144.773 94.725 145.244 93.9922 145.565C93.1501 145.931 92.2335 146.094 91.3169 146.039C90.9519 146.034 90.5935 145.941 90.2723 145.768C89.9053 145.495 89.5887 145.161 89.3369 144.779C88.9012 144.245 88.3603 143.806 87.7477 143.489C87.1351 143.173 86.464 142.986 85.776 142.94C84.9185 142.89 83.9675 143.033 83.2815 142.516C83.1976 142.457 83.1275 142.381 83.0763 142.293C83.0251 142.205 82.994 142.106 82.9852 142.004Z" fill="url(#paint10_linear_0_1)"/>
<path d="M145.379 114.811C146.486 115.026 147.696 115.307 148.363 116.217C149.105 117.23 148.896 118.665 149.426 119.803C149.763 120.529 150.384 121.091 150.78 121.789C151.176 122.488 151.278 123.482 150.667 124C150.056 124.518 149.192 124.281 148.447 124.072C144.986 123.095 141.357 122.862 137.799 123.389C137.401 123.493 136.98 123.471 136.595 123.326C136.372 123.187 136.175 123.009 136.015 122.799C135.264 121.961 134.316 121.293 133.67 120.37C133.025 119.447 132.751 118.107 133.452 117.224C133.963 116.582 134.84 116.357 135.657 116.304C136.474 116.251 137.315 116.323 138.107 116.108C139.105 115.83 139.928 115.119 140.914 114.761C142.311 114.24 143.885 114.53 145.379 114.811Z" fill="#9B8EA3"/>
<g style="mix-blend-mode:multiply" opacity="0.32">
<path d="M146.754 122.441C146.536 121.34 145.463 121.668 144.599 121.792C143.736 121.917 143.096 121.481 143.04 120.608C142.965 119.36 141.84 116.75 143.415 115.915C143.876 115.668 146.031 115.559 146.994 115.241C146.47 115.05 145.929 114.906 145.379 114.811C143.895 114.524 142.32 114.24 140.901 114.761C139.928 115.12 139.105 115.831 138.095 116.108C137.303 116.323 136.464 116.251 135.644 116.304C134.824 116.357 133.951 116.582 133.44 117.224C132.738 118.107 133.012 119.444 133.658 120.371C134.303 121.297 135.251 121.961 136.003 122.8C136.163 123.009 136.359 123.187 136.583 123.327C136.968 123.471 137.388 123.493 137.786 123.389C140.937 122.924 144.147 123.053 147.25 123.769C147.001 123.362 146.833 122.911 146.754 122.441Z" fill="#9B8EA3"/>
</g>
<g style="mix-blend-mode:multiply">
<path d="M145.426 119.207C146.47 119.098 147.608 119.139 148.232 119.893C148.326 120.003 148.397 120.109 148.472 120.205C148.375 119.314 148.304 118.412 148.26 117.511C148 117.619 147.731 117.702 147.456 117.761C146.673 117.923 145.875 117.857 145.086 117.929C145.267 117.92 145.379 118.546 145.426 119.207Z" fill="#9B8EA3"/>
</g>
<g style="mix-blend-mode:multiply">
<path d="M144.911 119.747C144.959 119.367 145.049 118.994 145.179 118.634C145.003 118.672 144.822 118.674 144.645 118.64C144.468 118.606 144.3 118.537 144.15 118.437C143.33 117.814 143.268 117.231 142.994 116.292C143.037 116.448 142.398 116.376 141.933 116.348C141.56 116.298 141.203 116.161 140.892 115.949C140.799 115.895 140.711 115.835 140.627 115.768L140.565 115.75C140.731 116.068 140.865 116.402 140.964 116.747C141.163 117.474 140.749 117.87 140.365 118.306C140.595 118.344 140.819 118.414 141.029 118.515C141.559 118.827 141.771 119.223 142.464 119.304C143.433 119.42 143.823 119.9 144.646 120.296C144.758 120.349 144.889 120.396 145.017 120.445C144.94 120.221 144.904 119.984 144.911 119.747Z" fill="#9B8EA3"/>
</g>
<g style="mix-blend-mode:multiply">
<path d="M150.68 122.538C150.541 122.77 150.33 122.951 150.079 123.052C149.828 123.154 149.551 123.172 149.289 123.102C148.238 122.909 147.543 121.964 146.517 122.722C146.261 122.892 145.965 122.995 145.657 123.019C145.35 123.044 145.042 122.99 144.762 122.862C144.196 122.497 143.795 121.927 143.642 121.272C143.315 120.077 142.261 120.601 141.385 120.944C140.449 121.312 139.071 121.318 138.734 120.099C138.46 119.104 139.005 119.828 137.858 119.628C137.609 119.609 137.366 119.537 137.147 119.418C136.927 119.299 136.735 119.135 136.583 118.936C136.429 118.782 136.32 118.59 136.265 118.38C136.21 118.169 136.212 117.948 136.271 117.739C136.536 117.115 136.76 116.616 137.337 116.233C136.776 116.286 136.209 116.267 135.644 116.304C134.827 116.357 133.951 116.582 133.44 117.224C132.738 118.107 133.012 119.444 133.658 120.37C134.303 121.297 135.251 121.961 136.003 122.799C136.163 123.009 136.359 123.187 136.583 123.326C136.968 123.471 137.388 123.493 137.786 123.389C141.344 122.862 144.973 123.095 148.435 124.072C149.18 124.281 150.062 124.499 150.655 124C151.191 123.548 151.179 122.725 150.898 122.06C150.84 122.226 150.767 122.386 150.68 122.538Z" fill="#9B8EA3"/>
</g>
<path opacity="0.75" d="M155.045 121.902C155.095 121.777 155.098 121.638 155.056 121.511C155.013 121.384 154.926 121.276 154.811 121.206C154.577 121.072 154.314 120.998 154.044 120.991C153.739 120.934 153.425 120.945 153.124 121.022C152.919 121.091 150.589 121.131 150.402 121.244L150.714 121.677C150.829 121.836 152.089 121.811 152.501 121.955C152.912 122.098 152.538 122.366 151.877 122.488C151.543 122.562 151.226 122.697 150.942 122.887C150.68 123.08 150.359 123.242 150.318 123.557C150.296 123.688 150.318 123.841 150.246 123.947C150.199 123.994 150.141 124.029 150.078 124.051C150.015 124.072 149.948 124.079 149.882 124.072C149.133 124.125 148.381 124.091 147.64 123.972C146.851 123.813 146.109 123.458 145.317 123.299C144.737 123.18 143.072 123.679 142.479 123.667C141.587 123.648 141.762 123.121 140.87 123.105C140.466 123.066 140.059 123.12 139.679 123.264C139.423 123.386 139.214 123.576 138.962 123.704C138.623 123.839 138.26 123.9 137.895 123.885C137.702 123.913 137.504 123.87 137.34 123.763C137.32 123.745 137.302 123.724 137.287 123.701C137.216 123.563 137.117 123.442 136.996 123.346C136.875 123.249 136.736 123.179 136.586 123.14L133.175 122.478C133.552 122.332 134.971 122.285 135.357 122.139L134.874 121.686C133.758 121.743 132.666 121.923 131.55 121.98C131.054 122.005 130.518 122.042 130.138 122.363C130.096 122.392 130.061 122.429 130.036 122.473C130.011 122.517 129.995 122.565 129.991 122.616C129.991 122.731 130.097 122.818 130.194 122.884C131.703 123.879 133.692 123.454 135.476 123.779C135.646 123.813 135.804 123.893 135.932 124.01C136.06 124.127 136.155 124.277 136.205 124.443C136.257 124.599 136.352 124.738 136.48 124.842C136.749 125.03 137.063 125.145 137.39 125.176C138.156 125.317 138.942 125.293 139.698 125.107C140.134 124.985 140.546 124.795 140.982 124.664C142.707 124.187 144.521 124.976 146.308 124.914C146.969 124.889 147.627 124.742 148.285 124.805C148.943 124.867 149.651 125.166 150.355 125.201C150.63 125.201 150.979 125.141 151.045 124.889C151.064 124.764 151.072 124.638 151.066 124.512C151.103 124.301 151.203 124.108 151.353 123.956C152.124 123.056 153.185 122.453 154.353 122.251C154.609 122.192 154.92 122.142 155.045 121.902Z" fill="url(#paint11_linear_0_1)"/>
<path d="M141.438 86.52L76.8426 73.4675C73.2692 71.238 72.8046 64.8333 73.8554 60.7361C74.6193 57.752 77.7842 53.396 81.1019 53L145.245 65.432L141.438 86.52Z" fill="#898989"/>
<path d="M141.438 86.52L76.8426 73.4675C73.2692 71.238 72.8046 64.8333 73.8554 60.7361C74.6193 57.752 77.7842 53.396 81.1019 53L145.245 65.432L141.438 86.52Z" fill="#898989"/>
<path d="M131.17 62.7035L120.923 60.7173C118.214 62.3013 115.934 65.7874 115.273 68.3536C114.198 72.5475 114.575 78.9553 117.84 81.7616L127.091 83.6325C124.229 80.6578 123.923 74.6554 124.949 70.6517C125.654 67.8952 128.229 64.0973 131.17 62.7035Z" fill="#146C23"/>
<path d="M120.147 82.2169C117.285 78.9834 117.004 72.7471 118.077 68.5751C118.7 66.1647 120.658 63.0154 123.087 61.1352L122.57 61.0354C120.075 62.9063 118.07 66.1242 117.441 68.5751C116.387 72.6879 116.645 78.7776 119.389 82.0641L120.147 82.2169Z" fill="#2ABB3E"/>
<path d="M124.933 83.1586C122.071 79.9126 121.79 73.6919 122.86 69.5198C123.483 67.1064 125.442 63.9571 127.874 62.0799L127.353 61.9771C124.859 63.8479 122.854 67.069 122.227 69.5198C121.17 73.6295 121.432 79.7224 124.176 83.0058L124.933 83.1586Z" fill="#2ABB3E"/>
<path d="M91.5071 55.0144L87.045 54.1506C84.1234 55.5756 81.6039 59.3299 80.9055 62.052C79.9201 65.8904 80.1602 71.5686 82.7077 74.6524L86.3902 75.3976C84.4851 71.9864 84.3853 66.8539 85.3114 63.2369C86.0285 60.4555 88.5449 56.6483 91.5071 55.0144Z" fill="#146C23"/>
<g style="mix-blend-mode:multiply" opacity="0.65">
<path d="M140.817 77.1127C128.828 74.0351 77.0327 63.4989 73.5841 62.0957C73.1008 65.1141 73.3721 68.8683 74.8781 71.4033H74.8937L139.489 84.4559L140.817 77.1127Z" fill="#146C23"/>
</g>
<path d="M150.524 77.5429C149.432 83.3489 145.267 87.3432 141.247 86.467C137.228 85.5908 134.865 80.1621 135.968 74.3562C137.072 68.5502 141.226 64.5559 145.245 65.4383C149.264 66.3207 151.615 71.7338 150.524 77.5429Z" fill="#B6B6B6"/>
<g style="mix-blend-mode:multiply" opacity="0.32">
<path d="M143.043 79.1487C139.925 79.1487 137.499 78.0231 135.735 76.2645C135.423 81.3065 137.674 85.6781 141.247 86.4608C145.267 87.3432 149.42 83.3426 150.524 77.5429C150.628 76.9809 150.701 76.4136 150.742 75.8435C148.952 77.8391 146.395 79.1487 143.043 79.1487Z" fill="#898989"/>
</g>
<path d="M149.043 77.2186C148.163 81.8428 144.939 85.0389 141.846 84.3591C138.753 83.6794 136.954 79.3701 137.833 74.7584C138.712 70.1466 141.933 66.935 145.03 67.6147C148.126 68.2945 149.922 72.5944 149.043 77.2186Z" fill="#232325"/>
<path d="M153.202 80.5113C152.756 79.9376 149.791 77.4587 149.058 77.0814C145.9 75.4163 140.306 75.6159 137.705 75.8185C137.493 77.5608 137.707 79.3285 138.329 80.9697C138.36 81.0445 138.394 81.1131 138.426 81.1817C138.554 81.4668 138.7 81.7438 138.862 82.0112C138.964 82.1754 139.068 82.325 139.174 82.4602C139.355 82.7207 139.556 82.9668 139.776 83.1961L139.835 83.2522L139.925 83.3426C140.802 84.2282 140.505 85.4473 140.624 88.1289C141.073 98.2442 136.589 110.137 136.589 110.137H162.023C162.722 97.7765 157.808 86.4108 153.202 80.5113Z" fill="url(#paint12_linear_0_1)"/>
<path d="M153.202 80.5113C152.756 79.9376 149.791 77.4587 149.058 77.0814C145.9 75.4163 140.306 75.6159 137.705 75.8185C137.493 77.5608 137.707 79.3285 138.329 80.9697C138.36 81.0445 138.394 81.1131 138.426 81.1817C138.554 81.4668 138.7 81.7438 138.862 82.0112C138.964 82.1754 139.068 82.325 139.174 82.4602C139.355 82.7207 139.556 82.9668 139.776 83.1961L139.835 83.2522L139.925 83.3426C140.802 84.2282 140.505 85.4473 140.624 88.1289C141.073 98.2442 136.589 110.137 136.589 110.137H162.023C162.722 97.7765 157.808 86.4108 153.202 80.5113Z" fill="url(#paint13_linear_0_1)"/>
<g style="mix-blend-mode:multiply" opacity="0.32">
<path d="M161.038 104.699C160.942 104.754 160.868 104.841 160.829 104.945C160.669 105.255 160.528 105.573 160.405 105.899C160.153 105.562 159.782 105.185 159.404 105.347C159.027 105.509 159.005 105.971 158.977 106.351C158.949 106.732 158.827 107.212 158.472 107.287C158.188 107.346 157.936 107.106 157.733 106.885L157.05 106.136C156.969 106.049 156.875 105.952 156.763 105.958C156.719 105.965 156.677 105.981 156.639 106.005C156.601 106.028 156.568 106.059 156.542 106.096C156.09 106.613 156.065 107.636 155.41 107.742C154.905 107.826 154.474 107.206 153.957 107.312C153.717 107.362 153.536 107.567 153.333 107.683C153.187 107.744 153.029 107.771 152.871 107.761C152.713 107.751 152.56 107.705 152.423 107.627C152.285 107.548 152.168 107.439 152.08 107.307C151.992 107.176 151.935 107.026 151.915 106.869L150.755 107.624C150.695 107.671 150.622 107.698 150.546 107.701C150.424 107.701 150.349 107.555 150.306 107.43C150.106 106.903 149.963 106.214 149.448 106.08C149.005 105.965 148.606 106.358 148.273 106.688C147.939 107.019 147.443 107.33 147.06 107.065C146.932 106.978 146.841 106.835 146.717 106.754C146.571 106.671 146.405 106.634 146.238 106.647C146.071 106.66 145.912 106.722 145.781 106.825C145.501 107.003 145.273 107.268 144.992 107.449C144.941 107.49 144.882 107.52 144.819 107.537C144.755 107.554 144.689 107.558 144.624 107.549C144.39 107.489 144.313 107.171 144.132 107.012C143.873 106.785 143.483 106.919 143.196 107.097C142.909 107.274 142.591 107.499 142.261 107.408C142.014 107.301 141.792 107.144 141.609 106.947C141.34 106.742 141.007 106.639 140.669 106.657C140.332 106.675 140.011 106.814 139.766 107.047C139.707 107.121 139.626 107.177 139.536 107.206C139.37 107.234 139.242 107.05 139.171 106.894C139.015 106.526 138.706 105.285 138.132 105.631C137.73 105.871 137.571 107.106 137.437 107.527C137.381 107.711 136.735 110.131 136.558 110.131H161.992C162.086 108.511 162.086 106.888 161.992 105.269C161.964 105.269 161.949 105.301 161.917 105.297C161.556 105.279 161.381 104.552 161.038 104.699Z" fill="#785C3D"/>
</g>
<g style="mix-blend-mode:multiply" opacity="0.32">
<path d="M142.831 110.127L143.019 108.231C143.098 106.954 143.307 105.688 143.642 104.452C143.991 103.32 144.562 102.129 144.213 100.997C144.044 100.445 143.67 99.984 143.521 99.4383C143.128 97.9603 144.4 96.6164 144.799 95.1384C145.423 92.8715 143.913 90.5485 143.976 88.1881C143.998 87.2963 144.247 86.4232 144.288 85.5283C144.362 83.3456 142.99 81.2159 141.076 80.5112C141.822 81.2933 142.375 82.2395 142.689 83.2739C143.003 84.3083 143.07 85.4019 142.884 86.4669C142.697 87.5239 142.261 88.6028 142.548 89.638C142.714 90.1041 142.923 90.554 143.171 90.9819C143.756 92.2216 143.867 93.6324 143.483 94.9482C142.95 96.7474 141.497 98.3938 141.89 100.233C142.052 100.991 142.513 101.64 142.688 102.394C143.059 104.003 142.049 105.55 141.344 107.025C141.195 107.275 141.128 107.567 141.154 107.857C141.238 108.101 141.354 108.331 141.5 108.543C141.612 108.794 141.67 109.065 141.67 109.34C141.67 109.615 141.612 109.886 141.5 110.137L142.831 110.127Z" fill="#785C3D"/>
</g>
<g style="mix-blend-mode:multiply" opacity="0.32">
<path d="M149.744 110.128H152.722C152.587 108.958 152.561 107.778 152.644 106.604C152.744 105.273 152.978 103.879 152.507 102.641C152.267 102.017 151.858 101.475 151.596 100.857C150.281 97.7828 152.788 93.7697 151.07 90.9322C150.614 90.1808 149.913 89.6351 149.417 88.9117C148.385 87.4025 148.385 85.3851 147.973 83.5672C147.562 81.7493 146.268 79.7911 144.543 80.0094C145.461 80.6453 146.214 81.4911 146.739 82.4766C147.264 83.462 147.546 84.5586 147.562 85.6751C147.562 86.7321 147.362 87.8235 147.68 88.8244C148.126 90.2369 149.514 91.0881 150.09 92.4477C150.982 94.5586 149.657 96.9565 149.626 99.2733C149.585 102.12 151.497 104.914 150.708 107.627C150.455 108.456 149.972 109.304 149.744 110.128Z" fill="#785C3D"/>
</g>
<g style="mix-blend-mode:multiply" opacity="0.32">
<path d="M158.475 108.406C158.456 107.159 158.138 105.506 156.972 105.369C157.346 102.781 157.639 99.8408 156.099 97.8077C155.832 97.503 155.592 97.1754 155.382 96.8286C154.948 95.9743 155.151 94.9297 155.323 93.9755C155.544 92.7439 155.697 91.4654 155.45 90.2338C155.008 88.0168 153.355 86.3299 152.457 84.2781C152.011 83.2616 151.752 82.1516 151.21 81.1787C150.706 80.2343 149.943 79.4541 149.009 78.9307C148.076 78.4073 147.012 78.1627 145.943 78.2258C148.104 78.3942 150.044 80.2869 150.408 82.5912C150.555 83.5267 150.471 84.5026 150.78 85.3975C151.123 86.3797 151.893 87.0969 152.488 87.9295C153.587 89.4963 154.078 91.4092 153.87 93.3114C153.745 94.4464 153.374 95.5876 153.586 96.7101C153.913 98.4345 155.519 99.6163 155.875 101.331C156.155 102.694 155.588 104.116 155.772 105.497C155.912 106.542 156.464 107.465 156.766 108.466C156.92 109.011 157 109.574 157.003 110.14H158.488L158.475 108.406Z" fill="#785C3D"/>
</g>
<g style="mix-blend-mode:multiply" opacity="0.32">
<path d="M147.917 103.168C147.727 102.544 147.387 101.995 147.231 101.369C146.607 98.9146 148.927 96.5168 148.556 94.0098C148.388 92.8842 147.702 91.9362 147.275 90.8917C146.517 89.0457 146.592 86.9503 146.283 84.9672C145.975 82.9841 145.07 80.8357 143.287 80.2058C144.933 81.4063 145.538 83.7012 145.734 85.8185C145.931 87.9357 145.853 90.162 146.623 92.1358C146.901 92.8499 147.29 93.5234 147.462 94.2749C148.154 97.2589 145.329 100.184 145.903 103.196C146.018 103.791 146.264 104.353 146.346 104.954C146.517 106.239 145.928 107.48 145.379 108.634C145.14 109.109 144.951 109.607 144.815 110.121H146.81C147.25 107.789 148.622 105.422 147.917 103.168Z" fill="#785C3D"/>
</g>
<g style="mix-blend-mode:multiply" opacity="0.32">
<path d="M160.249 103.595C159.99 103.127 159.626 102.734 159.389 102.245C158.631 100.595 159.831 98.5654 159.329 96.8068C159.117 96.0647 158.625 95.4566 158.288 94.7706C157.717 93.6044 157.618 92.2512 157.353 90.9665C156.953 89.1343 156.167 87.4087 155.045 85.9058C155.891 88.0219 156.322 90.281 156.314 92.5599C156.26 93.2845 156.317 94.0132 156.483 94.7207C156.725 95.3258 157.03 95.9038 157.393 96.4451C158.265 98.0117 158.585 99.826 158.3 101.596C158.198 102.004 158.165 102.425 158.204 102.843C158.301 103.226 158.458 103.591 158.668 103.925C159.638 105.775 159.707 107.979 159.688 110.121H160.623C160.19 107.982 161.3 105.488 160.249 103.595Z" fill="#785C3D"/>
</g>
<path d="M166.33 106.317C165.313 105.591 164.028 104.88 162.94 105.469C162.575 105.662 162.401 105.762 162.042 105.965C161.914 106.04 161.375 107.212 161.241 107.63C161.192 107.812 161.11 107.984 160.998 108.135C160.623 108.578 159.959 108.4 159.407 108.313C158.855 108.225 158.092 108.5 158.16 109.095C157.159 109.382 156.133 108.681 155.098 108.734C154.001 108.79 153.053 109.688 151.955 109.75C150.181 109.847 148.559 107.77 146.897 108.441C146.274 108.69 145.825 109.289 145.207 109.544C143.698 110.168 142.117 108.537 140.512 108.721C139.398 108.849 138.482 109.834 137.362 109.909C137.05 109.928 136.932 110.099 136.707 109.863C136.707 109.863 137.986 105.728 138.017 105.653L135.928 105.681C135.348 105.681 134.631 105.8 134.437 106.386C134.347 106.666 134.409 106.991 134.275 107.25C134.057 107.67 133.502 107.649 133.053 107.639C132.015 107.617 130.908 108.042 130.334 108.974C129.76 109.906 129.938 111.372 130.852 111.902C131.316 112.173 131.959 112.245 132.177 112.759C132.25 113.026 132.289 113.3 132.292 113.576C132.436 114.527 133.452 115.073 134.344 114.995C135.236 114.917 136.034 114.396 136.838 113.944C137.643 113.492 138.51 113.08 139.389 113.249C140.013 113.367 140.558 113.766 141.163 113.963C143.056 114.586 145.073 113.183 147.025 113.523C147.836 113.667 148.603 114.106 149.423 114.097C150.67 114.081 151.746 113.034 152.997 112.953C153.932 112.893 154.796 113.374 155.678 113.679C156.561 113.985 157.643 114.081 158.319 113.398C158.522 113.19 158.672 112.928 158.871 112.719C159.451 112.095 160.352 112.014 161.166 112.095C161.98 112.176 162.791 112.407 163.598 112.27C164.406 112.133 165.226 111.509 165.263 110.633C165.285 110.134 165.061 109.582 165.313 109.161C165.694 108.537 166.741 108.849 167.184 108.278C167.658 107.649 166.963 106.769 166.33 106.317Z" fill="url(#paint14_radial_0_1)"/>
<g style="mix-blend-mode:multiply" opacity="0.32">
<path d="M136.714 109.853C136.714 109.853 136.742 109.769 136.782 109.632L136.81 109.547C136.832 109.476 136.86 109.379 136.891 109.279L136.926 109.173C136.926 109.173 136.926 109.154 136.926 109.145C136.954 109.055 136.985 108.955 137.019 108.852L137.038 108.783V108.755C137.203 108.219 137.403 107.574 137.58 107.006L137.609 106.919C137.614 106.897 137.622 106.875 137.63 106.853L137.746 106.473C137.796 106.258 137.842 106.08 137.87 106.002C137.786 106.248 136.589 106.283 136.311 106.411C135.797 106.657 135.292 107.087 135.404 107.764C135.421 107.84 135.421 107.919 135.404 107.995C135.354 108.15 135.161 108.169 135.008 108.185C134.791 108.205 134.582 108.279 134.4 108.399C134.218 108.519 134.068 108.682 133.963 108.874C133.907 108.973 133.879 109.087 133.882 109.201C133.914 109.532 134.194 109.697 134.219 110.062C134.244 110.427 133.995 110.807 134.166 111.166C134.23 111.287 134.329 111.387 134.45 111.453C134.659 111.574 134.906 111.612 135.142 111.559C135.566 111.465 135.984 110.994 136.442 111.11C136.726 111.178 136.792 111.421 137.001 111.602C137.699 112.182 138.457 110.979 139.252 111.306C139.375 111.369 139.494 111.441 139.607 111.521C139.858 111.667 140.147 111.736 140.436 111.718C140.726 111.7 141.004 111.597 141.235 111.421C141.327 111.337 141.433 111.267 141.547 111.216C141.695 111.174 141.853 111.186 141.993 111.25C142.304 111.362 142.569 111.562 142.878 111.677C143.926 112.029 144.911 110.632 145.996 110.969C146.286 111.06 146.533 111.281 146.823 111.356C147.608 111.584 148.478 110.82 149.214 111.194C149.526 111.356 149.769 111.714 150.122 111.752C150.527 111.799 150.842 111.396 151.21 111.209C151.784 110.916 152.457 111.153 153.081 111.347C153.24 111.419 153.42 111.435 153.589 111.39C153.736 111.31 153.869 111.205 153.979 111.078C154.771 110.361 155.56 111.437 156.392 111.593C156.525 111.624 156.664 111.624 156.797 111.593C157.009 111.511 157.201 111.385 157.362 111.225C157.591 111.048 157.856 110.925 158.139 110.864C158.422 110.803 158.714 110.806 158.996 110.873C159.619 111.032 159.997 111.228 160.424 110.673C160.851 110.118 161.263 110.483 161.902 110.452C162.031 110.457 162.16 110.432 162.278 110.378C162.396 110.323 162.499 110.242 162.578 110.14C162.722 109.909 162.691 109.575 162.89 109.385C163.327 108.936 164.418 109.597 164.284 108.515C164.24 108.144 163.894 107.982 163.832 107.705C163.76 107.393 164.144 107.28 164.184 106.981C164.25 106.52 163.657 106.192 163.374 105.968C163.168 105.806 163.084 105.556 162.806 105.556C162.774 105.561 162.743 105.568 162.713 105.578L162.045 105.952C161.986 106.012 161.938 106.082 161.902 106.158C161.827 106.289 161.74 106.47 161.646 106.66C161.521 106.925 161.397 107.215 161.313 107.427C161.284 107.499 161.263 107.561 161.244 107.611C161.196 107.793 161.113 107.965 161.001 108.116C160.627 108.559 159.962 108.381 159.41 108.294C158.859 108.207 158.095 108.481 158.163 109.077C157.162 109.363 156.136 108.662 155.101 108.715C154.004 108.771 153.056 109.669 151.958 109.731C151.827 109.737 151.696 109.732 151.565 109.716C149.944 109.532 148.447 107.801 146.888 108.422C146.264 108.671 145.815 109.27 145.198 109.526C143.689 110.149 142.108 108.518 140.502 108.702C139.389 108.83 138.472 109.816 137.353 109.89C137.054 109.928 136.938 110.099 136.714 109.853Z" fill="#785C3D"/>
</g>
<path d="M88.5636 54.4436C86.0161 56.1087 83.8396 59.0522 83.0445 61.3877C81.6881 65.3509 81.4854 71.3657 83.8895 74.8892L84.5817 75.0296C82.1122 71.5092 82.3117 65.4413 83.6775 61.4438C84.4664 59.1302 86.6116 56.2241 89.128 54.5559L88.5636 54.4436Z" fill="#2ABB3E"/>
<path d="M163.685 101.25C163.676 101.394 163.624 101.533 163.537 101.648C163.449 101.764 163.33 101.851 163.194 101.899C163.057 101.948 162.91 101.955 162.769 101.921C162.629 101.887 162.501 101.812 162.402 101.706C162.304 101.601 162.238 101.468 162.214 101.326C162.189 101.183 162.207 101.036 162.265 100.904C162.322 100.771 162.418 100.658 162.539 100.579C162.66 100.5 162.802 100.458 162.946 100.458C163.149 100.465 163.341 100.553 163.48 100.701C163.618 100.85 163.692 101.047 163.685 101.25Z" fill="url(#paint15_radial_0_1)"/>
<path d="M150.321 107.621C150.311 107.765 150.259 107.903 150.171 108.018C150.083 108.133 149.964 108.219 149.827 108.268C149.691 108.316 149.544 108.323 149.403 108.288C149.263 108.254 149.136 108.179 149.037 108.073C148.939 107.967 148.874 107.835 148.849 107.692C148.825 107.549 148.843 107.403 148.901 107.271C148.959 107.138 149.054 107.025 149.175 106.946C149.296 106.867 149.438 106.825 149.582 106.825C149.683 106.829 149.782 106.852 149.874 106.894C149.965 106.936 150.048 106.996 150.116 107.07C150.185 107.144 150.239 107.23 150.274 107.325C150.309 107.419 150.325 107.52 150.321 107.621Z" fill="url(#paint16_radial_0_1)"/>
<path d="M134.659 102.058C134.648 102.202 134.596 102.34 134.509 102.455C134.421 102.57 134.302 102.656 134.165 102.705C134.029 102.753 133.881 102.76 133.741 102.725C133.601 102.691 133.473 102.616 133.375 102.51C133.277 102.404 133.211 102.272 133.187 102.129C133.163 101.987 133.181 101.84 133.239 101.708C133.296 101.575 133.392 101.462 133.513 101.383C133.634 101.304 133.775 101.262 133.92 101.262C134.021 101.266 134.12 101.29 134.211 101.331C134.303 101.373 134.386 101.433 134.454 101.507C134.523 101.581 134.576 101.667 134.611 101.762C134.646 101.856 134.663 101.957 134.659 102.058Z" fill="url(#paint17_radial_0_1)"/>
<path d="M136.926 104.031C136.915 104.141 136.873 104.246 136.805 104.333C136.736 104.42 136.643 104.484 136.538 104.52C136.434 104.555 136.321 104.558 136.214 104.531C136.107 104.503 136.01 104.444 135.935 104.362C135.861 104.281 135.812 104.179 135.794 104.07C135.777 103.96 135.791 103.848 135.836 103.747C135.881 103.646 135.954 103.56 136.047 103.5C136.139 103.44 136.248 103.408 136.358 103.408C136.437 103.41 136.514 103.429 136.585 103.462C136.656 103.495 136.72 103.542 136.773 103.6C136.826 103.658 136.867 103.726 136.893 103.8C136.919 103.874 136.93 103.953 136.926 104.031Z" fill="url(#paint18_radial_0_1)"/>
<path d="M132.202 105.862C132.191 105.972 132.149 106.077 132.081 106.163C132.012 106.25 131.92 106.315 131.815 106.35C131.71 106.385 131.598 106.389 131.491 106.361C131.384 106.334 131.287 106.276 131.213 106.194C131.138 106.113 131.089 106.011 131.071 105.902C131.053 105.793 131.067 105.681 131.111 105.58C131.155 105.479 131.228 105.393 131.32 105.332C131.413 105.271 131.521 105.239 131.631 105.238C131.71 105.241 131.787 105.259 131.859 105.292C131.931 105.324 131.995 105.371 132.048 105.43C132.101 105.488 132.142 105.556 132.169 105.63C132.195 105.704 132.206 105.783 132.202 105.862Z" fill="url(#paint19_radial_0_1)"/>
<path d="M163.985 103.417C163.974 103.527 163.933 103.632 163.864 103.718C163.795 103.805 163.703 103.87 163.598 103.905C163.494 103.94 163.381 103.944 163.274 103.917C163.167 103.889 163.07 103.831 162.996 103.749C162.921 103.668 162.872 103.566 162.854 103.457C162.836 103.348 162.85 103.236 162.894 103.135C162.938 103.034 163.011 102.948 163.103 102.887C163.196 102.826 163.304 102.794 163.414 102.793C163.493 102.796 163.57 102.815 163.642 102.848C163.713 102.881 163.777 102.928 163.83 102.986C163.883 103.044 163.924 103.112 163.951 103.186C163.977 103.26 163.989 103.339 163.985 103.417Z" fill="url(#paint20_radial_0_1)"/>
<path d="M158.675 105.637C158.665 105.769 158.617 105.895 158.537 106C158.456 106.105 158.347 106.185 158.222 106.229C158.098 106.273 157.963 106.279 157.834 106.248C157.706 106.216 157.589 106.148 157.499 106.051C157.409 105.954 157.349 105.833 157.327 105.703C157.304 105.572 157.32 105.438 157.373 105.317C157.426 105.196 157.512 105.092 157.623 105.02C157.733 104.947 157.863 104.908 157.995 104.908C158.182 104.915 158.358 104.996 158.485 105.132C158.612 105.269 158.681 105.451 158.675 105.637Z" fill="url(#paint21_radial_0_1)"/>
<path d="M138.245 100.96C138.226 101.183 138.143 101.395 138.006 101.571C137.868 101.747 137.683 101.879 137.472 101.952C137.26 102.024 137.033 102.034 136.816 101.979C136.6 101.924 136.404 101.808 136.252 101.644C136.101 101.48 136.001 101.275 135.964 101.055C135.926 100.835 135.954 100.608 136.043 100.404C136.133 100.199 136.279 100.025 136.466 99.9021C136.653 99.7794 136.871 99.7137 137.094 99.7129C137.252 99.7185 137.407 99.7553 137.55 99.8212C137.694 99.887 137.822 99.9806 137.929 100.097C138.036 100.213 138.119 100.349 138.173 100.497C138.228 100.645 138.252 100.803 138.245 100.96Z" fill="url(#paint22_radial_0_1)"/>
<path d="M167.087 103.529C167.069 103.752 166.985 103.964 166.848 104.141C166.71 104.317 166.525 104.449 166.313 104.521C166.102 104.594 165.874 104.603 165.658 104.548C165.441 104.493 165.245 104.376 165.094 104.212C164.943 104.047 164.843 103.843 164.806 103.622C164.769 103.402 164.797 103.176 164.887 102.971C164.977 102.766 165.124 102.592 165.311 102.47C165.498 102.348 165.716 102.282 165.94 102.282C166.097 102.288 166.252 102.325 166.395 102.391C166.538 102.457 166.666 102.551 166.773 102.667C166.88 102.783 166.962 102.919 167.016 103.067C167.07 103.215 167.094 103.372 167.087 103.529Z" fill="url(#paint23_radial_0_1)"/>
<path d="M146.542 105.915C147.176 105.915 147.689 105.362 147.689 104.68C147.689 103.998 147.176 103.445 146.542 103.445C145.908 103.445 145.395 103.998 145.395 104.68C145.395 105.362 145.908 105.915 146.542 105.915Z" fill="url(#paint24_radial_0_1)"/>
<path d="M154.54 104.031C154.521 104.254 154.438 104.466 154.301 104.643C154.163 104.819 153.977 104.951 153.766 105.023C153.555 105.096 153.327 105.105 153.11 105.05C152.894 104.995 152.698 104.878 152.547 104.714C152.395 104.549 152.295 104.344 152.259 104.124C152.222 103.904 152.25 103.677 152.34 103.473C152.429 103.268 152.577 103.094 152.764 102.972C152.951 102.85 153.169 102.784 153.393 102.784C153.55 102.79 153.705 102.827 153.848 102.892C153.991 102.958 154.12 103.052 154.227 103.168C154.334 103.284 154.416 103.42 154.47 103.568C154.524 103.717 154.547 103.874 154.54 104.031Z" fill="url(#paint25_radial_0_1)"/>
<path d="M145.267 106.825C145.259 106.929 145.221 107.029 145.157 107.112C145.094 107.194 145.007 107.257 144.909 107.291C144.811 107.326 144.704 107.331 144.603 107.305C144.502 107.28 144.41 107.226 144.339 107.15C144.268 107.074 144.221 106.978 144.203 106.875C144.186 106.773 144.198 106.667 144.24 106.571C144.281 106.476 144.35 106.394 144.437 106.337C144.524 106.28 144.626 106.249 144.73 106.249C144.804 106.251 144.875 106.268 144.942 106.298C145.009 106.328 145.069 106.372 145.119 106.425C145.168 106.479 145.207 106.542 145.233 106.611C145.258 106.679 145.27 106.752 145.267 106.825Z" fill="url(#paint26_radial_0_1)"/>
<path d="M141.288 104.377C141.278 104.524 141.225 104.663 141.136 104.78C141.047 104.896 140.927 104.984 140.788 105.033C140.65 105.082 140.501 105.089 140.359 105.054C140.217 105.019 140.088 104.944 139.988 104.836C139.888 104.729 139.822 104.595 139.798 104.451C139.773 104.306 139.791 104.158 139.85 104.024C139.908 103.89 140.005 103.775 140.127 103.695C140.25 103.615 140.393 103.573 140.54 103.573C140.745 103.581 140.939 103.67 141.08 103.821C141.22 103.972 141.295 104.172 141.288 104.377Z" fill="url(#paint27_radial_0_1)"/>
<path d="M94.0826 90.5486L29.4876 77.496C25.9142 75.2666 25.434 68.8619 26.5004 64.7647C27.2644 61.7806 30.4261 57.4246 33.7469 57.0286L97.8899 69.4606L94.0826 90.5486Z" fill="#898989"/>
<path d="M94.0826 90.5486L29.4876 77.496C25.9142 75.2666 25.434 68.8619 26.5004 64.7647C27.2644 61.7806 30.4261 57.4246 33.7469 57.0286L97.8899 69.4606L94.0826 90.5486Z" fill="#898989"/>
<path d="M83.8147 66.7324L73.5685 64.7461C70.8589 66.3301 68.5795 69.8162 67.9185 72.3824C66.8427 76.5763 67.22 82.9841 70.4847 85.7904L79.7362 87.6613C76.8737 84.6866 76.5681 78.6842 77.594 74.6805C78.2987 71.9241 80.8587 68.1262 83.8147 66.7324Z" fill="#146C23"/>
<path d="M72.7921 86.2455C69.9297 82.9964 69.649 76.7788 70.7185 72.6036C71.3422 70.1933 73.3035 67.044 75.7325 65.1637L75.2118 65.064C72.7173 66.9348 70.7123 70.1528 70.0856 72.6036C69.0285 76.7165 69.2904 82.8062 72.0344 86.0927L72.7921 86.2455Z" fill="#2ABB3E"/>
<path d="M77.5753 87.1874C74.716 83.9414 74.4354 77.7207 75.5049 73.5486C76.1285 71.1352 78.0867 67.9859 80.5157 66.1088L79.9981 66.0059C77.5036 67.8767 75.4986 71.0978 74.8688 73.5486C73.8149 77.6583 74.0768 83.7512 76.8176 87.0346L77.5753 87.1874Z" fill="#2ABB3E"/>
<g style="mix-blend-mode:multiply" opacity="0.65">
<path d="M93.4622 81.1256C81.473 78.048 29.6747 67.5118 26.2292 66.1086C25.7458 69.127 26.0171 72.8812 27.5232 75.4163H27.5388L92.1338 88.4688L93.4622 81.1256Z" fill="#146C23"/>
</g>
<path d="M103.247 81.18C104.199 75.3434 101.68 70.0754 97.621 69.4137C93.5622 68.752 89.5005 72.947 88.5489 78.7837C87.5973 84.6203 90.1162 89.8883 94.1749 90.55C98.2337 91.2117 102.295 87.0167 103.247 81.18Z" fill="#B6B6B6"/>
<g style="mix-blend-mode:multiply" opacity="0.32">
<path d="M95.6885 83.1773C92.5704 83.1773 90.1413 82.0517 88.3796 80.293C88.0678 85.3351 90.3191 89.7067 93.8924 90.4893C97.9117 91.3718 102.065 87.3712 103.169 81.5715C103.273 81.0095 103.346 80.4421 103.387 79.8721C101.597 81.8677 99.0405 83.1773 95.6885 83.1773Z" fill="#898989"/>
</g>
<path d="M101.685 81.2471C100.808 85.8713 97.5843 89.0674 94.4911 88.3877C91.398 87.7079 89.5988 83.3987 90.4781 78.7869C91.3574 74.1752 94.5785 70.9635 97.6748 71.6433C100.771 72.323 102.564 76.6229 101.685 81.2471Z" fill="#232325"/>
<path d="M105.847 84.5399C105.401 83.9662 102.436 81.4872 101.703 81.1099C98.5447 79.4449 92.9508 79.6444 90.3503 79.8471C90.1376 81.5893 90.3517 83.3571 90.9739 84.9983C91.0051 85.0731 91.0362 85.1417 91.0705 85.2103C91.1966 85.4966 91.3425 85.7737 91.5071 86.0397C91.611 86.2039 91.715 86.3536 91.8189 86.4887C91.9991 86.75 92.2004 86.9961 92.4207 87.2246C92.4425 87.2464 92.4612 87.262 92.4768 87.2807L92.5704 87.3712C93.4466 88.2567 93.1503 89.4759 93.2688 92.1575C93.7147 102.273 89.234 114.165 89.234 114.165H114.669C115.367 101.805 110.456 90.4394 105.847 84.5399Z" fill="url(#paint28_linear_0_1)"/>
<path d="M105.847 84.5399C105.401 83.9662 102.436 81.4872 101.703 81.1099C98.5447 79.4449 92.9508 79.6444 90.3503 79.8471C90.1376 81.5893 90.3517 83.3571 90.9739 84.9983C91.0051 85.0731 91.0362 85.1417 91.0705 85.2103C91.1966 85.4966 91.3425 85.7737 91.5071 86.0397C91.611 86.2039 91.715 86.3536 91.8189 86.4887C91.9991 86.75 92.2004 86.9961 92.4207 87.2246C92.4425 87.2464 92.4612 87.262 92.4768 87.2807L92.5704 87.3712C93.4466 88.2567 93.1503 89.4759 93.2688 92.1575C93.7147 102.273 89.234 114.165 89.234 114.165H114.669C115.367 101.805 110.456 90.4394 105.847 84.5399Z" fill="url(#paint29_linear_0_1)"/>
<g style="mix-blend-mode:multiply" opacity="0.32">
<path d="M113.683 108.727C113.587 108.783 113.512 108.87 113.471 108.974C113.314 109.284 113.173 109.602 113.05 109.928C112.798 109.591 112.427 109.214 112.049 109.376C111.672 109.538 111.65 110 111.619 110.38C111.588 110.76 111.472 111.241 111.117 111.315C110.833 111.375 110.578 111.135 110.378 110.913L109.695 110.165C109.614 110.074 109.52 109.981 109.408 109.987C109.364 109.994 109.322 110.01 109.284 110.033C109.246 110.057 109.213 110.088 109.187 110.124C108.735 110.642 108.707 111.665 108.055 111.771C107.547 111.855 107.104 111.234 106.599 111.34C106.375 111.435 106.165 111.56 105.975 111.711C105.829 111.773 105.671 111.799 105.513 111.79C105.354 111.78 105.201 111.733 105.063 111.654C104.926 111.575 104.809 111.465 104.721 111.334C104.633 111.202 104.577 111.052 104.556 110.894L103.396 111.652C103.337 111.699 103.264 111.727 103.188 111.73C103.066 111.73 102.991 111.584 102.944 111.459C102.748 110.932 102.604 110.243 102.09 110.109C101.647 109.993 101.248 110.386 100.914 110.717C100.581 111.047 100.085 111.359 99.7015 111.094C99.5737 111.007 99.4832 110.863 99.3585 110.782C99.2131 110.7 99.0465 110.663 98.8799 110.676C98.7133 110.688 98.5543 110.75 98.4231 110.854C98.1425 111.032 97.9148 111.297 97.6342 111.477C97.5821 111.518 97.5224 111.548 97.4587 111.565C97.395 111.582 97.3285 111.586 97.2631 111.577C97.0324 111.518 96.9513 111.2 96.7736 111.041C96.5117 110.813 96.125 110.947 95.8382 111.125C95.5513 111.303 95.2332 111.527 94.9027 111.437C94.647 111.375 94.4662 111.125 94.251 110.975C93.9844 110.775 93.6555 110.675 93.3223 110.693C92.9892 110.711 92.6731 110.847 92.43 111.075C92.3699 111.149 92.2898 111.204 92.1993 111.234C92.0341 111.262 91.9062 111.078 91.8345 110.922C91.6786 110.555 91.3699 109.314 90.793 109.657C90.3908 109.9 90.2349 111.135 90.1008 111.555C90.0416 111.739 89.3992 114.159 89.2215 114.159H114.656C114.748 112.54 114.748 110.917 114.656 109.298C114.628 109.298 114.609 109.326 114.578 109.326C114.198 109.307 114.026 108.584 113.683 108.727Z" fill="#785C3D"/>
</g>
<g style="mix-blend-mode:multiply" opacity="0.32">
<path d="M95.4889 114.156L95.676 112.26C95.7557 110.983 95.9647 109.717 96.2996 108.481C96.652 107.349 97.2351 106.158 96.8734 105.026C96.7019 104.474 96.3277 104.013 96.1812 103.467C95.7851 101.989 97.0573 100.645 97.4596 99.1672C98.0832 96.9003 96.574 94.5773 96.6333 92.2169C96.6582 91.3251 96.9077 90.4489 96.9451 89.5571C97.0199 87.3744 95.6511 85.2447 93.7365 84.54C94.4844 85.3218 95.0382 86.2683 95.3535 87.3033C95.6687 88.3383 95.7364 89.4328 95.5513 90.4988C95.3642 91.5558 94.9277 92.6347 95.2145 93.67C95.3809 94.1361 95.5896 94.5859 95.8382 95.0139C96.4229 96.2535 96.5338 97.6643 96.15 98.9801C95.6199 100.779 94.1668 102.426 94.5597 104.281C94.7187 105.039 95.1833 105.687 95.358 106.442C95.7259 108.051 94.7187 109.597 94.014 111.072C93.8647 111.323 93.7982 111.614 93.8238 111.905C93.9063 112.149 94.0228 112.38 94.17 112.591C94.2843 112.84 94.3448 113.111 94.3475 113.386C94.3501 113.66 94.295 113.932 94.1856 114.184L95.4889 114.156Z" fill="#785C3D"/>
</g>
<g style="mix-blend-mode:multiply" opacity="0.32">
<path d="M102.399 114.156H105.376C105.242 112.987 105.215 111.807 105.299 110.633C105.398 109.301 105.629 107.907 105.158 106.669C104.921 106.046 104.513 105.503 104.251 104.886C102.935 101.811 105.442 97.7983 103.724 94.9608C103.269 94.2093 102.567 93.6637 102.071 92.9403C101.036 91.4311 101.039 89.4136 100.628 87.5958C100.216 85.7779 98.922 83.8197 97.1977 84.038C98.1141 84.6743 98.8651 85.5205 99.388 86.5061C99.9109 87.4917 100.19 88.588 100.204 89.7036C100.204 90.7607 100.007 91.852 100.322 92.8529C100.771 94.2655 102.159 95.1167 102.732 96.4762C103.624 98.5872 102.302 100.985 102.271 103.302C102.23 106.149 104.142 108.943 103.353 111.655C103.1 112.485 102.617 113.333 102.399 114.156Z" fill="#785C3D"/>
</g>
<g style="mix-blend-mode:multiply" opacity="0.32">
<path d="M111.133 112.435C111.114 111.188 110.796 109.535 109.63 109.398C110.004 106.81 110.294 103.869 108.757 101.836C108.489 101.532 108.249 101.204 108.039 100.857C107.606 100.003 107.806 98.9583 107.98 98.0041C108.202 96.7724 108.354 95.494 108.108 94.2623C107.662 92.0453 106.013 90.3584 105.115 88.3067C104.669 87.2902 104.407 86.1801 103.883 85.2073C103.378 84.2639 102.613 83.4846 101.679 82.9614C100.746 82.4383 99.6818 82.1929 98.6133 82.2544C100.774 82.4228 102.714 84.3155 103.078 86.6198C103.228 87.5552 103.144 88.5312 103.453 89.4261C103.796 90.4083 104.566 91.1255 105.161 91.958C106.258 93.5255 106.749 95.4379 106.543 97.3399C106.418 98.4749 106.047 99.6162 106.259 100.739C106.571 102.463 108.192 103.645 108.545 105.36C108.828 106.722 108.261 108.144 108.445 109.526C108.582 110.57 109.137 111.493 109.439 112.494C109.593 113.039 109.673 113.602 109.676 114.169H111.161L111.133 112.435Z" fill="#785C3D"/>
</g>
<g style="mix-blend-mode:multiply" opacity="0.32">
<path d="M100.562 107.196C100.372 106.573 100.032 106.024 99.8761 105.397C99.2525 102.943 101.572 100.545 101.198 98.0384C101.033 96.9127 100.347 95.9648 99.9167 94.9202C99.1621 93.0743 99.2338 90.9789 98.9282 88.9958C98.6226 87.0126 97.7122 84.8642 95.9286 84.2344C97.5781 85.4349 98.183 87.7298 98.3794 89.847C98.5759 91.9642 98.4979 94.1906 99.2681 96.1644C99.5456 96.8784 99.9323 97.5519 100.107 98.3034C100.799 101.287 97.9741 104.212 98.5478 107.224C98.6632 107.82 98.9095 108.381 98.9875 108.983C99.1621 110.268 98.5696 111.509 98.024 112.662C97.7845 113.138 97.5944 113.636 97.4565 114.15H99.4552C99.8886 111.817 101.264 109.451 100.562 107.196Z" fill="#785C3D"/>
</g>
<g style="mix-blend-mode:multiply" opacity="0.32">
<path d="M112.894 107.624C112.632 107.156 112.271 106.763 112.034 106.273C111.276 104.624 112.476 102.594 111.974 100.835C111.762 100.093 111.27 99.4852 110.933 98.7992C110.362 97.633 110.263 96.2797 109.998 94.9951C109.606 93.1648 108.828 91.4394 107.715 89.9343C108.561 92.0505 108.992 94.3095 108.984 96.5884C108.93 97.3131 108.987 98.0418 109.153 98.7493C109.394 99.355 109.699 99.9331 110.063 100.474C110.934 102.041 111.252 103.855 110.967 105.625C110.868 106.033 110.835 106.454 110.871 106.872C110.969 107.255 111.127 107.62 111.338 107.954C112.308 109.803 112.377 112.008 112.358 114.15H113.293C112.835 111.995 113.945 109.541 112.894 107.624Z" fill="#785C3D"/>
</g>
<path d="M118.972 110.346C117.958 109.619 116.673 108.908 115.582 109.498C115.22 109.691 115.046 109.788 114.687 109.993C114.559 110.068 114.02 111.241 113.886 111.658C113.837 111.841 113.755 112.012 113.643 112.164C113.268 112.606 112.604 112.429 112.052 112.341C111.501 112.254 110.737 112.528 110.805 113.124C109.804 113.411 108.778 112.709 107.743 112.762C106.642 112.818 105.698 113.716 104.6 113.779C102.826 113.875 101.204 111.799 99.5425 112.469C98.9189 112.719 98.4699 113.317 97.8525 113.573C96.3433 114.197 94.7624 112.566 93.1566 112.75C92.0434 112.878 91.1236 113.863 90.0073 113.938C89.6955 113.957 89.577 114.128 89.3525 113.891C89.3525 113.891 90.6309 109.756 90.6621 109.682L88.5729 109.71C87.993 109.71 87.2758 109.828 87.0825 110.414C86.9921 110.695 87.0544 111.019 86.9172 111.278C86.699 111.699 86.147 111.677 85.698 111.668C84.6566 111.646 83.5528 112.07 82.979 113.002C82.4053 113.935 82.583 115.4 83.4966 115.93C83.9612 116.202 84.6036 116.273 84.8218 116.788C84.8938 117.054 84.9325 117.329 84.9372 117.605C85.0806 118.556 86.0971 119.101 86.9889 119.024C87.8807 118.946 88.679 118.425 89.4647 117.973C90.2505 117.521 91.136 117.109 92.0185 117.277C92.6421 117.396 93.1878 117.795 93.7927 117.991C95.6823 118.615 97.7028 117.212 99.6548 117.552C100.465 117.695 101.229 118.135 102.053 118.126C103.3 118.126 104.376 117.062 105.626 116.981C106.561 116.922 107.425 117.402 108.308 117.708C109.19 118.013 110.272 118.11 110.949 117.427C111.151 117.218 111.301 116.956 111.497 116.747C112.077 116.124 112.982 116.043 113.795 116.124C114.609 116.205 115.42 116.435 116.228 116.298C117.035 116.161 117.855 115.537 117.893 114.661C117.914 114.162 117.69 113.61 117.943 113.189C118.323 112.566 119.371 112.878 119.813 112.307C120.303 111.677 119.608 110.789 118.972 110.346Z" fill="url(#paint30_radial_0_1)"/>
<g style="mix-blend-mode:multiply" opacity="0.32">
<path d="M89.3587 113.907C89.3587 113.907 89.3867 113.823 89.4273 113.685L89.4522 113.601C89.4772 113.529 89.5052 113.433 89.5364 113.333C89.5364 113.296 89.5582 113.264 89.5707 113.227V113.199L89.6611 112.906L89.683 112.837V112.809C89.8482 112.273 90.0478 111.627 90.2255 111.06L90.2536 110.973L90.2723 110.907C90.3159 110.773 90.3534 110.645 90.3908 110.527C90.4407 110.312 90.4874 110.134 90.5155 110.056C90.4313 110.302 89.234 110.336 88.9564 110.464C88.442 110.711 87.9337 111.141 88.0491 111.814C88.0677 111.891 88.0677 111.971 88.0491 112.048C88.0023 112.204 87.809 112.223 87.6562 112.239C87.439 112.259 87.2302 112.333 87.0481 112.453C86.866 112.573 86.7161 112.736 86.6116 112.928C86.555 113.027 86.527 113.141 86.5305 113.255C86.5617 113.586 86.8424 113.751 86.8673 114.116C86.8923 114.48 86.6428 114.861 86.8143 115.219C86.8795 115.34 86.978 115.44 87.098 115.506C87.3072 115.628 87.5544 115.665 87.7903 115.612C88.2143 115.519 88.6322 115.048 89.0874 115.163C89.3743 115.232 89.4398 115.475 89.6487 115.656C90.344 116.236 91.1048 115.032 91.8968 115.36C92.0216 115.422 92.1414 115.494 92.2554 115.575C92.5123 115.73 92.8104 115.803 93.1098 115.783C93.4091 115.764 93.6953 115.653 93.9299 115.466C94.0223 115.381 94.1276 115.312 94.2417 115.26C94.3897 115.218 94.5476 115.231 94.6876 115.294C94.9994 115.407 95.2644 115.606 95.5731 115.721C96.6208 116.074 97.6061 114.677 98.6912 115.014C98.9812 115.104 99.2276 115.325 99.5175 115.4C100.303 115.628 101.17 114.864 101.906 115.238C102.218 115.4 102.464 115.759 102.817 115.796C103.222 115.843 103.537 115.441 103.905 115.254C104.478 114.961 105.152 115.198 105.757 115.391C105.917 115.464 106.098 115.479 106.268 115.435C106.415 115.354 106.547 115.249 106.658 115.123C107.45 114.406 108.236 115.481 109.071 115.637C109.205 115.668 109.343 115.668 109.477 115.637C109.688 115.554 109.88 115.429 110.041 115.269C110.27 115.093 110.535 114.97 110.817 114.909C111.099 114.848 111.391 114.85 111.672 114.917C112.296 115.076 112.676 115.272 113.1 114.717C113.524 114.162 113.942 114.527 114.581 114.496C114.71 114.502 114.839 114.476 114.956 114.422C115.073 114.368 115.176 114.286 115.255 114.184C115.401 113.954 115.37 113.62 115.567 113.43C116.006 112.981 117.098 113.642 116.963 112.56C116.92 112.189 116.574 112.026 116.511 111.749C116.436 111.422 116.823 111.325 116.864 111.026C116.929 110.564 116.334 110.237 116.05 110.012C115.847 109.85 115.763 109.601 115.482 109.601C115.452 109.606 115.421 109.613 115.392 109.622L114.725 109.997C114.666 110.057 114.617 110.126 114.581 110.202C114.506 110.333 114.416 110.514 114.326 110.704C114.201 110.969 114.076 111.259 113.995 111.471C113.967 111.543 113.942 111.606 113.926 111.655C113.878 111.838 113.795 112.009 113.683 112.161C113.309 112.603 112.645 112.426 112.093 112.338C111.541 112.251 110.777 112.525 110.846 113.121C109.845 113.408 108.819 112.706 107.784 112.759C106.683 112.815 105.738 113.713 104.641 113.776C104.51 113.787 104.378 113.787 104.248 113.776C102.626 113.592 101.13 111.861 99.5705 112.482C98.9469 112.731 98.4979 113.33 97.8805 113.586C96.3714 114.209 94.7905 112.578 93.1846 112.762C92.0715 112.89 91.1516 113.876 90.0353 113.95C89.6986 113.957 89.5832 114.128 89.3587 113.907Z" fill="#785C3D"/>
</g>
<path d="M85.776 109.597C85.7656 109.741 85.7136 109.878 85.6262 109.993C85.5389 110.107 85.42 110.194 85.2842 110.241C85.1484 110.289 85.0016 110.296 84.8619 110.262C84.7221 110.227 84.5955 110.153 84.4975 110.047C84.3995 109.942 84.3344 109.81 84.3103 109.668C84.2862 109.526 84.304 109.38 84.3617 109.249C84.4193 109.117 84.5142 109.004 84.6347 108.926C84.7552 108.847 84.8961 108.805 85.0401 108.805C85.1404 108.809 85.2391 108.832 85.3304 108.874C85.4217 108.916 85.5039 108.975 85.5722 109.049C85.6406 109.122 85.6937 109.209 85.7287 109.303C85.7636 109.397 85.7797 109.497 85.776 109.597Z" fill="url(#paint31_radial_0_1)"/>
<path d="M86.9172 107.281C86.9069 107.391 86.865 107.495 86.7964 107.582C86.7277 107.669 86.6355 107.733 86.5307 107.769C86.426 107.804 86.3133 107.808 86.2063 107.78C86.0993 107.752 86.0027 107.694 85.9281 107.613C85.8535 107.531 85.8042 107.43 85.7861 107.321C85.7681 107.212 85.782 107.1 85.8264 106.999C85.8707 106.898 85.9434 106.811 86.0358 106.751C86.1281 106.69 86.2361 106.657 86.3466 106.657C86.4252 106.66 86.5025 106.678 86.574 106.711C86.6454 106.744 86.7096 106.791 86.7627 106.849C86.8158 106.907 86.8568 106.975 86.8834 107.049C86.9099 107.123 86.9214 107.202 86.9172 107.281Z" fill="url(#paint32_radial_0_1)"/>
<path d="M121.719 108.668C121.708 108.778 121.666 108.883 121.598 108.97C121.529 109.056 121.436 109.121 121.331 109.156C121.226 109.191 121.114 109.195 121.007 109.167C120.9 109.139 120.803 109.081 120.728 108.999C120.654 108.917 120.605 108.816 120.587 108.706C120.569 108.597 120.584 108.485 120.629 108.384C120.673 108.283 120.747 108.197 120.839 108.137C120.932 108.076 121.04 108.044 121.151 108.044C121.229 108.048 121.306 108.066 121.378 108.1C121.449 108.133 121.512 108.18 121.565 108.238C121.618 108.296 121.659 108.364 121.685 108.437C121.711 108.511 121.723 108.59 121.719 108.668Z" fill="url(#paint33_radial_0_1)"/>
<path d="M118.647 107.427C118.634 107.599 118.572 107.764 118.467 107.902C118.362 108.039 118.219 108.143 118.056 108.2C117.893 108.257 117.716 108.266 117.549 108.224C117.381 108.183 117.229 108.094 117.111 107.967C116.993 107.841 116.914 107.683 116.885 107.512C116.856 107.342 116.877 107.167 116.946 107.008C117.014 106.849 117.128 106.714 117.272 106.619C117.417 106.524 117.586 106.473 117.759 106.473C118.002 106.485 118.231 106.591 118.397 106.77C118.562 106.948 118.652 107.184 118.647 107.427Z" fill="url(#paint34_radial_0_1)"/>
<path d="M90.3627 103.573C90.6779 103.573 90.9333 103.3 90.9333 102.962C90.9333 102.624 90.6779 102.351 90.3627 102.351C90.0476 102.351 89.7921 102.624 89.7921 102.962C89.7921 103.3 90.0476 103.573 90.3627 103.573Z" fill="url(#paint35_radial_0_1)"/>
<path d="M116.436 103.445C116.426 103.555 116.384 103.66 116.316 103.746C116.247 103.833 116.155 103.898 116.05 103.933C115.945 103.968 115.833 103.972 115.726 103.945C115.619 103.917 115.522 103.859 115.447 103.777C115.373 103.696 115.323 103.594 115.305 103.485C115.287 103.376 115.301 103.264 115.346 103.163C115.39 103.062 115.463 102.976 115.555 102.915C115.647 102.855 115.755 102.822 115.866 102.822C115.945 102.824 116.022 102.843 116.093 102.876C116.165 102.909 116.229 102.956 116.282 103.014C116.335 103.072 116.376 103.14 116.403 103.214C116.429 103.288 116.441 103.367 116.436 103.445Z" fill="url(#paint36_radial_0_1)"/>
<path d="M102.891 110.901C102.881 111.011 102.839 111.115 102.771 111.202C102.702 111.289 102.61 111.353 102.505 111.389C102.4 111.424 102.287 111.428 102.18 111.4C102.073 111.373 101.977 111.314 101.902 111.233C101.828 111.151 101.778 111.05 101.76 110.941C101.742 110.832 101.756 110.72 101.801 110.619C101.845 110.518 101.918 110.431 102.01 110.371C102.102 110.31 102.21 110.278 102.321 110.277C102.399 110.28 102.477 110.298 102.548 110.331C102.62 110.364 102.684 110.411 102.737 110.469C102.79 110.527 102.831 110.595 102.858 110.669C102.884 110.744 102.896 110.822 102.891 110.901Z" fill="url(#paint37_radial_0_1)"/>
<path d="M93.2751 108.191C93.2648 108.301 93.2227 108.406 93.154 108.493C93.0852 108.579 92.9927 108.644 92.8878 108.679C92.7829 108.714 92.6701 108.718 92.563 108.69C92.456 108.662 92.3593 108.604 92.2849 108.522C92.2104 108.44 92.1614 108.339 92.1436 108.229C92.1259 108.12 92.1404 108.008 92.1851 107.907C92.2299 107.806 92.3032 107.72 92.3959 107.66C92.4887 107.599 92.5969 107.567 92.7076 107.567C92.7859 107.571 92.8629 107.589 92.934 107.622C93.0051 107.656 93.0688 107.703 93.1216 107.761C93.1744 107.819 93.2152 107.887 93.2415 107.96C93.2678 108.034 93.2792 108.113 93.2751 108.191Z" fill="url(#paint38_radial_0_1)"/>
<path d="M106.714 107.776C106.704 107.886 106.662 107.991 106.593 108.078C106.525 108.164 106.432 108.229 106.328 108.264C106.223 108.3 106.11 108.304 106.003 108.276C105.896 108.248 105.8 108.19 105.725 108.109C105.65 108.027 105.601 107.926 105.583 107.817C105.565 107.708 105.579 107.596 105.623 107.495C105.668 107.393 105.74 107.307 105.833 107.247C105.925 107.186 106.033 107.153 106.144 107.153C106.222 107.156 106.299 107.174 106.371 107.207C106.442 107.24 106.507 107.287 106.56 107.345C106.613 107.403 106.654 107.471 106.68 107.545C106.707 107.619 106.718 107.698 106.714 107.776Z" fill="url(#paint39_radial_0_1)"/>
<path d="M113.933 109.513C113.922 109.623 113.88 109.728 113.812 109.815C113.743 109.901 113.651 109.966 113.546 110.001C113.441 110.036 113.329 110.04 113.222 110.013C113.115 109.985 113.018 109.927 112.944 109.845C112.869 109.764 112.82 109.663 112.802 109.554C112.784 109.445 112.797 109.333 112.842 109.231C112.886 109.13 112.959 109.044 113.051 108.983C113.144 108.923 113.252 108.89 113.362 108.89C113.441 108.892 113.518 108.911 113.589 108.944C113.661 108.977 113.725 109.024 113.778 109.082C113.831 109.14 113.872 109.208 113.899 109.282C113.925 109.356 113.937 109.435 113.933 109.513Z" fill="url(#paint40_radial_0_1)"/>
<path d="M113.362 106.155C113.352 106.299 113.301 106.436 113.214 106.551C113.127 106.666 113.008 106.753 112.872 106.801C112.736 106.85 112.59 106.857 112.45 106.823C112.31 106.789 112.183 106.714 112.084 106.609C111.986 106.504 111.921 106.372 111.896 106.23C111.872 106.088 111.89 105.942 111.947 105.81C112.005 105.678 112.1 105.565 112.22 105.486C112.341 105.408 112.482 105.366 112.626 105.366C112.828 105.373 113.019 105.46 113.157 105.608C113.295 105.756 113.369 105.953 113.362 106.155Z" fill="url(#paint41_radial_0_1)"/>
<path d="M90.3627 106.779C90.344 107.001 90.2608 107.213 90.1234 107.39C89.9859 107.566 89.8002 107.698 89.5889 107.77C89.3775 107.843 89.1496 107.852 88.9331 107.797C88.7166 107.742 88.5207 107.625 88.3694 107.461C88.2182 107.296 88.1181 107.092 88.0813 106.871C88.0445 106.651 88.0727 106.425 88.1624 106.22C88.2521 106.015 88.3994 105.841 88.5864 105.719C88.7733 105.597 88.9919 105.531 89.2153 105.531C89.3728 105.537 89.5277 105.574 89.6709 105.64C89.8141 105.705 89.9428 105.799 90.0495 105.915C90.1563 106.031 90.2389 106.167 90.2927 106.315C90.3464 106.464 90.3703 106.621 90.3627 106.779Z" fill="url(#paint42_radial_0_1)"/>
<path d="M119.523 102.485C119.505 102.707 119.421 102.92 119.284 103.096C119.147 103.272 118.961 103.404 118.75 103.477C118.538 103.549 118.31 103.558 118.094 103.503C117.877 103.448 117.681 103.332 117.53 103.167C117.379 103.003 117.279 102.798 117.242 102.577C117.205 102.357 117.233 102.131 117.323 101.926C117.413 101.722 117.56 101.548 117.747 101.425C117.934 101.303 118.153 101.238 118.376 101.238C118.533 101.244 118.688 101.281 118.831 101.347C118.974 101.413 119.103 101.506 119.209 101.622C119.316 101.738 119.399 101.874 119.453 102.022C119.506 102.17 119.531 102.327 119.523 102.485Z" fill="url(#paint43_radial_0_1)"/>
<path d="M110.1 109.158C110.091 109.298 110.04 109.432 109.955 109.544C109.87 109.655 109.755 109.74 109.622 109.787C109.49 109.834 109.347 109.841 109.21 109.807C109.074 109.774 108.95 109.701 108.855 109.599C108.759 109.496 108.696 109.367 108.672 109.229C108.648 109.091 108.666 108.948 108.722 108.82C108.778 108.691 108.87 108.582 108.988 108.505C109.106 108.428 109.243 108.387 109.383 108.387C109.481 108.391 109.577 108.413 109.666 108.454C109.755 108.494 109.835 108.552 109.902 108.623C109.969 108.695 110.021 108.779 110.055 108.871C110.089 108.962 110.104 109.06 110.1 109.158Z" fill="url(#paint44_radial_0_1)"/>
<path d="M99.8543 108.852C99.8428 109.013 99.7846 109.166 99.6869 109.294C99.5893 109.422 99.4564 109.519 99.3046 109.572C99.1528 109.626 98.9887 109.634 98.8324 109.595C98.6761 109.557 98.5345 109.473 98.4249 109.355C98.3153 109.238 98.2426 109.09 98.2156 108.932C98.1885 108.773 98.2084 108.61 98.2728 108.462C98.3372 108.315 98.4433 108.189 98.578 108.101C98.7127 108.013 98.8702 107.966 99.0311 107.967C99.2575 107.975 99.4711 108.074 99.6253 108.24C99.7796 108.405 99.8619 108.626 99.8543 108.852Z" fill="url(#paint45_radial_0_1)"/>
<path d="M94.6034 110.127C94.5931 110.268 94.5419 110.402 94.4563 110.514C94.3707 110.626 94.2542 110.711 94.1213 110.757C93.9884 110.804 93.8447 110.811 93.708 110.777C93.5713 110.743 93.4474 110.67 93.3516 110.566C93.2558 110.463 93.1922 110.334 93.1687 110.195C93.1451 110.056 93.1627 109.914 93.2191 109.785C93.2756 109.656 93.3685 109.546 93.4864 109.469C93.6044 109.392 93.7422 109.351 93.8831 109.351C93.9814 109.355 94.078 109.378 94.1674 109.419C94.2568 109.46 94.3373 109.518 94.4042 109.59C94.4711 109.662 94.5231 109.747 94.5573 109.839C94.5915 109.931 94.6071 110.029 94.6034 110.127Z" fill="url(#paint46_radial_0_1)"/>
<defs>
<filter id="filter0_d_0_1" x="0" y="0" width="356" height="188" filterUnits="userSpaceOnUse" color-interpolation-filters="sRGB">
<feFlood flood-opacity="0" result="BackgroundImageFix"/>
<feColorMatrix in="SourceAlpha" type="matrix" values="0 0 0 0 0 0 0 0 0 0 0 0 0 0 0 0 0 0 127 0" result="hardAlpha"/>
<feOffset dy="4"/>
<feGaussianBlur stdDeviation="2"/>
<feComposite in2="hardAlpha" operator="out"/>
<feColorMatrix type="matrix" values="0 0 0 0 0 0 0 0 0 0 0 0 0 0 0 0 0 0 0.25 0"/>
<feBlend mode="normal" in2="BackgroundImageFix" result="effect1_dropShadow_0_1"/>
<feBlend mode="normal" in="SourceGraphic" in2="effect1_dropShadow_0_1" result="shape"/>
</filter>
<linearGradient id="paint0_linear_0_1" x1="46.4938" y1="135.749" x2="218.468" y2="120.262" gradientUnits="userSpaceOnUse">
<stop stop-color="#938864"/>
<stop offset="0.23" stop-color="#777768"/>
<stop offset="0.45" stop-color="#656B6B"/>
<stop offset="0.6" stop-color="#5E676C"/>
<stop offset="0.7" stop-color="#646B6B"/>
<stop offset="0.83" stop-color="#747568"/>
<stop offset="0.97" stop-color="#8F8564"/>
<stop offset="1" stop-color="#958963"/>
</linearGradient>
<linearGradient id="paint1_linear_0_1" x1="89.8139" y1="132.893" x2="140.72" y2="132.893" gradientUnits="userSpaceOnUse">
<stop stop-color="#828F91"/>
<stop offset="0.52" stop-color="#A1ABAC"/>
<stop offset="1" stop-color="#828F91"/>
</linearGradient>
<linearGradient id="paint2_linear_0_1" x1="140.558" y1="137.701" x2="169.8" y2="137.701" gradientUnits="userSpaceOnUse">
<stop stop-color="#828F91"/>
<stop offset="0.52" stop-color="#A1ABAC"/>
<stop offset="1" stop-color="#828F91"/>
</linearGradient>
<linearGradient id="paint3_linear_0_1" x1="157.686" y1="120.165" x2="198.116" y2="120.165" gradientUnits="userSpaceOnUse">
<stop stop-color="#828F91"/>
<stop offset="0.52" stop-color="#A1ABAC"/>
<stop offset="1" stop-color="#828F91"/>
</linearGradient>
<linearGradient id="paint4_linear_0_1" x1="162.975" y1="118.986" x2="192.65" y2="118.986" gradientUnits="userSpaceOnUse">
<stop stop-color="#828F91"/>
<stop offset="0.52" stop-color="#A1ABAC"/>
<stop offset="1" stop-color="#828F91"/>
</linearGradient>
<linearGradient id="paint5_linear_0_1" x1="62.1562" y1="121.649" x2="83.9394" y2="121.649" gradientUnits="userSpaceOnUse">
<stop stop-color="#828F91"/>
<stop offset="0.52" stop-color="#A1ABAC"/>
<stop offset="1" stop-color="#828F91"/>
</linearGradient>
<linearGradient id="paint6_linear_0_1" x1="57.03" y1="123.333" x2="89.0625" y2="123.333" gradientUnits="userSpaceOnUse">
<stop stop-color="#828F91"/>
<stop offset="0.52" stop-color="#A1ABAC"/>
<stop offset="1" stop-color="#828F91"/>
</linearGradient>
<radialGradient id="paint7_radial_0_1" cx="0" cy="0" r="1" gradientUnits="userSpaceOnUse" gradientTransform="translate(124.99 127.723) scale(3.53595 3.53597)">
<stop stop-color="#B98E87"/>
<stop offset="1" stop-color="#AB766E"/>
</radialGradient>
<radialGradient id="paint8_radial_0_1" cx="0" cy="0" r="1" gradientUnits="userSpaceOnUse" gradientTransform="translate(124.575 123.71) scale(5.10437 5.10439)">
<stop stop-color="#B98E87"/>
<stop offset="1" stop-color="#AB766E"/>
</radialGradient>
<linearGradient id="paint9_linear_0_1" x1="98.1549" y1="131.767" x2="132.8" y2="131.767" gradientUnits="userSpaceOnUse">
<stop stop-color="#828F91"/>
<stop offset="0.52" stop-color="#A1ABAC"/>
<stop offset="1" stop-color="#828F91"/>
</linearGradient>
<linearGradient id="paint10_linear_0_1" x1="80.4221" y1="144.044" x2="107.88" y2="144.044" gradientUnits="userSpaceOnUse">
<stop stop-color="#828F91"/>
<stop offset="0.52" stop-color="#A1ABAC"/>
<stop offset="1" stop-color="#828F91"/>
</linearGradient>
<linearGradient id="paint11_linear_0_1" x1="129.979" y1="123.108" x2="155.098" y2="123.108" gradientUnits="userSpaceOnUse">
<stop stop-color="#828F91"/>
<stop offset="0.52" stop-color="#A1ABAC"/>
<stop offset="1" stop-color="#828F91"/>
</linearGradient>
<linearGradient id="paint12_linear_0_1" x1="142.831" y1="79.0739" x2="149.866" y2="108.568" gradientUnits="userSpaceOnUse">
<stop stop-color="#77786D"/>
<stop offset="1" stop-color="#C8A85D"/>
</linearGradient>
<linearGradient id="paint13_linear_0_1" x1="142.831" y1="79.0739" x2="149.866" y2="108.568" gradientUnits="userSpaceOnUse">
<stop stop-color="#666B54"/>
<stop offset="0.4" stop-color="#77786D"/>
<stop offset="1" stop-color="#C8A85D"/>
</linearGradient>
<radialGradient id="paint14_radial_0_1" cx="0" cy="0" r="1" gradientUnits="userSpaceOnUse" gradientTransform="translate(144.961 108.712) scale(22.2728 23.832)">
<stop stop-color="#666B54"/>
<stop offset="0.4" stop-color="#77786D"/>
<stop offset="1" stop-color="#C8A85D"/>
</radialGradient>
<radialGradient id="paint15_radial_0_1" cx="0" cy="0" r="1" gradientUnits="userSpaceOnUse" gradientTransform="translate(162.946 100.785) scale(0.738995 0.790732)">
<stop offset="0.55" stop-color="#C5A65D"/>
<stop offset="1" stop-color="#918657"/>
</radialGradient>
<radialGradient id="paint16_radial_0_1" cx="0" cy="0" r="1" gradientUnits="userSpaceOnUse" gradientTransform="translate(149.582 107.127) scale(0.738996 0.790726)">
<stop offset="0.55" stop-color="#C5A65D"/>
<stop offset="1" stop-color="#918657"/>
</radialGradient>
<radialGradient id="paint17_radial_0_1" cx="0" cy="0" r="1" gradientUnits="userSpaceOnUse" gradientTransform="translate(133.92 101.575) scale(0.738996 0.790726)">
<stop offset="0.55" stop-color="#C5A65D"/>
<stop offset="1" stop-color="#918657"/>
</radialGradient>
<radialGradient id="paint18_radial_0_1" cx="0" cy="0" r="1" gradientUnits="userSpaceOnUse" gradientTransform="translate(136.358 103.554) scale(0.570616 0.610564)">
<stop offset="0.55" stop-color="#C5A65D"/>
<stop offset="1" stop-color="#918657"/>
</radialGradient>
<radialGradient id="paint19_radial_0_1" cx="0" cy="0" r="1" gradientUnits="userSpaceOnUse" gradientTransform="translate(131.631 105.379) scale(0.570619 0.610562)">
<stop offset="0.55" stop-color="#C5A65D"/>
<stop offset="1" stop-color="#918657"/>
</radialGradient>
<radialGradient id="paint20_radial_0_1" cx="0" cy="0" r="1" gradientUnits="userSpaceOnUse" gradientTransform="translate(163.414 102.943) scale(0.570611 0.610567)">
<stop offset="0.55" stop-color="#C5A65D"/>
<stop offset="1" stop-color="#918657"/>
</radialGradient>
<radialGradient id="paint21_radial_0_1" cx="0" cy="0" r="1" gradientUnits="userSpaceOnUse" gradientTransform="translate(157.995 105.155) scale(0.679752 0.727334)">
<stop offset="0.55" stop-color="#C5A65D"/>
<stop offset="1" stop-color="#918657"/>
</radialGradient>
<radialGradient id="paint22_radial_0_1" cx="0" cy="0" r="1" gradientUnits="userSpaceOnUse" gradientTransform="translate(137.094 100.494) scale(1.14747 1.2278)">
<stop offset="0.55" stop-color="#C5A65D"/>
<stop offset="1" stop-color="#918657"/>
</radialGradient>
<radialGradient id="paint23_radial_0_1" cx="0" cy="0" r="1" gradientUnits="userSpaceOnUse" gradientTransform="translate(165.94 103.057) scale(1.14747 1.2278)">
<stop offset="0.55" stop-color="#C5A65D"/>
<stop offset="1" stop-color="#918657"/>
</radialGradient>
<radialGradient id="paint24_radial_0_1" cx="0" cy="0" r="1" gradientUnits="userSpaceOnUse" gradientTransform="translate(146.545 104.201) scale(1.14747 1.2278)">
<stop offset="0.55" stop-color="#C5A65D"/>
<stop offset="1" stop-color="#918657"/>
</radialGradient>
<radialGradient id="paint25_radial_0_1" cx="0" cy="0" r="1" gradientUnits="userSpaceOnUse" gradientTransform="translate(153.392 103.554) scale(1.14747 1.2278)">
<stop offset="0.55" stop-color="#C5A65D"/>
<stop offset="1" stop-color="#918657"/>
</radialGradient>
<radialGradient id="paint26_radial_0_1" cx="0" cy="0" r="1" gradientUnits="userSpaceOnUse" gradientTransform="translate(144.73 106.34) scale(0.536316 0.573862)">
<stop offset="0.55" stop-color="#C5A65D"/>
<stop offset="1" stop-color="#918657"/>
</radialGradient>
<radialGradient id="paint27_radial_0_1" cx="0" cy="0" r="1" gradientUnits="userSpaceOnUse" gradientTransform="translate(140.54 103.901) scale(0.74835 0.800741)">
<stop offset="0.55" stop-color="#C5A65D"/>
<stop offset="1" stop-color="#918657"/>
</radialGradient>
<linearGradient id="paint28_linear_0_1" x1="95.4765" y1="83.1024" x2="102.511" y2="112.597" gradientUnits="userSpaceOnUse">
<stop stop-color="#77786D"/>
<stop offset="1" stop-color="#C8A85D"/>
</linearGradient>
<linearGradient id="paint29_linear_0_1" x1="95.4765" y1="83.1024" x2="102.511" y2="112.597" gradientUnits="userSpaceOnUse">
<stop stop-color="#666B54"/>
<stop offset="0.4" stop-color="#77786D"/>
<stop offset="1" stop-color="#C8A85D"/>
</linearGradient>
<radialGradient id="paint30_radial_0_1" cx="0" cy="0" r="1" gradientUnits="userSpaceOnUse" gradientTransform="translate(97.6062 112.726) scale(22.2728 23.832)">
<stop stop-color="#666B54"/>
<stop offset="0.4" stop-color="#77786D"/>
<stop offset="1" stop-color="#C8A85D"/>
</radialGradient>
<radialGradient id="paint31_radial_0_1" cx="0" cy="0" r="1" gradientUnits="userSpaceOnUse" gradientTransform="translate(85.0401 109.099) scale(0.738997 0.790727)">
<stop offset="0.55" stop-color="#C5A65D"/>
<stop offset="1" stop-color="#918657"/>
</radialGradient>
<radialGradient id="paint32_radial_0_1" cx="0" cy="0" r="1" gradientUnits="userSpaceOnUse" gradientTransform="translate(86.3466 106.794) scale(0.57062 0.610562)">
<stop offset="0.55" stop-color="#C5A65D"/>
<stop offset="1" stop-color="#918657"/>
</radialGradient>
<radialGradient id="paint33_radial_0_1" cx="0" cy="0" r="1" gradientUnits="userSpaceOnUse" gradientTransform="translate(121.151 108.175) scale(0.570615 0.610562)">
<stop offset="0.55" stop-color="#C5A65D"/>
<stop offset="1" stop-color="#918657"/>
</radialGradient>
<radialGradient id="paint34_radial_0_1" cx="0" cy="0" r="1" gradientUnits="userSpaceOnUse" gradientTransform="translate(117.759 106.937) scale(0.885551 0.94754)">
<stop offset="0.55" stop-color="#C5A65D"/>
<stop offset="1" stop-color="#918657"/>
</radialGradient>
<radialGradient id="paint35_radial_0_1" cx="0" cy="0" r="1" gradientUnits="userSpaceOnUse" gradientTransform="translate(90.3627 102.49) scale(0.570615 0.610563)">
<stop offset="0.55" stop-color="#C5A65D"/>
<stop offset="1" stop-color="#918657"/>
</radialGradient>
<radialGradient id="paint36_radial_0_1" cx="0" cy="0" r="1" gradientUnits="userSpaceOnUse" gradientTransform="translate(115.866 102.973) scale(0.570619 0.610562)">
<stop offset="0.55" stop-color="#C5A65D"/>
<stop offset="1" stop-color="#918657"/>
</radialGradient>
<radialGradient id="paint37_radial_0_1" cx="0" cy="0" r="1" gradientUnits="userSpaceOnUse" gradientTransform="translate(102.321 110.397) scale(0.570615 0.610567)">
<stop offset="0.55" stop-color="#C5A65D"/>
<stop offset="1" stop-color="#918657"/>
</radialGradient>
<radialGradient id="paint38_radial_0_1" cx="0" cy="0" r="1" gradientUnits="userSpaceOnUse" gradientTransform="translate(92.7076 107.701) scale(0.570615 0.610562)">
<stop offset="0.55" stop-color="#C5A65D"/>
<stop offset="1" stop-color="#918657"/>
</radialGradient>
<radialGradient id="paint39_radial_0_1" cx="0" cy="0" r="1" gradientUnits="userSpaceOnUse" gradientTransform="translate(106.131 107.284) scale(0.570616 0.610562)">
<stop offset="0.55" stop-color="#C5A65D"/>
<stop offset="1" stop-color="#918657"/>
</radialGradient>
<radialGradient id="paint40_radial_0_1" cx="0" cy="0" r="1" gradientUnits="userSpaceOnUse" gradientTransform="translate(113.362 109.016) scale(0.570621 0.610562)">
<stop offset="0.55" stop-color="#C5A65D"/>
<stop offset="1" stop-color="#918657"/>
</radialGradient>
<radialGradient id="paint41_radial_0_1" cx="0" cy="0" r="1" gradientUnits="userSpaceOnUse" gradientTransform="translate(112.626 105.672) scale(0.735876 0.787396)">
<stop offset="0.55" stop-color="#C5A65D"/>
<stop offset="1" stop-color="#918657"/>
</radialGradient>
<radialGradient id="paint42_radial_0_1" cx="0" cy="0" r="1" gradientUnits="userSpaceOnUse" gradientTransform="translate(89.2153 106.29) scale(1.14747 1.2278)">
<stop offset="0.55" stop-color="#C5A65D"/>
<stop offset="1" stop-color="#918657"/>
</radialGradient>
<radialGradient id="paint43_radial_0_1" cx="0" cy="0" r="1" gradientUnits="userSpaceOnUse" gradientTransform="translate(118.376 102.016) scale(1.14747 1.2278)">
<stop offset="0.55" stop-color="#C5A65D"/>
<stop offset="1" stop-color="#918657"/>
</radialGradient>
<radialGradient id="paint44_radial_0_1" cx="0" cy="0" r="1" gradientUnits="userSpaceOnUse" gradientTransform="translate(109.383 108.659) scale(0.717168 0.767378)">
<stop offset="0.55" stop-color="#C5A65D"/>
<stop offset="1" stop-color="#918657"/>
</radialGradient>
<radialGradient id="paint45_radial_0_1" cx="0" cy="0" r="1" gradientUnits="userSpaceOnUse" gradientTransform="translate(99.0405 108.358) scale(0.826302 0.884146)">
<stop offset="0.55" stop-color="#C5A65D"/>
<stop offset="1" stop-color="#918657"/>
</radialGradient>
<radialGradient id="paint46_radial_0_1" cx="0" cy="0" r="1" gradientUnits="userSpaceOnUse" gradientTransform="translate(93.8831 109.626) scale(0.720287 0.770708)">
<stop offset="0.55" stop-color="#C5A65D"/>
<stop offset="1" stop-color="#918657"/>
</radialGradient>
</defs>
</svg>
