<svg width="24" height="24" viewBox="0 0 24 24" fill="none" xmlns="http://www.w3.org/2000/svg">
<path d="M19.7778 2H4.22222C3.63285 2 3.06762 2.23413 2.65087 2.65087C2.23413 3.06762 2 3.63285 2 4.22222V19.7778C2 20.3671 2.23413 20.9324 2.65087 21.3491C3.06762 21.7659 3.63285 22 4.22222 22H19.7778C20.3671 22 20.9324 21.7659 21.3491 21.3491C21.7659 20.9324 22 20.3671 22 19.7778V4.22222C22 3.63285 21.7659 3.06762 21.3491 2.65087C20.9324 2.23413 20.3671 2 19.7778 2ZM20.5 19.5C20.5 20.0523 20.0523 20.5 19.5 20.5H4.5C3.94772 20.5 3.5 20.0523 3.5 19.5V4.5C3.5 3.94772 3.94772 3.5 4.5 3.5H19.5C20.0523 3.5 20.5 3.94772 20.5 4.5V19.5ZM8.66667 16.5556C8.66667 17.1078 8.21895 17.5556 7.66667 17.5556H7.44445C6.89216 17.5556 6.44444 17.1078 6.44444 16.5556V13C6.44444 12.4477 6.89216 12 7.44444 12H7.66667C8.21895 12 8.66667 12.4477 8.66667 13V16.5556ZM13.1111 16.5556C13.1111 17.1078 12.6634 17.5556 12.1111 17.5556H11.8889C11.3366 17.5556 10.8889 17.1078 10.8889 16.5556V7.44444C10.8889 6.89216 11.3366 6.44444 11.8889 6.44444H12.1111C12.6634 6.44444 13.1111 6.89216 13.1111 7.44444V16.5556ZM17.5556 16.5556C17.5556 17.1078 17.1078 17.5556 16.5556 17.5556H16.3333C15.781 17.5556 15.3333 17.1078 15.3333 16.5556V10.7778C15.3333 10.2255 15.781 9.77778 16.3333 9.77778H16.5556C17.1078 9.77778 17.5556 10.2255 17.5556 10.7778V16.5556Z" fill="#1E1920"/>
</svg>
