<svg width="20" height="24" viewBox="0 0 20 24" fill="none" xmlns="http://www.w3.org/2000/svg">
<path d="M10 23.25C9.86719 23.2501 9.73673 23.2149 9.622 23.148L0.622 17.898C0.508767 17.8319 0.414832 17.7373 0.34956 17.6236C0.284289 17.5099 0.249961 17.3811 0.25 17.25V6.74998C0.249961 6.61888 0.284289 6.49005 0.34956 6.37636C0.414832 6.26266 0.508767 6.16805 0.622 6.10198L9.622 0.851978C9.73672 0.785032 9.86717 0.749756 10 0.749756C10.1328 0.749756 10.2633 0.785032 10.378 0.851978L19.378 6.10198L18.622 7.39798L10 2.36848L1.75 7.18048V16.8195L10 21.6322L18.25 16.8195V11.25H19.75V17.25C19.75 17.3811 19.7157 17.5099 19.6504 17.6236C19.5852 17.7373 19.4912 17.8319 19.378 17.898L10.378 23.148C10.2633 23.2149 10.1328 23.2501 10 23.25Z" fill="black"/>
</svg>
