<svg width="9" height="7" viewBox="0 0 9 7" fill="none" xmlns="http://www.w3.org/2000/svg">
<path d="M6.75 6.5H2.25C1.8523 6.4996 1.471 6.34144 1.18978 6.06022C0.90856 5.779 0.750397 5.3977 0.75 5V2C0.750397 1.6023 0.90856 1.221 1.18978 0.939779C1.471 0.65856 1.8523 0.500397 2.25 0.5H6.75C7.1477 0.500397 7.529 0.65856 7.81022 0.939779C8.09144 1.221 8.2496 1.6023 8.25 2V5C8.2496 5.3977 8.09144 5.779 7.81022 6.06022C7.529 6.34144 7.1477 6.4996 6.75 6.5ZM2.25 2V5H6.75V2H2.25Z" fill="black"/>
</svg>
