<svg width="381" height="120" viewBox="0 0 281 83" fill="none" xmlns="http://www.w3.org/2000/svg">
<path d="M96.9485 43.8942H99.5685C100.542 43.8942 101.395 43.7609 102.129 43.4942C102.875 43.2142 103.462 42.8142 103.889 42.2942C104.329 41.7742 104.549 41.1476 104.549 40.4142C104.549 39.6142 104.329 38.9542 103.889 38.4342C103.462 37.9009 102.875 37.5076 102.129 37.2542C101.395 36.9876 100.542 36.8542 99.5685 36.8542H94.4285V50.8542H99.9085C101.015 50.8542 101.975 50.7209 102.789 50.4542C103.602 50.1742 104.229 49.7476 104.669 49.1742C105.122 48.6009 105.349 47.8476 105.349 46.9142C105.349 46.2076 105.189 45.6076 104.869 45.1142C104.562 44.6076 104.149 44.1942 103.629 43.8742C103.109 43.5409 102.529 43.3009 101.889 43.1542C101.249 43.0076 100.589 42.9342 99.9085 42.9342H96.9485V44.7742H99.5285C99.8619 44.7742 100.162 44.8076 100.429 44.8742C100.709 44.9276 100.955 45.0209 101.169 45.1542C101.382 45.2876 101.549 45.4609 101.669 45.6742C101.789 45.8876 101.849 46.1409 101.849 46.4342C101.849 46.8876 101.742 47.2476 101.529 47.5142C101.329 47.7676 101.055 47.9542 100.709 48.0742C100.362 48.1809 99.9685 48.2342 99.5285 48.2342H97.8085V39.4742H99.2085C99.7952 39.4742 100.249 39.5942 100.569 39.8342C100.889 40.0742 101.049 40.4342 101.049 40.9142C101.049 41.2342 100.975 41.5076 100.829 41.7342C100.682 41.9476 100.469 42.1142 100.189 42.2342C99.9219 42.3542 99.5952 42.4142 99.2085 42.4142H96.9485V43.8942ZM107.27 46.2542C107.27 47.2142 107.496 48.0542 107.95 48.7742C108.403 49.4942 109.03 50.0542 109.83 50.4542C110.63 50.8542 111.53 51.0542 112.53 51.0542C113.53 51.0542 114.423 50.8542 115.21 50.4542C116.01 50.0542 116.636 49.4942 117.09 48.7742C117.556 48.0542 117.79 47.2142 117.79 46.2542C117.79 45.2809 117.556 44.4342 117.09 43.7142C116.636 42.9942 116.01 42.4342 115.21 42.0342C114.423 41.6342 113.53 41.4342 112.53 41.4342C111.53 41.4342 110.63 41.6342 109.83 42.0342C109.03 42.4342 108.403 42.9942 107.95 43.7142C107.496 44.4342 107.27 45.2809 107.27 46.2542ZM110.37 46.2542C110.37 45.7742 110.47 45.3609 110.67 45.0142C110.87 44.6676 111.13 44.4009 111.45 44.2142C111.77 44.0276 112.13 43.9342 112.53 43.9342C112.916 43.9342 113.27 44.0276 113.59 44.2142C113.923 44.4009 114.183 44.6676 114.37 45.0142C114.57 45.3609 114.67 45.7742 114.67 46.2542C114.67 46.7342 114.57 47.1476 114.37 47.4942C114.183 47.8276 113.923 48.0876 113.59 48.2742C113.27 48.4609 112.916 48.5542 112.53 48.5542C112.13 48.5542 111.77 48.4609 111.45 48.2742C111.13 48.0876 110.87 47.8276 110.67 47.4942C110.47 47.1476 110.37 46.7342 110.37 46.2542ZM120.507 47.5142L119.247 49.5142C119.66 49.8342 120.107 50.1276 120.587 50.3942C121.067 50.6476 121.587 50.8476 122.147 50.9942C122.72 51.1542 123.34 51.2342 124.007 51.2342C125.1 51.2342 125.947 50.9876 126.547 50.4942C127.16 49.9876 127.467 49.2409 127.467 48.2542C127.467 47.6809 127.34 47.2209 127.087 46.8742C126.847 46.5276 126.52 46.2409 126.107 46.0142C125.707 45.7876 125.267 45.5876 124.787 45.4142C124.333 45.2409 123.947 45.1009 123.627 44.9942C123.32 44.8742 123.08 44.7476 122.907 44.6142C122.747 44.4809 122.667 44.3142 122.667 44.1142C122.667 43.9409 122.733 43.8009 122.867 43.6942C123.013 43.5876 123.227 43.5342 123.507 43.5342C123.92 43.5342 124.373 43.6542 124.867 43.8942C125.36 44.1209 125.8 44.4142 126.187 44.7742L127.267 42.8142C126.907 42.5476 126.52 42.3142 126.107 42.1142C125.707 41.9142 125.273 41.7542 124.807 41.6342C124.353 41.5142 123.86 41.4542 123.327 41.4542C122.66 41.4542 122.067 41.5542 121.547 41.7542C121.04 41.9542 120.633 42.2476 120.327 42.6342C120.033 43.0209 119.887 43.4942 119.887 44.0542C119.887 44.6409 120.013 45.1209 120.267 45.4942C120.52 45.8676 120.84 46.1676 121.227 46.3942C121.627 46.6076 122.047 46.7942 122.487 46.9542C122.98 47.1009 123.367 47.2409 123.647 47.3742C123.94 47.5076 124.147 47.6476 124.267 47.7942C124.387 47.9276 124.447 48.0942 124.447 48.2942C124.447 48.5076 124.373 48.6809 124.227 48.8142C124.08 48.9476 123.853 49.0142 123.547 49.0142C123.333 49.0142 123.08 48.9742 122.787 48.8942C122.493 48.8009 122.153 48.6476 121.767 48.4342C121.393 48.2076 120.973 47.9009 120.507 47.5142ZM128.448 41.6542V44.1542H134.608V41.6542H128.448ZM130.068 38.4542V50.8542H132.968V38.4542H130.068ZM135.755 46.2542C135.755 47.2142 135.982 48.0542 136.435 48.7742C136.888 49.4942 137.515 50.0542 138.315 50.4542C139.115 50.8542 140.015 51.0542 141.015 51.0542C142.015 51.0542 142.908 50.8542 143.695 50.4542C144.495 50.0542 145.122 49.4942 145.575 48.7742C146.042 48.0542 146.275 47.2142 146.275 46.2542C146.275 45.2809 146.042 44.4342 145.575 43.7142C145.122 42.9942 144.495 42.4342 143.695 42.0342C142.908 41.6342 142.015 41.4342 141.015 41.4342C140.015 41.4342 139.115 41.6342 138.315 42.0342C137.515 42.4342 136.888 42.9942 136.435 43.7142C135.982 44.4342 135.755 45.2809 135.755 46.2542ZM138.855 46.2542C138.855 45.7742 138.955 45.3609 139.155 45.0142C139.355 44.6676 139.615 44.4009 139.935 44.2142C140.255 44.0276 140.615 43.9342 141.015 43.9342C141.402 43.9342 141.755 44.0276 142.075 44.2142C142.408 44.4009 142.668 44.6676 142.855 45.0142C143.055 45.3609 143.155 45.7742 143.155 46.2542C143.155 46.7342 143.055 47.1476 142.855 47.4942C142.668 47.8276 142.408 48.0876 142.075 48.2742C141.755 48.4609 141.402 48.5542 141.015 48.5542C140.615 48.5542 140.255 48.4609 139.935 48.2742C139.615 48.0876 139.355 47.8276 139.155 47.4942C138.955 47.1476 138.855 46.7342 138.855 46.2542ZM154.472 45.2542V50.8542H157.612V44.9342C157.612 43.8276 157.352 42.9676 156.832 42.3542C156.312 41.7409 155.478 41.4342 154.332 41.4342C153.652 41.4342 153.078 41.5742 152.612 41.8542C152.158 42.1342 151.798 42.5276 151.532 43.0342V41.6542H148.492V50.8542H151.532V45.2542C151.532 44.8942 151.598 44.5876 151.732 44.3342C151.865 44.0809 152.052 43.8876 152.292 43.7542C152.532 43.6209 152.812 43.5542 153.132 43.5542C153.612 43.5542 153.952 43.7009 154.152 43.9942C154.365 44.2876 154.472 44.7076 154.472 45.2542ZM160.396 35.2542V50.8542H163.436V35.2542H160.396ZM166.006 38.1942C166.006 38.6742 166.18 39.0676 166.526 39.3742C166.873 39.6809 167.286 39.8342 167.766 39.8342C168.26 39.8342 168.673 39.6809 169.006 39.3742C169.353 39.0676 169.526 38.6742 169.526 38.1942C169.526 37.7142 169.353 37.3276 169.006 37.0342C168.673 36.7276 168.26 36.5742 167.766 36.5742C167.286 36.5742 166.873 36.7276 166.526 37.0342C166.18 37.3276 166.006 37.7142 166.006 38.1942ZM166.306 41.6542V50.8542H169.226V41.6542H166.306ZM179.094 55.2542H182.114V41.6542H179.094V55.2542ZM171.574 46.2542C171.574 47.3209 171.78 48.2209 172.194 48.9542C172.62 49.6876 173.167 50.2409 173.834 50.6142C174.5 50.9876 175.207 51.1742 175.954 51.1742C176.767 51.1742 177.46 50.9742 178.034 50.5742C178.607 50.1609 179.047 49.5876 179.354 48.8542C179.66 48.1076 179.814 47.2409 179.814 46.2542C179.814 45.2542 179.66 44.3876 179.354 43.6542C179.047 42.9209 178.607 42.3542 178.034 41.9542C177.46 41.5409 176.767 41.3342 175.954 41.3342C175.207 41.3342 174.5 41.5209 173.834 41.8942C173.167 42.2676 172.62 42.8209 172.194 43.5542C171.78 44.2742 171.574 45.1742 171.574 46.2542ZM174.754 46.2542C174.754 45.7742 174.854 45.3676 175.054 45.0342C175.254 44.7009 175.52 44.4476 175.854 44.2742C176.187 44.1009 176.554 44.0142 176.954 44.0142C177.3 44.0142 177.634 44.1009 177.954 44.2742C178.287 44.4342 178.56 44.6809 178.774 45.0142C178.987 45.3476 179.094 45.7609 179.094 46.2542C179.094 46.7476 178.987 47.1609 178.774 47.4942C178.56 47.8276 178.287 48.0809 177.954 48.2542C177.634 48.4142 177.3 48.4942 176.954 48.4942C176.554 48.4942 176.187 48.4076 175.854 48.2342C175.52 48.0609 175.254 47.8076 175.054 47.4742C174.854 47.1409 174.754 46.7342 174.754 46.2542ZM185.157 36.8542V50.8542H194.157V47.9542H188.537V36.8542H185.157ZM196.124 36.8542V50.8542H199.564V36.8542H196.124ZM208.79 45.2142L205.37 36.8542H201.43L208.79 51.7342L216.17 36.8542H212.21L208.79 45.2142ZM220.277 50.8542H227.337V48.0742H220.277V50.8542ZM220.277 39.6342H227.337V36.8542H220.277V39.6342ZM220.277 44.8542H226.937V42.1342H220.277V44.8542ZM218.037 36.8542V50.8542H221.277V36.8542H218.037Z" fill="#1C9E3C"/>
<g clip-path="url(#clip0_0_1)">
<path d="M15 58.3641C15 58.4607 15.079 58.5533 15.2197 58.6216C15.3603 58.6898 15.5511 58.7282 15.75 58.7282H17.25C17.4489 58.7282 17.6397 58.6898 17.7803 58.6216C17.921 58.5533 18 58.4607 18 58.3641V53.9952C18 53.8986 17.921 53.806 17.7803 53.7377C17.6397 53.6695 17.4489 53.6311 17.25 53.6311H15.75C15.5511 53.6311 15.3603 53.6695 15.2197 53.7377C15.079 53.806 15 53.8986 15 53.9952V58.3641ZM11.25 58.7282C11.0511 58.7282 10.8603 58.6898 10.7197 58.6216C10.579 58.5533 10.5 58.4607 10.5 58.3641V55.4515C10.5 55.3549 10.579 55.2623 10.7197 55.194C10.8603 55.1258 11.0511 55.0874 11.25 55.0874H12.75C12.9489 55.0874 13.1397 55.1258 13.2803 55.194C13.421 55.2623 13.5 55.3549 13.5 55.4515V58.3641C13.5 58.4607 13.421 58.5533 13.2803 58.6216C13.1397 58.6898 12.9489 58.7282 12.75 58.7282H11.25ZM6.75 58.7282C6.55109 58.7282 6.36032 58.6898 6.21967 58.6216C6.07902 58.5533 6 58.4607 6 58.3641V56.9078C6 56.8112 6.07902 56.7186 6.21967 56.6504C6.36032 56.5821 6.55109 56.5437 6.75 56.5437H8.25C8.44891 56.5437 8.63968 56.5821 8.78033 56.6504C8.92098 56.7186 9 56.8112 9 56.9078V58.3641C9 58.4607 8.92098 58.5533 8.78033 58.6216C8.63968 58.6898 8.44891 58.7282 8.25 58.7282H6.75Z" fill="#FFFAFA"/>
<path d="M21 58.7281V51.8106L14.25 48.5339H6C5.20435 48.5339 4.44129 48.6874 3.87868 48.9605C3.31607 49.2336 3 49.604 3 49.9902V58.7281C3 59.1143 3.31607 59.4848 3.87868 59.7579C4.44129 60.031 5.20435 60.1844 6 60.1844H18C18.7956 60.1844 19.5587 60.031 20.1213 59.7579C20.6839 59.4848 21 59.1143 21 58.7281ZM14.25 50.7184C14.25 51.0081 14.4871 51.2859 14.909 51.4907C15.331 51.6956 15.9033 51.8106 16.5 51.8106H19.5V58.7281C19.5 58.9212 19.342 59.1064 19.0607 59.243C18.7794 59.3795 18.3978 59.4563 18 59.4563H6C5.60218 59.4563 5.22064 59.3795 4.93934 59.243C4.65804 59.1064 4.5 58.9212 4.5 58.7281V49.9902C4.5 49.7971 4.65804 49.6119 4.93934 49.4754C5.22064 49.3388 5.60218 49.2621 6 49.2621H14.25V50.7184Z" fill="#FFFAFA"/>
</g>
<path d="M48.9666 35.5171C48.8479 41.3313 45.7513 46.6879 39.9788 50.5157C38.3636 51.6195 36.6538 52.5777 34.8695 53.3792C32.7403 54.2725 30.5527 55.0197 28.3219 55.6154C26.0911 56.2321 23.7992 56.627 21.5317 57.1057C21.2586 57.1474 20.9814 57.1568 20.7061 57.1336C20.034 57.1109 19.6902 56.7266 19.6745 56.0854C19.6588 55.4442 19.9642 55.0092 20.5944 54.8956C21.5527 54.7209 22.5302 54.6441 23.4833 54.4449C25.0386 54.1164 26.5781 53.7233 28.1247 53.3582C28.1491 53.3582 28.1701 53.3355 28.1945 53.3285C29.7236 52.7939 29.7341 52.7921 29.4461 51.2006C28.7845 47.5527 28.479 43.8821 28.8927 40.1852C29.3553 36.0499 30.736 32.3024 33.7122 29.2712C35.4787 27.4718 37.5839 26.1615 39.8915 25.1918C41.5183 24.5087 43.1853 23.9252 44.8366 23.3032C45.6536 22.9957 46.0917 23.1809 46.5089 24.037C48.0973 27.2831 48.9422 30.7108 48.9666 35.5171ZM34.3581 50.9892C34.7805 50.8826 35.0196 50.8686 35.2134 50.7673C38.6242 48.9905 41.7226 46.8433 43.9324 43.5885C45.1196 41.8766 45.9457 39.9404 46.3605 37.8983C46.844 35.4524 46.9104 32.9558 46.3465 30.5082C46.0166 29.0791 45.5017 27.6936 45.0566 26.2942C44.9431 25.9448 44.786 25.6513 44.2973 25.8662C42.5517 26.6367 40.7416 27.2848 39.0466 28.1566C34.5169 30.4872 32.047 34.3133 31.2719 39.2977C30.7762 42.4809 30.9577 45.6623 31.3191 48.8403C31.3976 49.5391 31.5634 50.2257 31.7258 51.1272C32.2494 50.5105 32.6684 50.0789 33.021 49.6072C33.693 48.7005 34.6443 48.0139 34.0578 46.5184C33.2304 44.4079 33.3317 42.1105 33.6197 39.8882C33.8169 38.3595 34.2638 36.8588 34.6531 35.3598C34.8154 34.7326 35.4089 34.4042 35.8226 34.5928C36.3463 34.827 36.5034 35.3808 36.2642 35.9905C35.6127 37.6261 35.2581 39.3649 35.2169 41.1252C35.1855 42.6643 35.0982 44.2157 35.6358 45.8056C35.8104 45.6309 35.9727 45.547 36.0443 45.4125C36.835 43.938 37.6484 42.4757 38.3711 40.9697C38.626 40.4456 38.9192 39.6926 38.7359 39.2226C37.9173 37.1593 38.1459 35.0873 38.406 32.9943C38.4706 32.4701 38.708 32.0526 39.3277 32.1504C39.895 32.2395 40.1114 32.6483 40.0643 33.1987C39.991 34.0495 39.8897 34.8986 39.8286 35.7512C39.8283 35.9939 39.847 36.2363 39.8845 36.4762L40.1219 36.5094C40.2092 36.298 40.2965 36.0901 40.3802 35.8752C40.8707 34.509 41.3717 33.1445 41.8413 31.7713C42.0647 31.1214 42.5884 31.0865 43.0544 31.2472C43.5624 31.4219 43.5676 31.9355 43.4035 32.3985C42.6215 34.5911 41.8465 36.7872 41.0366 38.9693C40.6421 40.0332 40.1743 41.0658 39.7414 42.114L39.8862 42.2538C40.2501 41.9945 40.5965 41.7114 40.9231 41.4064C41.3665 40.9417 41.7103 40.3687 42.1904 39.9494C42.3981 39.7747 42.9567 39.71 43.1469 39.8603C43.3878 40.0525 43.6252 40.6447 43.4961 40.8352C42.351 42.6399 40.8638 44.062 38.7673 44.7416C38.4794 44.8551 38.2323 45.053 38.0586 45.3094C36.9101 46.9429 35.7894 48.5922 34.6601 50.2449C34.5378 50.4836 34.4367 50.7327 34.3581 50.9892Z" fill="url(#paint0_linear_0_1)"/>
<path d="M58.7453 35.6953C58.8536 38.5321 58.4848 41.3669 57.6543 44.0813C56.2578 48.7337 53.6098 52.5581 49.9983 55.7448C48.159 57.3573 46.1302 58.7395 43.9569 59.8609C42.272 60.762 40.5363 61.5647 38.7586 62.2649C36.8385 62.9969 34.8661 63.5752 32.8866 64.1185C30.9071 64.6618 28.8997 65.0759 26.9063 65.5511C25.7752 65.8219 25.3964 65.2576 25.2707 64.5326C25.1573 63.8739 25.8642 63.3498 26.6846 63.203C28.2207 62.9305 29.7551 62.6178 31.258 62.2037C33.4958 61.5835 35.7266 60.9214 37.919 60.1596C39.2484 59.6843 40.5364 59.1 41.7697 58.4126C43.4332 57.5023 45.0706 56.531 46.6398 55.4687C49.0644 53.8282 51.0177 51.6898 52.6986 49.305C54.0264 47.3987 55.0292 45.2852 55.6661 43.0505C56.4743 40.2884 56.6576 37.4249 56.5022 34.5527C56.3395 31.2187 55.6636 27.9299 54.4983 24.8023C54.3728 24.4469 54.2827 24.08 54.2295 23.7069C54.1282 23.1024 54.5123 22.7442 54.994 22.5608C55.4758 22.3773 55.9785 22.5084 56.1898 23.0342C56.6258 24.0664 57.0091 25.1201 57.3383 26.1912C58.246 29.4076 58.8831 32.6799 58.7453 35.6953Z" fill="url(#paint1_linear_0_1)"/>
<path d="M53.9118 35.1328C53.7687 40.1801 52.6742 43.9712 50.384 47.3973C48.649 49.9934 46.4513 52.1144 43.9045 53.9069C40.9703 55.9771 37.7776 57.5023 34.4105 58.6886C32.6213 59.3176 30.8286 59.9465 28.9992 60.4479C27.2188 60.9388 25.3964 61.2865 23.588 61.6604C22.7275 61.8351 22.1026 61.4315 22.017 60.7257C21.921 59.9587 22.4342 59.4765 23.3157 59.3018C25.0438 58.9612 26.7684 58.5925 28.4703 58.147C30.284 57.6718 32.0959 57.1634 33.8624 56.538C35.3199 56.0138 36.7233 55.3412 38.125 54.6808C40.4973 53.5828 42.7051 52.1592 44.6848 50.4511C47.3468 48.1223 49.4502 45.334 50.604 41.9184C51.7124 38.6357 51.8259 35.2987 51.3231 31.8937C50.9287 29.1945 50.0349 26.6525 49.0539 24.1384C48.8218 23.5409 48.4482 23.0011 48.1811 22.4175C47.9542 21.9354 47.7709 21.4304 48.2073 20.9483C48.9213 20.1586 49.6893 20.2145 50.1606 21.1963C51.5361 24.0703 52.7615 27.0124 53.2921 30.1746C53.6116 32.1261 53.7844 34.1002 53.9118 35.1328Z" fill="url(#paint2_linear_0_1)"/>
<path d="M68.1433 34.4497C68.0682 35.0437 68.2341 35.7198 67.5114 36.0221C66.6142 36.3995 65.909 35.8683 65.8042 34.7991C65.6297 32.9752 65.4988 31.1442 65.2509 29.3308C64.7604 25.7493 63.9522 22.2376 62.4109 18.9479C60.7666 15.438 58.5794 12.3579 55.4287 9.97667C51.9969 7.38925 48.1899 6.41088 43.9639 6.6677C41.4739 6.8083 39.0186 7.31757 36.6779 8.17892C34.6583 8.92842 32.6631 9.73207 30.6645 10.5427C29.9191 10.8467 29.1633 10.7332 28.8823 10.1846C28.4948 9.42634 28.7199 8.96161 29.6521 8.49689C32.0234 7.32578 34.4974 6.37545 37.0427 5.65789C40.0503 4.80532 43.1068 4.20782 46.268 4.34409C48.1749 4.44481 50.0568 4.82446 51.8538 5.47095C55.214 6.63101 57.9056 8.72925 60.2324 11.3132C62.5593 13.8971 64.3502 16.8392 65.3556 20.1778C66.1499 22.8089 66.8341 25.4855 67.3735 28.1795C67.7837 30.234 67.8972 32.355 68.1433 34.4497Z" fill="url(#paint3_linear_0_1)"/>
<path d="M44.6446 9.25854C49.6422 9.32493 53.4998 11.3323 56.6261 14.8597C60.0195 18.691 61.6027 23.3295 62.4894 28.2598C62.7635 29.7867 62.9485 31.3329 63.1405 32.8755C63.2522 33.763 62.8176 34.413 62.1386 34.4811C61.4596 34.5492 60.9324 33.9028 60.8678 32.9996C60.6665 30.025 60.1049 27.0858 59.1956 24.2467C58.0208 20.625 56.2421 17.3248 53.3427 14.7461C52.051 13.5955 50.5381 12.721 48.8968 12.1762C46.6485 11.4214 44.3444 11.3515 42.042 11.7708C40.066 12.1325 38.0709 12.5081 36.1665 13.1336C33.8972 13.8796 31.7659 15.0064 29.7393 16.308C27.652 17.6539 25.7201 19.2272 23.979 20.9989C23.8801 21.1088 23.7603 21.1979 23.6267 21.2611C23.4931 21.3242 23.3482 21.3602 23.2006 21.3668C23.053 21.3735 22.9055 21.3507 22.7667 21.2999C22.628 21.249 22.5007 21.1711 22.3923 21.0705C21.8913 20.5691 21.7971 19.9594 22.3312 19.4754C23.9371 18.0201 25.5256 16.5229 27.2729 15.2493C28.7967 14.1381 30.4986 13.2576 32.1726 12.3701C33.899 11.4529 35.7615 10.8816 37.6362 10.3103C40.0119 9.58874 42.44 9.49265 44.6446 9.25854Z" fill="url(#paint4_linear_0_1)"/>
<path d="M63.2505 38.4381C62.9922 42.7534 62.2433 47.1194 60.1085 51.1918C57.6997 55.7988 54.1352 59.2493 49.8097 61.9975C46.8718 63.8958 43.7096 65.4216 40.396 66.5399C38.4043 67.1985 36.4213 67.8834 34.4262 68.5263C33.693 68.7544 32.9477 68.9411 32.1936 69.0854C31.539 69.2164 31.3208 68.6696 31.1463 68.2223C31.1017 68.0849 31.0849 67.94 31.0969 67.7961C31.1088 67.6521 31.1493 67.512 31.2159 67.3839C31.2825 67.2557 31.374 67.1422 31.4849 67.0497C31.5958 66.9573 31.724 66.8879 31.8619 66.8456C33.6407 66.3215 35.4473 65.8917 37.1999 65.2925C39.1392 64.6268 41.0401 63.8354 42.9357 63.0579C43.962 62.6628 44.9604 62.1988 45.9241 61.669C50.0855 59.2755 53.9537 56.5256 56.7117 52.4724C58.7175 49.5597 60.0142 46.2175 60.4978 42.7132C60.7474 40.8998 60.8748 39.0671 60.9778 37.2379C61.0406 36.118 61.8733 35.6463 62.6483 36.0429C62.7879 36.1286 62.9091 36.2411 63.005 36.3739C63.1008 36.5068 63.1695 36.6573 63.2069 36.8169C63.3221 37.2798 63.2505 37.7708 63.2505 38.4381Z" fill="url(#paint5_linear_0_1)"/>
<path d="M54.7985 19.9594C54.5472 20.2372 54.3063 20.6722 53.9397 20.8626C53.5051 21.0897 53.025 20.9517 52.7021 20.4818C52.2081 19.7637 51.7595 18.995 51.1625 18.3713C50.0489 17.2077 48.6105 16.6242 47.0256 16.3988C46.3134 16.2993 45.5768 16.0582 44.8925 16.1577C43.1934 16.3755 41.5126 16.7177 39.8636 17.1815C38.2376 17.6905 36.6522 18.3212 35.1209 19.0684C32.5194 20.2934 30.2011 22.0468 28.3132 24.217C26.4385 26.3589 25.2306 28.9044 23.8114 31.3276C22.7205 33.1848 21.3677 34.8357 19.383 35.7984C18.7528 36.1024 18.0127 36.2055 17.3092 36.3225C16.6058 36.4396 16.1991 36.0465 16.1327 35.3738C16.0896 35.0807 16.1639 34.7824 16.3395 34.5439C16.515 34.3054 16.7776 34.1459 17.0701 34.1002C19.5401 33.6949 20.8457 31.9391 21.9577 29.9736C23.677 26.9093 25.3423 23.8204 27.91 21.3396C29.8835 19.3976 32.1939 17.8317 34.7281 16.7186C36.1089 16.1193 37.4739 15.4537 38.9053 15.0082C41.9093 14.0752 44.9693 13.5616 48.1218 14.2779C51.0159 14.9365 53.2066 16.4932 54.5227 19.1977C54.61 19.3829 54.6606 19.5768 54.7985 19.9594Z" fill="url(#paint6_linear_0_1)"/>
<path d="M68.0874 39.7503C67.9468 44.8815 66.6052 49.908 64.1704 54.4258C62.5867 57.3996 60.5277 60.0943 58.0749 62.4029C55.6486 64.6916 52.9517 66.6571 49.8848 68.0338C48.1078 68.8322 46.3117 69.6061 44.4928 70.2945C43.5711 70.6439 42.5831 70.8308 41.6144 71.0422C40.8944 71.1977 40.1658 71.3097 39.4324 71.3777C38.7866 71.4371 38.5596 70.9514 38.5265 70.4342C38.4985 69.8909 38.715 69.4192 39.3207 69.2567C40.6822 68.8898 42.035 68.4845 43.407 68.163C45.6606 67.6389 47.736 66.6553 49.7539 65.5809C52.6082 64.0481 55.205 62.0774 57.45 59.7404C59.6006 57.5233 61.4212 55.0844 62.6867 52.2839C63.5996 50.2625 64.4759 48.1765 64.9699 46.0258C65.4936 43.7302 65.5791 41.3279 65.8008 38.9659C65.9003 37.9176 66.1673 37.5298 67.0384 37.542C67.7366 37.5525 68.0717 37.8914 68.0857 38.6147C68.0927 38.9956 68.0874 39.373 68.0874 39.7503Z" fill="url(#paint7_linear_0_1)"/>
<path d="M45.2154 18.761C46.0568 18.7732 46.4897 19.0807 46.5647 19.7551C46.6398 20.4294 46.2855 20.7893 45.5611 20.9518C42.4383 21.6507 39.3521 22.5242 36.5365 24.0476C33.7765 25.4996 31.4612 27.6731 29.8371 30.3371C28.5646 32.4458 27.3392 34.5825 26.0196 36.6615C24.8665 38.5309 23.1304 39.9682 21.0796 40.7514C19.9328 41.1882 18.7022 41.4276 17.489 41.6547C16.6669 41.8102 16.0926 41.3158 16.0594 40.6064C16.0297 39.8762 16.5272 39.4446 17.3407 39.3415C18.7238 39.1717 20.0601 38.7312 21.2734 38.0452C23.5269 36.7856 24.6999 34.7013 25.8328 32.5978C27.793 28.9587 30.0326 25.5676 33.5324 23.2352C35.3967 21.9931 37.3727 20.9186 39.5651 20.3176C41.0401 19.9141 42.4959 19.4441 43.9639 19.0213C44.3776 18.9112 44.8 18.8483 45.2154 18.761Z" fill="url(#paint8_linear_0_1)"/>
<path d="M45.376 0.121338C47.9805 0.122432 50.5708 0.503817 53.0652 1.25344C55.6838 2.01015 58.1196 3.29628 60.222 5.03237C61.1297 5.78536 61.8907 6.72529 62.678 7.6163C63.1301 8.12819 63.1179 8.99125 62.7373 9.33193C62.2695 9.74773 61.409 9.66387 60.9412 9.06987C59.6541 7.43178 58.0589 6.0619 56.2456 5.03761C54.6292 4.12214 52.8889 3.53513 51.0788 3.05817C48.6053 2.40477 46.1231 2.49387 43.6252 2.53405C43.0038 2.53405 42.3859 2.68081 41.7627 2.70876C40.9982 2.73496 40.6229 2.3873 40.5688 1.69021C40.5501 1.54004 40.5626 1.38763 40.6055 1.24252C40.6484 1.09741 40.7208 0.962739 40.8182 0.846942C40.9155 0.731144 41.0357 0.636717 41.1712 0.569578C41.3067 0.50244 41.4546 0.464037 41.6056 0.456776C43.0737 0.296045 44.5452 0.192968 45.376 0.121338Z" fill="url(#paint9_linear_0_1)"/>
<path d="M25.6181 43.4575C26.0283 43.91 26.531 44.2891 26.2343 45.0159C25.9742 45.6466 25.3859 45.7794 24.8588 45.9174C22.5896 46.5062 20.3203 47.039 17.9359 46.9097C17.2831 46.8731 16.6896 46.4555 16.7053 45.8231C16.7175 45.2465 17.0823 44.8307 17.7212 44.7573C18.3915 44.6805 19.0635 44.6263 19.7268 44.511C21.2629 44.2472 22.7938 43.9502 24.3264 43.6707C24.7453 43.5955 25.1555 43.5326 25.6181 43.4575Z" fill="url(#paint10_linear_0_1)"/>
<path d="M17.1172 29.4828C17.3058 27.8265 17.9272 26.0969 18.8628 24.4774C19.163 23.9533 19.5087 23.4693 19.8106 22.9539C20.2296 22.2411 20.9068 21.9179 21.4462 22.1992C21.9402 22.4578 22.113 23.3628 21.7552 24.0336C21.2978 24.8914 20.7218 25.6951 20.3483 26.5844C19.9065 27.6894 19.5334 28.8208 19.2311 29.9719C18.9902 30.8245 18.7598 31.0202 17.7858 30.9031C17.2674 30.8402 17.1068 30.5537 17.1172 29.4828Z" fill="url(#paint11_linear_0_1)"/>
<path d="M19.4772 52.1284C19.1578 51.9852 18.5922 51.8716 18.2554 51.5309C18.0389 51.3108 18.0267 50.7011 18.1663 50.3726C18.2903 50.0861 18.7371 49.8188 19.074 49.7646C20.8894 49.4781 22.7152 49.2667 24.5359 49.0099C24.974 48.9487 25.3982 48.7915 25.8345 48.7234C26.552 48.6116 26.9308 49.0466 27.0442 49.6668C27.1507 50.2468 26.8697 50.6976 26.2657 50.8391C24.9461 51.1501 23.6247 51.4628 22.2946 51.7266C21.4427 51.8943 20.5734 51.9747 19.4772 52.1284Z" fill="url(#paint12_linear_0_1)"/>
<defs>
<linearGradient id="paint0_linear_0_1" x1="19.678" y1="40.152" x2="48.9666" y2="40.152" gradientUnits="userSpaceOnUse">
<stop stop-color="#DEB373"/>
<stop offset="0.22" stop-color="#D39C45"/>
<stop offset="0.5" stop-color="#C5810E"/>
<stop offset="0.59" stop-color="#BF7C10"/>
<stop offset="1" stop-color="#A86518"/>
</linearGradient>
<linearGradient id="paint1_linear_0_1" x1="25.2585" y1="44.0446" x2="58.7645" y2="44.0446" gradientUnits="userSpaceOnUse">
<stop stop-color="#56AE31"/>
<stop offset="0.38" stop-color="#009540"/>
<stop offset="1" stop-color="#005321"/>
</linearGradient>
<linearGradient id="paint2_linear_0_1" x1="22.0031" y1="41.0519" x2="53.9118" y2="41.0519" gradientUnits="userSpaceOnUse">
<stop stop-color="#56AE31"/>
<stop offset="0.38" stop-color="#009540"/>
<stop offset="1" stop-color="#005321"/>
</linearGradient>
<linearGradient id="paint3_linear_0_1" x1="28.6937" y1="20.2303" x2="68.1433" y2="20.2303" gradientUnits="userSpaceOnUse">
<stop stop-color="#56AE31"/>
<stop offset="0.38" stop-color="#009540"/>
<stop offset="1" stop-color="#005321"/>
</linearGradient>
<linearGradient id="paint4_linear_0_1" x1="21.9734" y1="21.8724" x2="63.158" y2="21.8724" gradientUnits="userSpaceOnUse">
<stop stop-color="#56AE31"/>
<stop offset="0.38" stop-color="#009540"/>
<stop offset="1" stop-color="#005321"/>
</linearGradient>
<linearGradient id="paint5_linear_0_1" x1="31.1026" y1="52.5091" x2="63.2732" y2="52.5091" gradientUnits="userSpaceOnUse">
<stop stop-color="#56AE31"/>
<stop offset="0.38" stop-color="#009540"/>
<stop offset="1" stop-color="#005321"/>
</linearGradient>
<linearGradient id="paint6_linear_0_1" x1="16.1205" y1="25.1482" x2="54.7985" y2="25.1482" gradientUnits="userSpaceOnUse">
<stop stop-color="#56AE31"/>
<stop offset="0.38" stop-color="#009540"/>
<stop offset="1" stop-color="#005321"/>
</linearGradient>
<linearGradient id="paint7_linear_0_1" x1="38.5247" y1="54.466" x2="68.0892" y2="54.466" gradientUnits="userSpaceOnUse">
<stop stop-color="#56AE31"/>
<stop offset="0.38" stop-color="#009540"/>
<stop offset="1" stop-color="#005321"/>
</linearGradient>
<linearGradient id="paint8_linear_0_1" x1="16.0647" y1="30.2218" x2="46.5735" y2="30.2218" gradientUnits="userSpaceOnUse">
<stop stop-color="#56AE31"/>
<stop offset="0.38" stop-color="#009540"/>
<stop offset="1" stop-color="#005321"/>
</linearGradient>
<linearGradient id="paint9_linear_0_1" x1="40.5635" y1="4.85592" x2="63.0201" y2="4.85592" gradientUnits="userSpaceOnUse">
<stop stop-color="#56AE31"/>
<stop offset="0.38" stop-color="#009540"/>
<stop offset="1" stop-color="#005321"/>
</linearGradient>
<linearGradient id="paint10_linear_0_1" x1="16.7035" y1="45.1924" x2="26.3233" y2="45.1924" gradientUnits="userSpaceOnUse">
<stop stop-color="#56AE31"/>
<stop offset="0.38" stop-color="#009540"/>
<stop offset="1" stop-color="#005321"/>
</linearGradient>
<linearGradient id="paint11_linear_0_1" x1="17.1172" y1="26.5162" x2="21.9507" y2="26.5162" gradientUnits="userSpaceOnUse">
<stop stop-color="#56AE31"/>
<stop offset="0.38" stop-color="#009540"/>
<stop offset="1" stop-color="#005321"/>
</linearGradient>
<linearGradient id="paint12_linear_0_1" x1="18.0738" y1="50.4163" x2="27.0669" y2="50.4163" gradientUnits="userSpaceOnUse">
<stop stop-color="#56AE31"/>
<stop offset="0.38" stop-color="#009540"/>
<stop offset="1" stop-color="#005321"/>
</linearGradient>
<clipPath id="clip0_0_1">
<rect width="24" height="11.6505" fill="white" transform="translate(0 48.5339)"/>
</clipPath>
</defs>
</svg>
