<svg width="24" height="24" viewBox="0 0 24 24" fill="none" xmlns="http://www.w3.org/2000/svg">
<path fill-rule="evenodd" clip-rule="evenodd" d="M19.7071 2.29289C20.0976 2.68342 20.0976 3.31658 19.7071 3.70711L9.20711 14.2071C8.81658 14.5976 8.18342 14.5976 7.79289 14.2071L3.29289 9.70711C2.90237 9.31658 2.90237 8.68342 3.29289 8.29289C3.68342 7.90237 4.31658 7.90237 4.70711 8.29289L8.5 12.0858L18.2929 2.29289C18.6834 1.90237 19.3166 1.90237 19.7071 2.29289ZM2 21C2 20.4477 2.44772 20 3 20H21C21.5523 20 22 20.4477 22 21C22 21.5523 21.5523 22 21 22H3C2.44772 22 2 21.5523 2 21Z" fill="white"/>
</svg>
