<svg width="132" height="180" viewBox="0 0 112 180" fill="none" xmlns="http://www.w3.org/2000/svg">
<path d="M53.4242 179.26H93.2382L95.2386 178.625C95.2386 178.625 96.6388 175.668 96.3387 175.455C92.038 172.391 91.3379 165.733 91.3379 165.733C91.3379 165.733 89.1616 163.853 87.8372 162.56C83.9883 164.861 76.8284 164.716 72.538 160.024L66.9404 158.755L61.5395 157.375L52.2275 161.514L53.4242 179.26Z" fill="#526166"/>
<path d="M60.315 158.43C60.315 158.258 60.315 158.085 60.2977 157.927L52.2239 161.504L53.4241 179.26H67.5956C63.5776 175.237 60.991 168.655 60.315 158.43Z" fill="#455559"/>
<path d="M91.3204 165.733C91.3204 165.733 89.1442 163.853 87.8198 162.56C83.9709 164.861 76.811 164.716 72.5206 160.024L66.923 158.755L61.5221 157.375L60.8047 157.692C61.898 164.843 69.289 171.912 79.5908 174.847C85.478 176.524 91.2825 176.572 96.0661 175.254C91.9964 172.122 91.3204 165.733 91.3204 165.733Z" fill="#677C82"/>
<path d="M87.8198 162.56C83.9708 164.861 76.8109 164.716 72.5205 160.024L69.1406 159.259C69.9856 164.474 75.6487 168.918 82.9086 169.642C85.9528 169.974 89.0318 169.553 91.8757 168.417C91.6188 167.539 91.4297 166.641 91.3101 165.734C91.3101 165.734 89.1442 163.854 87.8198 162.56Z" fill="#799599"/>
<path d="M95.9971 175.807C95.9971 175.807 98.3286 176.697 101.629 175.117C106.182 172.947 105.113 176.152 107.027 176.872C109.158 177.659 111.831 174.458 112 179.256H98.8218L95.8695 177.969L95.9971 175.807Z" fill="#677C82"/>
<path d="M8.02288 179.294H34.024L41.6116 172.74L41.0115 160.48L39.2112 154.77L42.0117 151.6L39.5974 146.74L40.8149 134.059L38.618 130.678L36.6176 129.198L24.8155 121.588L16.8175 124.758C16.8175 124.758 10.0163 130.888 5.43621 132.158L3.43586 134.483L5.96734 139.416C5.96734 139.416 9.11272 141.731 10.6026 141.775C12.9341 141.844 15.7346 140.506 15.7346 140.506L16.1002 140.965C16.1002 140.965 17.5487 141.848 15.8139 143.821C15.4069 144.287 13.1686 143.987 12.8272 144.735C12.6271 145.184 13.9377 146.015 13.7653 146.495C13.5928 146.974 11.7166 147.53 11.5718 147.995C10.513 151.445 12.8651 151.224 11.8339 153.646L8.63333 158.441V165.906C8.63333 165.906 5.18445 172.25 4.49467 172.529L8.02288 176.262V179.294Z" fill="#455559"/>
<path d="M39.9908 132.779L38.6113 130.678L36.6109 129.198L24.8088 121.588L21.7462 122.802C28.8156 123.866 35.2796 127.4 39.9908 132.779Z" fill="#314044"/>
<path d="M7.90903 176.145L8.0194 176.262V179.294H34.0206L41.6081 172.74L32.1927 160.014C30.2751 171.367 25.1052 177.042 7.90903 176.145Z" fill="#314044"/>
<path d="M16.8245 124.758C16.8245 124.758 10.0233 130.888 5.44315 132.158L3.44279 134.483L5.97428 139.416C5.97428 139.416 9.11966 141.731 10.6096 141.776C12.941 141.845 15.7415 140.506 15.7415 140.506L16.1071 140.965C16.1071 140.965 17.5556 141.848 15.8208 143.821C15.4139 144.287 13.1755 143.987 12.8341 144.735C12.6341 145.184 13.9447 146.015 13.7722 146.495C13.5998 146.974 11.7236 147.53 11.5787 147.995C10.5199 151.445 12.8721 151.224 11.8408 153.646L8.64026 158.441V159.669C9.51175 159.782 10.3895 159.84 11.2683 159.842C24.5396 159.842 35.2933 147.078 35.2933 131.299C35.2933 130.264 35.245 129.229 35.1553 128.232L24.8397 121.581L16.8245 124.758Z" fill="#677C82"/>
<path d="M35.2657 131.799C35.2657 131.633 35.2657 131.454 35.2657 131.306C35.2657 130.271 35.2174 129.236 35.1277 128.239L24.8121 121.588L16.8141 124.758C16.8141 124.758 10.4889 130.46 5.9122 132.002C9.72667 133.783 14.8034 134.866 20.3734 134.866C26.1641 134.866 31.4064 133.696 35.2657 131.799Z" fill="#799599"/>
<path d="M20.4976 162.353L26.9022 145.549L28.9267 134.752L35.4451 132.082L32.6343 158.569L20.4976 162.353Z" fill="#455559"/>
<path d="M21.201 144.618C21.201 140.261 16.9727 136.728 11.758 136.728C9.54409 136.708 7.38007 137.386 5.57413 138.667L5.95696 139.416C5.95696 139.416 9.10234 141.731 10.5923 141.775C12.9237 141.844 15.7242 140.506 15.7242 140.506L16.0898 140.965C16.0898 140.965 17.5383 141.848 15.8035 143.821C15.3966 144.287 13.1582 143.987 12.8168 144.735C12.6168 145.184 13.9273 146.015 13.7549 146.495C13.5824 146.974 11.7063 147.529 11.5614 147.995C10.7095 150.786 12.0684 151.176 12.0891 152.48C17.1486 152.342 21.201 148.878 21.201 144.618Z" fill="#526368"/>
<path d="M28.7886 179.26H55.3209L55.0036 178.152L59.4561 177.569L60.7219 168.197L58.6215 158.882L59.7217 147.257L57.4558 128.967C57.4558 128.967 46.7884 123.327 46.3883 116.424L44.788 116.141C44.788 116.141 37.7247 125.652 31.7236 128.905C31.7236 128.905 32.5238 137.57 29.8578 143.631L25.5915 157.303L27.7091 166.568L26.5089 171.926L26.7779 175.375L29.8129 176.376L28.7886 179.26Z" fill="#606F75"/>
<path d="M60.7218 168.197L58.6215 158.882L59.7216 147.257L57.4557 128.967C56.2939 128.325 55.1711 127.616 54.0931 126.842C55.0972 131.569 55.5909 136.391 55.5657 141.223C55.5657 157.14 51.3064 162.611 45.2191 162.611C39.1318 162.611 33.5273 157.133 33.5273 141.223C33.5002 136.304 34.0125 131.397 35.0552 126.59C34.0168 127.461 32.8991 128.232 31.7167 128.894C31.7167 128.894 32.5168 137.56 29.8508 143.621L25.5846 157.292L27.7091 166.568L26.5089 171.926L26.7779 175.375L29.8129 176.376L28.7782 179.263H55.3105L54.9932 178.156L59.4457 177.573L60.7218 168.197Z" fill="#526368"/>
<path d="M60.6115 169.011C55.2374 172.519 48.9566 174.382 42.5393 174.372C36.8624 174.372 32.0202 173.199 27.3642 170.698L27.0193 172.146L26.7951 175.372L29.8302 176.372L28.7955 179.26H55.3278L55.0105 178.152L59.463 177.569L60.6115 169.011Z" fill="#455559"/>
<path d="M59.4596 177.531L56.2935 176.486L44.2121 178.321L32.579 177.821L34.1793 179.26H55.321L55.0037 178.152L59.4527 177.569L59.4596 177.531Z" fill="#314044"/>
<path d="M5.92585 131.768L3.85652 130.643L1.99067 134.869L3.85652 135.997L5.92585 131.768Z" fill="#81B3C9"/>
<path d="M46.3883 116.41L44.7881 116.127C44.7881 116.127 37.7247 125.638 31.7237 128.891C31.7237 128.891 31.7513 129.177 31.7754 129.674C33.8206 136.087 42.0807 140.885 51.9686 140.885C54.2806 140.89 56.5847 140.618 58.8319 140.075L57.4524 128.963C57.4524 128.963 46.7884 123.313 46.3883 116.41Z" fill="#7D9096"/>
<path d="M55.3967 134.086C56.2895 134.083 57.1804 134.002 58.0592 133.845L57.4557 128.967C57.4557 128.967 46.7883 123.327 46.3882 116.424L44.7879 116.141C44.7879 116.141 43.3325 118.097 41.1873 120.539C41.1873 120.591 41.1873 120.639 41.1873 120.691C41.1769 128.084 47.5436 134.086 55.3967 134.086Z" fill="#869FA5"/>
<path d="M45.5226 114.647C46.6573 111.542 50.658 107.106 56.6556 106.93C56.1072 107.275 57.5834 108.286 57.2523 108.714C56.9212 109.141 54.7863 108.976 54.6828 109.48C54.5932 109.911 56.7798 110.121 56.8591 110.604C56.9626 111.26 55.0346 112.208 55.4554 112.957C55.4554 112.957 48.7887 111.408 46.3227 115.565L45.5226 114.647Z" fill="#7D9096"/>
<path d="M53.6413 108.814C54.811 108.482 56.0228 108.323 57.2385 108.341C57.0074 107.855 56.2314 107.196 56.6556 106.93C50.658 107.106 46.6538 111.546 45.5226 114.647L46.2124 115.447C47.047 112.532 49.8303 109.887 53.6413 108.814Z" fill="#869FA5"/>
<path d="M43.9224 116.513L46.9229 117.783L48.2231 115.351L44.6225 113.871L43.9224 116.513Z" fill="#81B3C9"/>
<path d="M60.4736 169.946L60.7082 168.197L58.6078 158.882L58.7492 157.409C51.6617 166.627 55.3003 170.587 60.4736 169.946Z" fill="#606F75"/>
<path d="M30.589 141.603C30.3862 142.285 30.142 142.955 29.8578 143.607L25.6777 156.999C30.5821 159.962 34.7 155.184 30.589 141.603Z" fill="#606F75"/>
<path d="M57.7834 147.412C51.8823 149.582 37.3832 161.018 55.0863 154.839L57.7834 147.412Z" fill="#526368"/>
<path d="M58.4595 136.729C49.1854 138.65 41.6841 135.645 57.5317 129.05L58.4595 136.729Z" fill="#606F75"/>
<path d="M47.4988 142.42C43.0325 140.916 34.0964 133.738 35.9519 132.237C37.8074 130.736 51.127 141.082 51.127 141.082L47.4988 142.42Z" fill="#606F75"/>
<path d="M50.6822 148.789C48.9471 148.737 47.2106 148.787 45.4813 148.937C47.3678 149.361 49.213 149.437 50.6822 148.789Z" fill="#7D9096"/>
<path d="M45.4813 148.937C40.6528 147.85 35.4588 144.487 34.9518 144.877C34.262 145.422 38.0213 148.733 41.9358 151.045C40.9805 149.893 42.5773 149.22 45.4813 148.937Z" fill="#7D9096"/>
<path d="M48.2574 129.191C45.1534 129.191 38.8833 126.811 41.9632 122.236C44.1015 119.063 44.8879 118.228 44.8879 118.228C44.8879 118.228 42.5702 122.181 42.6392 123.961C42.753 126.852 49.6646 125.852 49.537 127.632C49.4093 129.412 48.2574 129.191 48.2574 129.191Z" fill="#606F75"/>
<path d="M28.9542 165.188C30.6407 164.937 32.579 162.515 32.9997 160.68C32.9997 160.68 35.3622 168.359 41.1771 171.198L28.9542 165.188Z" fill="#455559"/>
<path d="M31.7237 128.88C31.7858 129.55 31.772 130.55 33.3998 132.848C32.948 131.968 33.155 130.491 33.8861 129.136C34.938 127.183 36.8453 125.31 37.4661 124.437C35.614 126.207 33.6171 127.856 31.7237 128.88Z" fill="#8AA6AD"/>
<path d="M18.587 140.151C23.5603 142.91 26.5195 146.243 25.1606 147.495C23.8018 148.747 19.4286 146.495 19.4286 146.495L18.587 140.151Z" fill="#526368"/>
<path d="M29.0404 135.059C29.0404 135.059 21.7046 142.572 28.1127 141.237L29.0404 135.059Z" fill="#455559"/>
<path d="M19.9355 127.883C16.1417 128.228 11.9272 131.388 15.383 131.054C18.8388 130.719 19.5975 130.053 21.115 130.136C22.6325 130.219 27.1023 130.888 27.4369 130.302C27.7714 129.715 23.4775 127.549 19.9355 127.883Z" fill="#677C82"/>
<path d="M11.4201 134.976C14.2861 133.724 18.4179 132.216 18.9249 132.806C19.4319 133.396 17.9971 135.645 17.9971 135.645L11.4201 134.976Z" fill="#677C82"/>
<path d="M20.6941 150.751C18.5006 149.165 16.4795 147.412 17.321 146.746C18.1626 146.081 23.5704 147.83 23.5704 147.83L20.6941 150.751Z" fill="#677C82"/>
<path d="M9.57124 162.018C9.18842 160.983 19.2695 161.449 19.066 162.363C18.8625 163.277 10.0782 163.405 9.57124 162.018Z" fill="#677C82"/>
<path d="M43.1741 165.251C42.8292 164.802 45.5435 165.016 47.9232 164.44C50.303 163.864 52.3585 162.494 52.4068 162.967C52.4551 163.439 50.8375 165.306 48.6716 165.906C46.423 166.527 43.6225 165.858 43.1741 165.251Z" fill="#606F75"/>
<path d="M5.92606 131.771L3.85672 130.643C1.24936 136.556 4.76033 134.642 5.92606 131.771Z" fill="#AED1E5"/>
<path d="M91.3617 165.571C88.1025 169.711 81.7048 175.541 93.162 171.646C92.4309 169.697 91.6204 167.81 91.3617 165.571Z" fill="#526166"/>
<path d="M64.5293 171.367C64.719 171.022 66.5538 173.092 69.0474 174.185C71.6961 175.362 74.9932 175.607 74.5656 176.124C74.1379 176.641 70.3614 176.928 67.7402 175.707C65.4088 174.623 64.1327 172.112 64.5293 171.367Z" fill="#677C82"/>
<path d="M55.3969 134.086C52.855 134.759 53.2344 136.063 55.0865 135.466C56.9385 134.869 57.8145 133.451 55.3969 134.086Z" fill="#7D9096"/>
<path d="M22.0425 157.761C17.2382 157.513 11.351 155.174 13.0237 154.591C14.6964 154.008 24.0601 155.843 24.0601 155.843L22.0425 157.761Z" fill="#455559"/>
<path d="M59.4527 177.569L59.6113 168.917L60.6218 169.197L59.4527 177.569Z" fill="#606F75"/>
<path d="M66.5127 161.739C67.9578 162.398 71.2549 162.618 72.1378 161.604C73.0207 160.59 73.1069 163.988 69.5442 163.805C65.9815 163.622 63.7708 160.48 66.5127 161.739Z" fill="#526166"/>
<path d="M66.5506 169.363C70.1753 169.708 77.2421 169.532 77.5111 170.115C77.7801 170.698 72.6206 172.954 72.6206 172.954L66.5506 169.363Z" fill="#526166"/>
<path d="M97.1216 175.386L95.3868 174.61L94.6556 178.766L97.3216 178.839L97.1216 175.386Z" fill="#81B3C9"/>
<path d="M95.3868 174.61C95.2971 176.041 96.2249 180.716 97.1112 175.248L95.3868 174.61Z" fill="#AED1E5"/>
<path d="M48.2232 115.351L44.6088 113.871C44.5502 116.448 46.9092 117.617 48.2232 115.351Z" fill="#AED1E5"/>
<path d="M98.8218 179.26C100.974 177.88 102.212 176.596 103.502 176.766C104.792 176.935 106.706 179.215 106.706 179.215L98.8218 179.26Z" fill="#526166"/>
<path d="M99.5738 162.17C99.7739 163.305 97.7632 164.081 97.7632 164.081L97.17 161.242C97.17 161.242 99.4462 161.345 99.5738 162.17Z" fill="#212B30"/>
<path d="M47.7678 175.948C47.9323 176.196 48.0776 176.457 48.2023 176.728C48.2422 176.822 48.2542 176.927 48.2368 177.028C48.2245 177.125 48.1795 177.215 48.1092 177.283C48.0644 177.327 48.0091 177.359 47.9484 177.376C47.8878 177.393 47.8238 177.394 47.7626 177.379C47.7014 177.364 47.6451 177.334 47.5989 177.291C47.5527 177.249 47.5182 177.195 47.4988 177.135C47.0814 176.359 46.1192 175.02 44.7397 175.907L44.4948 174.927C45.9537 173.985 47.0918 174.941 47.7678 175.948Z" fill="#8CAA43"/>
<path d="M48.4852 179.132C48.7679 179.133 49.05 179.104 49.3267 179.046C49.3716 179.036 49.4135 179.016 49.4494 178.987C49.4853 178.959 49.5141 178.922 49.5336 178.88C49.5813 178.789 49.5936 178.683 49.5681 178.584C49.5436 178.434 49.4645 178.298 49.3461 178.203C49.2276 178.109 49.0782 178.061 48.9266 178.07C48.1023 178.173 46.4572 178.108 45.7329 176.145L44.9535 176.573C45.7088 178.642 47.2918 179.132 48.4852 179.132Z" fill="#8CAA43"/>
<path d="M3.129 176.048C3.01842 176.329 2.93414 176.621 2.87723 176.917C2.86161 177.021 2.88232 177.127 2.93586 177.218C2.98505 177.311 3.06395 177.385 3.16004 177.428C3.22236 177.46 3.29131 177.478 3.36151 177.479C3.4317 177.48 3.50125 177.465 3.5647 177.435C3.62815 177.405 3.68379 177.361 3.72727 177.306C3.77075 177.251 3.80089 177.186 3.81533 177.118C4.03951 176.255 4.70859 174.703 6.57444 175.186L6.53306 174.158C4.56719 173.664 3.56701 174.896 3.129 176.048Z" fill="#ACC63E"/>
<path d="M1.85979 179.26C1.51993 179.261 1.18063 179.232 0.84582 179.174C0.796817 179.165 0.750182 179.146 0.709108 179.118C0.668034 179.09 0.633491 179.054 0.607845 179.011C0.580634 178.97 0.562842 178.922 0.555696 178.873C0.54855 178.823 0.552223 178.773 0.566461 178.725C0.613234 178.564 0.715146 178.424 0.854434 178.33C0.993723 178.236 1.16155 178.194 1.32866 178.211C2.3116 178.315 4.26712 178.249 5.12244 176.286L6.06054 176.7C5.16038 178.76 3.27729 179.26 1.85979 179.26Z" fill="#ACC63E"/>
<path d="M5.23967 173.019C5.36728 174.886 3.78769 179.256 5.70872 179.256H44.7777C44.7777 179.256 47.4679 178.135 44.7777 173.099C42.0876 168.062 5.23967 173.019 5.23967 173.019Z" fill="#ACC63E"/>
<path d="M44.7777 173.099C44.0052 171.65 40.3976 171.029 35.6589 170.88C36.0744 171.428 36.3095 172.091 36.3314 172.778C36.3314 175.537 32.2927 177.952 26.302 179.27H44.7846C44.7846 179.27 47.4678 178.135 44.7777 173.099Z" fill="#7B9331"/>
<path d="M77.3318 36.6876C77.8653 36.6709 78.397 36.7576 78.8976 36.9428C79.5391 37.1567 81.2429 36.5461 82.0016 36.9946C82.8501 37.4879 82.7707 39.0644 83.7261 39.7923C84.2193 40.1683 85.5919 39.6853 86.1023 40.1131C86.6128 40.5409 86.1023 41.7 86.6162 42.1622C94.1107 48.9064 102.75 60.0523 102.885 64.8922C102.885 64.8922 85.2367 66.9206 76.5144 56.5716L77.3318 36.6876Z" fill="#1C9E3C"/>
<path d="M78.0835 53.5635L76.5211 56.5716C85.2434 66.9207 102.891 64.8923 102.891 64.8923C102.811 63.853 102.548 62.8359 102.115 61.8876C98.1112 61.8186 86.0469 60.5525 78.0835 53.5635Z" fill="#273F4F"/>
<path d="M34.731 74.6306C34.5861 71.4535 34.9345 68.1487 35.6829 64.2609C35.8174 63.5709 34.6896 62.8569 34.8482 62.1497C35.0069 61.4425 36.4002 60.9906 36.5727 60.2903C36.7451 59.59 35.807 58.8414 35.9967 58.1756C36.1312 57.6892 37.3763 57.3201 37.5384 56.8337C40.5837 46.8089 45.5812 37.4189 50.1441 37.2947L51.1615 59.2105C51.1615 59.2105 44.2154 78.791 34.731 74.6306Z" fill="#1C9E3C"/>
<path d="M34.7724 74.6444C44.2327 78.7323 51.1616 59.2105 51.1616 59.2105L51.0305 56.3853C48.2783 61.4942 41.4116 73.0093 34.7724 74.6444Z" fill="#273F4F"/>
<path d="M23.8773 56.6407C24.2878 56.1233 24.405 55.5299 24.136 55.3161C23.867 55.1022 23.3186 55.3506 22.9082 55.868C22.4978 56.3855 22.3771 56.9754 22.6461 57.1892C22.9151 57.4031 23.4635 57.1547 23.8773 56.6407Z" fill="#ED8C6B"/>
<path d="M24.1946 54.6949C24.6085 54.1775 24.7258 53.5876 24.4567 53.3737C24.1877 53.1598 23.6394 53.4048 23.2255 53.9222C22.8116 54.4397 22.6978 55.033 22.9668 55.2434C23.2358 55.4539 23.7842 55.2124 24.1946 54.6949Z" fill="#ED8C6B"/>
<path d="M24.1741 52.432C24.588 51.9146 24.7018 51.3212 24.4362 51.1108C24.1706 50.9004 23.6188 51.1418 23.205 51.6593C22.7911 52.1767 22.6773 52.7666 22.9463 52.9805C23.2153 53.1944 23.7637 52.9495 24.1741 52.432Z" fill="#ED8C6B"/>
<path d="M19.6078 54.588C19.4457 54.2051 20.5666 50.0724 20.601 49.0685C20.6355 48.0646 21.3667 52.1111 21.3667 52.1111L19.6078 54.588Z" fill="#F8BA95"/>
<path d="M70.7375 21.8745L57.7559 24.21V32.3236H71.0445L70.7375 21.8745Z" fill="#F8BA95"/>
<path opacity="0.4" d="M70.7375 21.8745L57.7559 24.21V32.3236H71.0445L70.7375 21.8745Z" fill="url(#paint0_linear_0_1)"/>
<path d="M56.6417 176.993C56.3589 175.7 56.0106 173.723 55.6071 171.219C55.476 170.387 53.7033 170.287 53.5619 169.345C53.4618 168.655 54.8621 165.896 54.7586 165.161C51.6546 143.338 47.1366 99.986 49.6301 84.7832L78.7422 84.9867L94.4484 161.915C94.4484 161.915 94.3415 164.447 95.2658 165.93C95.9004 166.944 96.8626 167.569 97.0282 168.438C97.1937 169.307 96.4419 170.246 96.3902 171.198C96.3384 172.15 97.4041 176.4 97.4041 176.4L94.3622 178.225C94.3622 178.225 92.793 175.627 91.6514 170.877C91.441 170.011 89.9269 170.118 89.6648 169.152C89.2785 167.679 90.396 167.524 90.6995 166.91C90.8712 166.593 90.9556 166.237 90.944 165.876C90.9325 165.516 90.8255 165.166 90.634 164.861C90.2511 164.243 88.5646 164.516 88.2646 163.388C88.168 162.998 89.3648 161.539 89.2648 161.139C84.1363 140.865 71.2685 105.06 65.5295 103.425C61.0184 104.036 58.1696 142.138 59.9526 162.556C60.0285 163.44 61.6771 164.098 61.7495 164.926C61.822 165.754 60.9735 166.517 61.0597 167.296C61.1563 168.348 62.5359 169.404 62.4703 170.308C62.4048 171.212 60.163 170.756 60.6079 177.014L56.6417 176.993Z" fill="#1C9E3C"/>
<path style="mix-blend-mode:multiply" opacity="0.4" d="M56.6417 176.993C56.3589 175.7 56.0106 173.723 55.6071 171.219C55.476 170.387 53.7033 170.287 53.5619 169.345C53.4618 168.655 54.8621 165.896 54.7586 165.161C51.6546 143.338 47.1366 99.986 49.6301 84.7832L78.7422 84.9867L94.4484 161.915C94.4484 161.915 94.3415 164.447 95.2658 165.93C95.9004 166.944 96.8626 167.569 97.0282 168.438C97.1937 169.307 96.4419 170.246 96.3902 171.198C96.3384 172.15 97.4041 176.4 97.4041 176.4L94.3622 178.225C94.3622 178.225 92.793 175.627 91.6514 170.877C91.441 170.011 89.9269 170.118 89.6648 169.152C89.2785 167.679 90.396 167.524 90.6995 166.91C90.8712 166.593 90.9556 166.237 90.944 165.876C90.9325 165.516 90.8255 165.166 90.634 164.861C90.2511 164.243 88.5646 164.516 88.2646 163.388C88.168 162.998 89.3648 161.539 89.2648 161.139C84.1363 140.865 71.2685 105.06 65.5295 103.425C61.0184 104.036 58.1696 142.138 59.9526 162.556C60.0285 163.44 61.6771 164.098 61.7495 164.926C61.822 165.754 60.9735 166.517 61.0597 167.296C61.1563 168.348 62.5359 169.404 62.4703 170.308C62.4048 171.212 60.163 170.756 60.6079 177.014L56.6417 176.993Z" fill="url(#paint1_linear_0_1)"/>
<path d="M49.3233 88.0291C49.1853 86.9942 49.3957 86.9046 49.2612 85.9145C49.206 85.5074 48.1645 85.1004 48.1093 84.6968C48.0679 84.4173 48.7991 82.7994 48.7784 82.52C44.5535 51.8799 42.867 41.0513 48.9336 37.2946C55.3244 33.3413 78.5492 36.5357 78.5492 36.5357C94.9797 45.3634 73.8863 55.7677 79.3631 88.0291C77.2351 88.1844 49.3233 88.0291 49.3233 88.0291Z" fill="#1C9E3C"/>
<path d="M65.102 99.1339L60.4805 62.9984L61.491 62.8018L65.6124 99.1339H65.102Z" fill="#537E99"/>
<path d="M82.1808 56.4265C77.8179 57.251 71.8341 73.1678 78.8457 84.4069C77.6317 73.8578 80.2942 62.7981 82.1808 56.4265Z" fill="#273F4F"/>
<path d="M60.9012 62.4568C60.9012 62.4568 67.5955 38.716 71.0444 35.8769C65.4503 34.7765 60.9047 34.842 54.9657 36.1805C54.9554 36.1702 56.3349 52.4665 60.9012 62.4568Z" fill="#537E99"/>
<path d="M61.0046 59.5866C61.0046 59.5866 66.6815 38.5849 70.1304 35.7562C64.5363 34.6557 61.8082 34.573 55.8692 35.9252C55.8796 35.9252 56.4383 49.5963 61.0046 59.5866Z" fill="#E8DEAF"/>
<path d="M60.2597 48.7682L58.5836 45.084L57.173 46.6363C57.2488 47.0538 57.3282 47.4712 57.4144 47.8955L58.2973 46.9261L60.039 50.7587L62.7981 47.1089L64.2053 48.9718C64.334 48.5785 64.4651 48.1853 64.5984 47.792L62.7981 45.4117L60.2597 48.7682Z" fill="#C17861"/>
<g style="mix-blend-mode:multiply" opacity="0.4">
<path d="M73.0242 35.9458C67.7577 35.4214 60.0218 34.8763 53.9725 35.7664C54.0656 40.2372 72.0619 39.7887 73.0242 35.9458Z" fill="#7A1E00"/>
</g>
<path d="M72.5033 32.4962C72.5034 32.0231 72.3265 31.567 72.0074 31.2178C71.6882 30.8685 71.25 30.6514 70.7788 30.6092C65.1157 30.0331 60.3597 30.2642 55.6244 30.6782C55.2472 30.715 54.8971 30.8907 54.6422 31.1712C54.3872 31.4517 54.2456 31.817 54.2448 32.1961V35.5319C54.2449 35.8016 54.3258 36.065 54.477 36.2882C54.6283 36.5114 54.8429 36.6842 55.0933 36.7842C59.1423 38.3917 67.5093 38.2399 71.3996 36.8738C71.7215 36.76 72.0004 36.5494 72.1979 36.2709C72.3955 35.9924 72.5022 35.6595 72.5033 35.318V32.4962Z" fill="#E8DEAF"/>
<path d="M77.5698 81.9646L50.158 81.623L50.9271 85.8938L78.0802 86.7493L77.5698 81.9646Z" fill="#937345"/>
<path d="M66.4437 82.2993L66.4126 82.6443C67.5232 83.1721 69.1028 83.9897 69.051 84.3864C69.0062 84.8935 67.2128 85.5834 66.1022 85.9629L66.0746 86.2734C66.0746 86.2734 69.8201 85.1522 69.8857 84.4174C69.9478 83.8965 67.2887 82.6788 66.4437 82.2993Z" fill="#684D29"/>
<path d="M90.824 67.0001C89.8652 63.4297 99.1427 60.6354 102.029 60.9528C104.916 61.2702 106.513 64.9786 104.444 66.6207C102.374 68.2627 91.1137 68.0557 90.824 67.0001Z" fill="#769CB7"/>
<path d="M91.4893 64.8025C92.4025 65.2627 93.4121 65.4992 94.4346 65.4925C97.2903 65.4925 99.608 63.7883 99.608 61.6978C99.6016 61.5165 99.5773 61.3362 99.5355 61.1597C96.7626 61.6495 93.0447 63.0121 91.4893 64.8025Z" fill="#9EC4DB"/>
<path d="M30.7787 66.3619C34.7311 61.0391 41.3047 69.3114 42.3394 72.0953C43.3741 74.8792 39.8527 78.9947 36.8626 78.4876C33.8724 77.9805 29.8717 67.5831 30.7787 66.3619Z" fill="#769CB7"/>
<path d="M30.8132 66.3204C31.5892 68.9318 33.4757 70.7774 35.6865 70.7774C37.3247 70.7774 38.7905 69.7632 39.7527 68.1764C37.2109 65.3131 33.4412 62.8397 30.8132 66.3204Z" fill="#9EC4DB"/>
<path d="M79.8184 87.6153C81.7428 80.9712 88.7544 66.5273 95.4384 65.9064C102.122 65.2855 104.261 65.6028 104.261 65.6028C105.275 78.9911 86.3264 79.7051 82.4533 86.8046L79.8184 87.6153Z" fill="#F8BA95"/>
<path d="M104.275 65.6028C104.275 65.6028 102.657 65.3717 97.8182 65.7132C98.0044 75.9622 83.3053 80.5469 80.6945 87.3496L82.4672 86.8046C86.3092 79.7051 105.275 78.991 104.275 65.6028Z" fill="#ED8C6B"/>
<path d="M101.388 74.0546C102.445 72.9347 103.249 71.6002 103.745 70.1418C104.241 68.6834 104.416 67.1353 104.261 65.6028C104.261 65.6028 102.133 65.2958 95.4384 65.9064C93.883 66.0478 92.3172 66.9413 90.7962 68.3005C94.8455 69.0521 98.553 71.0663 101.388 74.0546Z" fill="#ED8C6B"/>
<path d="M19.5181 55.5055C20.8252 62.3014 26.0296 76.3865 32.679 77.6215C39.3285 78.8565 38.687 75.1377 38.687 75.1377C40.208 63.5709 24.2017 62.8637 21.008 55.4331L19.5181 55.5055Z" fill="#F8BA95"/>
<path d="M38.7698 73.0369C37.9731 73.6337 36.4969 74.0236 33.7447 73.6234C28.0403 72.7989 23.0256 62.6154 20.6907 55.4504L19.5181 55.5056C20.8252 62.3015 26.0296 76.3866 32.679 77.6216C39.3285 78.8566 38.687 75.1378 38.687 75.1378C38.7818 74.4418 38.8095 73.7383 38.7698 73.0369Z" fill="#ED8C6B"/>
<path d="M36.452 67.5244C36.5244 69.5045 35.976 71.2259 34.7448 72.4126C32.9445 74.1375 30.0543 74.3617 26.9468 73.3164C28.6713 75.5967 30.6027 77.2353 32.6789 77.6216C39.3318 78.8601 38.6869 75.1379 38.6869 75.1379C39.118 71.8607 38.1419 69.4597 36.452 67.5244Z" fill="#ED8C6B"/>
<path d="M66.5816 54.7466C66.5816 54.7466 68.6096 59.6279 72.0585 59.6279C75.5073 59.6279 78.5493 54.9639 78.5493 54.9639L66.5816 54.7466Z" fill="#769CB7"/>
<path d="M46.1298 173.626C46.138 173.056 46.0326 172.489 45.8198 171.959C45.6069 171.43 45.2908 170.948 44.8899 170.542C44.4889 170.136 44.0112 169.813 43.4845 169.594C42.9579 169.374 42.3927 169.261 41.8221 169.262H8.45069C7.4792 169.267 6.5481 169.652 5.85697 170.335C5.16584 171.018 4.76971 171.944 4.75348 172.916V173.83H46.1401L46.1298 173.626Z" fill="#B57759"/>
<path d="M41.8222 169.262H39.4356C39.6006 169.631 39.6841 170.031 39.6804 170.435C39.6804 171.653 38.8251 172.805 37.3386 173.83H46.1264V173.626C46.1346 173.056 46.0294 172.49 45.8167 171.96C45.604 171.431 45.2882 170.949 44.8877 170.543C44.4871 170.137 44.0098 169.815 43.4836 169.595C42.9573 169.375 42.3925 169.262 41.8222 169.262Z" fill="#91523A"/>
<path d="M22.5632 43.7905H20.7353L25.5879 172.85H27.4124L22.5632 43.7905Z" fill="#B57759"/>
<path d="M23.7084 74.8377L22.5634 43.7905H20.7389L21.8012 72.6023C22.5607 73.2322 23.2059 73.9884 23.7084 74.8377Z" fill="#91523A"/>
<path d="M54.5795 80.2555L53.1308 80.3535L53.5977 87.2578L55.0464 87.1598L54.5795 80.2555Z" fill="#1C9E3C"/>
<path d="M73.5816 80.4698L72.1329 80.5679L72.5999 87.4722L74.0485 87.3741L73.5816 80.4698Z" fill="#1C9E3C"/>
<path d="M80.2184 86.4492C79.7493 87.3875 78.8078 90.6785 80.6012 91.9998C81.9808 93.0347 85.3848 91.5306 84.7399 89.585C84.0949 87.6394 82.5636 88.2051 82.5636 88.2051V86.5355L80.2184 86.4492Z" fill="#F8BA95"/>
<path d="M84.7435 89.5679C84.1054 87.6016 82.5672 88.188 82.5672 88.188L82.8638 86.1389L81.0497 86.4839C80.7536 86.9625 80.5982 87.5148 80.6013 88.0776C80.6013 89.6334 81.7395 90.896 83.1432 90.896C83.7696 90.8874 84.3676 90.6335 84.809 90.1888C84.83 89.9796 84.8077 89.7682 84.7435 89.5679Z" fill="#ED8C6B"/>
<path d="M23.7048 42.6729L20.118 42.866L20.8871 59.3935H23.3841L23.7048 42.6729Z" fill="#CC6237"/>
<path d="M23.2565 42.9281L20.118 42.866C21.463 64.0712 23.1288 49.3376 23.2565 42.9281Z" fill="#EA8D4E"/>
<path d="M19.5182 55.5056C19.1733 54.1809 20.8978 50.4242 22.3601 50.8726C23.8225 51.3211 22.7464 55.2296 22.6153 55.4849C22.4843 55.7401 20.0701 57.5754 19.5182 55.5056Z" fill="#F8BA95"/>
<path d="M22.4565 55.3573C23.098 55.8058 23.8981 56.7027 24.2499 55.9334C24.6017 55.1641 22.5841 53.7256 22.5841 53.8188C22.5841 53.9119 22.4565 55.3573 22.4565 55.3573Z" fill="#F8BA95"/>
<path d="M22.7219 53.7635C23.4634 54.0084 24.4877 54.6363 24.605 53.798C24.7222 52.9597 22.3701 52.1628 22.3977 52.256C22.4253 52.3491 22.7219 53.7635 22.7219 53.7635Z" fill="#F8BA95"/>
<path d="M22.8427 52.0869C23.6152 51.9696 24.8154 52.0662 24.5395 51.2693C24.2636 50.4725 21.808 50.814 21.8735 50.8864C21.939 50.9589 22.8427 52.0869 22.8427 52.0869Z" fill="#F8BA95"/>
<path d="M84.1984 90.2094C84.1984 89.5367 83.8535 88.9917 83.4465 88.9917C83.0395 88.9917 82.6946 89.5367 82.6946 90.2094C82.6946 90.8821 83.0395 91.4237 83.4465 91.4237C83.8535 91.4237 84.1984 90.8787 84.1984 90.2094Z" fill="#F8BA95"/>
<path d="M72.7656 58.0791C72.7535 57.9232 72.6962 57.7742 72.6008 57.6503C72.5053 57.5265 72.3758 57.4332 72.2281 57.3819C72.0804 57.3306 71.921 57.3235 71.7694 57.3614C71.6177 57.3994 71.4804 57.4808 71.3743 57.5956C71.2682 57.7104 71.1978 57.8537 71.1719 58.0079C71.146 58.1621 71.1656 58.3206 71.2284 58.4638C71.2911 58.607 71.3943 58.7288 71.5252 58.8143C71.6561 58.8997 71.8091 58.9452 71.9654 58.945C72.1862 58.936 72.3945 58.8398 72.5445 58.6775C72.6945 58.5151 72.774 58.3 72.7656 58.0791Z" fill="#9EC4DB"/>
<path d="M46.2816 64.2127C46.6679 68.956 47.9199 76.3108 48.6959 81.8613C49.7823 78.1529 50.7583 62.6431 46.2816 64.2127Z" fill="#273F4F"/>
<path d="M66.1678 81.561C66.0749 81.4632 65.9632 81.3852 65.8393 81.3318C65.7154 81.2785 65.5819 81.2508 65.447 81.2505H60.4116C60.31 81.2494 60.2094 81.2708 60.1169 81.3132C60.0245 81.3555 59.9426 81.4178 59.877 81.4955C59.8109 81.5719 59.7619 81.6616 59.7333 81.7586C59.7047 81.8556 59.6973 81.9576 59.7115 82.0578L60.2564 85.7938C60.2914 86.0314 60.4079 86.2494 60.586 86.4106C60.764 86.5717 60.9926 86.6658 61.2325 86.6769L65.347 86.8632C65.5734 86.8726 65.7945 86.7924 65.9623 86.6401C66.1301 86.4877 66.2312 86.2754 66.2437 86.049L66.4437 82.2992C66.4493 82.164 66.4278 82.029 66.3804 81.9022C66.333 81.7754 66.2607 81.6594 66.1678 81.561ZM65.5643 85.6247C65.5512 85.7986 65.4728 85.9611 65.3448 86.0795C65.2169 86.1979 65.0488 86.2634 64.8745 86.2629L61.6429 86.118C61.4553 86.1091 61.2765 86.0355 61.137 85.9097C60.9974 85.784 60.9057 85.6138 60.8772 85.4281L60.4461 82.489C60.4353 82.4102 60.4414 82.3301 60.4642 82.2539C60.487 82.1777 60.5258 82.1073 60.5782 82.0475C60.6305 81.9877 60.695 81.9397 60.7674 81.907C60.8399 81.8742 60.9185 81.8574 60.9979 81.8577H64.9573C65.0633 81.8573 65.1683 81.8788 65.2657 81.921C65.363 81.9631 65.4506 82.025 65.5229 82.1026C65.5961 82.1795 65.6529 82.2706 65.6896 82.3703C65.7264 82.4699 65.7424 82.5761 65.7367 82.6821L65.5643 85.6247Z" fill="#E0AB65"/>
<path d="M65.04 83.8345C65.0391 83.7579 65.0083 83.6847 64.9542 83.6305C64.9001 83.5764 64.8269 83.5456 64.7503 83.5447H63.4363C63.3998 83.5447 63.3636 83.5519 63.3299 83.566C63.2962 83.5801 63.2657 83.6007 63.24 83.6267C63.2143 83.6527 63.1941 83.6836 63.1804 83.7174C63.1667 83.7513 63.16 83.7876 63.1604 83.8241V84.1691C63.1604 84.2536 63.1937 84.3347 63.2531 84.3947C63.3125 84.4548 63.3932 84.489 63.4777 84.4899H64.7503C64.8269 84.489 64.9001 84.4582 64.9542 84.404C65.0083 84.3499 65.0391 84.2767 65.04 84.2001V83.8345Z" fill="#E0AB65"/>
<path d="M76.1626 84.314C76.1716 84.2109 76.1493 84.1075 76.0986 84.0173C76.0479 83.927 75.9711 83.8542 75.8784 83.8084C75.7856 83.7625 75.6812 83.7457 75.5788 83.7602C75.4763 83.7747 75.3806 83.8197 75.3042 83.8895C75.2278 83.9593 75.1742 84.0505 75.1505 84.1512C75.1267 84.2519 75.1339 84.3575 75.1712 84.454C75.2084 84.5506 75.2739 84.6337 75.3591 84.6924C75.4443 84.7511 75.5452 84.7827 75.6487 84.7831C75.7789 84.7888 75.9061 84.7426 76.0024 84.6546C76.0987 84.5667 76.1563 84.4442 76.1626 84.314Z" fill="#684D29"/>
<path d="M57.887 83.8861C57.887 83.7489 57.8325 83.6172 57.7355 83.5202C57.6385 83.4232 57.5069 83.3687 57.3697 83.3687C57.2325 83.3687 57.1009 83.4232 57.0039 83.5202C56.9069 83.6172 56.8524 83.7489 56.8524 83.8861C56.8524 84.0233 56.9069 84.155 57.0039 84.252C57.1009 84.349 57.2325 84.4036 57.3697 84.4036C57.5069 84.4036 57.6385 84.349 57.7355 84.252C57.8325 84.155 57.887 84.0233 57.887 83.8861Z" fill="#684D29"/>
<path d="M60.339 61.0595L61.1736 60.9319L61.9427 63.7503L59.763 63.4916L60.339 61.0595Z" fill="#9EC4DB"/>
<g style="mix-blend-mode:multiply" opacity="0.2">
<path d="M61.7497 164.905C61.6738 164.077 60.0252 163.419 59.9528 162.535C59.3217 155.326 59.263 145.908 59.6666 136.718C56.7049 136.08 53.8276 135.1 51.0926 133.796C52.217 145.546 53.5931 156.909 54.7691 165.188C54.8726 165.92 53.4724 168.693 53.5724 169.373C53.7138 170.315 55.4865 170.408 55.6176 171.246C56.0107 173.75 56.3591 175.731 56.6522 177.021H60.6047C60.1597 170.763 62.4015 171.211 62.4671 170.315C62.5326 169.418 61.153 168.355 61.0565 167.303C60.9737 166.496 61.8256 165.757 61.7497 164.905Z" fill="#2E404C"/>
</g>
<g style="mix-blend-mode:multiply" opacity="0.2">
<path d="M97.0318 168.428C96.8663 167.558 95.904 166.934 95.2695 165.92C94.3452 164.436 94.4521 161.904 94.4521 161.904L88.4234 132.378C86.2003 133.668 83.8523 134.729 81.4153 135.545C84.5676 144.539 87.4129 153.829 89.258 161.118C89.3581 161.518 88.1613 162.977 88.2579 163.367C88.5476 164.512 90.2444 164.222 90.6272 164.84C90.8188 165.145 90.9258 165.496 90.9373 165.856C90.9489 166.216 90.8644 166.572 90.6928 166.889C90.3996 167.503 89.2822 167.658 89.6581 169.131C89.9099 170.104 91.4343 169.997 91.6447 170.856C92.7863 175.606 94.3555 178.204 94.3555 178.204L97.3974 176.379C97.3974 176.379 96.3317 172.126 96.3834 171.177C96.4352 170.228 97.2077 169.3 97.0318 168.428Z" fill="#2E404C"/>
</g>
<path d="M61.8047 173.061C61.8379 172.794 61.773 172.524 61.6219 172.302C61.5602 172.2 61.4743 172.116 61.372 172.056C61.2698 171.996 61.1542 171.962 61.0356 171.957H55.814C55.6921 171.961 55.573 171.995 55.4668 172.055C55.3606 172.115 55.2703 172.2 55.2036 172.302C55.0464 172.532 54.9766 172.811 55.007 173.088L55.4726 177.897H61.2805L61.8047 173.061Z" fill="#789FBA"/>
<path d="M97.9666 172.281C97.9444 172.133 97.8903 171.992 97.8081 171.867C97.7259 171.741 97.6176 171.636 97.4907 171.557C97.3633 171.477 97.2199 171.427 97.0708 171.41C96.9217 171.392 96.7706 171.408 96.6284 171.457L92.1138 172.995C91.9608 173.048 91.821 173.133 91.7039 173.244C91.5868 173.356 91.4952 173.492 91.4352 173.642C91.3753 173.792 91.3485 173.954 91.3567 174.115C91.3649 174.277 91.4079 174.435 91.4827 174.578L93.7624 178.897L98.6322 177.073L97.9666 172.281Z" fill="#789FBA"/>
<path d="M47.8162 179.394H62.1187C62.1187 179.394 62.3705 175.493 57.7559 175.669C52.5204 175.882 47.8162 179.394 47.8162 179.394Z" fill="#AED1E5"/>
<path d="M106.999 179.394H93.3069C93.3069 179.394 93.0483 175.579 97.4663 175.751C102.481 175.948 106.999 179.394 106.999 179.394Z" fill="#AED1E5"/>
<path d="M53.1896 176.521L55.2796 175.113L59.2079 175.71L58.6974 176.779L53.1896 176.521Z" fill="#E1F7FF"/>
<path d="M94.6071 176.393L95.2451 177.418L100.584 176.265L98.2353 174.644L94.6071 176.393Z" fill="#E1F7FF"/>
<g style="mix-blend-mode:multiply" opacity="0.4">
<path d="M82.4016 37.3914C82.3026 37.2309 82.1681 37.0951 82.0085 36.9947C81.3739 36.6221 80.1047 36.9705 79.3218 36.9947C79.0631 36.8463 78.8251 36.6945 78.5492 36.5462C78.5492 36.5462 76.0143 36.2012 72.4033 35.8735C72.4663 35.6986 72.5001 35.5144 72.5033 35.3285V32.5101C72.5023 32.0753 72.3521 31.6541 72.0777 31.3169C71.8034 30.9797 71.4216 30.7469 70.9962 30.6576L70.7479 22.2093L69.7132 22.0679L57.7524 24.2205V30.5196C57.042 30.5725 56.3349 30.6288 55.6314 30.6886C55.2539 30.7247 54.9034 30.9002 54.6483 31.1808C54.3932 31.4615 54.2518 31.8272 54.2518 32.2065V35.5423C54.2566 35.6075 54.2669 35.6722 54.2829 35.7355L53.9897 35.7769C51.8997 36.0874 50.1373 36.5738 48.9509 37.3051C48.5829 37.5354 48.2366 37.7987 47.9162 38.0917C47.5721 38.3147 47.2447 38.5626 46.9367 38.8334C51.1168 40.6824 56.9178 41.8311 63.3327 41.8311C71.2514 41.8208 78.2561 40.0649 82.4016 37.3914Z" fill="#6F1B00"/>
</g>
<path d="M71.8169 19.177C71.7031 20.7155 73.7138 22.8578 75.521 22.2196C75.521 22.2196 74.6484 19.0286 74.8036 16.9519L71.8169 19.177Z" fill="#6B361B"/>
<path d="M70.2409 20.243C69.7649 21.7125 71.21 24.2653 73.1138 24.0721C73.1138 24.0721 73.0241 20.7639 73.6622 18.7769L70.2409 20.243Z" fill="#6B361B"/>
<path d="M69.344 22.292C68.868 23.7616 70.3131 26.3178 72.2169 26.1212C72.2169 26.1212 72.1272 22.8129 72.7653 20.8293L69.344 22.292Z" fill="#6B361B"/>
<path d="M71.6619 16.124C71.8585 17.6556 74.252 19.3494 75.8902 18.3594C75.8902 18.3594 74.1175 14.8442 74.9004 13.4194L71.6619 16.124Z" fill="#6B361B"/>
<path d="M52.4652 12.65C50.9684 13.0778 48.4956 11.3667 48.7922 9.31762C48.7922 9.31762 52.7204 9.66259 53.7448 8.28271L52.4652 12.65Z" fill="#6B361B"/>
<path d="M53.4965 30.3988C54.7415 32.579 64.2501 30.9059 64.9571 30.4989C65.6641 30.0918 66.7022 26.7042 67.5127 24.8655C68.3232 23.0269 73.6793 10.3113 71.2444 8.38292C68.8095 6.45455 57.5558 2.70819 55.8279 4.12256C54.8622 4.91944 52.3135 9.32124 51.3443 15.2547C51.3133 15.8618 52.7239 16.8002 52.5618 17.8799C52.3066 19.6737 51.027 19.6048 50.9615 20.6052C50.9137 24.038 51.7892 27.4205 53.4965 30.3988Z" fill="#F8BA95"/>
<path d="M51.3546 15.2097C50.7993 14.4853 51.1684 13.5573 51.3098 13.1606C51.4822 12.6914 53.0618 11.2391 55.5381 10.8562C55.5381 10.8562 54.8483 13.2054 55.0242 14.0575C55.0242 14.0575 52.2513 14.5301 51.3546 15.2097Z" fill="#6B361B"/>
<path d="M57.7144 14.092C57.5454 13.2365 57.9282 11.1425 58.4042 10.6423C58.4042 10.6423 63.0188 12.0533 63.9983 13.7471L63.0602 15.1959L57.7144 14.092Z" fill="#6B361B"/>
<g style="mix-blend-mode:multiply" opacity="0.4">
<path d="M59.439 13.1123C64.2674 12.8742 68.6234 12.0463 71.8722 10.8907C71.9412 9.70398 71.7791 8.79671 71.2583 8.38275C68.8269 6.45438 57.5697 2.70112 55.8418 4.12239C55.2796 4.58465 54.1829 6.275 53.1724 8.76912C51.71 9.566 48.8061 9.31762 48.8061 9.31762C48.5578 11.0425 50.2477 12.5017 51.679 12.6914C51.6085 12.7607 51.5439 12.8357 51.4859 12.9156C54.128 13.1848 56.7868 13.2506 59.439 13.1123Z" fill="#6F1B00"/>
</g>
<path d="M50.6684 31.9097C52.079 33.5138 59.5459 35.9217 64.3122 33.3827C64.3122 33.3827 69.727 24.6171 70.434 18.4283L66.9851 16.9036L65.7401 20.85C65.7401 20.85 52.5895 22.0885 50.9581 20.6085C50.9616 20.6085 49.6441 26.1453 50.6684 31.9097Z" fill="#6B361B"/>
<path d="M66.785 18.1249C66.785 18.1249 68.306 9.50064 66.2746 8.18286L74.176 11.5394C74.176 11.5394 76.8661 15.8308 70.941 25.2243L68.1025 23.4063L66.785 18.1249Z" fill="#6B361B"/>
<path d="M58.4662 7.16514L59.1249 2.101C60.2493 0.87291 67.8265 -0.610457 69.244 0.262314C71.4754 1.58354 76.7487 5.70592 77.1212 7.56875C77.6351 10.1284 74.8795 14.3577 74.8795 14.3577C72.0617 11.7739 65.0708 8.13795 58.4662 7.16514Z" fill="#936E61"/>
<path d="M59.1249 2.101L58.4662 7.16514C62.998 7.83438 67.7127 9.7524 71.1374 11.7291C71.8272 10.3593 72.1875 8.84722 72.1893 7.31348C72.1662 4.70384 71.1457 2.20195 69.3371 0.320958L69.244 0.262314C67.8265 -0.610457 60.2493 0.87291 59.1249 2.101Z" fill="#D6B2A7"/>
<path d="M69.3684 16.9001C70.8652 15.8824 72.9931 17.5659 72.9897 18.0626C72.9897 21.3398 70.7858 23.6477 68.5372 22.492C68.1716 20.6775 68.7303 17.5969 69.3684 16.9001Z" fill="#F8BA95"/>
<path d="M52.8861 9.19361C50.1443 7.1652 45.7849 4.62967 47.5093 2.1942C49.2338 -0.241284 60.6944 -0.241281 64.0433 1.38352C67.3922 3.00832 70.1996 11.2186 70.1996 11.2186C60.4737 7.1583 55.0865 6.59945 52.8861 9.19361Z" fill="#4C3327"/>
<path d="M69.9926 18.0488C70.8928 17.5417 71.9688 18.2109 72.4344 18.7387C72.4344 18.6456 72.4344 18.5559 72.4344 18.4593C72.4344 18.0833 70.8169 16.8035 69.6753 17.5728C69.227 18.0557 68.8372 20.0427 68.9855 21.433C69.0649 20.0876 69.5546 18.4559 69.9926 18.0488Z" fill="#ED8C6B"/>
<path d="M69.8754 19.0081C70.6273 18.6217 71.486 19.2047 71.8482 19.6428C71.8482 19.5704 71.8482 19.4945 71.8689 19.4186C71.8689 19.1115 70.6031 18.018 69.6478 18.6044C69.2684 18.9874 68.8856 20.5949 68.958 21.7333C69.058 20.6467 69.5064 19.3254 69.8754 19.0081Z" fill="#ED8C6B"/>
<path d="M55.2417 21.1467C53.4035 21.3192 54.0036 20.3809 54.552 19.7393C55.3088 18.8617 55.8441 17.8154 56.113 16.6881C56.3819 15.5608 56.3764 14.3855 56.0971 13.2607L55.1935 13.4608C55.1935 13.4608 56.2557 17.152 53.569 20.2498C53.0172 20.8915 52.4171 21.8332 54.2588 21.6607C56.1005 21.4882 58.1009 21.3158 58.1009 21.3158L58.1423 20.8156C57.3697 20.9225 56.2557 21.0536 55.2417 21.1467Z" fill="#D86A4C"/>
<path d="M54.3414 23.8823L55.0311 27.639C55.0311 27.639 61.3081 26.8732 63.1878 24.1376L54.3414 23.8823Z" fill="#421D11"/>
<path d="M54.7693 24.0513L55.1314 25.89L61.2808 25.3759L61.7498 24.2031L54.7693 24.0513Z" fill="#FFEBE6"/>
<path d="M60.1289 16.4415C61.6016 16.5691 61.1394 18.6286 60.1289 18.6286C59.1184 18.6286 58.4976 16.3001 60.1289 16.4415Z" fill="#5B3C34"/>
<path d="M53.8723 16.4068C55.3449 16.5345 54.8862 18.5974 53.8723 18.5974C52.8583 18.5974 52.2547 16.2654 53.8723 16.4068Z" fill="#5B3C34"/>
<path d="M60.3631 16.6206C58.0558 16.324 58.8697 15.7686 60.47 15.9583C61.1943 16.0445 62.4221 16.8863 60.3631 16.6206Z" fill="#ED8C6B"/>
<path d="M53.5517 16.6689C51.341 17.3209 51.8618 16.4758 53.3896 16.0066C54.0829 15.7962 55.5279 16.0825 53.5517 16.6689Z" fill="#ED8C6B"/>
<defs>
<linearGradient id="paint0_linear_0_1" x1="64.4019" y1="39.599" x2="64.4019" y2="17.9246" gradientUnits="userSpaceOnUse">
<stop stop-color="#9D2D00"/>
<stop offset="1" stop-color="#A82D00"/>
</linearGradient>
<linearGradient id="paint1_linear_0_1" x1="50.8131" y1="97.3263" x2="88.9995" y2="173.423" gradientUnits="userSpaceOnUse">
<stop stop-color="#004167"/>
<stop offset="1" stop-color="#003643"/>
</linearGradient>
</defs>
</svg>
