<svg width="214" height="148" viewBox="0 0 264 188" fill="none" xmlns="http://www.w3.org/2000/svg">
<g filter="url(#filter0_d_0_1)">
</g>
<path d="M89.7685 83.1198L79.8995 142.448L83.6939 143.125L93.5629 83.7961L89.7685 83.1198Z" fill="url(#paint0_linear_0_1)"/>
<g style="mix-blend-mode:multiply">
<path d="M87.5097 96.7352C88.7336 97.1622 90.014 97.39 91.3054 97.4105L93.5627 83.8016L89.7732 83.1169L87.5097 96.7352Z" fill="#9F9B97"/>
</g>
<path d="M101.948 90.3627C107.331 84.7906 107.331 75.7563 101.948 70.1842C96.5651 64.612 87.8376 64.612 82.4547 70.1841C77.0717 75.7563 77.0717 84.7906 82.4547 90.3627C87.8376 95.9349 96.5651 95.9349 101.948 90.3627Z" fill="#C13130"/>
<path d="M101.948 90.3627C107.331 84.7906 107.331 75.7563 101.948 70.1842C96.5651 64.612 87.8376 64.612 82.4547 70.1841C77.0717 75.7563 77.0717 84.7906 82.4547 90.3627C87.8376 95.9349 96.5651 95.9349 101.948 90.3627Z" fill="#D45150"/>
<path d="M102.512 88.8738C107.105 82.9783 106.21 74.3455 100.515 69.5919C94.8199 64.8382 86.4803 65.7639 81.8881 71.6593C77.2959 77.5548 78.19 86.1876 83.8853 90.9412C89.5805 95.6948 97.9202 94.7692 102.512 88.8738Z" fill="#C13130"/>
<path d="M101.967 85.3232C104.66 79.7414 102.472 72.9564 97.0802 70.1685C91.6879 67.3807 85.1333 69.6456 82.4401 75.2274C79.7469 80.8093 81.935 87.5942 87.3273 90.3821C92.7195 93.17 99.2741 90.905 101.967 85.3232Z" fill="#F5F5F5"/>
<path d="M98.39 72.922C98.327 73.301 98.1568 73.6521 97.9011 73.9309C97.6453 74.2098 97.3154 74.4039 96.9531 74.4886C96.5908 74.5734 96.2123 74.545 95.8655 74.4071C95.5188 74.2692 95.2193 74.028 95.005 73.7139C94.7907 73.3998 94.6712 73.027 94.6616 72.6426C94.652 72.2582 94.7527 71.8795 94.951 71.5544C95.1493 71.2293 95.4364 70.9723 95.7757 70.816C96.1151 70.6597 96.4917 70.6111 96.8578 70.6764C97.3486 70.7639 97.7858 71.0496 98.0731 71.4707C98.3605 71.8919 98.4744 72.4139 98.39 72.922V72.922Z" fill="#232325"/>
<path d="M98.2292 74.8663C98.2292 74.8663 96.5392 75.8273 94.3516 74.2915L86.3022 75.1144C86.3022 75.1144 86.2415 75.6483 87.3155 75.8682C88.3896 76.088 92.5615 77.0051 92.7557 77.6144C92.9498 78.2237 93.8055 80.9185 93.8055 80.9185L99.1242 80.8557L98.2292 74.8663Z" fill="#232325"/>
<path d="M99.0484 81.2986L93.8661 81.5467L91.2993 89.3483C91.2993 89.3483 91.6877 89.6624 92.9772 88.3653C94.1392 87.2063 96.257 83.2207 96.2631 83.3903C96.2691 83.5599 96.5665 88.8207 97.5556 89.4425C98.0107 89.7409 99.0484 81.2986 99.0484 81.2986Z" fill="#232325"/>
<path d="M85.8091 69.4094L83.9985 70.8875L99.5399 91.2874L101.351 89.8093L85.8091 69.4094Z" fill="#C13130"/>
<path d="M85.0369 79.747C84.9913 79.7009 84.9597 79.6419 84.9459 79.5774C84.9277 79.4392 85.0552 79.323 85.0764 79.1817C85.1067 78.9838 84.9035 78.8142 84.7093 78.8142C84.5154 78.8339 84.3321 78.9151 84.1844 79.0466C83.9222 79.2199 83.703 79.4544 83.5442 79.7313C83.4889 79.8428 83.4471 79.961 83.4198 80.0831C83.3643 80.2952 83.357 80.5177 83.3985 80.7332C83.422 80.8399 83.4674 80.9401 83.5319 81.0268C83.5963 81.1136 83.6781 81.1849 83.7717 81.2357C84.0418 81.3645 84.3786 81.2703 84.6334 81.4399C84.7609 81.5247 84.8397 81.6691 84.9611 81.7697C85.0748 81.8537 85.2098 81.9014 85.3495 81.907C85.4891 81.9126 85.6273 81.8758 85.7469 81.8011C85.9838 81.645 86.1542 81.4012 86.2233 81.1195C86.2793 80.9771 86.2883 80.8194 86.2488 80.6712C86.2092 80.5229 86.1235 80.3923 86.0048 80.2998C85.9218 80.2593 85.8341 80.2297 85.7439 80.2118C85.4691 80.1324 85.2232 79.9707 85.0369 79.747V79.747Z" fill="#232325"/>
<path d="M88.5292 80.0641C88.4351 80.3437 88.5626 80.6703 88.4442 80.9404C88.3259 81.2105 87.9891 81.3393 87.8829 81.6188C87.8455 81.7751 87.862 81.9401 87.9296 82.0852C87.9971 82.2303 88.1116 82.3464 88.2531 82.4134C88.5394 82.5384 88.8403 82.6239 89.1481 82.6678C89.377 82.7494 89.6162 82.7959 89.8581 82.806C90.0253 82.8007 90.1854 82.7349 90.3106 82.6202C90.4359 82.5055 90.5184 82.349 90.5438 82.1778C90.5681 81.8983 90.4042 81.6376 90.383 81.3613C90.3618 81.0849 90.4862 80.8116 90.474 80.5352C90.465 80.3997 90.4279 80.2678 90.365 80.1485C90.3022 80.0293 90.2152 79.9255 90.1099 79.8443C89.8995 79.6808 89.6448 79.5896 89.3818 79.5836C89.209 79.5616 89.0339 79.5961 88.881 79.6823C88.7281 79.7685 88.6051 79.902 88.5292 80.0641V80.0641Z" fill="#232325"/>
<path d="M86.8513 86.2955C87.0728 86.239 87.3095 86.2955 87.531 86.2547C87.7192 86.1942 87.8834 86.0721 87.9989 85.9067C88.1143 85.7413 88.1748 85.5416 88.1712 85.3376C88.1531 84.9292 88.0295 84.5333 87.8131 84.1912C87.73 84.0062 87.6039 83.8454 87.446 83.7233C87.2973 83.6312 87.1203 83.6014 86.9512 83.64C86.782 83.6785 86.6334 83.7824 86.5358 83.9306C86.4875 84.0418 86.4275 84.1471 86.3568 84.2446C86.199 84.4174 85.9411 84.408 85.7196 84.4582C85.52 84.5017 85.3349 84.5985 85.1827 84.739C85.0304 84.8795 84.9164 85.0588 84.8519 85.2591C84.7912 85.4612 84.7857 85.6767 84.836 85.8818C84.8863 86.0869 84.9905 86.2736 85.1371 86.4212C85.2889 86.5629 85.4771 86.6562 85.679 86.6896C85.8809 86.7231 86.0879 86.6953 86.2749 86.6096C86.4573 86.4868 86.6503 86.3817 86.8513 86.2955V86.2955Z" fill="#232325"/>
<g style="mix-blend-mode:multiply">
<path d="M91.0596 83.5692C87.7221 81.3896 85.5406 78.6351 83.5381 74.7751C82.8157 75.9453 82.3231 77.2512 82.0883 78.6184C81.8535 79.9856 81.8811 81.3873 82.1696 82.7435C82.4581 84.0996 83.0018 85.3837 83.7697 86.5223C84.5376 87.6609 85.5146 88.6318 86.645 89.3796C87.7754 90.1274 89.037 90.6373 90.3578 90.8804C91.6785 91.1235 93.0326 91.0949 94.3427 90.7962C95.6528 90.4976 96.8933 89.9348 97.9932 89.1399C99.0932 88.345 100.031 87.3336 100.754 86.1635C97.7589 86.3645 93.678 85.2841 91.0596 83.5692Z" fill="#C7C7C7"/>
</g>
<path d="M50.5181 139.387C40.9971 140.69 30.7965 137.012 20.4806 139.261C19.8344 139.402 19.0698 139.688 18.9939 140.288C18.912 140.935 19.6948 141.359 20.3562 141.595C23.2303 142.609 26.1891 143.345 29.1945 143.793C29.3461 143.794 29.4959 143.826 29.6351 143.888C29.7743 143.95 29.8999 144.041 30.0046 144.154C29.0944 144.83 27.4621 145.053 26.2909 145.473C25.8601 145.627 25.3807 145.847 25.2654 146.255C25.0894 146.943 26.0694 147.326 26.828 147.389C31.904 147.81 36.9618 146.34 41.8042 146.742C42.411 146.792 42.2108 147.238 41.8528 147.48C41.3218 147.838 40.7575 147.892 40.181 148.071C39.386 148.313 38.6033 148.727 37.8326 149.051C37.957 149.77 38.6821 150.184 39.3496 150.367C40.2838 150.584 41.2436 150.659 42.1986 150.59C43.3615 150.533 44.5198 150.401 45.6666 150.194C46.6952 150.018 47.657 150.031 48.6734 149.764C51.1007 149.117 53.5795 148.57 56.0917 148.696C56.7471 148.727 59.6598 148.865 59.144 149.952C58.6282 151.039 56.7168 151.133 55.8976 151.921C55.7446 152.054 55.638 152.235 55.5941 152.436C55.5122 152.964 56.0948 153.313 56.5833 153.451C58.5463 154 60.567 153.652 62.4694 154.468C64.3202 155.263 66.529 156.507 68.4951 156.353C69.3856 156.317 70.2692 156.176 71.1287 155.932C71.8326 155.703 73.4862 154.914 73.4558 153.938C73.4316 153.109 72.1148 153.281 71.7932 152.534C70.9284 150.521 74.7302 150.147 75.8164 150.213C76.5445 150.254 80.9227 150.417 81.6448 150.301C82.5005 150.162 83.2529 149.647 84.0721 149.358C85.7439 148.73 87.6766 149.01 89.2301 148.134C89.6882 147.876 89.7641 146.048 89.7944 145.502C89.7912 145.267 89.728 145.038 89.6113 144.837C89.4945 144.636 89.3285 144.471 89.1299 144.358C88.7328 144.141 88.2973 144.008 87.8496 143.969C86.372 143.752 84.8792 143.674 83.4046 143.444C83.1734 143.432 82.9516 143.346 82.7705 143.196C82.3943 142.816 82.6825 142.119 83.1224 141.83C83.5624 141.541 84.1085 141.475 84.5515 141.202C84.6665 141.137 84.7667 141.048 84.8453 140.939C84.9238 140.831 84.9788 140.706 85.0066 140.574C85.0183 140.417 84.9883 140.26 84.9198 140.119C84.8514 139.978 84.7471 139.86 84.6182 139.776C84.3582 139.616 84.0708 139.509 83.7717 139.462C81.6479 138.991 75.8831 138.652 73.7168 138.448C71.8218 138.304 69.9184 138.33 68.0278 138.526C63.1217 138.919 57.8303 140.222 52.7178 140.175C50.773 140.156 48.8524 139.274 46.8985 139.701L50.5181 139.387Z" fill="#1E1F21"/>
<path d="M75.4796 134.264C75.4796 134.264 54.5838 129.892 35.6936 134.264C35.6936 134.264 36.4096 140.005 55.585 140.005C74.7605 140.005 75.4796 134.264 75.4796 134.264Z" fill="#766F6A"/>
<path d="M55.7064 96.7006V96.5342C47.7814 96.4494 39.8199 96.0159 36.6554 94.7471V137.744C36.6554 137.744 43.6095 140.784 55.4667 140.671V140.844C67.4726 141.001 74.5147 137.917 74.5147 137.917V94.9167C71.3835 96.173 63.5526 96.6221 55.7064 96.7006Z" fill="#9FA097"/>
<g style="mix-blend-mode:multiply" opacity="0.55">
<path d="M51.2311 120.859C46.3458 118.438 41.9469 115.083 38.2665 110.969L37.6778 110.325V137.065C37.6778 137.065 44.2558 139.942 55.4728 139.832V139.996C66.8294 140.143 73.4922 137.226 73.4922 137.226V122.562C66.7717 126.145 58.4614 124.471 51.2311 120.859Z" fill="#736F6C"/>
</g>
<g style="mix-blend-mode:multiply" opacity="0.65">
<path d="M55.7064 95.5888C55.7064 95.5888 39.8199 94.9041 36.6554 93.6353V98.1925C42.6971 100.605 49.1097 101.869 55.585 101.924C66.1255 101.924 72.5577 99.1504 74.5147 98.3621V93.7954C71.3835 95.0517 63.5526 95.4977 55.7064 95.5888Z" fill="#9F9B97"/>
</g>
<path d="M55.585 88.0417C42.5385 88.0417 34.1765 90.1492 34.1765 90.1492C34.5831 96.393 55.585 95.6235 55.585 95.6235C55.585 95.6235 76.587 96.393 76.9936 90.1492C76.9936 90.1492 68.6225 88.0417 55.585 88.0417Z" fill="#766F6A"/>
<path d="M44.7139 93.337C40.9334 92.7089 36.9557 91.6976 34.1887 90.1492V96.0255C34.1887 96.0255 39.7714 100.077 55.585 100.077C71.3987 100.077 76.9936 96.0224 76.9936 96.0224V90.1492C74.2295 91.6976 70.2488 92.6963 66.4714 93.337C59.2665 94.5543 51.9187 94.5543 44.7139 93.337V93.337Z" fill="#9FA097"/>
<path d="M51.2069 94.0875C49.1224 93.9462 47.0441 93.7169 44.9809 93.3777V99.3451C46.8014 99.6152 48.8585 99.8319 51.2069 99.9544V94.0875Z" fill="#6B6C65"/>
<path d="M68.0582 93.0449C67.5272 93.1486 66.9963 93.2459 66.4714 93.337C65.109 93.5663 63.7407 93.739 62.3693 93.8835V99.8038C64.5417 99.6185 66.4198 99.3484 68.0582 99.0437V93.0449Z" fill="#C6C5BE"/>
<path d="M66.4714 93.337C70.2488 92.7089 74.2295 91.6976 76.9936 90.1492C76.9936 90.1492 68.6225 88.0417 55.585 88.0417C42.5476 88.0417 34.1765 90.1492 34.1765 90.1492C36.9436 91.6976 40.9213 92.6963 44.7018 93.337C51.9105 94.5557 59.2626 94.5557 66.4714 93.337V93.337Z" fill="#C5C2C0"/>
<path d="M64.6903 92.492C67.8519 92.0272 71.1803 91.3048 73.4892 90.1804C73.4892 90.1804 66.4865 88.6541 55.5881 88.6541C44.6896 88.6541 37.687 90.1804 37.687 90.1804C40.002 91.3048 43.3304 92.0272 46.4858 92.492C52.5241 93.3743 58.6521 93.3743 64.6903 92.492V92.492Z" fill="#766F6A"/>
<path d="M40.988 138.115L45.2176 139.302V106.044C43.7912 105.772 42.3794 105.423 40.988 104.999V138.115Z" fill="#66635F"/>
<path d="M49.5684 139.264L53.798 140.448V106.939C52.3477 106.896 50.9338 106.804 49.5684 106.663V139.264Z" fill="#66635F"/>
<path d="M65.9525 139.302L70.2002 138.115V104.983C68.8031 105.413 67.3852 105.767 65.9525 106.044V139.302Z" fill="#66635F"/>
<path d="M57.3782 140.448L61.6077 139.264V106.673C60.2424 106.814 58.8285 106.905 57.3782 106.949V140.448Z" fill="#66635F"/>
<path d="M55.585 138.784C55.585 138.784 44.0555 139.003 35.6936 134.264V140.86C35.6936 140.86 41.8315 145.304 55.585 145.304C70.3823 145.304 75.4796 140.85 75.4796 140.85V134.255C67.1055 139.003 55.585 138.784 55.585 138.784Z" fill="#9FA097"/>
<path d="M51.2069 138.573C49.1154 138.387 47.0364 138.072 44.9809 137.631V144.286C47.0368 144.706 49.1163 144.991 51.2069 145.14V138.573Z" fill="#6B6C65"/>
<path d="M62.2631 138.312V144.955C64.3484 144.744 66.4167 144.381 68.4526 143.868V137.078C66.4177 137.629 64.3501 138.041 62.2631 138.312V138.312Z" fill="#C6C5BE"/>
<path d="M62.8699 93.7453C64.5629 93.5255 66.1831 93.0857 67.8337 92.756C67.8155 92.756 67.1753 89.5367 67.1267 89.3545C66.972 88.7735 66.5381 88.2647 66.441 87.6868C66.3014 86.8294 66.9265 85.9311 67.0296 85.0894C67.1601 84.0278 66.6564 82.9914 66.5897 81.9235C66.5108 80.6987 67.0054 79.4675 66.793 78.2583C66.7727 78.0279 66.6711 77.8132 66.5078 77.6553C66.0071 77.2438 65.1181 77.9065 64.6873 77.426C64.7965 76.6879 64.9088 75.9498 65.018 75.2275C65.0908 74.7564 65.1394 74.2099 64.8208 73.8644C64.6481 73.6892 64.4239 73.5787 64.1837 73.5503C63.8191 73.4994 63.448 73.5551 63.1123 73.711C62.7767 73.867 62.4899 74.117 62.2843 74.4329C62.075 74.7658 61.9202 75.2023 61.5501 75.3123C60.8401 75.5227 60.2424 74.2947 59.5567 74.5742C59.3716 75.2432 59.1592 75.9593 58.6313 76.3896C57.6634 77.1779 56.2192 76.6125 55.045 76.9989C54.9256 77.0267 54.8188 77.0953 54.7416 77.1936C54.6141 77.3914 54.7416 77.6521 54.8478 77.8531C55.4212 78.8205 56.1494 79.5963 56.8199 80.4788C57.2811 81.085 57.2659 81.6032 57.3387 82.3915C57.4965 84.0917 57.6553 85.7898 57.8151 87.4858C58.0052 89.5461 58.1974 91.6065 58.3916 93.6668C59.8843 93.7956 61.368 93.9432 62.8699 93.7453Z" fill="#445C74"/>
<path d="M56.8078 80.4757C57.269 81.0818 57.2538 81.6 57.3266 82.3884C57.4116 83.2866 57.4935 84.1849 57.5784 85.0831C59.1366 84.2662 60.7393 83.5437 62.3784 82.9192C65.285 81.8168 63.7771 81.933 62.2934 80.5824C62.0242 80.305 61.8518 79.9426 61.8034 79.5525C61.7551 79.1624 61.8335 78.7667 62.0264 78.4279C62.3401 78.0625 62.722 77.7666 63.149 77.5579C62.8529 77.3371 62.6266 77.0304 62.4986 76.6766C62.3706 76.3228 62.3467 75.9377 62.43 75.5698C62.6787 74.6119 63.4615 74.0654 64.1837 73.5503C63.8191 73.4994 63.448 73.5551 63.1123 73.711C62.7767 73.867 62.4899 74.117 62.2843 74.4329C62.075 74.7658 61.9202 75.2023 61.5501 75.3123C60.8401 75.5227 60.2424 74.2947 59.5567 74.5742C59.3716 75.2432 59.1592 75.9593 58.6313 76.3896C57.6634 77.1779 56.2192 76.6125 55.045 76.9989C54.9256 77.0268 54.8188 77.0953 54.7416 77.1936C54.6141 77.3914 54.7416 77.6521 54.8478 77.8531C55.4091 78.8173 56.1372 79.5931 56.8078 80.4757Z" fill="#1E3542"/>
<path d="M67.1267 89.3546C66.972 88.7736 66.5381 88.2648 66.444 87.6869C66.3014 86.8295 66.9265 85.9312 67.0296 85.0895C67.1601 84.0279 66.6564 82.9915 66.5897 81.9236C66.5108 80.6987 67.0054 79.4675 66.793 78.2584C66.7727 78.0279 66.6711 77.8133 66.5078 77.6553C66.2559 77.448 65.9009 77.514 65.5611 77.5674C65.3734 77.8144 65.2011 78.0735 65.0453 78.3432C64.7177 78.9211 64.5174 79.6466 63.862 80.1177C62.7607 80.906 61.3589 80.2307 60.8492 79.0624C60.2757 77.7464 60.0937 76.1478 60.0603 74.6088C59.9817 74.5656 59.8951 74.5399 59.8063 74.5334C59.7174 74.5269 59.6283 74.5397 59.5445 74.5711C59.3595 75.2401 59.1471 75.9562 58.6191 76.3865C57.6513 77.1748 56.207 76.6095 55.0328 76.9958C54.9135 77.0237 54.8066 77.0923 54.7294 77.1905C54.602 77.3884 54.7294 77.6491 54.8356 77.8501C55.4091 78.8174 56.1372 79.5932 56.8078 80.4757C57.269 81.0819 57.2538 81.6001 57.3266 82.3884C57.4844 84.0886 57.6432 85.7867 57.803 87.4827C57.9931 89.5431 58.1853 91.6034 58.3794 93.6637C59.8753 93.7956 61.368 93.9432 62.8699 93.7454C64.5629 93.5255 66.1831 93.0858 67.8337 92.756C67.8155 92.7592 67.1662 89.5368 67.1267 89.3546Z" fill="#1E3542"/>
<path d="M52.8513 90.149L48.2729 76.782L59.0773 73.0791L61.9384 88.7828L52.8513 90.149Z" fill="#DFA63B"/>
<g style="mix-blend-mode:multiply" opacity="0.55">
<path d="M57.6664 77.3223C57.7373 75.9624 57.9728 74.6171 58.3673 73.3179L52.9606 75.1709C53.264 75.3154 53.5674 75.4473 53.8981 75.5635C54.9631 75.9498 56.3587 76.7727 57.6664 77.3223Z" fill="#B17D36"/>
</g>
<g style="mix-blend-mode:multiply" opacity="0.55">
<path d="M59.4717 81.4114C57.2204 81.1947 55.1117 79.7845 52.997 78.9931C51.4799 78.4246 49.9811 77.473 48.4762 76.7129L48.2729 76.782L52.8513 90.149L61.9384 88.7702L60.5276 81.0189C60.237 81.2846 59.8592 81.4251 59.4717 81.4114Z" fill="#B17D36"/>
</g>
<g style="mix-blend-mode:multiply" opacity="0.55">
<path d="M57.6088 82.1245C56.295 83.1704 55.6275 84.5743 54.0104 85.2653C53.1921 85.6303 52.3495 85.9337 51.489 86.173L52.8513 90.1492L61.9384 88.7704L60.473 80.7144C59.4383 81.1227 58.3885 81.5027 57.6088 82.1245Z" fill="#B17D36"/>
</g>
<g style="mix-blend-mode:multiply" opacity="0.55">
<path d="M59.0105 88.8048C58.9559 88.7577 58.6829 88.5379 58.5706 88.4405C57.1537 89.0687 55.4758 89.345 54.4897 87.7495C53.9739 86.911 54.0013 86.2012 54.1196 85.2872L53.713 85.083C53.4507 84.9064 53.1975 84.7156 52.9545 84.5114C51.3282 82.8154 51.6104 80.9592 51.6468 78.7544C51.6711 77.338 49.978 77.4259 48.5035 77.4291L52.8635 90.1585L59.4414 89.1692C59.2775 89.0404 59.1501 88.9273 59.0105 88.8048Z" fill="#B17D36"/>
</g>
<path d="M54.6748 90.1491C54.3714 89.009 52.2749 87.8721 51.9866 86.7351C51.5376 84.9732 50.5849 83.5567 50.7244 81.6722C50.8124 80.4379 51.0278 79.1377 50.5454 78.0133C49.4864 78.227 48.408 78.3207 47.3293 78.2928C47.2252 78.295 47.1219 78.2747 47.0259 78.2331C46.9104 78.1544 46.8163 78.0462 46.7528 77.919C46.4254 77.4202 45.9968 77.0012 45.4968 76.6915C44.9969 76.3818 44.4377 76.1887 43.8583 76.1257C43.6862 76.0799 43.504 76.0978 43.3433 76.1764C43.1826 76.2549 43.0535 76.3892 42.9784 76.556C42.4565 77.4197 42.235 78.5755 41.3643 79.0434C40.8242 79.3387 40.1749 79.2696 39.5651 79.2507C38.3968 79.2129 37.231 79.3829 36.1183 79.7532C36.7785 80.2186 37.3887 80.7556 37.9388 81.355C38.0912 81.4846 38.1891 81.6704 38.2119 81.8732C38.2119 82.1465 37.9691 82.3381 37.7598 82.5014C36.9769 83.1184 36.3596 83.9326 35.9666 84.8664C35.9076 84.9695 35.8708 85.0847 35.8588 85.204C35.8467 85.3232 35.8597 85.4438 35.8968 85.5573C35.9655 85.6827 36.0609 85.7902 36.176 85.8714L37.7992 87.1277C38.9522 88.0228 38.0784 88.6353 37.9479 89.7785C37.9199 90.1006 37.9435 90.4254 38.0177 90.7396C38.1545 90.7951 38.2832 90.8701 38.4 90.9626L38.9855 91.0442C39.4165 91.1453 39.8328 91.3047 40.2235 91.5185C40.6341 91.6902 41.0326 91.8917 41.4158 92.1215C41.5676 92.2251 42.3261 92.5392 41.8801 92.4921C42.2744 92.5322 42.6503 92.6843 42.9663 92.9318C46.1763 93.4061 49.5836 93.9902 52.2779 93.0983C52.73 92.9412 54.8569 90.8746 54.6748 90.1491Z" fill="#9B8EA3"/>
<g style="mix-blend-mode:multiply">
<path d="M45.9275 83.9335C46.4706 84.5239 46.8802 85.0799 46.8681 85.9404C46.8499 87.0962 47.9755 86.7539 48.7583 86.6879C49.1375 86.6669 49.5155 86.7471 49.8561 86.9209C50.1967 87.0947 50.4884 87.3563 50.7032 87.6804C50.9672 88.1484 50.9156 89.3418 51.4617 89.1157C52.0796 88.8364 52.7244 88.6258 53.3853 88.4876C52.7785 87.9002 52.1353 87.3129 51.9866 86.7256C51.5376 84.9636 50.5849 83.5472 50.7244 81.6627C50.814 80.8822 50.8526 80.0962 50.8397 79.3103C50.4692 79.4431 50.0871 79.5388 49.6989 79.5961C49.8694 79.9166 49.9538 80.2786 49.9431 80.6443C49.9324 81.01 49.8271 81.366 49.6382 81.6753C48.998 82.8028 47.478 82.9127 46.3796 83.1985C46.0337 83.2896 45.6848 83.3807 45.342 83.4844C45.5577 83.603 45.7551 83.7544 45.9275 83.9335Z" fill="#9B8EA3"/>
</g>
<g style="mix-blend-mode:multiply">
<path d="M50.2784 89.8163C49.086 90.5638 48.2304 90.8527 46.9955 90.0644C45.7607 89.2761 46.8317 88.494 45.5028 88.9086C45.2104 88.9935 44.9014 88.9958 44.6079 88.9151C44.3145 88.8345 44.0472 88.6739 43.834 88.4501C42.5991 87.0493 42.9936 85.124 41.2126 86.3709C40.8151 86.6504 40.272 86.6693 39.6682 86.5562C40.4449 86.195 41.0548 85.7742 41.3248 85.2497C41.1636 85.0756 41.0212 84.884 40.9001 84.678C39.2465 81.754 42.6173 80.7458 45.1478 79.992C45.0218 79.7965 44.9199 79.5855 44.8444 79.3639C44.7531 78.9656 44.7609 78.5498 44.867 78.1554C44.9732 77.7611 45.1741 77.401 45.4512 77.1088C45.5495 77.0228 45.6614 76.9548 45.7819 76.9078C45.2076 76.4625 44.5268 76.1877 43.8128 76.1132C43.6407 76.0674 43.4585 76.0853 43.2978 76.1639C43.1371 76.2425 43.008 76.3768 42.9329 76.5435C42.4141 77.4041 42.1926 78.5599 41.3218 79.031C40.7787 79.3231 40.1324 79.254 39.5195 79.2351C38.3514 79.1989 37.1858 79.3688 36.0728 79.7376C36.7336 80.2021 37.344 80.7392 37.8933 81.3394C38.0458 81.4693 38.1446 81.6548 38.1694 81.8577C38.1694 82.1309 37.9236 82.3225 37.7143 82.4858C36.9303 83.1004 36.3127 83.9139 35.9211 84.8476C35.8641 84.9736 35.8272 85.1083 35.8119 85.2465C35.8104 85.2653 35.8104 85.2842 35.8119 85.303C35.8092 85.3849 35.8237 85.4663 35.8544 85.5417C35.9256 85.66 36.0208 85.7608 36.1335 85.837L37.7598 87.0933C37.8144 87.1372 37.8447 87.1781 37.8933 87.2189C38.8035 88.0449 38.0298 88.6574 37.9084 89.7315C37.8793 90.0535 37.9019 90.3782 37.9752 90.6926C38.1127 90.7487 38.2423 90.8237 38.3605 90.9156L38.9461 90.9972C39.3768 91.0993 39.7929 91.2587 40.184 91.4715C40.5941 91.6445 40.9925 91.8459 41.3764 92.0745C41.5251 92.1781 42.2684 92.4922 41.8376 92.4482C42.2319 92.4861 42.6081 92.6373 42.9238 92.8848C46.1339 93.3622 49.5411 93.9432 52.2354 93.0544C52.6966 92.9005 54.7749 90.8842 54.6445 90.1367C53.2094 89.9262 51.8835 88.805 50.2784 89.8163Z" fill="#9B8EA3"/>
</g>
<path d="M72.2816 91.6378C72.8611 91.4965 73.6227 91.3897 74.0141 90.906C74.4965 90.3187 74.5572 89.1975 74.4358 88.4814C74.3479 87.9506 74.1476 87.4041 74.2963 86.8859C74.4449 86.3677 74.8454 86.0662 75.1549 85.6767C75.6515 85.0424 75.8957 84.2359 75.8376 83.4217C75.8409 83.3548 75.8298 83.288 75.8052 83.226C75.7805 83.1641 75.7429 83.1086 75.695 83.0636C75.6365 83.0331 75.5724 83.0159 75.507 83.0132C75.4416 83.0105 75.3764 83.0223 75.3157 83.0479C74.4698 83.2656 73.6505 83.5816 72.8733 83.9901C72.7519 83.1767 72.6275 82.3632 72.5062 81.5498C72.5049 81.4001 72.4716 81.2527 72.4087 81.118C72.3457 80.9833 72.2546 80.8647 72.1421 80.7709C71.9082 80.675 71.6478 80.675 71.4139 80.7709C70.3247 81.0849 68.6832 81.9078 67.5576 81.7979C66.8021 81.7225 66.5806 80.9625 65.8706 81.465C65.61 81.7338 65.3846 82.0369 65.2001 82.3664L62.6787 85.7521L58.6707 91.1447L64.6266 93.1548L68.0794 92.9287C69.3811 92.1686 70.7069 92.0273 72.2816 91.6378Z" fill="#B98EA3"/>
<g style="mix-blend-mode:multiply">
<path d="M74.3054 87.828C74.0474 87.9612 73.7808 88.0756 73.5074 88.1704C73.1292 88.3087 72.7249 88.3528 72.3272 88.2992C72.2725 88.3243 72.2028 88.3494 72.1057 88.3839C71.8629 88.5002 71.6111 88.6007 71.3593 88.698C70.3489 88.9179 69.1353 88.8142 68.5618 87.7558C68.0825 86.8858 68.0127 85.6264 68.8501 84.9291C69.1662 84.6457 69.5123 84.4003 69.8817 84.1973C69.7279 83.871 69.6547 83.5103 69.6685 83.1475C69.6822 82.7847 69.7826 82.431 69.9606 82.1182C70.2801 81.6496 70.668 81.2353 71.1105 80.8901C70.0364 81.2388 68.5801 81.9203 67.5576 81.8324C66.8021 81.757 66.5806 80.9969 65.8706 81.4994C65.61 81.7683 65.3846 82.0713 65.2001 82.4008L62.6787 85.7866L58.6707 91.1447L64.6266 93.1547L68.0794 92.9286C69.3841 92.1685 70.71 92.0272 72.2847 91.6378C72.8642 91.4964 73.6257 91.3896 74.0171 90.906C74.4996 90.3186 74.5602 89.1974 74.4389 88.4813C74.4025 88.2646 74.3479 88.0416 74.3054 87.828Z" fill="#B98EA3"/>
</g>
<path d="M70.5249 78.9491L68.8865 77.2249C68.8865 77.2249 65.3457 81.5465 64.7632 81.4554C64.1806 81.3644 62.3632 80.4315 59.3655 83.522C58.5888 84.3229 51.753 92.0209 50.7062 93.1987C50.9968 93.0825 51.305 93.0208 51.6165 93.0165C52.0776 93.0165 52.6056 93.2018 53.0789 93.2426C53.4803 93.2907 53.8785 93.3641 54.2713 93.4625C54.3984 93.4918 54.521 93.5394 54.6354 93.6038C55.2724 93.708 55.9189 93.7354 56.562 93.6855C56.9827 93.6194 57.4098 93.6078 57.8333 93.6509C58.4796 93.5316 59.1501 93.5599 59.766 93.3023C60.3932 93.0683 61.0418 92.901 61.7018 92.8029C62.2916 92.672 62.8956 92.6224 63.4979 92.6553C65.1485 90.8274 66.6746 89.0812 66.9113 88.6854C68.3919 86.2011 67.5181 84.6307 67.5515 84.034C67.6152 83.2394 70.5249 78.9491 70.5249 78.9491Z" fill="#577927"/>
<g style="mix-blend-mode:multiply" opacity="0.55">
<path d="M70.5249 78.9492L70.003 78.252C68.929 79.9888 68.0248 81.1728 66.5108 83.1986C66.5108 83.1986 62.3238 88.6729 57.8363 93.651C58.4826 93.5317 59.1531 93.5599 59.769 93.3024C60.3963 93.0684 61.0449 92.9011 61.7048 92.803C62.3028 92.6715 62.9148 92.6219 63.5253 92.6554C64.9816 91.0693 66.2893 89.6152 66.4987 89.3231C68.5527 86.4681 67.5211 84.6811 67.5606 84.0341C67.6152 83.2395 70.5249 78.9492 70.5249 78.9492Z" fill="#577927"/>
</g>
<path d="M67.6273 78.72C68.3313 77.9128 68.8865 77.2407 68.8865 77.2407L70.5249 78.965C70.5249 78.965 70.0941 79.5931 69.5601 80.4254C69.5176 80.4945 68.7955 80.215 68.2888 79.7533C67.9771 79.4817 67.7475 79.123 67.6273 78.72V78.72Z" fill="#2C4210"/>
<path d="M72.852 78.2802L71.2318 80.2149C71.2318 80.2149 69.3507 79.86 67.4483 77.0271L69.02 75.0076L72.852 78.2802Z" fill="#577927"/>
<path d="M69.915 75.7708L70.9284 76.6376C70.1938 77.2885 69.5505 78.0422 69.017 78.8769C68.6929 78.5704 68.3888 78.242 68.1067 77.8939C68.6165 77.1068 69.2245 76.3929 69.915 75.7708V75.7708Z" fill="#A0CD61"/>
<path d="M69.02 75.0076C69.02 75.0076 69.9818 75.0861 71.3835 76.0911C72.7853 77.0962 72.9795 77.8185 72.852 78.2897C72.852 78.2897 71.9418 78.3713 70.5249 77.2658C69.108 76.1602 69.02 75.0076 69.02 75.0076Z" fill="#718F46"/>
<path d="M59.7782 93.3025C60.4054 93.0684 61.054 92.9011 61.7139 92.8031C61.8626 92.7748 62.0173 92.7465 62.1569 92.7246C63.8499 90.8056 65.4944 88.9557 65.5702 88.8238C67.154 86.1981 66.4167 84.5146 66.4167 84.5146C65.2365 86.3991 61.4681 90.6454 58.8315 93.5255C59.1552 93.4946 59.4735 93.4196 59.7782 93.3025V93.3025Z" fill="#2C4210"/>
<path d="M60.8492 84.2068C60.0421 84.8821 54.6779 90.683 52.2658 93.092C52.538 93.1576 52.8135 93.2079 53.091 93.2427C53.4925 93.2908 53.8907 93.3642 54.2834 93.4626C54.4074 93.4898 54.5269 93.5353 54.6384 93.5976V93.5976C56.1555 91.8168 62.6787 84.2319 64.3475 82.693C63.058 82.6647 61.8504 83.3651 60.8492 84.2068Z" fill="#A0CD61"/>
<g style="mix-blend-mode:multiply" opacity="0.55">
<path d="M58.607 91.4149C56.4831 91.4746 54.423 91.663 52.4205 91.2704L50.7062 93.1988C50.9968 93.0827 51.305 93.021 51.6165 93.0167C51.8309 93.0178 52.0445 93.0431 52.2536 93.092C52.4023 93.1234 52.557 93.158 52.6996 93.1863C52.8249 93.2126 52.9515 93.2314 53.0789 93.2428C53.4803 93.2908 53.8785 93.3643 54.2713 93.4626C54.3984 93.4919 54.521 93.5395 54.6354 93.604C55.2724 93.7082 55.9189 93.7356 56.562 93.6856C56.9817 93.6196 57.4078 93.608 57.8303 93.6511V93.6511C58.4765 93.5317 59.1471 93.56 59.763 93.3025C60.3902 93.0684 61.0388 92.9011 61.6987 92.8031C61.8504 92.7717 62.0021 92.7466 62.1569 92.7246H62.1903C62.3329 92.7057 62.4724 92.6869 62.612 92.6743C62.7607 92.6743 62.9154 92.6523 63.058 92.6523H63.0823C63.2249 92.6523 63.3644 92.6523 63.5071 92.6523C64.2989 91.7918 65.0393 90.9752 65.5915 90.3564C63.306 90.9638 60.9648 91.3186 58.607 91.4149V91.4149Z" fill="#6B7B5A"/>
</g>
<path d="M74.9183 89.7126C74.8478 89.7436 74.7759 89.7708 74.7028 89.7942C74.5178 89.8539 74.3266 89.8885 74.1385 89.9387L74.0293 90.0235C73.8403 90.1473 73.6362 90.2444 73.4225 90.3125C73.3049 90.3523 73.182 90.3725 73.0584 90.3721C70.7737 91.3866 67.6607 92.0587 64.6843 92.4953C58.646 93.3775 52.518 93.3775 46.4797 92.4953C43.3182 92.0305 39.9898 91.3081 37.6809 90.1837L37.872 90.146C37.5419 90.0476 37.2494 89.8457 37.0346 89.5681C35.1838 89.8979 34.1796 90.1523 34.1796 90.1523C36.9466 91.7007 40.9243 92.6994 44.7048 93.3401C51.9136 94.5588 59.2656 94.5588 66.4744 93.3401C70.2518 92.712 74.2326 91.7007 76.9966 90.1523C76.9936 90.1491 76.2684 89.967 74.9183 89.7126Z" fill="#C5C2C0"/>
<path d="M101.545 100.658L106.121 99.7158L101.545 100.658Z" fill="#445C74"/>
<path d="M100.405 102.486C100.517 102.522 100.633 102.543 100.75 102.549C101.27 102.534 101.786 102.465 102.292 102.342C101.672 102.476 101.037 102.525 100.405 102.486Z" fill="#445C74"/>
<path d="M134.523 121.824C135.509 119.672 134.851 117.112 134.01 114.914C133.419 113.344 132.739 111.811 132.062 110.275C130.673 107.134 128.968 103.68 125.806 102.555C123.758 101.826 121.522 102.241 119.365 102.439C117.207 102.637 114.813 102.473 113.245 100.909C112.871 100.46 112.465 100.04 112.031 99.6531C110.933 98.8302 109.425 99.0626 108.087 99.339L106.103 99.741C106.428 99.8346 106.731 99.9974 106.992 100.219C107.254 100.441 107.467 100.717 107.62 101.029C107.923 101.723 107.668 102.521 107.444 103.246C107.034 104.56 106.712 105.901 106.479 107.26C106.385 107.616 106.385 107.991 106.479 108.347C106.764 109.107 107.732 109.254 108.518 109.188C109.304 109.122 110.196 109 110.775 109.55C110.587 110.944 108.955 111.999 109.285 113.369C109.48 114.204 110.29 114.625 110.994 115.14C111.748 114.668 112.524 114.236 113.321 113.846C114.316 113.372 115.426 112.995 116.488 113.265C117.55 113.535 118.463 114.678 118.151 115.778C119.313 115.555 120.496 115.332 121.667 115.495C122.839 115.658 124.01 116.283 124.553 117.379C125.342 118.95 124.608 120.834 124.432 122.59C124.318 123.921 124.483 125.261 124.917 126.519C125.519 126.516 126.117 126.614 126.689 126.808C127.134 126.978 127.562 127.194 127.966 127.452C129.456 126.488 130.979 125.567 132.341 124.424C133.251 123.742 133.998 122.852 134.523 121.824Z" fill="#445C74"/>
<path d="M102.504 102.313C102.67 102.289 102.837 102.278 103.005 102.282C102.837 102.279 102.67 102.29 102.504 102.313V102.313Z" fill="#445C74"/>
<path d="M103.005 102.276C103.398 102.296 103.773 102.454 104.067 102.725C103.773 102.454 103.398 102.296 103.005 102.276V102.276Z" fill="#334B66"/>
<path d="M102.504 102.313L102.292 102.341L102.504 102.313Z" fill="#334B66"/>
<path d="M108.105 99.3296L106.121 99.7316L108.105 99.3296Z" fill="#334B66"/>
<path d="M104.343 136.02C103.433 136.02 102.337 135.875 101.985 135.011C101.412 133.601 103.502 131.893 102.592 130.68C102.258 130.231 101.658 130.128 101.118 130.052C100.781 129.396 101.236 128.62 101.7 128.055C102.563 127.002 103.527 126.044 104.576 125.193C104.838 125.02 105.055 124.783 105.208 124.502C105.511 123.802 104.904 123.029 104.297 122.618C103.691 122.207 102.914 121.858 102.638 121.145C102.334 120.341 102.808 119.405 103.487 118.899C104.167 118.394 105.004 118.202 105.802 117.926C107.671 117.298 109.334 116.164 111.036 115.127C110.332 114.612 109.519 114.185 109.328 113.356C109.009 111.987 110.629 110.931 110.818 109.537C110.238 108.987 109.343 109.11 108.56 109.176C107.777 109.242 106.807 109.094 106.521 108.334C106.427 107.978 106.427 107.603 106.521 107.247C106.754 105.888 107.077 104.547 107.486 103.233C107.711 102.508 107.959 101.71 107.662 101.016C107.51 100.704 107.296 100.428 107.035 100.206C106.774 99.9847 106.471 99.8218 106.145 99.7283L101.57 100.67L99.4034 101.107C99.2092 101.735 99.7857 102.316 100.429 102.498C101.061 102.537 101.696 102.489 102.316 102.354L102.528 102.326C102.694 102.302 102.862 102.292 103.029 102.294V102.294C103.422 102.314 103.797 102.473 104.091 102.743C104.235 102.857 104.342 103.011 104.401 103.188C104.459 103.365 104.465 103.555 104.419 103.736C104.155 104.647 102.85 104.499 102.064 104.992C101.391 105.422 101.154 106.308 100.993 107.106C100.577 109.049 100.162 110.991 99.7493 112.932C94.1039 113.074 88.4594 112.617 82.904 111.569C83.8281 112.299 84.587 113.23 85.1279 114.295C85.6687 115.36 85.9783 116.535 86.0352 117.737C86.0534 118.183 86.0352 118.639 86.0564 119.088C86.3598 119.283 86.642 119.484 86.9363 119.672C87.8253 120.24 88.8751 120.712 89.8915 120.46C90.6743 120.266 91.3023 119.669 92.0487 119.361C92.7054 119.129 93.3939 119.01 94.0876 119.006C95.1314 118.94 96.3996 118.99 96.9245 119.93C97.4494 120.869 96.8517 122.282 97.498 123.18C98.1442 124.078 99.6946 124.044 99.9768 125.102C100.153 125.774 99.6734 126.415 99.2304 126.946C98.2686 128.127 97.3796 129.66 97.8196 131.136C98.3505 132.92 100.505 133.614 101.424 135.219C101.735 135.787 101.895 136.431 101.885 137.084C103.596 137.288 105.311 137.521 107.028 137.694C107.017 137.409 106.944 137.131 106.816 136.88C106.333 136.067 105.25 136.01 104.343 136.02Z" fill="#334B66"/>
<path d="M85.9775 117.351C86.7375 116.766 87.5867 116.317 88.4897 116.023C89.5456 115.665 90.7926 115.746 91.8879 115.866C92.0184 115.866 93.6234 114.009 93.8085 113.78C94.5367 112.882 93.226 112.317 92.5797 111.82C92.4526 111.711 92.3078 111.626 92.1519 111.569C91.63 111.415 91.1567 111.915 90.6348 112.081C89.3818 112.486 88.153 110.916 86.8786 111.23C86.5176 111.321 86.2051 111.544 85.8531 111.679C84.9429 111.993 83.799 111.748 82.8827 111.575C83.7537 112.267 84.478 113.136 85.0104 114.13C85.5428 115.124 85.872 116.22 85.9775 117.351V117.351Z" fill="#1E3542"/>
<path d="M104.343 136.02C103.433 136.02 102.337 135.875 101.985 135.011C101.412 133.601 103.502 131.893 102.592 130.68C102.258 130.231 101.658 130.128 101.118 130.052C100.781 129.396 101.236 128.62 101.7 128.055C102.563 127.003 103.527 126.044 104.576 125.194C104.838 125.02 105.055 124.783 105.208 124.503C105.49 123.846 104.992 123.136 104.416 122.706C104.044 123.037 103.645 123.333 103.223 123.592C102.717 123.896 102.173 124.126 101.606 124.276C100.875 125.338 100.068 126.45 99.0059 127.188C98.126 128.328 97.3827 129.748 97.7923 131.12C98.3232 132.904 100.477 133.598 101.397 135.203C101.708 135.771 101.867 136.415 101.858 137.069C103.569 137.273 105.283 137.505 107.001 137.678C106.99 137.394 106.917 137.116 106.788 136.865C106.333 136.067 105.25 136.01 104.343 136.02Z" fill="#1E3542"/>
<path d="M112.374 120.561C112.323 121.037 112.378 121.518 112.535 121.968C112.887 122.807 113.815 123.224 114.695 123.315C115.575 123.407 116.455 123.221 117.338 123.234C117.538 123.226 117.737 123.269 117.917 123.359C118.366 123.626 118.345 124.302 118.154 124.807C117.963 125.313 117.647 125.787 117.699 126.321C117.763 126.949 118.363 127.43 118.976 127.534C119.593 127.591 120.215 127.506 120.797 127.285C122.144 126.887 123.564 126.475 124.944 126.484C124.511 125.226 124.345 123.886 124.459 122.555C124.635 120.793 125.369 118.915 124.58 117.345C124.037 116.258 122.863 115.636 121.695 115.46C120.527 115.285 119.34 115.52 118.178 115.743C118.482 114.66 117.571 113.513 116.516 113.231C115.46 112.948 114.343 113.337 113.348 113.812C112.552 114.202 111.775 114.634 111.021 115.106C111.234 115.255 111.432 115.425 111.613 115.614C112.772 116.877 112.459 118.849 112.374 120.561Z" fill="#1E3542"/>
<path d="M120.812 127.285C120.23 127.506 119.608 127.591 118.991 127.533C118.385 127.43 117.778 126.959 117.714 126.321C117.662 125.787 117.975 125.303 118.169 124.807C118.363 124.311 118.382 123.626 117.933 123.359C117.752 123.269 117.553 123.225 117.353 123.234C116.47 123.234 115.587 123.4 114.71 123.315C113.833 123.231 112.89 122.807 112.55 121.968C112.394 121.518 112.339 121.037 112.389 120.561C112.474 118.849 112.787 116.877 111.643 115.639C111.462 115.45 111.264 115.28 111.051 115.131C109.349 116.167 107.686 117.285 105.817 117.929C105.026 118.205 104.182 118.4 103.502 118.903C102.823 119.405 102.343 120.344 102.653 121.148C102.929 121.861 103.687 122.207 104.312 122.621C104.938 123.036 105.526 123.808 105.223 124.506C105.07 124.786 104.854 125.023 104.592 125.197C103.542 126.047 102.578 127.006 101.715 128.058C101.251 128.623 100.805 129.399 101.133 130.055C101.673 130.125 102.274 130.228 102.607 130.684C103.518 131.896 101.424 133.604 102.001 135.015C102.352 135.878 103.454 136.032 104.358 136.023C105.262 136.013 106.348 136.07 106.807 136.877C106.935 137.128 107.008 137.406 107.019 137.691C109.048 137.92 111.091 137.984 113.13 137.882C114.835 137.772 116.564 137.474 118.066 136.626C120.651 135.165 122.18 132.323 124.322 130.231C124.844 129.733 125.394 129.269 125.97 128.84C125.577 128.084 125.244 127.296 124.975 126.484C123.579 126.475 122.159 126.886 120.812 127.285Z" fill="#192C30"/>
<path d="M97.8105 131.126C97.3705 129.65 98.2595 128.118 99.2213 126.937C99.6552 126.406 100.132 125.765 99.9677 125.093C99.6855 124.035 98.1199 124.053 97.4888 123.171C96.8578 122.288 97.4585 120.888 96.9154 119.92C96.3723 118.953 95.1223 118.931 94.0785 118.997C93.3848 119 92.6963 119.12 92.0396 119.352C91.2932 119.666 90.6652 120.256 89.8824 120.451C88.866 120.702 87.8162 120.231 86.9272 119.663C86.6238 119.474 86.3416 119.273 86.0473 119.078C86.0473 119.113 86.0473 119.148 86.0473 119.179C86.0473 119.305 86.0473 119.43 86.0625 119.553C86.0782 120.112 86.2284 120.658 86.4994 121.142C87.0637 122.062 88.1438 122.47 88.9266 123.199C90.0432 124.245 90.4103 125.781 90.4012 127.379C90.389 128.346 90.2761 129.309 90.0644 130.25C89.7398 131.755 89.315 133.325 89.2634 134.851C89.2182 135.745 89.3579 136.638 89.673 137.471C93.6325 136.271 97.7346 136.585 101.873 137.078C101.882 136.425 101.723 135.781 101.412 135.212C100.48 133.604 98.3262 132.91 97.8105 131.126Z" fill="#1E3542"/>
<path d="M103.078 114.798C103.806 114.823 104.655 114.433 104.755 113.686C104.822 113.186 104.528 112.693 104.595 112.194C104.661 111.695 105.165 111.214 105.15 110.664C105.129 109.936 104.294 109.59 103.609 109.424L104.419 107.539C104.485 107.389 104.54 107.181 104.419 107.078C104.347 107.03 104.261 107.009 104.176 107.018H103.266C103.141 106.459 103.551 105.843 103.32 105.325C103.227 105.163 103.093 105.029 102.933 104.937C102.773 104.844 102.593 104.798 102.41 104.801C102.285 104.846 102.164 104.904 102.049 104.973C101.376 105.404 101.139 106.289 100.978 107.087C100.561 109.03 100.147 110.972 99.7341 112.913C98.8451 112.938 97.9531 112.913 97.0641 112.913L98.0107 113.771C98.3218 114.098 98.6989 114.35 99.1151 114.509C99.7007 114.678 100.329 114.471 100.936 114.468C101.646 114.471 102.362 114.769 103.078 114.798Z" fill="#1E3542"/>
<path d="M119.352 102.426C117.229 102.612 114.895 102.461 113.342 100.991C113.337 101.06 113.325 101.129 113.306 101.195C113.063 101.792 112.508 102.172 112.019 102.571C111.103 103.32 110.332 104.242 109.747 105.288C110.454 105.099 111.358 104.973 111.779 105.602C112.201 106.23 111.737 107.203 111.995 107.96C112.994 107.193 114.044 106.497 115.135 105.878C114.898 106.358 115.526 106.896 116.045 106.77C116.564 106.644 116.886 106.164 117.177 105.718C117.468 105.272 117.817 104.794 118.327 104.691C118.632 104.663 118.94 104.69 119.237 104.769C120.499 104.983 121.777 104.603 122.999 104.226C123.628 104.034 124.331 103.767 124.562 103.136C124.613 102.992 124.636 102.838 124.629 102.684C124.622 102.531 124.586 102.38 124.523 102.241C122.839 101.987 121.076 102.276 119.352 102.426Z" fill="#1E3542"/>
<path d="M97.1733 125.467C97.1733 125.372 97.1733 125.278 97.1733 125.181C97.1672 125.278 97.1672 125.372 97.1733 125.467Z" fill="#334B66"/>
<path d="M127.041 130.79C127.248 131.413 127.504 132.017 127.805 132.596C128.315 132.213 128.843 131.852 129.38 131.507C129.071 131.307 128.742 131.141 128.4 131.01C127.962 130.861 127.502 130.787 127.041 130.79V130.79Z" fill="#334B66"/>
<path d="M121.737 138.573C120.587 139.22 119.258 139.449 117.948 139.534C116.384 139.613 114.816 139.564 113.26 139.386C113.26 139.405 113.26 139.424 113.26 139.443C114.814 139.619 116.38 139.668 117.942 139.591C119.252 139.506 120.581 139.277 121.731 138.626C123.716 137.508 124.89 135.325 126.534 133.721C126.939 133.331 127.368 132.969 127.818 132.637L127.799 132.596C127.357 132.925 126.934 133.282 126.534 133.664C124.896 135.272 123.722 137.452 121.737 138.573Z" fill="#334B66"/>
<path d="M97.1612 125.103C97.1596 125.129 97.1596 125.156 97.1612 125.183C97.1596 125.157 97.1596 125.131 97.1612 125.106V125.103Z" fill="#334B66"/>
<path d="M99.9343 139.22C99.6983 138.579 99.5949 137.895 99.6309 137.21C99.5889 137.913 99.6923 138.618 99.9343 139.277C102.968 138.356 106.124 138.595 109.301 138.962C109.301 138.944 109.301 138.925 109.301 138.906C106.133 138.542 102.987 138.3 99.9343 139.22Z" fill="#334B66"/>
<path d="M158.049 125.021C158.819 125.356 159.498 125.878 160.03 126.544C160.562 127.209 160.931 127.998 161.105 128.843C161.256 129.628 161.238 130.445 161.469 131.208C161.772 132.238 162.518 133.058 163.162 133.906C165.039 136.386 166.254 139.333 166.684 142.452C166.807 143.034 166.766 143.64 166.566 144.198C166.214 144.974 165.322 145.367 164.494 145.348C163.665 145.329 162.88 144.98 162.124 144.625C152.752 140.178 139.842 133.633 131.662 127.128C130.943 126.554 130.202 125.963 129.744 125.15C129.089 123.997 129.098 122.537 129.517 121.271C129.985 120.022 130.682 118.878 131.571 117.904C132.15 117.216 132.784 116.544 133.121 115.705C133.595 114.559 133.561 113.155 134.48 112.269C135.4 111.384 136.692 110.881 137.879 110.473C138.546 110.247 139.426 110.184 140.003 110.693C140.4 111.048 140.837 111.971 141.383 111.264L142.463 109.87C142.531 109.762 142.63 109.679 142.745 109.631C142.979 109.562 143.188 109.798 143.301 110.021C143.413 110.244 143.513 110.507 143.741 110.592C144.095 110.718 144.396 110.325 144.651 110.043C144.949 109.712 145.334 109.479 145.758 109.371C145.834 109.341 145.916 109.33 145.996 109.34C146.077 109.349 146.155 109.378 146.222 109.424C146.291 109.5 146.34 109.593 146.365 109.694C146.456 109.983 146.55 110.269 146.644 110.555C146.697 110.7 146.731 110.852 146.744 111.007C146.769 111.5 146.383 111.902 146.028 112.235L148.225 112.715C148.509 112.291 148.899 111.956 149.354 111.745C149.499 111.676 149.942 111.45 150.103 111.512C150.321 111.6 150.428 112.122 150.528 112.345C150.673 112.659 151.041 113.139 150.892 113.51C150.704 113.981 149.903 114.013 149.502 114.113C147.111 114.7 149.73 116.406 150.634 116.94C151.799 117.615 153.17 118.309 153.604 119.729C153.923 120.784 153.604 122.003 154.123 122.973C154.818 124.346 156.648 124.427 158.049 125.021Z" fill="#B09187"/>
<path d="M137.157 116.817C137.603 116.407 138.073 116.025 138.564 115.674C138.469 114.658 138.539 113.632 138.771 112.64C138.189 112.084 137.739 111.396 137.457 110.63C136.395 111.01 135.297 111.478 134.477 112.272C133.567 113.158 133.591 114.562 133.118 115.708C132.745 116.477 132.255 117.179 131.668 117.788C133.401 117.031 135.279 116.699 137.157 116.817V116.817Z" fill="#5D4D4E"/>
<path d="M163.162 133.906L163.125 133.862C163.028 133.881 162.931 133.909 162.822 133.922C162.737 134.035 162.652 134.148 162.543 134.283L161.784 135.297C161.004 136.158 160.082 137.138 159.054 137.665C157.222 138.614 155.267 139.283 153.249 139.65C156.101 141.495 159.059 143.156 162.109 144.622C162.864 144.98 163.65 145.332 164.478 145.348C165.307 145.363 166.199 144.974 166.551 144.198C166.751 143.64 166.792 143.034 166.669 142.452C166.243 139.334 165.034 136.387 163.162 133.906V133.906Z" fill="#1E3542"/>
<path d="M161.984 137.926C161.742 136.67 161.493 135.414 161.223 134.157C160.529 134.078 159.866 133.82 159.294 133.405C158.723 132.991 158.261 132.434 157.952 131.786C157.178 130.181 156.739 128.837 156.739 127.075L155.749 126.616C153.971 125.797 153.644 124.003 153.195 122.386C151.981 123.121 150.346 123.187 149.029 122.734C148.821 122.691 148.632 122.581 148.489 122.42C148.345 122.258 148.255 122.054 148.231 121.836C148.107 121.064 148.264 120.803 147.469 120.533C147.105 120.41 147.026 119.905 147.069 119.521C147.111 119.138 147.196 118.686 146.963 118.375L145.076 118.611C144.895 118.655 144.705 118.636 144.535 118.557C144.117 118.306 139.708 117.571 139.377 117.2C139.343 117.164 139.304 117.131 139.262 117.103C138.655 116.71 137.609 117.285 136.984 117.364C136.557 117.423 136.123 117.335 135.749 117.116C135.066 116.729 134.644 115.925 133.956 115.577C133.064 115.128 132.596 116.654 132.135 117.21C131.116 118.485 130.011 119.682 129.489 121.293C129.071 122.549 129.062 124.019 129.717 125.172C130.175 125.985 130.915 126.576 131.634 127.15C139.827 133.649 152.724 140.2 162.097 144.644C162.852 145.002 163.638 145.354 164.466 145.37C165.295 145.385 166.187 144.996 166.539 144.22C166.654 143.945 166.715 143.648 166.718 143.347C164.469 142.304 162.522 140.706 161.984 137.926Z" fill="#5D4D4E"/>
<path d="M137.062 124.719C137.062 124.719 135.051 118.463 136.219 115.674L119.792 120.385C119.792 120.385 124.01 124.308 125.087 128.117C125.087 128.127 132.341 129.21 137.062 124.719Z" fill="#828187"/>
<path d="M130.466 124.81C130.163 124.311 129.86 123.802 129.577 123.29C129.517 123.183 128.825 122.138 129.432 122.942C128.334 121.537 127.351 120.042 126.492 118.469L119.792 120.395C119.792 120.395 124.01 124.317 125.087 128.127C127.641 128.412 130.225 128.142 132.672 127.332C131.802 126.63 131.056 125.776 130.466 124.81V124.81Z" fill="#4B4A53"/>
<g style="mix-blend-mode:multiply" opacity="0.5">
<path d="M128.264 127.524C127.462 126.596 126.72 125.613 126.043 124.584C125.132 123.105 123.961 121.459 123.197 119.748L120.363 120.561C120.363 120.561 124.583 124.481 125.66 128.29C126.725 128.414 127.799 128.436 128.867 128.356C128.679 128.074 128.482 127.794 128.264 127.524Z" fill="#5C5B63"/>
</g>
<path d="M121.346 122.021C126.14 122.791 131.252 120.451 135.861 118.102C135.819 117.276 135.941 116.449 136.219 115.674L119.792 120.385C119.792 120.385 120.469 121.026 121.346 122.021Z" fill="#605E66"/>
<path d="M137.062 114.93C137.062 114.93 133.118 112.759 127.526 114.449C121.934 116.139 118.193 119.725 118.812 120.394C119.431 121.063 123.634 120.878 129.207 119.113C134.781 117.348 138.658 115.542 137.062 114.93Z" fill="#45454D"/>
<path d="M137.062 114.93C137.062 114.93 133.118 112.759 127.526 114.449C121.934 116.139 118.193 119.725 118.812 120.394C119.431 121.063 123.634 120.878 129.207 119.113C134.781 117.348 138.658 115.542 137.062 114.93ZM128.701 118.322C124.292 119.719 121.24 120.272 120.751 119.744C120.263 119.217 123.23 116.377 127.642 115.033C132.053 113.689 135.187 115.416 135.187 115.416C136.45 115.906 133.109 116.927 128.701 118.322V118.322Z" fill="#A1A1A4"/>
<path d="M175.674 150.068C175.58 149.99 175.614 149.877 175.41 149.896C175.295 148.84 176.017 148.068 175.929 146.956C175.794 145.844 175.503 144.758 175.064 143.733C174.06 141.419 171.399 140.254 169.051 140.14C166.478 140.018 162.731 141.689 161.672 138.51C160.85 136.042 161.766 133.096 159.487 131.243C158.386 130.344 156.978 130.187 155.655 129.942C154.044 129.644 152.479 129.098 150.895 128.724H151.896C150.764 128.224 149.863 127.326 148.81 126.686C147.9 126.13 147.008 125.797 146.113 125.313C145.57 124.657 140.461 123.259 139.532 122.835C139.435 121.861 138.015 120.815 137.105 120.401C137.116 120.429 137.122 120.459 137.122 120.489C137.122 120.519 137.116 120.549 137.105 120.577C136.028 120.451 134.96 120.837 133.816 120.636C133.091 120.577 131.71 120.875 131.003 120.925C130.847 121.048 130.676 121.148 130.494 121.224C130.303 121.538 130.412 121.365 130.169 121.538C129.949 121.928 129.606 122.229 129.198 122.389C128.619 123.193 127.478 123.397 126.467 124.006C125.715 123.969 124.95 124.757 124.14 124.949C124.064 125.321 123.881 125.66 123.615 125.922C123.746 126.601 123.212 127.524 122.981 128.278C122.939 128.265 122.901 128.24 122.872 128.206C122.856 128.456 122.778 128.698 122.644 128.907C122.511 129.116 122.327 129.286 122.11 129.399C121.613 130.74 120.442 130.765 119.298 130.684C119.173 130.621 119.125 130.495 118.994 130.439C118.97 130.439 118.931 130.52 118.979 130.527C118.731 130.373 118.421 130.228 118.166 130.093C118.072 130.36 118.021 130.165 117.747 130.341C117.807 130.365 117.873 130.366 117.933 130.343C117.993 130.321 118.044 130.276 118.075 130.219C116.765 130.211 115.457 130.316 114.164 130.533C112.608 130.812 112.01 131.664 110.73 132.348C108.636 133.466 101.931 129.377 99.7705 130.662C98.8967 131.183 98.217 131.971 97.413 132.546C96.436 133.247 95.3134 133.586 94.1483 134.038C93.1744 134.415 82.3973 139.478 81.7632 140.423C81.0502 141.485 81.7632 142.851 80.9379 143.84L81.5083 144.135C79.6878 144.94 77.6641 145.847 75.7799 146.695C74.4419 147.301 71.2743 146.965 71.0771 149.154C72.9643 149.117 74.7787 148.62 76.7842 148.73C78.0859 148.803 78.4317 149.293 79.5361 149.735C80.3948 150.084 81.3384 149.849 82.2243 149.801C83.1103 149.754 97.8317 148.693 98.7025 148.909C99.5733 149.126 100.174 149.852 100.99 150.254C102.532 151.017 105.796 150.744 104.328 153.212C103.554 154.513 99.6643 157.069 100.854 158.671C101.991 160.197 109 159.478 110.563 159.258C113.266 158.881 115.794 157.305 118.366 156.475C120.621 155.75 123.297 154.305 125.648 154.399L125.217 154.547C126.483 154.657 127.809 154.302 129.089 154.368C129.972 154.412 130.982 154.516 131.798 154.556C133.774 154.651 135.585 155.05 137.515 155.313C137.772 156.57 136.213 156.529 135.837 157.339C139.857 157.581 148.553 158.231 152.636 157.967C154.627 157.835 154.524 157.298 155.367 155.744C156.344 153.982 157.643 154.324 159.351 153.972C161.963 153.435 164.166 152.339 166.83 153.344C168.019 153.787 169.169 154.801 170.522 154.544C171.245 154.409 171.433 153.806 172.385 153.825C172.992 153.825 173.55 154.107 174.136 154.308C176.915 155.251 179.355 156.234 182.267 155.612C183.46 155.361 184.516 154.396 185.699 154.261C186.803 154.139 187.896 154.735 188.979 154.842C189.255 153.407 187.407 153.134 186.421 153.083C184.846 153.005 184.312 153.398 182.944 152.374C181.029 150.923 178.86 151.117 177.006 149.861C176.903 149.788 176.787 149.737 176.665 149.711C176.543 149.684 176.417 149.683 176.295 149.707C176.172 149.731 176.055 149.779 175.951 149.85C175.847 149.921 175.757 150.012 175.686 150.119L175.674 150.068Z" fill="#2A2A2C"/>
<path d="M186.406 153.033C184.831 152.955 184.297 153.347 182.929 152.323C181.014 150.872 178.845 151.067 176.991 149.811C176.888 149.738 176.772 149.687 176.65 149.66C176.528 149.634 176.402 149.633 176.28 149.657C176.157 149.68 176.04 149.729 175.936 149.8C175.831 149.87 175.742 149.962 175.671 150.068C175.577 149.99 175.611 149.877 175.407 149.896C175.316 149.063 175.741 148.404 175.884 147.619C175.183 147.564 174.499 147.37 173.869 147.047C170.371 145.238 169.26 147.527 166.363 148.715C164.439 149.503 163.119 149.318 161.114 148.947C159.748 148.696 158.453 147.399 157.585 146.309C157.458 146.409 157.324 146.507 157.2 146.607C154.469 148.633 151.132 149.409 148.355 147.009C147.658 146.403 147.069 145.673 146.617 144.855C146.134 145.09 145.64 145.301 145.1 145.511C143.191 146.268 136.18 145.552 134.714 144.255C134.189 143.79 132.551 140.59 132.59 140.593C129.195 140.112 125.852 141.189 122.478 140.866C118.212 140.458 115.053 138.234 115.472 133.356C115.593 132.304 115.826 131.268 116.167 130.269C115.493 130.31 114.823 130.39 114.158 130.508C112.602 130.787 112.004 131.638 110.724 132.323C108.63 133.441 101.925 129.352 99.7644 130.637C98.8906 131.158 98.211 131.946 97.4069 132.521C96.43 133.221 95.3073 133.561 94.1422 134.013C93.1683 134.39 82.3912 139.453 81.7571 140.398C81.0441 141.46 81.7571 142.826 80.9318 143.815L81.5022 144.11C79.6818 144.914 77.658 145.822 75.7739 146.67C74.4358 147.276 71.2682 146.94 71.071 149.129C72.9582 149.092 74.7726 148.595 76.7782 148.705C78.0798 148.777 78.4257 149.267 79.5301 149.71C80.3887 150.059 81.3323 149.823 82.2183 149.776C83.1042 149.729 97.8256 148.668 98.6964 148.884C99.5672 149.101 100.168 149.826 100.984 150.228C102.525 150.992 105.79 150.718 104.322 153.187C103.548 154.487 99.6582 157.044 100.848 158.646C101.985 160.172 108.994 159.453 110.557 159.233C113.26 158.856 115.787 157.279 118.36 156.45C120.615 155.725 123.291 154.28 125.642 154.374L125.211 154.522C126.477 154.632 127.802 154.277 129.083 154.343C129.966 154.387 130.976 154.49 131.792 154.531C133.767 154.626 135.579 155.024 137.508 155.288C137.766 156.545 136.207 156.504 135.831 157.314C139.851 157.556 148.546 158.206 152.63 157.942C154.621 157.81 154.518 157.273 155.361 155.718C156.338 153.957 157.637 154.299 159.345 153.947C161.957 153.41 164.16 152.314 166.824 153.319C168.013 153.762 169.163 154.776 170.516 154.519C171.238 154.384 171.427 153.781 172.379 153.799C172.986 153.799 173.544 154.082 174.13 154.283C176.909 155.225 179.349 156.208 182.261 155.587C183.454 155.335 184.51 154.371 185.693 154.236C186.797 154.114 187.89 154.71 188.973 154.817C189.249 153.357 187.401 153.083 186.406 153.033Z" fill="#1E1F21"/>
<path d="M116.561 142.876C117.939 142.794 120.663 142.166 120.809 140.335C119.841 140.263 119.022 140.841 118.139 141.183C116.792 141.701 115.487 141.642 114.085 141.569C111.751 141.435 109.413 141.743 107.186 142.477C105.256 143.105 103.059 144.022 101.488 145.304C100.232 146.337 99.2426 147.612 98.1928 148.809C98.3642 148.822 98.5345 148.847 98.7025 148.884C98.9846 148.962 99.2536 149.084 99.5004 149.245C100.022 148.755 100.511 148.086 100.954 147.675C101.772 146.86 102.717 146.192 103.748 145.699C105.535 144.867 107.55 143.95 109.467 143.451C111.682 142.857 114.276 143.011 116.561 142.876Z" fill="#040609"/>
<path d="M132.963 145.103C133.673 144.314 134.177 143.291 135.105 142.782C133.734 143.743 131.908 144.302 130.491 145.294C128.409 146.752 126.492 147.973 124.077 148.853C121.786 149.685 120.069 151.434 118.351 153.134C117.669 153.835 117.123 154.666 116.743 155.58C116.531 156.048 116.367 156.717 116.136 157.301C116.88 156.987 117.62 156.673 118.366 156.441C118.818 156.296 119.277 156.127 119.768 155.935C119.808 155.838 119.844 155.74 119.877 155.637C120.484 153.655 121.291 152.022 123.2 150.992C125.46 149.773 127.869 148.985 130.075 147.631C131.15 146.936 132.123 146.085 132.963 145.103V145.103Z" fill="#040609"/>
<path d="M170.158 152.669C168.141 152.009 166.296 151.34 164.166 151.243C161.548 151.12 159.554 150.436 157.16 149.409C155.613 148.743 153.462 148.978 152.139 147.631C151.639 147.094 151.327 146.4 151.253 145.659C150.849 148.231 153.268 149.321 155.234 150.081C157.5 150.96 159.694 152.144 162.106 152.641C162.782 152.779 163.505 152.794 164.199 152.904C165.091 152.849 165.984 152.981 166.824 153.294C168.013 153.737 169.163 154.751 170.516 154.494C171.123 154.377 171.36 153.931 172 153.809C171.435 153.35 170.816 152.967 170.158 152.669V152.669Z" fill="#040609"/>
<path d="M175.064 143.733C174.06 141.419 171.399 140.254 169.051 140.14C167.379 140.062 165.21 140.737 163.608 140.348C162.188 140.747 160.713 141.051 159.308 141.328C161.487 143.046 164.827 140.866 167.346 141.221C170.149 141.65 172.839 142.664 175.253 144.201C175.18 144.048 175.128 143.872 175.064 143.733Z" fill="#696A68"/>
<path d="M113.7 137C113.562 137.025 113.421 137.034 113.281 137.028C112.465 137.766 110.611 137.433 109.546 138.036C108.063 138.878 108.958 139.873 110.405 139.654C111.163 139.537 111.87 139.076 112.623 138.944C113.281 138.828 114.055 139.164 114.559 138.63C115.39 137.766 114.465 136.262 113.7 137Z" fill="#696A68"/>
<path d="M129.365 140.134C127.66 140.288 126.027 139.716 124.334 140.304C123.555 140.574 122.553 140.844 121.907 141.412C121.261 141.981 121.504 142.747 121.064 143.253C120.681 143.693 119.416 143.733 118.846 143.843C117.971 144.002 117.085 144.075 116.197 144.063C115.326 144.063 114.51 144 113.658 143.919C112.623 143.818 112.14 144.148 111.23 144.6C109.865 145.291 108.066 144.23 106.785 145.156C106.551 145.363 106.39 145.645 106.329 145.958C106.268 146.271 106.31 146.595 106.449 146.88C106.825 147.628 108.075 147.713 108.794 147.697C110.805 147.647 112.863 146.786 114.862 146.601C116.567 146.441 117.638 147.141 119.031 147.973C120.548 148.884 122.475 147.973 123.885 147.176C124.59 146.753 125.369 146.478 126.176 146.365C126.783 146.29 127.739 146.384 128.255 146.051C128.843 145.684 128.518 144.98 127.951 144.566C127.208 144.022 126.2 144.346 125.457 143.959C123.579 142.992 127.842 142.04 128.391 141.883C128.998 141.711 129.817 141.569 129.826 140.79C129.826 140.2 129.286 139.776 128.825 140.181C129.006 140.189 129.188 140.173 129.365 140.134V140.134Z" fill="#515250"/>
<path d="M160.419 137.835C159.205 136.695 157.385 137.207 155.925 137.317C154.921 137.376 153.914 137.244 152.955 136.927C151.996 136.613 151.356 135.985 150.479 135.52C149.099 134.801 147.354 135.206 145.864 134.87C144.893 134.644 139.065 134.556 138.176 135.109C137.348 135.618 136.993 136.196 136.025 136.431C135.336 136.598 134.626 136.993 135.418 137.687C136.125 138.316 137.384 138.353 138.246 138.422C139.289 138.507 144.963 138.535 146.019 138.576C146.714 138.601 147.982 138.438 148.604 138.796C149.302 139.198 149.156 139.738 148.528 139.999C148.016 140.222 146.875 140.206 147.949 140.724C148.859 141.155 150.103 141.01 151.053 141.167C152.002 141.324 153.001 141.585 153.968 141.764C154.842 141.921 156.981 142.568 157.643 141.764C157.946 141.406 157.74 140.995 158.195 140.665C158.574 140.392 159.205 140.351 159.645 140.351C160.592 140.351 161.411 140.932 161.274 139.534C161.205 138.768 161.484 137.703 160.419 137.835Z" fill="#515250"/>
<path d="M149.175 147.697C147.633 146.557 140.203 147.273 138.534 147.788C137.166 148.212 135.388 149.025 133.934 148.73C133.173 148.57 132.869 148.209 132.056 148.432C131.753 148.52 130.236 148.912 130.275 149.264C130.318 149.911 132.702 149.616 133.127 149.635C133.98 149.676 134.535 149.983 135.251 150.432C136.465 151.196 137.718 151.199 139.144 151.12C140.239 151.057 145.491 150.615 146.465 150.288C147.315 150.005 148.207 150.112 148.892 149.415C149.126 149.176 149.481 148.652 149.454 148.303C149.411 147.863 149.314 148.067 149.175 147.697Z" fill="#696A68"/>
<path d="M171.521 144.88C170.753 144.672 170.468 144.496 170.086 143.919C169.643 143.24 169.336 143.168 168.496 143.042C166.42 142.728 164.755 143.718 162.767 144.12C162.109 144.251 157.136 143.966 157.121 144.286C157.081 145.077 159.193 144.729 159.202 145.621C159.202 146.362 157.791 146.309 157.321 146.359C156.732 146.422 155.364 146.437 156.053 147.197C156.566 147.766 158.025 147.797 158.717 147.86C159.676 147.948 160.695 148.099 161.654 147.901C162.613 147.703 163.556 147.43 164.576 147.399C165.947 147.361 167.783 147.612 168.778 148.529C169.931 149.591 172.288 149.512 173.796 149.195C175.189 148.903 175.374 146.855 174.312 146.007C173.763 145.571 173.114 145.567 172.519 145.326C172.033 145.131 172.112 145.04 171.521 144.88Z" fill="#696A68"/>
<path d="M91.3934 150.329C90.5984 148.759 89.0237 149.921 88.2622 150.665C88.6599 150.972 89.1153 151.19 89.5992 151.304C90.0831 151.418 90.5847 151.426 91.0717 151.328C92.5311 150.995 91.8181 151.168 91.3934 150.329Z" fill="#232325"/>
<path d="M101.063 153.664C99.7826 152.801 99.5672 151.752 97.8378 151.78C96.7121 151.78 94.3091 152.031 93.6386 153.115C94.0846 153.818 94.9645 154.161 95.5015 154.754C95.8444 155.134 95.5925 155.319 96.1083 155.586C96.5452 155.803 97.1824 155.586 97.6254 155.473C98.5356 155.197 99.0362 154.512 99.8797 154.117C100.238 153.947 102.362 154.544 101.063 153.664Z" fill="#232325"/>
<path d="M131.462 156.89C130.221 156.601 129.338 156.199 128.027 156.447C126.813 156.676 125.679 157.122 124.495 157.352C124.465 158.115 126.034 159.506 126.737 159.55C127.736 159.626 128.558 158.639 129.744 158.878C130.618 159.057 131.738 160.112 132.241 158.774C132.618 157.779 132.266 157.075 131.462 156.89Z" fill="#232325"/>
<path d="M174.573 157.11C173.684 156.796 172.258 156.814 171.326 156.796C170.462 156.796 168.508 156.972 169.949 158.024C170.632 158.523 172.425 158.724 173.198 158.47C173.766 158.288 176.151 157.694 174.573 157.11Z" fill="#232325"/>
<path d="M178.86 157.553C178.183 157.132 176.014 157.295 176.949 158.529C177.316 159.013 179.485 158.881 180.025 158.872C180.15 157.798 179.449 157.923 178.86 157.553Z" fill="#232325"/>
<path d="M121.901 136.095C125.503 132.675 130.488 129.779 135.33 128.78C137.311 128.372 143.662 128.419 145.452 129.409C147.081 130.294 148.653 130.781 149.736 132.414C147.582 132.512 140.91 130.611 138.877 130.326C136.753 130.012 134.356 130.351 132.299 130.882C131.234 131.129 130.197 131.495 129.207 131.971C128.297 132.439 127.751 133.19 126.95 133.856C125.433 135.112 123.986 136.079 122.004 136.001C121.85 136.001 121.583 135.907 121.397 135.885C121.476 135.882 121.804 136.095 121.901 136.095Z" fill="#040609"/>
<g style="mix-blend-mode:multiply" opacity="0.32">
<path d="M128.403 118.413C124.155 119.738 121.228 120.26 120.751 119.744C120.378 119.342 121.995 117.618 124.72 116.224C124.556 116.07 124.416 115.91 124.25 115.74C120.566 117.533 118.324 119.864 118.812 120.395C119.419 121.064 123.634 120.878 129.207 119.113L129.987 118.862C129.451 118.744 128.922 118.594 128.403 118.413V118.413Z" fill="#A1A1A4"/>
</g>
<path d="M130.275 126.362C128.688 117.929 129.471 110.724 134.065 103.569C136.248 100.151 138.182 96.5694 139.851 92.8533C141.583 88.9305 141.844 84.5083 142.078 80.1992C141.647 81.8136 141.217 83.4289 140.788 85.0454C140.28 87.1076 139.66 89.1386 138.931 91.129C136.34 97.8282 131.364 103.321 128.807 110.033C126.698 115.603 126.351 121.721 127.815 127.508C128.151 127.376 129.926 126.503 130.275 126.362Z" fill="#608B4C"/>
<g style="mix-blend-mode:multiply" opacity="0.55">
<path d="M133.94 103.774C133.822 101.635 135.017 99.6437 136.532 97.3729C137.662 95.6413 138.63 93.8019 139.423 91.8797C140.481 89.2817 141.223 86.5577 141.632 83.7703C141.839 82.5919 141.988 81.4031 142.078 80.2087C141.647 81.8231 141.217 83.4385 140.788 85.0549C140.28 87.1171 139.66 89.1482 138.931 91.1385C136.34 97.8377 131.364 103.331 128.807 110.043C126.698 115.612 126.351 121.731 127.815 127.518C128.16 127.376 129.938 126.503 130.275 126.362C128.704 118.008 129.462 110.859 133.94 103.774Z" fill="#608B4C"/>
</g>
<path d="M146.204 99.7881C143.379 99.1349 143.716 97.7875 142.26 97.1122C140.667 96.3773 138.507 96.2799 136.799 96.6631C136.799 96.6631 137.405 95.6424 137.897 95.2969C139.153 94.406 140.597 93.8396 142.108 93.6448C142.511 93.5836 142.919 93.5836 143.322 93.6448C144.535 93.8553 145.467 94.9011 145.895 96.0695C146.323 97.2379 146.316 98.535 146.204 99.7881Z" fill="#608B4C"/>
<g style="mix-blend-mode:multiply" opacity="0.55">
<path d="M144.96 97.2912C144.59 95.5167 143.616 94.5682 142.533 94.5745C140.976 94.5745 139.626 95.2466 138.264 95.5952C138.051 95.8501 137.856 96.1209 137.681 96.4055C139.16 96.0724 140.7 96.2002 142.108 96.773C143.237 97.2944 143.495 98.3026 145.446 98.8585C145.208 98.3644 145.045 97.836 144.96 97.2912V97.2912Z" fill="#608B4C"/>
</g>
<path d="M134.377 90.2811C134.055 90.0496 133.682 89.9063 133.292 89.8646C132.902 89.8228 132.508 89.884 132.147 90.0424C131.427 90.3686 130.792 90.8682 130.296 91.4997C129.444 92.489 128.713 93.7893 129.001 95.0802C129.96 94.719 130.864 94.207 131.844 93.9244C132.824 93.6417 133.943 93.6103 134.799 94.1945C135.203 94.4677 135.521 94.854 135.913 95.1367C136.304 95.4194 137.19 95.881 137.639 95.6989C136.965 94.386 135.919 92.822 135.245 91.5123C135.041 91.0441 134.746 90.6248 134.377 90.2811V90.2811Z" fill="#608B4C"/>
<g style="mix-blend-mode:multiply" opacity="0.55">
<path d="M132.702 91.4556C131.343 91.4556 130.275 93.5536 129.277 94.5963C130.117 94.2028 130.975 93.8547 131.85 93.5536C132.833 93.2741 133.949 93.2395 134.805 93.8237C135.209 94.0969 135.527 94.4832 135.919 94.7659C136.31 95.0486 137.196 95.5103 137.645 95.3281C135.913 94.0247 134.875 91.4556 132.702 91.4556Z" fill="#608B4C"/>
</g>
<path d="M141.881 80.5134C142.217 79.7408 143.094 78.943 143.75 78.4154C147.852 75.0768 153.258 73.1515 158.368 74.2508C160.073 74.6182 161.727 75.3092 163.468 75.4034C160.737 76.2137 159.22 79.1974 156.981 81.0316C155.202 82.4258 153.083 83.2815 150.861 83.5034C149.245 83.7028 147.606 83.539 146.056 83.023C144.506 82.507 143.082 81.651 141.881 80.5134V80.5134Z" fill="#608B4C"/>
<g style="mix-blend-mode:multiply" opacity="0.55">
<path d="M142.257 80.5258C142.521 79.9165 143.219 79.2853 143.725 78.8738C146.954 76.2513 151.204 74.7343 155.221 75.6012C156.563 75.8901 157.861 76.4335 159.23 76.5057C157.072 77.1338 155.892 79.4894 154.129 80.9341C152.73 82.0283 151.066 82.7001 149.32 82.8751C148.049 83.0324 146.76 82.9039 145.541 82.4985C144.322 82.093 143.202 81.4202 142.257 80.5258V80.5258Z" fill="#608B4C"/>
</g>
<path d="M142.108 80.8368C142.02 77.74 140.145 74.973 137.909 72.9158C135.673 70.8586 133.036 69.3165 130.718 67.3567C130.996 68.6604 131.153 69.9887 131.185 71.3234C131.213 72.7556 131.1 74.2129 131.452 75.598C131.685 76.4827 132.099 77.3053 132.666 78.0098C133.233 78.7143 133.94 79.2842 134.738 79.681C136.996 80.7802 138.58 81.176 142.108 80.8368Z" fill="#608B4C"/>
<g style="mix-blend-mode:multiply" opacity="0.55">
<path d="M141.717 80.4725C141.65 78.1013 140.2 75.9844 138.498 74.4077C136.795 72.8311 134.766 71.6502 133.006 70.1458C133.213 71.1456 133.327 72.1637 133.346 73.186C133.367 74.2821 133.279 75.4002 133.549 76.4618C133.727 77.1395 134.044 77.7695 134.479 78.3088C134.913 78.8481 135.455 79.284 136.067 79.5868C137.791 80.4317 139.004 80.7363 141.717 80.4725Z" fill="#608B4C"/>
</g>
<path d="M158.328 76.6754C156.205 76.7602 154.178 77.6176 152.163 78.3274C150.131 79.0562 148.06 79.6654 145.961 80.1522C145.206 80.3435 144.437 80.4726 143.662 80.5385C143.536 80.562 143.407 80.5579 143.283 80.5265C143.16 80.4951 143.043 80.4372 142.943 80.3563C145.294 79.7282 147.639 79.0655 149.948 78.2897C152.676 77.3758 155.485 76.2891 158.328 76.6754Z" fill="#395918"/>
<path d="M152.212 77.8593C153.137 76.2889 154.375 74.8316 156.032 74.1909C155.092 74.7948 154.278 75.5871 153.638 76.5213C153.246 77.0835 152.855 77.74 152.212 77.8593Z" fill="#395918"/>
<path d="M152.193 78.0134C153.122 77.5454 154.226 77.7276 155.228 78.0291C156.229 78.3306 157.206 78.7452 158.234 78.7138C157.753 78.8793 157.243 78.9381 156.739 78.8865C156.38 78.8507 156.023 78.793 155.671 78.7138L152.193 78.0134Z" fill="#395918"/>
<path d="M150.695 75.7928C150.387 76.0667 150.117 76.3839 149.894 76.735C149.569 77.3035 149.508 77.9913 149.287 78.6195C149.264 78.6918 149.228 78.7589 149.181 78.8174C149.117 78.8785 149.04 78.9236 148.956 78.9493C148.615 79.0869 148.263 79.192 147.903 79.2633C148.88 78.563 149.202 77.2281 149.976 76.2953C150.434 75.7921 150.96 75.3604 151.538 75.0139L150.695 75.7928Z" fill="#395918"/>
<path d="M151.071 80.2588C150.194 79.8379 149.338 79.2663 148.374 79.2349C148.643 79.087 148.939 78.9974 149.243 78.9715C149.547 78.9456 149.853 78.9839 150.142 79.0842C150.72 79.2883 151.283 79.5317 151.829 79.8128C152.822 80.2153 153.847 80.5233 154.894 80.7331C153.638 81.1351 152.263 80.8304 151.071 80.2588Z" fill="#395918"/>
<path d="M146.562 78.9807C146.455 79.1733 146.333 79.357 146.198 79.5303C146.144 79.6133 146.076 79.6856 145.998 79.7439C145.904 79.7968 145.801 79.8309 145.694 79.8444L145.142 79.9763C145.72 79.4264 146.204 78.7785 146.571 78.0605C146.648 77.8728 146.734 77.6893 146.829 77.5108C146.955 77.3147 147.107 77.138 147.281 76.9863C147.458 76.8257 147.645 76.6787 147.843 76.5466C147.462 76.974 147.159 77.4686 146.948 78.0071C146.839 78.3396 146.71 78.6647 146.562 78.9807V78.9807Z" fill="#395918"/>
<path d="M145.622 80.0893C145.579 80.0328 145.649 79.9574 145.713 79.926C146.018 79.8008 146.344 79.742 146.672 79.7533C147 79.7647 147.322 79.8459 147.618 79.992C148.208 80.2849 148.764 80.644 149.278 81.063C149.795 81.4812 150.385 81.7916 151.016 81.9769C150.582 82.0476 150.138 82.0262 149.712 81.9141C149.202 81.7351 148.817 81.3111 148.367 80.997C147.57 80.438 146.577 80.2558 145.622 80.0893Z" fill="#395918"/>
<path d="M140.364 79.3639C138.95 78.4687 137.515 77.5516 136.419 76.2765C135.242 74.926 134.496 73.2394 133.767 71.5842C135.087 73.1954 136.01 75.1553 137.524 76.5686C138.737 77.693 140.254 78.4216 141.35 79.6622C141.412 79.7198 141.463 79.7897 141.5 79.8679C141.536 79.9461 141.557 80.031 141.562 80.1176L140.364 79.3639Z" fill="#395918"/>
<path d="M135.897 75.0734C135.74 74.0449 135.83 72.9922 136.158 72.0081C136.268 73.1858 135.922 74.3982 136.177 75.554C135.97 75.3058 135.946 75.3969 135.897 75.0734Z" fill="#395918"/>
<path d="M137.967 73.3179C137.863 74.4768 137.763 75.664 138.015 76.7978C138.07 76.9659 138.07 77.1479 138.015 77.316L137.609 76.801C137.551 76.7317 137.501 76.6558 137.46 76.5748C137.421 76.4821 137.396 76.3835 137.387 76.2827C137.255 75.2552 137.459 74.2113 137.967 73.3179V73.3179Z" fill="#395918"/>
<path d="M139.617 78.4844C139.55 78.2205 139.481 77.9567 139.411 77.696C139.377 77.561 139.341 77.4291 139.317 77.294C139.199 76.5311 139.335 75.7492 139.702 75.0767C139.593 76.2858 140.006 77.4731 140.139 78.676C139.814 78.6477 139.942 78.5189 139.617 78.4844Z" fill="#395918"/>
<path d="M134.611 75.3029C135.098 75.2638 135.587 75.2818 136.07 75.3562C135.885 74.904 135.369 74.703 134.899 74.6213C133.819 74.4297 132.636 74.5773 131.689 73.9932C132.462 74.8054 133.51 75.2749 134.611 75.3029V75.3029Z" fill="#395918"/>
<path d="M135.652 77.0554C134.673 77.2094 133.676 77.1935 132.702 77.0083C133.501 77.5336 134.446 77.7679 135.388 77.6741C136.325 77.6301 137.245 77.4103 138.176 77.3067C137.836 77.0158 137.403 76.8659 136.962 76.8858C136.522 76.9077 136.084 76.9644 135.652 77.0554V77.0554Z" fill="#395918"/>
<path d="M136.85 78.7387C136.275 78.736 135.704 78.6471 135.154 78.4749C135.536 78.7818 135.966 79.0177 136.425 79.1721C136.708 79.2422 136.999 79.2749 137.29 79.2695C138.332 79.261 139.372 79.1802 140.403 79.0276C140.063 78.9522 139.796 78.635 139.475 78.5565C139.318 78.5298 139.158 78.5298 139.001 78.5565L137.788 78.679C137.484 78.7198 137.166 78.7355 136.85 78.7387Z" fill="#395918"/>
<path d="M135.913 93.9148C135.422 93.3237 134.843 92.8179 134.198 92.4166C133.874 92.2177 133.51 92.1002 133.134 92.0735C132.759 92.0468 132.382 92.1116 132.035 92.2627C131.343 92.6177 130.921 93.4091 130.215 93.7169C131.04 93.5096 131.75 92.9349 132.581 92.7558C133.27 92.6105 133.986 92.7455 134.581 93.1327C135.391 93.6667 135.931 94.6466 136.853 94.9292L135.913 93.9148Z" fill="#395918"/>
<path d="M135.193 93.4154C134.985 92.9875 134.827 92.5351 134.723 92.068C134.625 91.7835 134.592 91.4793 134.626 91.1792C134.695 91.6666 134.833 92.1408 135.036 92.5862L135.172 92.9286C135.318 93.2866 135.476 93.6478 135.636 93.9902C135.463 93.8213 135.314 93.6277 135.193 93.4154V93.4154Z" fill="#395918"/>
<path d="M133.613 92.4732C133.759 92.4923 133.898 92.5508 134.016 92.6428C134.023 92.5822 134.007 92.5213 133.971 92.4732L133.364 91.4587C133.164 91.1662 133.027 90.8333 132.96 90.4819C132.891 90.813 132.896 91.1559 132.973 91.485C133.05 91.8141 133.198 92.1208 133.406 92.3821C133.423 92.4058 133.443 92.4261 133.467 92.4418C133.512 92.4646 133.562 92.4754 133.613 92.4732Z" fill="#395918"/>
<path d="M130.882 91.3333C130.998 91.7029 131.242 92.0151 131.567 92.2094C131.892 92.4038 132.275 92.4665 132.642 92.3854C132.038 92.0671 131.45 91.7159 130.882 91.3333V91.3333Z" fill="#395918"/>
<path d="M129.441 92.935C130.124 93.081 130.83 93.0681 131.507 92.8973C131.653 92.869 131.826 92.8219 131.871 92.6743L130.205 92.7905C129.944 92.7905 129.685 92.8395 129.441 92.935V92.935Z" fill="#395918"/>
<path d="M144.587 98.2618C144.284 97.8911 144.089 97.4012 143.744 97.062C143.374 96.7452 142.934 96.5293 142.463 96.4338C141.175 96.0844 139.851 95.8946 138.519 95.8685C140.069 95.6204 141.699 95.5796 143.164 96.1606C143.664 96.3276 144.103 96.65 144.42 97.084C144.772 97.6305 144.824 98.4 145.33 98.7863C145.046 98.675 144.791 98.4952 144.587 98.2618Z" fill="#395918"/>
<path d="M140.361 95.7585C140.87 95.4636 141.354 95.122 141.805 94.7377C141.911 94.6498 142.014 94.5556 142.108 94.4645L142.612 94.0154C142.249 94.5765 141.82 95.0883 141.334 95.5386C141.202 95.6745 141.044 95.7814 140.87 95.8527C140.785 95.8843 140.693 95.8922 140.603 95.8757C140.514 95.8591 140.43 95.8187 140.361 95.7585Z" fill="#395918"/>
<path d="M144.232 94.5713C143.904 95.1888 143.457 95.7297 142.918 96.1605C142.866 96.2149 142.795 96.2473 142.721 96.2516C142.683 96.2485 142.646 96.239 142.612 96.2233L142.211 96.0569C142.658 95.795 143.083 95.4956 143.483 95.1618L144.232 94.5713Z" fill="#395918"/>
<path d="M143.741 96.5938C144.443 96.4938 145.132 96.3104 145.795 96.0474C145.36 96.356 144.892 96.6131 144.402 96.8137C144.274 96.8792 144.131 96.9074 143.989 96.8954C143.921 96.8824 143.858 96.8453 143.813 96.7904C143.768 96.7355 143.742 96.6661 143.741 96.5938Z" fill="#395918"/>
<path d="M144.314 97.3164L146.01 97.731C145.582 97.9021 145.11 97.9187 144.672 97.7781C144.56 97.7602 144.456 97.7114 144.369 97.6368C144.324 97.5987 144.294 97.5456 144.284 97.487C144.274 97.4283 144.285 97.3678 144.314 97.3164V97.3164Z" fill="#395918"/>
<path d="M100.086 139.132C98.7328 139.132 97.7316 138.46 96.4451 138.319C94.4699 138.099 92.5676 139.145 90.6257 139.503C89.6033 139.694 88.5686 139.553 87.5917 139.927C86.6147 140.3 86.2597 141.133 85.4283 141.67C84.7517 142.106 83.6837 142.157 83.2195 142.926C83.0523 143.251 82.9949 143.624 83.0565 143.987C83.1181 144.35 83.2951 144.68 83.5593 144.927C84.773 146.051 87.1426 144.707 88.6293 145.128C89.7428 145.442 90.1858 145.611 91.2993 145.09C92.1033 144.713 92.5494 143.969 93.3048 143.52C94.8006 142.625 96.6879 143.137 97.7437 141.516C98.1746 140.853 98.4689 140.772 99.2456 140.479C99.7917 140.272 100.508 140.037 100.25 139.295C100.125 138.988 100.42 139.132 100.086 139.132Z" fill="#696A68"/>
<path d="M84.4756 124.798L81.9695 126.368C81.9695 126.368 84.2056 132.508 84.0266 133.488C83.8476 134.468 81.1776 137.025 85.4617 143.482C85.4617 143.482 87.798 143.391 89.0541 143.482C90.3102 143.573 90.1919 142.182 91.8212 141.346C93.4505 140.511 95.4621 139.701 95.8201 139.173C95.321 137.922 94.7558 136.701 94.1271 135.514C91.4176 130.803 88.9206 131.356 88.2015 131.265C87.4824 131.174 84.4756 124.798 84.4756 124.798Z" fill="#577927"/>
<g style="mix-blend-mode:multiply" opacity="0.55">
<path d="M85.5558 132.807C84.3421 129.864 83.5897 128.136 82.8251 125.68L81.9816 126.362C81.9816 126.362 84.2177 132.502 84.0387 133.482C83.8597 134.462 81.1897 137.019 85.4739 143.476C85.4739 143.476 87.8101 143.385 89.0662 143.476C89.26 143.498 89.4561 143.469 89.6357 143.39C89.8153 143.311 89.9723 143.186 90.0917 143.027C85.4071 134.789 85.5588 132.813 85.5558 132.807Z" fill="#577927"/>
</g>
<path d="M85.5558 126.996C84.949 125.79 84.4756 124.798 84.4756 124.798L81.9695 126.368C81.9695 126.368 82.3002 127.276 82.6977 128.451C82.731 128.548 83.6898 128.451 84.4423 128.045C84.9031 127.814 85.2896 127.449 85.5558 126.996Z" fill="#2C4210"/>
<path d="M79.348 124.798L80.7285 127.668C80.7285 127.668 83.1194 127.841 86.2779 125.021L84.9793 122.062L79.348 124.798Z" fill="#577927"/>
<path d="M83.6655 122.69L82.1758 123.413C82.8731 124.447 83.4257 125.579 83.8172 126.773C84.3085 126.51 84.781 126.211 85.2311 125.878C84.8503 124.748 84.3237 123.675 83.6655 122.69V122.69Z" fill="#A0CD61"/>
<path d="M84.9793 122.062C84.9793 122.062 83.7899 121.846 81.7875 122.612C79.785 123.378 79.3298 124.182 79.3602 124.795C79.3602 124.795 80.4525 125.19 82.4914 124.302C84.5303 123.413 84.9793 122.062 84.9793 122.062Z" fill="#718F46"/>
<path d="M89.0541 143.476C89.1639 143.49 89.275 143.49 89.3848 143.476C89.3848 143.476 86.6541 138.68 85.2736 134.449C85.2736 134.449 83.8749 136.249 85.0036 139.946C85.1189 140.322 85.9138 142.144 86.4721 143.46C87.2579 143.419 88.3289 143.419 89.0541 143.476Z" fill="#2C4210"/>
<path d="M92.1215 135.856C91.1567 134.515 89.9067 133.278 88.332 132.895C90.0796 135.605 92.3005 140.973 92.3309 141.06C93.2199 140.624 94.1513 140.203 94.8249 139.836C93.8085 138.611 93.056 137.163 92.1215 135.856Z" fill="#A0CD61"/>
<path d="M148.98 114.292C148.058 114.056 147.114 113.919 146.165 113.881C145.67 113.862 145.13 113.881 144.748 114.213C144.668 114.272 144.61 114.358 144.584 114.455C144.532 114.722 144.851 114.898 145.109 114.923C145.367 114.948 145.685 114.955 145.822 115.184C146.034 115.542 145.582 116.048 145.798 116.406L146.86 116.34C146.961 116.328 147.064 116.334 147.163 116.359C147.527 116.465 147.6 116.955 147.84 117.257C148.004 117.427 148.214 117.543 148.442 117.588C148.671 117.632 148.907 117.605 149.12 117.508C149.531 117.308 149.9 117.027 150.206 116.679C149.229 116.06 147.739 114.892 148.98 114.292Z" fill="#5D4D4E"/>
<path d="M145.427 125.649C145.788 125.752 146.116 125.95 146.38 126.224C147.175 126.925 147.734 127.868 147.979 128.918C148.267 129.993 149.572 129.421 150.607 129.744C151.435 130.005 151.82 130.624 152.236 131.343C152.482 131.844 152.587 132.407 152.539 132.967C153.068 132.727 153.644 132.62 154.22 132.653C155.179 132.79 156.078 133.216 156.805 133.878L163.574 119.521L156.572 113.435L144.514 125.457C144.63 125.548 144.866 125.517 145.427 125.649Z" fill="#DFA63B"/>
<g style="mix-blend-mode:multiply" opacity="0.55">
<path d="M145.427 125.649C145.788 125.752 146.116 125.95 146.38 126.224C147.072 126.835 147.583 127.636 147.855 128.535C150.683 125.162 156.508 118.215 157.925 114.622L156.572 113.444L144.514 125.467C144.63 125.549 144.866 125.517 145.427 125.649Z" fill="#B17D36"/>
</g>
<path d="M156.644 113.51C156.559 114.224 156.545 114.945 156.602 115.661C156.667 116.57 157.012 117.433 157.585 118.124C157.873 118.433 158.206 118.695 158.571 118.9C160.073 119.734 161.801 120.024 163.48 119.722L163.574 119.531L156.644 113.51Z" fill="#E6BB63"/>
<g style="mix-blend-mode:multiply" opacity="0.55">
<path d="M152.236 131.343C152.482 131.844 152.587 132.407 152.539 132.967C153.068 132.727 153.644 132.62 154.22 132.653C154.494 132.688 154.764 132.749 155.027 132.835C155.53 130.998 156.138 129.194 156.848 127.433C157.494 125.844 158.237 124.16 157.925 122.467L153.101 128.375C152.691 128.878 152.281 129.377 151.887 129.892C151.772 130.043 151.666 130.206 151.55 130.354C151.811 130.659 152.04 130.99 152.236 131.343V131.343Z" fill="#B17D36"/>
</g>
<g style="mix-blend-mode:multiply" opacity="0.55">
<path d="M149.815 127.059C149.372 127.034 148.933 127.165 148.571 127.43C148.267 127.094 148.428 126.56 148.38 126.104C148.345 125.851 148.249 125.611 148.102 125.405C147.955 125.199 147.76 125.035 147.536 124.927C147.13 124.722 146.814 124.685 146.48 124.345C146.262 124.126 146.11 123.959 145.825 124.173C145.36 124.573 144.922 125.005 144.514 125.467C144.63 125.548 144.866 125.517 145.424 125.649C145.785 125.752 146.113 125.95 146.377 126.224C146.563 126.388 146.736 126.566 146.896 126.758C146.99 126.871 147.072 126.99 147.154 127.109C147.202 127.178 147.254 127.244 147.296 127.317C147.396 127.481 147.486 127.651 147.566 127.825C147.566 127.854 147.597 127.879 147.609 127.907C147.7 128.112 147.78 128.322 147.849 128.535C147.891 128.664 147.94 128.783 147.976 128.918C148.264 129.993 149.569 129.421 150.604 129.744C150.971 129.86 151.302 130.078 151.559 130.373C151.815 130.675 152.041 131.003 152.233 131.352C152.479 131.854 152.584 132.416 152.536 132.976C153.065 132.737 153.641 132.629 154.217 132.662C154.484 132.697 154.746 132.756 155.003 132.838C155.662 133.065 156.273 133.421 156.802 133.887C156.998 133.404 157.221 132.933 157.47 132.477C157.201 132.229 156.982 131.929 156.824 131.594C156.697 131.185 156.503 130.801 156.25 130.461C156.21 130.411 156.158 130.373 156.098 130.354C156.037 130.348 155.975 130.355 155.917 130.375C155.858 130.395 155.804 130.427 155.759 130.47C155.143 130.909 154.452 131.222 153.723 131.393C153.928 131.067 154.004 130.672 153.935 130.289C153.867 129.906 153.66 129.565 153.356 129.336C153.225 129.24 153.072 129.182 152.913 129.167C152.6 129.189 152.305 129.326 152.081 129.553C152.173 129.382 152.218 129.188 152.212 128.992C152.205 128.796 152.148 128.606 152.045 128.441C151.833 128.116 151.553 127.844 151.226 127.646C150.872 127.379 150.469 127.189 150.042 127.087C149.97 127.087 149.891 127.065 149.815 127.059Z" fill="#B17D36"/>
</g>
<defs>
<filter id="filter0_d_0_1" x="0" y="0" width="264" height="188" filterUnits="userSpaceOnUse" color-interpolation-filters="sRGB">
<feFlood flood-opacity="0" result="BackgroundImageFix"/>
<feColorMatrix in="SourceAlpha" type="matrix" values="0 0 0 0 0 0 0 0 0 0 0 0 0 0 0 0 0 0 127 0" result="hardAlpha"/>
<feOffset dy="4"/>
<feGaussianBlur stdDeviation="2"/>
<feComposite in2="hardAlpha" operator="out"/>
<feColorMatrix type="matrix" values="0 0 0 0 0 0 0 0 0 0 0 0 0 0 0 0 0 0 0.25 0"/>
<feBlend mode="normal" in2="BackgroundImageFix" result="effect1_dropShadow_0_1"/>
<feBlend mode="normal" in="SourceGraphic" in2="effect1_dropShadow_0_1" result="shape"/>
</filter>
<linearGradient id="paint0_linear_0_1" x1="84.8305" y1="112.787" x2="88.6322" y2="113.419" gradientUnits="userSpaceOnUse">
<stop stop-color="#A0A09D"/>
<stop offset="0.05" stop-color="#959491"/>
<stop offset="0.17" stop-color="#807F7B"/>
<stop offset="0.28" stop-color="#73726E"/>
<stop offset="0.38" stop-color="#6F6E69"/>
<stop offset="0.51" stop-color="#75746F"/>
<stop offset="0.7" stop-color="#868581"/>
<stop offset="0.8" stop-color="#92928E"/>
<stop offset="1" stop-color="#D7D6D5"/>
</linearGradient>
</defs>
</svg>
