<svg width="214" height="148" viewBox="0 0 264 188" fill="none" xmlns="http://www.w3.org/2000/svg">
<g filter="url(#filter0_d_0_1)">
<rect x="4" width="256" height="180" rx="20" fill="transparent"/>
</g>
<path d="M125.002 104.342C126.3 103.588 123.301 101.637 123.301 101.637C123.301 101.637 123.346 105.312 125.002 104.342Z" fill="#898127"/>
<path d="M124.424 105.805C124.554 104.229 121.379 105.845 121.379 105.845C121.379 105.845 124.248 107.823 124.424 105.805Z" fill="#898127"/>
<path d="M110.447 121.885C111.541 120.819 108.179 119.691 108.179 119.691C108.179 119.691 109.047 123.246 110.447 121.885Z" fill="#898127"/>
<path d="M112.063 121.556C113.514 121.794 112.21 118.285 112.21 118.285C112.21 118.285 110.198 121.25 112.063 121.556Z" fill="#898127"/>
<path d="M115.471 155.991C115.471 155.991 119.049 151.834 120.869 150.593C120.869 150.593 115.663 153.354 113.702 155.259C113.702 155.259 118.136 149.079 120.103 147.627C120.103 147.627 113.481 152.124 112.76 153.025C112.76 153.025 114.507 147.622 115.686 145.898C115.686 145.898 110.05 152.844 109.296 155.061C109.296 155.061 108.905 151.931 109.438 150.088C109.438 150.088 106.847 154.21 106.523 155.027C106.523 155.027 108.712 148.013 108.905 146.584C108.905 146.584 106.79 149.68 104.828 152.821C105.423 151.128 106.31 149.553 107.448 148.166C107.448 148.166 103.853 151.353 102.379 154.165C102.379 154.165 105.055 146.085 106.614 143.704C106.614 143.704 101.982 148.96 100.428 152.645C100.428 152.645 103.518 140.608 105.168 137.812C105.168 137.812 99.4982 146.448 98.9822 148.206C98.9822 148.206 99.5492 137.591 100.326 134.229C100.326 134.229 96.2039 147.735 95.9431 152.095C95.9431 152.095 94.8487 145.898 94.9678 142.275C94.9678 142.275 93.2668 150.315 93.1364 151.914C93.1364 151.914 92.1328 136.871 91.6452 135.471C91.6452 135.471 91.1689 142.745 90.5112 149.119C89.4757 150.456 88.6286 151.928 87.9937 153.496C87.9937 153.496 89.0653 146.737 90.0065 144.821C90.0065 144.821 86.871 149.447 85.9921 152.498C85.9921 152.498 87.0864 144.316 87.9313 142.536C87.9313 142.536 84.8071 148.466 84.5293 149.635C84.5293 149.635 84.3705 144.225 84.6654 142.745C84.6654 142.745 82.7375 149.912 82.6128 152.759C82.2807 150.975 82.0911 149.169 82.0458 147.355C82.0458 147.355 81.0309 151.948 80.9118 152.997C80.9118 152.997 81.5185 145.881 81.4788 144.872C81.4788 144.872 79.6587 153.587 78.8252 158.219H115.777C115.777 158.219 117.931 154.511 121.129 152.849C121.192 152.844 117.257 154.533 115.471 155.991Z" fill="#9B9631"/>
<path d="M66.6232 135.618C66.7877 138.391 65.4212 152.022 65.4212 152.022C65.6933 150.434 68.7382 142.428 68.7382 142.428C68.4547 146.011 70.184 152.095 70.184 152.095C70.717 147.775 78.0087 134.286 78.0087 134.286C76.5628 137.631 75.4288 148.132 75.4288 148.132C76.3587 146.374 86.1679 137.637 86.1679 137.637C83.2988 140.472 77.7932 152.464 77.7932 152.464C80.5092 148.767 88.4926 143.392 88.4926 143.392C85.7937 145.802 81.0762 153.881 81.0762 153.881C83.639 151.046 89.8137 147.769 89.8137 147.769C84.8978 150.99 82.471 158.196 82.471 158.196H58.5037C59.7228 151.772 66.6232 135.618 66.6232 135.618Z" fill="#9B9631"/>
<path d="M27.7267 155.991C27.7267 155.991 24.1433 151.835 22.3232 150.593C22.3232 150.593 27.534 153.354 29.4958 155.259C29.4958 155.259 25.0562 149.079 23.0943 147.627C23.0943 147.627 29.7113 152.124 30.4314 153.025C30.4314 153.025 28.685 147.622 27.5113 145.898C27.5113 145.898 33.1473 152.844 33.9014 155.061C33.9014 155.061 34.287 151.931 33.754 150.088C33.754 150.088 36.3509 154.21 36.6741 155.027C36.6741 155.027 34.4798 148.013 34.2927 146.584C34.2927 146.584 36.4076 149.68 38.3638 152.821C37.7626 151.137 36.8744 149.57 35.7385 148.189C35.7385 148.189 39.3277 151.375 40.8019 154.188C40.8019 154.188 38.1256 146.108 36.572 143.726C36.572 143.726 41.1988 148.982 42.7524 152.668C42.7524 152.668 39.6679 140.631 38.0122 137.835C38.0122 137.835 43.6823 146.471 44.1982 148.228C44.1982 148.228 43.6312 137.614 42.8601 134.252C42.8601 134.252 46.9766 147.758 47.243 152.118C47.243 152.118 48.3374 145.921 48.2126 142.298C48.2126 142.298 49.9136 150.338 50.044 151.937C50.044 151.937 51.0476 136.894 51.5353 135.493C51.5353 135.493 52.0115 142.768 52.6693 149.141C53.7027 150.48 54.5496 151.952 55.1868 153.519C55.1868 153.519 54.1095 146.76 53.1682 144.843C53.1682 144.843 56.3038 149.47 57.1883 152.521C57.1883 152.521 56.0883 144.339 55.2491 142.558C55.2491 142.558 58.3677 148.489 58.6228 149.657C58.6228 149.657 58.7816 144.248 58.4924 142.768C58.4924 142.768 60.4202 149.935 60.545 152.781C60.8771 150.998 61.0667 149.191 61.112 147.378C61.112 147.378 62.1269 151.971 62.246 153.02C62.246 153.02 61.6336 145.904 61.6506 144.894C61.6506 144.894 63.4707 153.609 64.3042 158.242H27.3525C27.3525 158.242 25.1979 154.533 22 152.872C22 152.844 25.9407 154.533 27.7267 155.991Z" fill="#9B9631"/>
<path d="M105.134 107.875C102.934 110.783 102.498 110.744 102.498 110.744L104.437 101.32L105.134 107.875Z" fill="#7C3929"/>
<path d="M105.083 110.902C103.467 112.377 102.713 112.343 102.713 112.343L103.756 108.493L105.083 110.902Z" fill="#7C3929"/>
<path d="M117.064 109.644L103.393 110.505C103.393 110.505 106.563 116.119 118.935 122.305L122.105 124.465L123.806 115.393L117.064 109.644Z" fill="#99503C"/>
<path d="M105.18 112.751C106.669 114.302 108.298 115.714 110.044 116.969C113.571 118.738 117.574 119.861 117.932 118.563C118.164 117.706 106.212 112.909 105.18 112.751Z" fill="#B76D44"/>
<path d="M128.291 158.071H87.0581C87.0581 158.071 91.1632 155.48 93.1024 152.674C95.0415 149.867 97.8539 140.585 97.8539 140.585L102.39 116.204L119.871 117.905L123.114 114.883L125.269 107.115C125.269 107.115 123.76 150.286 124.191 151.8C124.665 153.204 125.233 154.573 125.892 155.9L128.291 158.071Z" fill="#7C3929"/>
<path d="M103.393 110.506C110.506 112.742 117.396 115.633 123.976 119.141L125.416 109.927L127.429 90.6491L126.42 83.0229L129.873 64.3117L131.46 46.899L114.45 43.3042C114.45 43.3042 110.56 58.4149 110.13 60.286C109.699 62.1571 107.686 72.0853 107.686 72.0853C107.686 72.0853 105.095 85.9032 105.236 86.9068C105.378 87.9104 103.393 110.506 103.393 110.506Z" fill="#7C3929"/>
<path d="M131.46 46.8934L129.532 46.4851C126.646 67.2772 123.017 84.0888 117.931 83.5955C114.62 83.2723 110.186 74.909 109.307 64.3174C108.587 67.7931 107.714 72.1024 107.714 72.1024C107.714 72.1024 105.123 85.9202 105.265 86.9238C105.333 87.4001 104.924 92.6393 104.471 98.0598C106.399 89.4697 107.652 82.1837 111.309 82.1837C117.211 82.1837 123.976 98.4794 123.976 116.544C123.976 117.423 123.976 118.291 123.942 119.152H123.976L125.416 109.939L127.429 90.6604L126.419 83.0342L129.873 64.3231L131.46 46.8934Z" fill="#682B21"/>
<path d="M125.892 155.911C125.233 154.585 124.665 153.215 124.191 151.812C123.76 150.298 125.269 107.126 125.269 107.126L123.114 114.894L122.949 115.047C122.558 134.325 115.403 149.635 106.631 149.635C103.087 149.635 99.827 147.123 97.1281 142.859C96.1642 145.796 94.4348 150.74 93.1024 152.657C91.1632 155.463 87.0581 158.055 87.0581 158.055H128.291L125.892 155.911Z" fill="#682B21"/>
<path d="M122.32 127.198C123.182 117.196 118.867 102.947 118.867 102.947C118.867 102.947 122.677 112.881 123.902 117.27C125.127 121.658 122.32 127.198 122.32 127.198Z" fill="#682B21"/>
<path d="M107.929 98.3433L110.373 87.9841C110.373 87.9841 106.563 98.5587 106.563 98.8479C106.563 99.1371 106.177 108.016 106.036 111.35C106.813 111.611 107.584 111.883 108.338 112.156L107.929 98.3433Z" fill="#682B21"/>
<path d="M124.276 117.225L123.76 116.408C117.427 115.274 116.389 114.174 116.389 114.174L114.45 106.548L113.628 114.242C119.689 116.794 123.947 119.141 123.947 119.141L124.276 117.225Z" fill="#682B21"/>
<path d="M115.652 158.072H128.291L125.892 155.911C125.233 154.585 124.665 153.215 124.191 151.812C124.032 151.245 124.322 138.396 124.509 130.895C120.052 133.418 116.435 148.166 115.652 158.072Z" fill="#7C3929"/>
<path d="M110.776 117.02C112.188 126.932 110.719 144.236 104.902 158.071H108.984C109.744 144.331 112.077 130.723 115.936 117.514L110.776 117.02Z" fill="#682B21"/>
<path d="M107.311 154.171C101.692 137.847 102.549 124.431 104.108 116.363L102.407 116.193L101.488 121.12C102.464 128.757 103.286 141.084 100.354 150.661L107.311 154.171Z" fill="#682B21"/>
<path d="M124.129 146.998C122.45 150.805 120.541 154.507 118.413 158.083H120.897L125.365 154.76C124.907 153.809 124.515 152.828 124.191 151.823C124.082 150.217 124.062 148.606 124.129 146.998Z" fill="#682B21"/>
<path d="M122.723 45.0448L116.111 43.6443C116.236 50.7205 116.395 70.2935 114.762 81.7243C112.749 95.8257 111.275 91.7433 110.696 113.046L113.571 114.208C114.705 114.673 115.726 115.127 116.695 115.569C112.8 106.729 115.085 104.178 115.913 83.3063C116.486 69.0177 120.222 53.7937 122.723 45.0448Z" fill="#682B21"/>
<path d="M126.42 83.0172L126.907 80.3806C125.949 82.5919 125.269 83.9754 125.269 83.9754L121.719 89.1635L123.925 99.0464L124.117 88.6815L127.253 89.3223L126.42 83.0172Z" fill="#59221C"/>
<path d="M123.868 45.283C122.734 53.788 120.517 70.7982 118.935 85.1264L119.803 87.1449C121.385 66.642 124.401 53.6236 126.879 45.9237L123.868 45.283Z" fill="#682B21"/>
<path d="M110.878 79.3713C112.409 78.6285 109.744 73.4971 108.451 68.4451L107.714 72.0796C107.714 72.0796 105.503 83.8733 105.276 86.4588C107.3 84.5707 107.901 80.8114 110.878 79.3713Z" fill="#7C3929"/>
<path d="M46.7724 74.0357C47.1297 72.7769 46.7214 71.5522 45.8539 71.3084C44.9864 71.0646 43.9941 71.8754 43.6369 73.1455C43.2797 74.4156 43.6879 75.6289 44.5555 75.8728C45.423 76.1166 46.4152 75.3001 46.7724 74.0357Z" fill="#EA875C"/>
<path d="M50.0214 81.0837L45.1451 92.6165C51.2946 93.9638 57.6807 93.7808 63.7429 92.0835L64.2475 77.4038C64.2475 77.4038 54.0131 81.7074 50.0214 81.0837Z" fill="#1B6C1F"/>
<path d="M48.4167 81.3388C51.9435 82.2743 51.728 88.7722 50.9682 91.6752L50.078 91.851L51.0476 92.5995C51.0476 92.5995 47.4415 96.5685 42.7126 92.3613C37.9838 88.1542 45.61 80.5903 48.4167 81.3388Z" fill="#25A835"/>
<path d="M43.308 73.1569C41.1477 70.8549 38.4885 70.1348 37.7684 71.6487C37.0483 73.1626 38.1993 90.0707 45.1394 92.6279C48.9667 90.0367 50.3899 86.3908 49.7832 81.2878C48.5641 79.8362 45.4683 75.459 43.308 73.1569Z" fill="#EA875C"/>
<path d="M37.7684 71.6486C37.3091 72.6181 37.6153 79.9155 39.7245 85.6989C41.8338 85.4268 44.0791 81.3557 43.4044 76.1619C43.2059 74.6197 41.7828 72.8166 41.3462 71.5692C39.7642 70.628 38.2787 70.5769 37.7684 71.6486Z" fill="#FFA77B"/>
<path d="M64.5367 104.535C60.6527 103.968 58.8666 102.732 58.8666 102.732C58.8666 102.732 62.3254 83.6635 61.8207 78.2656C61.8207 78.2656 67.2866 75.8218 72.2536 76.6156C77.2206 77.4095 64.5367 104.535 64.5367 104.535Z" fill="#25A835"/>
<path d="M63.6748 101.071C60.4089 107.982 53.31 128.514 53.31 128.514L50.6224 155.378L51.1894 155.571C51.1894 155.571 61.0723 134.269 61.8377 133.883C62.6032 133.498 73.8299 117.383 73.8299 117.383L75.4628 106.639L63.6748 101.071Z" fill="#4C6A7C"/>
<path d="M63.6748 101.071C60.4089 107.982 52.5218 130.096 52.5218 130.096L50.6224 155.378L63.6748 101.071Z" fill="#4C6A7C"/>
<path d="M62.5748 133.061C65.2284 129.738 73.8412 117.366 73.8412 117.366L75.4742 106.622L63.6748 101.071C60.4089 107.982 52.5219 130.096 52.5219 130.096V130.328C55.3944 132.503 58.9967 133.482 62.5748 133.061Z" fill="#54798C"/>
<path d="M63.6748 101.071C62.8527 102.811 61.7867 105.414 60.6584 108.334C63.0945 109.965 65.7424 111.254 68.5284 112.167C68.5284 112.167 59.7171 129.086 59.1388 130.526C58.6682 131.706 52.6693 148.869 50.6337 155.214V155.378L51.2007 155.571C51.2007 155.571 61.0836 134.269 61.8491 133.883C62.6145 133.498 73.8412 117.383 73.8412 117.383L75.4742 106.639L63.6748 101.071Z" fill="#355460"/>
<path d="M83.1004 108.442C81.9664 118.228 75.9051 132.619 75.9051 132.619L79.3582 152.333L78.6381 152.77C78.6381 152.77 65.3985 138.09 64.9676 134.49C64.5367 130.889 66.1016 117.65 66.1016 117.65L63.6578 114.055L68.1202 102.539L83.1004 108.442Z" fill="#4C6A7C"/>
<path d="M68.1371 102.516L63.6748 114.032L66.1186 117.627C66.1186 117.627 64.5366 130.872 64.9846 134.467C65.0836 134.985 65.2635 135.485 65.5176 135.947C69.4093 135.463 73.1153 134.002 76.2907 131.7C77.6174 128.411 82.1365 116.748 83.0947 108.419L68.1371 102.516Z" fill="#54798C"/>
<path d="M83.1004 108.634L67.848 102.732L64.5253 110.528C70.4845 113.363 77.8499 114.537 77.8499 114.537C77.8499 114.537 72.5258 131.95 72.7469 132.959C72.934 133.838 77.7649 149.022 78.9556 152.776L79.3638 152.532L75.9051 132.823C75.9051 132.823 81.9494 118.421 83.1004 108.634Z" fill="#355460"/>
<path d="M60.6867 105.567C67.5985 110.84 82.9473 112.087 82.9473 112.087L84.5009 102.976C84.5009 102.976 80.719 81.6222 79.2221 80.1366C70.0706 71.0646 63.3913 82.5124 63.3913 82.5124C63.7088 87.0484 62.8527 97.2772 60.6867 105.567Z" fill="#EDC35A"/>
<path d="M79.2164 80.1367C73.6654 74.6424 69.0103 76.6893 66.232 79.1501C67.5475 82.45 67.8707 86.5211 67.8707 91.2216C67.8707 98.0653 66.6629 104.314 64.1454 107.602C71.715 111.174 82.9586 112.087 82.9586 112.087L84.5009 102.976C84.5009 102.976 80.7133 81.6222 79.2164 80.1367Z" fill="#26AE38"/>
<path d="M79.2164 80.1366C70.0649 71.0646 63.3856 82.5124 63.3856 82.5124C63.3856 82.5124 63.3856 82.6598 63.3856 82.7335C64.7805 85.2 69.8835 86.1696 75.4855 84.8938C77.1705 84.5212 78.8054 83.9502 80.3561 83.1928C79.9195 81.5712 79.5226 80.4428 79.2164 80.1366Z" fill="#E29840"/>
<path d="M84.688 88.8686C83.2478 83.6862 77.7763 78.2656 77.7763 78.2656C75.9726 80.8172 73.4757 82.7987 70.581 83.9754C70.581 83.9754 68.8516 98.6551 66.5496 105.181C72.384 108.612 78.1391 110.897 83.7241 110.744C85.9298 104.796 86.1225 94.051 84.688 88.8686Z" fill="#1B6C1F"/>
<path d="M70.5809 83.9754C70.5809 83.9754 70.4959 84.6954 70.3428 85.8805C72.0001 86.2146 73.6871 86.3799 75.3778 86.3738C77.9908 86.4065 80.5898 85.9884 83.0607 85.1377C81.5757 82.6471 79.8019 80.3405 77.7762 78.2656C75.9726 80.8172 73.4756 82.7987 70.5809 83.9754Z" fill="#2CBF3F"/>
<path d="M84.688 88.8687C83.9821 86.6746 82.9168 84.6129 81.5355 82.7677C80.8654 82.4233 80.1322 82.219 79.3806 82.1674C78.629 82.1157 77.8747 82.2177 77.1639 82.4672C72.4521 84.3837 71.9984 94.2326 76.1489 104.467C76.9695 106.498 77.9478 108.462 79.0747 110.341C80.605 110.645 82.1642 110.78 83.7241 110.744C85.9297 104.796 86.1225 94.0511 84.688 88.8687Z" fill="#25A835"/>
<path d="M63.5217 71.0703C62.898 69.1028 62.7109 65.4569 63.3346 64.5497C63.9583 63.6425 67.8706 60.8075 69.5206 61.1874C71.1706 61.5673 73.4556 66.7554 73.4556 66.7554L67.8423 70.1574L63.5217 71.0703Z" fill="#E29840"/>
<path d="M63.3403 64.5498C62.7166 65.4571 62.9037 69.0859 63.5274 71.0704L65.1944 70.7189C66.7196 69.5848 67.7743 67.1751 67.7743 64.3457C67.778 63.4333 67.6636 62.5242 67.4341 61.6411C65.716 62.4236 63.7599 63.9261 63.3403 64.5498Z" fill="#EDC35A"/>
<path d="M64.6558 69.7322C67.916 65.0318 74.6294 61.9586 77.6969 63.155C80.7644 64.3513 76.5005 68.3884 76.5005 68.3884L64.6558 69.7322Z" fill="#A52929"/>
<path d="M63.8903 79.7059C67.9897 83.1079 70.0083 83.1589 70.0083 83.1589C70.0083 83.1589 74.4422 82.728 77.6798 80.2842L77.9917 77.9822L79.0747 77.7667C79.0747 77.7667 79.3582 70.4977 75.3324 67.2601C75.3324 67.2601 68.2789 65.8936 65.3305 69.3467C65.3305 69.3467 63.6011 70.1348 63.5274 71.0477C63.4537 71.9606 64.6614 74.4497 64.6614 74.4497L65.2284 74.9544L63.8903 79.7059Z" fill="#66342A"/>
<path d="M64.0887 73.1284C64.3836 73.8485 64.6841 74.4552 64.6841 74.4552L65.2511 74.9598L65.0753 75.5665C65.4041 75.3587 65.6786 75.0753 65.8758 74.74C66.0731 74.4047 66.1874 74.0271 66.2093 73.6387L64.0887 73.1284Z" fill="#542720"/>
<path d="M75.3324 67.2601C75.3324 67.2601 68.2789 65.8936 65.3305 69.3467C64.8067 69.5926 64.3277 69.9241 63.913 70.3276C68.6531 68.0142 73.8299 68.7457 75.769 72.1364C77.6061 75.3513 75.9051 79.8703 71.9644 82.8074C74.0258 82.3614 75.9757 81.5031 77.6968 80.2842L78.0087 77.9822L79.0917 77.7667C79.0917 77.7667 79.3582 70.4977 75.3324 67.2601Z" fill="#542720"/>
<path d="M82.6241 84.4007L82.3293 84.2532C77.5268 81.9852 72.9737 84.1965 72.1516 89.1805C71.3294 94.1645 74.55 100.039 79.3525 102.301C80.2696 102.78 81.2732 103.071 82.3044 103.157C83.3356 103.243 84.3735 103.121 85.3571 102.8C85.8561 97.6969 85.5952 92.1573 84.688 88.8687C84.2062 87.2925 83.5118 85.7894 82.6241 84.4007Z" fill="#136521"/>
<path d="M72.2593 84.0605L80.6736 81.5884C80.2143 81.0214 79.7721 80.4543 79.3752 80.0007C77.1972 81.6688 74.8035 83.0344 72.2593 84.0605Z" fill="#384D4D"/>
<path d="M63.2836 97.9066C65.8691 92.8942 66.0392 86.3397 66.0392 86.3397C66.0392 86.3397 74.9639 82.5634 76.5401 82.6768C78.1164 82.7902 81.4844 84.2701 82.5277 85.8577C83.571 87.4453 82.3519 95.9107 80.2597 96.8576C73.535 99.8514 63.2836 97.9066 63.2836 97.9066Z" fill="#1B6C1F"/>
<path d="M82.5277 85.8579C82.0968 88.4434 78.0654 92.095 73.4557 94.0965C70.0536 95.5537 66.697 96.0526 64.2985 95.6387C64.0178 96.4148 63.6883 97.1723 63.312 97.9068C63.312 97.9068 73.6598 100.044 80.3618 97.0506C82.0855 96.2624 86.7689 90.9609 82.5277 85.8579Z" fill="#25A835"/>
<path d="M66.7933 85.8975C70.4051 86.3795 71.0119 92.849 70.632 95.8258L69.7644 96.115L70.8191 96.7387C70.8191 96.7387 67.7516 101.15 62.5238 97.5551C57.296 93.9603 63.9129 85.512 66.7933 85.8975Z" fill="#25A835"/>
<path d="M63.2836 97.9067C55.4362 96.4551 50.6507 86.4702 50.6507 86.4702L52.5218 78.7703C60.148 82.2233 63.4423 85.9202 66.0392 86.3398C68.6361 86.7593 69.084 98.9783 63.2836 97.9067Z" fill="#FFA77B"/>
<path d="M66.833 86.8955C67.7912 90.0254 67.0258 91.9986 65.0186 93.1326C62.0758 94.8336 58.5151 92.9058 55.1811 88.2393C53.8996 86.4476 51.8244 84.894 51.4445 83.1816L50.6507 86.4646C50.6507 86.4646 55.4362 96.4495 63.2836 97.9011C68.432 98.8593 68.6588 89.345 66.833 86.8955Z" fill="#EA875C"/>
<path d="M52.4538 86.2944C52.5081 85.8903 52.4377 85.4793 52.252 85.1163C52.0663 84.7533 51.7742 84.4558 51.4148 84.2633C51.0553 84.0709 50.6457 83.9928 50.2407 84.0396C49.8357 84.0863 49.4546 84.2556 49.1484 84.5248C48.8422 84.794 48.6256 85.1503 48.5274 85.546C48.4293 85.9417 48.4543 86.358 48.5992 86.7391C48.7441 87.1202 49.0018 87.448 49.3381 87.6785C49.6743 87.9091 50.0729 88.0315 50.4806 88.0294C50.9708 88.0545 51.4514 87.8872 51.82 87.5631C52.1886 87.239 52.416 86.7837 52.4538 86.2944Z" fill="#EA875C"/>
<path d="M60.9362 97.986C60.5053 96.7613 30.8849 54.3777 30.8849 54.3777V55.7442C30.8849 55.7442 58.2996 99.8571 58.6682 100.073C59.0367 100.288 61.3728 99.2051 60.9362 97.986Z" fill="#4C231C"/>
<path d="M60.9362 97.986C60.8341 97.6911 59.0481 95.0262 56.4002 91.1479C54.6992 89.651 52.9131 88.7948 51.4672 88.7778C55.4873 95.1963 58.5264 99.9988 58.6398 100.073C58.9857 100.288 61.3728 99.205 60.9362 97.986Z" fill="#66342A"/>
<path d="M30.9303 42L31.1458 55.5287L36.039 62.9395L41.9415 58.6246C38.7833 51.4009 35.2622 45.3793 30.9303 42Z" fill="#87AEAF"/>
<path d="M40.8416 66.1147C37.2014 65.973 36.4019 71.4786 37.105 73.843C37.8081 76.2074 42.775 76.5136 43.0869 76.4966C43.3987 76.4796 44.1529 74.2286 45.5477 73.8147C46.9425 73.4007 46.608 71.4389 45.3776 70.7869C45.3776 70.7869 44.8106 68.5529 43.4781 67.9518C43.2898 67.4059 42.933 66.9339 42.4592 66.6037C41.9853 66.2736 41.4189 66.1024 40.8416 66.1147Z" fill="#FFA77B"/>
<path d="M45.0601 79.6095C46.4266 76.2075 51.8641 77.744 53.7523 79.3487C55.6404 80.9533 53.8883 85.5857 53.7523 85.8976C53.6162 86.2094 51.2121 85.9429 50.2539 87.0316C49.2956 88.1202 47.2771 86.6233 47.1807 85.2342C47.1807 85.2342 45.6951 84.2022 45.6951 82.762C45.2666 82.3732 44.9738 81.8574 44.8595 81.2901C44.7453 80.7229 44.8155 80.1339 45.0601 79.6095Z" fill="#FFA77B"/>
<path d="M64.8032 71.0591C65.8234 70.0521 67.0499 69.2783 68.398 68.791C67.8895 68.681 67.3632 68.6823 66.8552 68.7949C66.3472 68.9074 65.8697 69.1286 65.4552 69.4431C65.2454 69.6562 65.0797 69.9086 64.9678 70.186C64.8559 70.4633 64.8 70.76 64.8032 71.0591Z" fill="#542720"/>
<path d="M77.6969 77.6703C77.6257 77.3195 77.4827 76.9872 77.2768 76.6944C77.0709 76.4017 76.8066 76.1548 76.5005 75.9692C75.6897 76.8368 74.0284 79.1615 73.949 80.0346C75.102 79.1033 76.3598 78.3098 77.6969 77.6703Z" fill="#542720"/>
<path d="M78.1391 73.6501C78.0339 73.3128 77.8609 73.0006 77.6308 72.7325C77.4008 72.4644 77.1184 72.246 76.801 72.0908C76.0696 73.0264 74.618 75.4928 74.618 76.3717C75.6804 75.3289 76.8623 74.4154 78.1391 73.6501Z" fill="#542720"/>
<path d="M67.9841 73.1172C69.6549 71.9005 71.5639 71.0503 73.5861 70.6224C72.8751 70.3772 72.1209 70.2824 71.3713 70.3439C70.6217 70.4054 69.893 70.6218 69.2315 70.9796C68.887 71.2302 68.5982 71.5496 68.3835 71.9175C68.1688 72.2855 68.0328 72.694 67.9841 73.1172Z" fill="#542720"/>
<path d="M67.5248 68.4905C68.037 68.8502 68.6203 69.096 69.2355 69.2114C69.8507 69.3268 70.4835 69.3091 71.0912 69.1595C70.2067 70.0554 69.2711 70.7472 68.1258 70.441C67.8835 70.1832 67.7033 69.8735 67.5992 69.5354C67.495 69.1973 67.4695 68.8399 67.5248 68.4905Z" fill="#542720"/>
<path d="M68.4887 69.8115C68.5907 70.3035 68.7466 70.7827 68.9536 71.2404C68.9536 71.2404 72.5144 70.6054 73.2289 70.7074C73.9433 70.8095 76.1659 71.3254 76.1659 71.3254L75.3778 69.0971C73.0577 68.9519 70.7296 69.1934 68.4887 69.8115Z" fill="#FFA77B"/>
<path d="M66.1413 74.0925C63.8052 74.0925 63.0511 73.2817 63.3517 72.3518C63.6522 71.4219 64.8599 71.3539 65.6877 71.9833C66.5155 72.6126 66.1413 74.0925 66.1413 74.0925Z" fill="#FFA77B"/>
<path d="M65.7897 119.283L61.5656 114.01C61.5656 114.01 66.0279 116.935 66.6062 117.032C67.1846 117.128 70.683 116.55 70.683 116.55L65.7897 119.283Z" fill="#355460"/>
<path d="M70.7851 69.4204C72.2948 69.5981 73.7337 70.1603 74.9639 71.0534L76.1659 71.3256L75.3778 69.0972C73.7414 68.9746 72.0959 69.0699 70.4846 69.3807L70.7851 69.4204Z" fill="#EA875C"/>
<path d="M64.548 73.1626C64.6954 72.7034 65.2794 72.658 65.682 72.9528C65.6743 72.8231 65.6402 72.6963 65.5817 72.5803C65.5232 72.4643 65.4415 72.3614 65.3418 72.2781C64.8032 71.8699 64.015 71.9209 63.8222 72.5219C63.6862 72.9415 63.8789 73.3214 64.5197 73.5199C64.4861 73.4012 64.4962 73.2745 64.548 73.1626Z" fill="#CC4F46"/>
<path d="M69.8041 83.1363C69.8721 83.1412 69.9403 83.1412 70.0083 83.1363C70.5208 83.0783 71.03 82.9931 71.5335 82.8811C71.9081 82.0089 72.1158 81.0742 72.1459 80.1255C71.5409 81.2541 70.7491 82.2721 69.8041 83.1363Z" fill="#542720"/>
<path d="M63.9243 79.5925L63.8903 79.7059C64.1397 79.9157 64.3836 80.1084 64.616 80.2729C65.113 79.6247 65.507 78.9036 65.7841 78.1353C65.2172 78.6851 64.5938 79.1736 63.9243 79.5925Z" fill="#542720"/>
<path d="M33.5782 46.9329C35.2055 51.9679 34.8313 56.6854 32.8128 58.0462L35.5968 62.2704C34.5024 57.0312 35.3359 52.3081 37.6947 50.2045C36.0846 47.3489 34.0288 44.7686 31.605 42.5613C32.4309 43.9366 33.0932 45.4037 33.5782 46.9329Z" fill="#99C1C1"/>
<path d="M41.1534 59.2028L41.9415 58.6358C38.7833 51.4122 35.2622 45.3906 30.9303 42.0112L30.9757 44.7329C34.7122 48.0328 38.3467 53.0508 41.1534 59.2028Z" fill="#C6E5E4"/>
<path d="M69.0557 72.9812C69.7564 73.266 70.5171 73.3711 71.2687 73.287C72.0204 73.2028 72.739 72.932 73.3593 72.4992L72.7583 71.456C71.741 71.4243 70.7229 71.4452 69.7078 71.5183C69.1918 71.6317 69.0557 72.9812 69.0557 72.9812Z" fill="#3A2522"/>
<path d="M69.1918 72.8563C69.8015 73.1017 70.4626 73.1918 71.1158 73.1186C71.769 73.0454 72.3937 72.8111 72.934 72.4367L72.4124 71.5295C71.5293 71.5013 70.6455 71.5202 69.7645 71.5862C69.3222 71.6826 69.1918 72.8563 69.1918 72.8563Z" fill="#F7EADF"/>
<path d="M75.0149 69.5053C74.9915 69.4017 74.9395 69.3068 74.8648 69.2313C74.7901 69.1559 74.6957 69.1029 74.5924 69.0785C74.489 69.054 74.3809 69.0591 74.2803 69.0931C74.1797 69.1271 74.0906 69.1887 74.0233 69.2708C73.956 69.3529 73.9131 69.4523 73.8995 69.5576C73.8859 69.6629 73.9022 69.77 73.9464 69.8665C73.9907 69.963 74.0611 70.0452 74.1498 70.1036C74.2385 70.1621 74.3417 70.1945 74.4479 70.1971C74.6146 70.1799 74.7677 70.0975 74.8739 69.9679C74.9801 69.8384 75.0308 69.6721 75.0149 69.5053Z" fill="#3A2522"/>
<path d="M72.8263 69.3467C74.5273 70.0044 76.1432 69.6699 76.2793 69.4317C76.4154 69.1936 76.6025 68.4054 76.2793 68.1333C75.9561 67.8611 72.9964 67.8611 72.6732 68.0879C72.35 68.3147 72.5938 69.2559 72.8263 69.3467Z" fill="#66342A"/>
<path d="M72.6732 69.0461C73.7165 69.7549 74.5613 70.9116 74.3742 71.1554C74.1871 71.3992 72.2876 71.0193 72.2422 70.6848C72.2389 70.5783 72.2639 70.4728 72.3147 70.3792C72.3655 70.2855 72.4403 70.207 72.5314 70.1518L72.2422 69.0688L72.6732 69.0461Z" fill="#CC4F46"/>
<path d="M70.8928 69.7946C70.8694 69.691 70.8174 69.5961 70.7427 69.5206C70.668 69.4452 70.5736 69.3922 70.4702 69.3678C70.3669 69.3433 70.2587 69.3484 70.1581 69.3824C70.0575 69.4164 69.9685 69.478 69.9012 69.5601C69.8339 69.6422 69.791 69.7416 69.7774 69.8469C69.7638 69.9523 69.78 70.0593 69.8243 70.1558C69.8685 70.2523 69.939 70.3345 70.0277 70.393C70.1163 70.4514 70.2196 70.4838 70.3258 70.4864C70.4918 70.4678 70.644 70.385 70.75 70.2558C70.8559 70.1266 70.9071 69.9611 70.8928 69.7946Z" fill="#3A2522"/>
<path d="M68.3583 69.9987C70.3542 70.3162 72.2083 69.6755 72.367 69.4317C72.5258 69.1879 72.7412 68.343 72.367 68.1332C71.9928 67.9234 68.5567 68.5018 68.1825 68.791C67.8083 69.0801 68.0578 69.9533 68.3583 69.9987Z" fill="#66342A"/>
<path d="M48.859 82.4727C48.3346 82.6625 47.8632 82.9752 47.4844 83.3846C47.1056 83.794 46.8304 84.2882 46.6817 84.8257C46.8333 84.9796 46.9963 85.1218 47.1693 85.251C47.1989 85.5521 47.2958 85.8428 47.4528 86.1015C47.4642 84.3551 48.859 82.4727 48.859 82.4727Z" fill="#EA875C"/>
<path d="M45.1735 82.1552C45.309 82.3891 45.4813 82.5997 45.6838 82.7789C45.6864 82.9709 45.715 83.1616 45.7688 83.3459C46.1002 82.2365 46.6669 81.2115 47.4301 80.3408C46.9483 80.4693 46.4987 80.6971 46.11 81.0095C45.7214 81.322 45.4024 81.7122 45.1735 82.1552Z" fill="#EA875C"/>
<path d="M43.2173 71.643C43.2173 71.643 44.5327 70.7301 45.7631 71.042C45.6498 70.9424 45.5262 70.8549 45.3946 70.7811C45.3137 70.5012 45.2152 70.2266 45.0997 69.959C44.6596 70.0349 44.2497 70.2331 43.9169 70.5309C43.584 70.8286 43.3416 71.214 43.2173 71.643Z" fill="#EA875C"/>
<path d="M41.709 68.7795C42.3189 68.3731 43.0293 68.1435 43.7616 68.1161C43.6772 68.0594 43.588 68.01 43.4951 67.9687C43.4074 67.6974 43.2751 67.4426 43.1039 67.2146C42.7718 67.3586 42.475 67.5732 42.2341 67.8434C41.9933 68.1137 41.8141 68.4331 41.709 68.7795Z" fill="#EA875C"/>
<defs>
<filter id="filter0_d_0_1" x="0" y="0" width="264" height="188" filterUnits="userSpaceOnUse" color-interpolation-filters="sRGB">
<feFlood flood-opacity="0" result="BackgroundImageFix"/>
<feColorMatrix in="SourceAlpha" type="matrix" values="0 0 0 0 0 0 0 0 0 0 0 0 0 0 0 0 0 0 127 0" result="hardAlpha"/>
<feOffset dy="4"/>
<feGaussianBlur stdDeviation="2"/>
<feComposite in2="hardAlpha" operator="out"/>
<feColorMatrix type="matrix" values="0 0 0 0 0 0 0 0 0 0 0 0 0 0 0 0 0 0 0.25 0"/>
<feBlend mode="normal" in2="BackgroundImageFix" result="effect1_dropShadow_0_1"/>
<feBlend mode="normal" in="SourceGraphic" in2="effect1_dropShadow_0_1" result="shape"/>
</filter>
</defs>
</svg>
