<?xml version="1.0" standalone="no"?>
<!DOCTYPE svg PUBLIC "-//W3C//DTD SVG 20010904//EN"
 "http://www.w3.org/TR/2001/REC-SVG-20010904/DTD/svg10.dtd">
<svg version="1.0" xmlns="http://www.w3.org/2000/svg"
 width="129.000000pt" height="188.000000pt" viewBox="0 0 129.000000 188.000000"
 preserveAspectRatio="xMidYMid meet">

<g transform="translate(0.000000,188.000000) scale(0.100000,-0.100000)"
fill="#000000" stroke="none">
<path d="M628 1873 c-46 -7 -54 -28 -22 -58 20 -19 23 -25 10 -25 -19 0 -20
-4 -3 -33 6 -12 13 -23 14 -25 1 -2 11 1 22 8 24 12 29 43 6 34 -8 -4 -15 -1
-15 5 0 18 49 24 95 11 41 -11 45 -15 45 -44 0 -72 -5 -76 -85 -76 l-72 0 -7
-31 c-9 -46 3 -78 35 -94 41 -22 77 -18 104 9 16 16 31 22 45 19 15 -4 20 -1
20 15 0 26 20 72 32 72 4 0 8 17 8 39 0 21 5 53 11 70 11 30 9 35 -17 62 l-29
29 3 -45 c2 -25 0 -45 -5 -45 -4 0 -19 20 -32 44 -12 25 -29 47 -36 50 -22 8
-99 14 -127 9z m212 -182 c0 -24 -27 -48 -40 -35 -5 5 -7 19 -4 32 8 27 44 30
44 3z m-120 -61 c-20 -13 -60 -13 -60 0 0 6 17 10 38 10 27 0 33 -3 22 -10z"/>
<path d="M686 1764 c-6 -17 30 -38 51 -30 12 5 13 9 4 20 -17 20 -49 26 -55
10z"/>
<path d="M582 1484 c-25 -25 -50 -68 -71 -119 -17 -44 -36 -88 -41 -97 -8 -14
-5 -23 14 -39 14 -12 30 -35 37 -51 l12 -29 22 21 22 20 13 -72 c7 -40 12
-127 11 -193 -1 -66 3 -176 8 -244 9 -107 8 -126 -6 -139 -14 -14 -14 -17 1
-27 15 -11 22 -35 11 -35 -2 0 -32 18 -66 40 -34 22 -66 40 -71 40 -12 0 -10
-24 5 -40 6 -8 -1 -3 -18 12 -20 17 -35 23 -45 18 -8 -5 -23 -11 -32 -14 -16
-5 -18 -21 -20 -128 l-2 -123 -6 120 -5 120 -27 3 c-16 2 -28 7 -28 12 0 6
-20 7 -44 4 -24 -4 -52 -2 -64 5 -17 9 -22 8 -27 -9 -15 -48 31 -88 80 -70 31
12 46 -8 19 -27 -10 -8 -19 -18 -19 -23 0 -4 -3 -12 -8 -16 -4 -4 -7 -21 -7
-39 0 -17 -7 -40 -15 -51 -8 -10 -15 -38 -15 -61 0 -23 -5 -45 -10 -48 -28
-17 -1 -25 84 -25 l95 0 4 52 3 53 2 -52 2 -53 60 0 c60 0 70 -6 48 -28 -9 -9
-3 -12 28 -12 22 0 49 -7 60 -16 10 -8 13 -12 5 -8 -9 4 -12 3 -7 -4 3 -5 0
-13 -6 -16 -7 -3 1 -3 17 1 40 7 75 30 75 48 0 11 11 15 36 15 32 0 36 -3 31
-21 -12 -47 -5 -49 159 -49 127 0 154 2 154 14 0 8 -4 18 -10 21 -17 10 -11
23 14 29 29 7 40 31 25 57 -8 15 -129 586 -168 789 -11 62 0 229 18 258 6 10
15 9 46 -4 40 -16 54 -15 117 8 l37 14 -33 50 c-19 27 -52 67 -75 89 -23 21
-41 45 -41 52 0 7 -7 13 -15 13 -7 0 -18 7 -23 16 -7 13 -23 16 -68 15 -33 -1
-86 -2 -119 -3 -33 -1 -75 2 -92 6 -30 8 -37 5 -71 -30z m199 3 c8 -3 -54
-197 -63 -197 -11 0 -39 101 -43 158 l-4 49 52 -4 c29 -3 55 -5 58 -6z m109
-164 c8 -7 -40 -43 -58 -43 -20 0 -52 29 -52 47 0 11 11 12 53 7 28 -4 54 -9
57 -11z m-160 -68 c0 -8 -7 -15 -15 -15 -9 0 -12 6 -9 15 4 8 10 15 15 15 5 0
9 -7 9 -15z m50 -199 c0 -32 -13 -46 -41 -46 -18 0 -29 5 -29 14 0 8 -3 21 -6
30 -5 13 2 16 35 16 29 0 41 -4 41 -14z m48 -294 c64 -122 179 -464 169 -503
-3 -11 1 -23 9 -27 12 -6 11 -11 -2 -31 -15 -21 -22 -23 -68 -17 -55 6 -102
34 -100 60 1 9 -4 16 -11 16 -7 0 -18 6 -24 14 -7 8 -30 17 -51 21 -21 4 -41
13 -44 22 -7 16 0 257 9 338 9 74 26 157 37 178 9 17 11 18 28 2 10 -9 31 -42
48 -73z m-321 -350 c31 -13 37 -20 28 -29 -10 -9 -20 -5 -46 17 -40 34 -36 37
18 12z"/>
<path d="M720 1040 c0 -14 7 -20 23 -20 18 0 19 2 7 10 -13 9 -13 11 0 20 12
8 11 10 -7 10 -16 0 -23 -6 -23 -20z"/>
<path d="M326 1312 c-3 -5 -1 -46 3 -93 l8 -84 2 93 c1 87 -1 103 -13 84z"/>
<path d="M524 646 c-9 -22 26 -56 57 -56 28 0 23 19 -7 26 -14 4 -29 16 -34
28 -8 20 -8 20 -16 2z"/>
<path d="M80 593 c1 -16 28 -43 44 -43 23 0 20 16 -6 34 -24 17 -38 20 -38 9z"/>
<path d="M270 584 l-25 -15 34 5 c18 3 42 6 52 6 11 0 19 5 19 10 0 15 -52 11
-80 -6z"/>
<path d="M1141 115 c19 -19 96 -34 85 -17 -4 7 -18 12 -31 12 -13 0 -27 5 -30
10 -3 6 -14 10 -23 10 -15 0 -15 -2 -1 -15z"/>
</g>
</svg>
