<svg width="64" height="64" viewBox="0 0 64 64" fill="none" xmlns="http://www.w3.org/2000/svg">
<rect width="64" height="64" rx="8" fill="#1C9E3C"/>
<path d="M16.0037 47.3726C16.0049 47.4561 16.0225 47.5387 16.0556 47.6154C16.0886 47.6922 16.1365 47.7617 16.1964 47.8199C16.2563 47.8782 16.3271 47.924 16.4048 47.9549C16.4825 47.9858 16.5654 48.0011 16.649 47.9999H46.3489C46.4325 48.0012 46.5156 47.986 46.5933 47.9552C46.6711 47.9243 46.742 47.8785 46.802 47.8202C46.862 47.7619 46.9099 47.6924 46.9431 47.6156C46.9762 47.5388 46.9938 47.4562 46.995 47.3726V46.6237C47.0097 46.3977 47.0399 45.2719 46.2975 44.0262C45.8292 43.2406 45.1497 42.5627 44.2776 42.0096C43.2228 41.3406 41.8809 40.8569 40.2575 40.5656C39.4334 40.4497 38.616 40.2906 37.8086 40.0892C35.6614 39.541 35.4738 39.0556 35.4722 39.0507C35.4598 39.0028 35.4417 38.9565 35.4183 38.9128C35.4004 38.8231 35.3572 38.4821 35.4404 37.5692C35.6508 35.2499 36.8949 33.8794 37.8942 32.7781C38.2091 32.4314 38.5069 32.1026 38.7361 31.7812C39.7256 30.3944 39.817 28.8158 39.8211 28.7179C39.8248 28.5445 39.8008 28.3715 39.7501 28.2056C39.6522 27.9038 39.4703 27.7161 39.3365 27.5774C39.3048 27.5457 39.2741 27.5131 39.2443 27.4795C39.2345 27.4681 39.2084 27.4371 39.2321 27.2813C39.3121 26.7794 39.3673 26.2738 39.3977 25.7664C39.4434 24.949 39.4784 23.7269 39.2672 22.5367C39.2361 22.3093 39.1892 22.0844 39.1268 21.8636C38.9041 21.0446 38.5468 20.3446 38.05 19.7671C37.9644 19.6733 35.8858 17.4829 29.8515 17.0342C29.017 16.9722 28.1922 17.0056 27.3797 17.0472C27.1394 17.0526 26.9003 17.0821 26.6659 17.1353C26.0426 17.296 25.8762 17.6909 25.833 17.912C25.7604 18.2791 25.8876 18.563 25.9717 18.7522C25.9839 18.7791 25.9994 18.8126 25.9725 18.9007C25.833 19.1177 25.6119 19.3135 25.3876 19.4987C25.3223 19.5533 23.8099 20.8586 23.7267 22.5628C23.5023 23.8591 23.5186 25.8782 23.7838 27.274C23.8001 27.3515 23.8221 27.4657 23.7854 27.5432C23.4999 27.7985 23.1768 28.0881 23.1776 28.7489C23.1809 28.8158 23.2731 30.3935 24.2626 31.7812C24.491 32.1026 24.7888 32.4306 25.1029 32.7773L25.1045 32.7781C26.1038 33.8794 27.3479 35.2499 27.5583 37.5684C27.6407 38.4821 27.5975 38.8223 27.5804 38.9128C27.5567 38.9564 27.5383 39.0027 27.5257 39.0507C27.5249 39.0556 27.3381 39.5394 25.2008 40.0868C23.9673 40.4025 22.7534 40.564 22.7167 40.5681C21.139 40.8348 19.8052 41.3072 18.7521 41.9721C17.8833 42.5211 17.2021 43.2014 16.7289 43.9928C15.9719 45.2572 15.9923 46.4091 16.0029 46.6196V47.3726H16.0037Z" stroke="white" stroke-width="4" stroke-linejoin="round"/>
</svg>
