<svg width="24" height="24" viewBox="0 0 24 24" fill="none" xmlns="http://www.w3.org/2000/svg">
<path fill-rule="evenodd" clip-rule="evenodd" d="M12 4C7.58172 4 4 7.58172 4 12C4 16.4183 7.58172 20 12 20C16.4183 20 20 16.4183 20 12C20 7.58172 16.4183 4 12 4ZM2 12C2 6.47715 6.47715 2 12 2C17.5228 2 22 6.47715 22 12C22 17.5228 17.5228 22 12 22C6.47715 22 2 17.5228 2 12Z" fill="white"/>
<path fill-rule="evenodd" clip-rule="evenodd" d="M12 5C12.5523 5 13 5.44772 13 6V11.5546V11.5546C13.0001 11.8481 13.0887 12.0898 13.1941 12.2321L14.8036 14.4048C15.1323 14.8486 15.039 15.4748 14.5952 15.8036C14.1514 16.1323 13.5252 16.039 13.1964 15.5952L11.5872 13.4227V13.4227C11.1925 12.8901 11.0001 12.2161 11 11.555V6C11 5.44772 11.4477 5 12 5Z" fill="white"/>
</svg>
