<svg width="22" height="22" viewBox="0 0 22 22" fill="none" xmlns="http://www.w3.org/2000/svg">
<path d="M12.9706 21.5H9.03112C8.78428 21.5 8.54485 21.4182 8.35253 21.2681C8.16021 21.118 8.02655 20.9086 7.97373 20.6747L7.53324 18.6965C6.94562 18.4467 6.38844 18.1343 5.87193 17.7652L3.88378 18.3794C3.64845 18.4522 3.39453 18.4447 3.16419 18.3582C2.93385 18.2717 2.74094 18.1113 2.61751 17.9037L0.643425 14.5952C0.521285 14.3874 0.475436 14.1456 0.513381 13.9093C0.551325 13.673 0.670817 13.4561 0.852306 13.2942L2.39456 11.9292C2.32442 11.3109 2.32442 10.687 2.39456 10.0686L0.852306 8.7068C0.67056 8.54486 0.550906 8.32783 0.512955 8.09127C0.475004 7.85472 0.521008 7.61267 0.643425 7.4048L2.61318 4.09415C2.73662 3.88658 2.92952 3.72622 3.15986 3.6397C3.39021 3.55317 3.64412 3.54569 3.87945 3.6185L5.8676 4.23275C6.13168 4.04375 6.40658 3.86735 6.69014 3.70775C6.96396 3.55865 7.24535 3.4232 7.53324 3.30245L7.97481 1.32635C8.02738 1.09241 8.16078 0.882922 8.3529 0.732626C8.54502 0.58233 8.78432 0.500252 9.03112 0.5H12.9706C13.2174 0.500252 13.4567 0.58233 13.6488 0.732626C13.841 0.882922 13.9744 1.09241 14.0269 1.32635L14.4728 3.3035C15.0601 3.55329 15.6169 3.86566 16.1331 4.23485L18.1223 3.6206C18.3575 3.54806 18.6111 3.55568 18.8413 3.64219C19.0714 3.7287 19.2641 3.88891 19.3875 4.09625L21.3572 7.4069C21.6083 7.83425 21.5217 8.375 21.1484 8.70785L19.6061 10.0728C19.6762 10.6912 19.6762 11.3151 19.6061 11.9334L21.1484 13.2984C21.5217 13.6323 21.6083 14.172 21.3572 14.5994L19.3875 17.91C19.264 18.1176 19.0711 18.278 18.8408 18.3645C18.6105 18.451 18.3565 18.4585 18.1212 18.3857L16.1331 17.7714C15.617 18.1404 15.0601 18.4524 14.4728 18.7017L14.0269 20.6747C13.9742 20.9084 13.8407 21.1177 13.6486 21.2678C13.4565 21.4179 13.2173 21.4998 12.9706 21.5ZM6.26047 15.4404L7.14794 16.0704C7.34817 16.2132 7.55597 16.3445 7.77242 16.4642C7.97589 16.5787 8.18369 16.6815 8.39906 16.775L9.40884 17.2045L9.90344 19.4H12.1005L12.5951 17.2034L13.6048 16.774C14.0453 16.585 14.4642 16.3508 14.8527 16.0746L15.7402 15.4446L17.9502 16.1271L19.0487 14.2812L17.3355 12.7661L17.4567 11.7035C17.5108 11.2383 17.5108 10.769 17.4567 10.3049L17.3355 9.2423L19.0498 7.724L17.9502 5.87705L15.7413 6.55955L14.8527 5.92955C14.464 5.65203 14.0456 5.41582 13.6048 5.225L12.5951 4.79555L12.1005 2.6H9.90344L9.40559 4.7966L8.39906 5.225C7.95769 5.41254 7.53917 5.64708 7.15119 5.9243L6.26264 6.5543L4.05478 5.8718L2.9541 7.724L4.66735 9.23705L4.54614 10.3007C4.49202 10.7658 4.49202 11.2352 4.54614 11.6993L4.66735 12.7619L2.9541 14.2771L4.05262 16.1229L6.26047 15.4404ZM10.9965 15.2C9.84839 15.2 8.74725 14.7575 7.93539 13.9698C7.12352 13.1822 6.66741 12.1139 6.66741 11C6.66741 9.88609 7.12352 8.8178 7.93539 8.03015C8.74725 7.2425 9.84839 6.8 10.9965 6.8C12.1447 6.8 13.2458 7.2425 14.0577 8.03015C14.8696 8.8178 15.3257 9.88609 15.3257 11C15.3257 12.1139 14.8696 13.1822 14.0577 13.9698C13.2458 14.7575 12.1447 15.2 10.9965 15.2ZM10.9965 8.9C10.5727 8.90042 10.1583 9.02156 9.80471 9.2484C9.45117 9.47524 9.17405 9.7978 9.00774 10.176C8.84143 10.5543 8.79325 10.9716 8.86918 11.3762C8.94511 11.7807 9.1418 12.1548 9.43486 12.4519C9.72791 12.749 10.1044 12.9561 10.5177 13.0475C10.931 13.1389 11.3628 13.1105 11.7596 12.966C12.1564 12.8214 12.5008 12.567 12.7499 12.2343C12.9991 11.9016 13.142 11.5053 13.1611 11.0945V11.5145V11C13.1611 10.443 12.9331 9.9089 12.5271 9.51508C12.1212 9.12125 11.5706 8.9 10.9965 8.9Z" fill="black"/>
</svg>
