<svg width="18" height="20" viewBox="0 0 18 20" fill="none" xmlns="http://www.w3.org/2000/svg">
<path d="M11.986 2C11.9245 1.44999 11.6625 0.941936 11.25 0.572972C10.8375 0.204007 10.3034 1.67206e-05 9.75 0H6.25C5.69656 1.67206e-05 5.16255 0.204007 4.75004 0.572972C4.33754 0.941936 4.07549 1.44999 4.014 2H2.25C1.65326 2 1.08097 2.23705 0.65901 2.65901C0.237053 3.08097 0 3.65326 0 4.25V17.75C0 18.3467 0.237053 18.919 0.65901 19.341C1.08097 19.7629 1.65326 20 2.25 20H4.5C4.17473 19.5676 3.9992 19.0411 4 18.5H2.25C2.05109 18.5 1.86032 18.421 1.71967 18.2803C1.57902 18.1397 1.5 17.9489 1.5 17.75V4.25C1.5 4.05109 1.57902 3.86032 1.71967 3.71967C1.86032 3.57902 2.05109 3.5 2.25 3.5H4.379C4.783 4.103 5.47 4.5 6.25 4.5H9.75C10.53 4.5 11.217 4.103 11.621 3.5H13.75C13.9489 3.5 14.1397 3.57902 14.2803 3.71967C14.421 3.86032 14.5 4.05109 14.5 4.25V17C14.8669 16.5105 15.4006 16.1725 16 16.05V4.25C16 3.95453 15.9418 3.66194 15.8287 3.38896C15.7157 3.11598 15.5499 2.86794 15.341 2.65901C15.1321 2.45008 14.884 2.28434 14.611 2.17127C14.3381 2.0582 14.0455 2 13.75 2H11.986ZM11.995 2.096L12 2.25C12 2.198 11.998 2.147 11.995 2.096V2.096ZM6.25 1.5H9.75C9.94891 1.5 10.1397 1.57902 10.2803 1.71967C10.421 1.86032 10.5 2.05109 10.5 2.25C10.5 2.44891 10.421 2.63968 10.2803 2.78033C10.1397 2.92098 9.94891 3 9.75 3H6.25C6.05109 3 5.86032 2.92098 5.71967 2.78033C5.57902 2.63968 5.5 2.44891 5.5 2.25C5.5 2.05109 5.57902 1.86032 5.71967 1.71967C5.86032 1.57902 6.05109 1.5 6.25 1.5ZM8 18.5C8 18.8978 7.84196 19.2794 7.56066 19.5607C7.27936 19.842 6.89782 20 6.5 20C6.10218 20 5.72064 19.842 5.43934 19.5607C5.15804 19.2794 5 18.8978 5 18.5C5 18.1022 5.15804 17.7206 5.43934 17.4393C5.72064 17.158 6.10218 17 6.5 17C6.89782 17 7.27936 17.158 7.56066 17.4393C7.84196 17.7206 8 18.1022 8 18.5ZM11.5 20C11.8978 20 12.2794 19.842 12.5607 19.5607C12.842 19.2794 13 18.8978 13 18.5C13 18.1022 12.842 17.7206 12.5607 17.4393C12.2794 17.158 11.8978 17 11.5 17C11.1022 17 10.7206 17.158 10.4393 17.4393C10.158 17.7206 10 18.1022 10 18.5C10 18.8978 10.158 19.2794 10.4393 19.5607C10.7206 19.842 11.1022 20 11.5 20V20ZM16.5 20C16.8978 20 17.2794 19.842 17.5607 19.5607C17.842 19.2794 18 18.8978 18 18.5C18 18.1022 17.842 17.7206 17.5607 17.4393C17.2794 17.158 16.8978 17 16.5 17C16.1022 17 15.7206 17.158 15.4393 17.4393C15.158 17.7206 15 18.1022 15 18.5C15 18.8978 15.158 19.2794 15.4393 19.5607C15.7206 19.842 16.1022 20 16.5 20Z" fill="black"/>
</svg>
